<svg width="32" height="34" viewBox="0 0 32 34" fill="none" xmlns="http://www.w3.org/2000/svg">
<path fill-rule="evenodd" clip-rule="evenodd" d="M10.7341 32.2952V32.2952C9.23414 32.6361 7.80232 31.6816 7.46141 30.2498C7.46141 30.2498 7.46141 30.2498 7.46141 30.1816L5.48414 20.7043C5.14323 19.2043 6.09777 17.7725 7.59777 17.4316V17.4316C9.09777 17.0907 10.5296 18.0452 10.8705 19.477C10.8705 19.477 10.8705 19.477 10.8705 19.5452L12.8478 29.0225C13.1887 30.5225 12.2341 31.9543 10.7341 32.2952Z" stroke="#6B2C90" stroke-width="2"/>
<path fill-rule="evenodd" clip-rule="evenodd" d="M21.2345 32.2955V32.2955C19.7345 31.9546 18.7799 30.5228 19.1209 29.0228L21.0981 19.5455C21.3709 18.0455 22.8027 17.091 24.3027 17.4319C24.3027 17.4319 24.3027 17.4319 24.3709 17.4319V17.4319C25.8709 17.7728 26.8254 19.2046 26.4845 20.7046L24.5072 30.1819C24.1663 31.6819 22.7345 32.6364 21.2345 32.2955V32.2955Z" stroke="#6B2C90" stroke-width="2"/>
<path d="M3.77957 26.9091L1.05229 16V16C0.302294 7.68182 7.73411 1 15.9841 1V1C24.2341 1 31.5977 7.75 30.9159 16V16L28.1887 26.9091" stroke="#6B2C90" stroke-width="2"/>
</svg>
