<svg width="28" height="27" viewBox="0 0 28 27" fill="none" xmlns="http://www.w3.org/2000/svg">
<path fill-rule="evenodd" clip-rule="evenodd" d="M13 15C14.1046 15 15 14.1046 15 13C15 11.8954 14.1046 11 13 11C11.8954 11 11 11.8954 11 13C11 14.1046 11.8954 15 13 15Z" stroke="#501D6E" stroke-width="2"/>
<path d="M7.20069 23.8933C1.22147 20.4786 -0.789717 12.9555 2.74346 7.08645C6.27663 1.21739 13.8865 -0.756743 19.8114 2.71134C25.7363 6.17941 27.8018 13.6491 24.2686 19.5182C23.1815 21.3856 21.5508 22.9329 19.6483 24" stroke="#501D6E" stroke-width="2"/>
<path d="M9.66488 19.9465C6.12326 17.8052 4.94272 13.2549 7.03549 9.6682C9.12827 6.08151 13.7431 4.95733 17.3384 7.0451C20.9337 9.13287 22.0606 13.7902 19.9141 17.3234C19.2702 18.4476 18.3043 19.3576 17.1774 20" stroke="#501D6E" stroke-width="2"/>
<path fill-rule="evenodd" clip-rule="evenodd" d="M15.151 26H11.925L11.0194 18.7778C10.8496 17.4444 11.8118 16.2222 13.1701 16C13.2833 16 13.3965 16 13.5097 16V16C14.8681 16 16 17.1111 16 18.4444C16 18.5556 16 18.6667 16 18.7778L15.151 26Z" stroke="#501D6E" stroke-width="2"/>
</svg>
