<svg width="32" height="32" viewBox="0 0 32 32" fill="none" xmlns="http://www.w3.org/2000/svg">
<path d="M24.45 19.9438C23.6405 19.7797 22.7997 19.8783 22.05 20.225L19.3563 21.3875C17.6242 20.3129 16.0219 19.042 14.5812 17.6C13.1439 16.1396 11.885 14.5136 10.8312 12.7562L11.7125 10.3313C12.0243 9.59563 12.105 8.78255 11.9438 8L10.15 1L1 2.31875L1.0375 2.875C1.48585 10.1699 4.56606 17.0543 9.70625 22.25C14.9548 27.5319 21.993 30.6541 29.4313 31H30.025L31 21.475L24.45 19.9438ZM28.9062 29.6938C21.9983 29.2514 15.4881 26.3074 10.5938 21.4125C5.7982 16.5666 2.86762 10.183 2.31875 3.3875L9.19375 2.39375L10.6812 8.275C10.7874 8.81576 10.7264 9.37604 10.5063 9.88125L9.4375 12.875L9.59375 13.1313C10.7346 15.0825 12.1116 16.8857 13.6937 18.5C15.2798 20.0832 17.0484 21.4721 18.9625 22.6375L19.2437 22.8188L22.5687 21.3875C23.0728 21.1485 23.6404 21.0784 24.1875 21.1875L29.6562 22.4375L28.9062 29.6938Z" fill="#6B2C90" stroke="#6B2C90"/>
</svg>
