<?xml version="1.0" standalone="no"?>
<!DOCTYPE svg PUBLIC "-//W3C//DTD SVG 1.1//EN" "http://www.w3.org/Graphics/SVG/1.1/DTD/svg11.dtd" >
<svg xmlns="http://www.w3.org/2000/svg" xmlns:xlink="http://www.w3.org/1999/xlink" version="1.1">
<metadata>
Created by FontForge 20170924 at Mon Jun 12 15:14:52 2017
 By www-data
Copyright 2017 Fontstore Pte Ltd. All rights reserved.
</metadata>
<defs>
<font id="NeurialGrotesk-Light" horiz-adv-x="600" >
  <font-face 
    font-family="Neurial Grotesk Light"
    font-weight="300"
    font-stretch="normal"
    units-per-em="1000"
    panose-1="0 0 4 0 0 0 0 0 0 0"
    ascent="800"
    descent="-200"
    x-height="500"
    cap-height="700"
    bbox="-580 -238 1656 1039"
    underline-thickness="80"
    underline-position="-115"
    stemh="58"
    stemv="60"
    unicode-range="U+0020-FB03"
  />
<missing-glyph horiz-adv-x="589" 
d="M41 707h507v-707h-507v707z" />
    <glyph glyph-name="f_f" unicode="ff" horiz-adv-x="635" 
d="M545 677c-51 0 -62 -27 -62 -67v-110h128v-52h-128v-448h-58v448h-256v-448h-58v448h-90v52h90v110c0 89 46 120 123 120h63v-53h-66c-51 0 -62 -27 -62 -67v-110h256v110c0 89 46 120 123 120h63v-53h-66z" />
    <glyph glyph-name="fi" unicode="fi" horiz-adv-x="559" 
d="M482 500v-500h-57v448h-256v-448h-58v448h-90v52h90v110c0 89 46 120 123 120h63v-53h-66c-51 0 -62 -27 -62 -67v-110h313zM411 720h85v-78h-85v78z" />
    <glyph glyph-name="fl" unicode="fl" horiz-adv-x="531" 
d="M21 500h90v110c0 89 46 120 123 120h63v-53h-66c-51 0 -62 -27 -62 -67v-110h128v-52h-128v-448h-58v448h-90v52zM454 730v-730h-57v730h57z" />
    <glyph glyph-name="f_f_i" unicode="ffi" horiz-adv-x="873" 
d="M796 500v-500h-57v448h-256v-448h-58v448h-256v-448h-58v448h-90v52h90v110c0 89 46 120 123 120h63v-53h-66c-51 0 -62 -27 -62 -67v-110h256v110c0 89 46 120 123 120h63v-53h-66c-51 0 -62 -27 -62 -67v-110h313zM725 720h85v-78h-85v78z" />
    <glyph glyph-name=".notdef" horiz-adv-x="589" 
d="M41 707h507v-707h-507v707z" />
    <glyph glyph-name="space" unicode=" " horiz-adv-x="200" 
 />
    <glyph glyph-name="exclam" unicode="!" horiz-adv-x="247" 
d="M90 500v200h64v-200c1 -99 -2 -198 -9 -297h-46c-7 99 -9 198 -9 297zM77 0v93h93v-93h-93z" />
    <glyph glyph-name="quotedbl" unicode="&#x22;" horiz-adv-x="382" 
d="M80 588v112h66v-112c-2 -46 -2 -82 -14 -128h-38c-12 46 -12 82 -14 128zM236 588v112h66v-112c-2 -46 -2 -82 -14 -128h-38c-12 46 -12 82 -14 128z" />
    <glyph glyph-name="numbersign" unicode="#" horiz-adv-x="594" 
d="M544 445h-98l-44 -195h107l-11 -56h-109l-45 -194h-58l44 194h-138l-44 -194h-59l45 194h-94l11 56h96l44 195h-105l10 55h109l46 200h58l-45 -200h137l46 200h59l-46 -200h94zM206 250h138l44 195h-138z" />
    <glyph glyph-name="dollar" unicode="$" horiz-adv-x="616" 
d="M565 184c0 -115 -100 -186 -232 -193v-94h-59v95c-136 11 -219 87 -219 195h66c0 -86 69 -140 194 -140c96 0 186 48 186 139c0 80 -52 115 -138 130l-117 21c-121 22 -177 90 -177 186c0 105 85 174 205 185v92h59v-91c136 -7 220 -84 220 -196h-66
c0 86 -64 140 -181 140c-91 0 -173 -44 -173 -132c0 -76 48 -110 130 -125l117 -21c125 -22 185 -91 185 -191z" />
    <glyph glyph-name="percent" unicode="%" horiz-adv-x="893" 
d="M188 349c-96 0 -148 73 -148 181c0 103 51 179 148 179c95 0 147 -72 147 -179c0 -106 -50 -181 -147 -181zM191 0l435 700h70l-436 -700h-69zM188 401c66 0 89 51 89 129c0 71 -23 127 -89 127c-64 0 -90 -51 -90 -127c0 -75 22 -129 90 -129zM705 -10
c-96 0 -148 72 -148 181c0 104 51 179 148 179c94 0 148 -73 148 -179c0 -105 -51 -181 -148 -181zM705 42c64 0 89 45 89 129c0 73 -21 127 -89 127c-66 0 -89 -49 -89 -127c0 -79 23 -129 89 -129z" />
    <glyph glyph-name="ampersand" unicode="&#x26;" horiz-adv-x="755" 
d="M681 59h45v-59h-47c-59 0 -93 13 -130 55l-19 21c-64 -64 -141 -86 -218 -86c-135 0 -228 68 -228 182c0 62 27 131 150 200l23 13l-11 12c-65 73 -84 119 -84 166c0 85 65 147 171 147c101 0 169 -57 169 -142c0 -57 -31 -112 -99 -155l-60 -38l185 -207
c27 49 45 119 47 185h61c0 -82 -26 -170 -68 -230l25 -28c24 -27 46 -36 88 -36zM222 562c0 -49 33 -88 71 -131l14 -15l56 32c60 35 79 79 79 115c0 56 -45 93 -111 93c-69 0 -109 -40 -109 -94zM310 44c59 0 132 18 183 74l-201 227l-28 -17c-96 -58 -118 -110 -118 -157
c0 -87 76 -127 164 -127z" />
    <glyph glyph-name="quotesingle" unicode="'" horiz-adv-x="226" 
d="M80 588v112h66v-112c-2 -46 -2 -82 -14 -128h-38c-12 46 -12 82 -14 128z" />
    <glyph glyph-name="parenleft" unicode="(" horiz-adv-x="259" 
d="M60 351c0 146 47 302 117 389h57c-67 -87 -115 -243 -115 -389c0 -145 48 -301 115 -389h-57c-70 87 -117 243 -117 389z" />
    <glyph glyph-name="parenright" unicode=")" horiz-adv-x="259" 
d="M140 351c0 146 -48 302 -115 389h57c70 -87 117 -243 117 -389s-47 -302 -117 -389h-57c67 88 115 244 115 389z" />
    <glyph glyph-name="asterisk" unicode="*" horiz-adv-x="320" 
d="M36 597l13 39l49 -16c23 -7 37 -15 49 -25c-8 13 -10 29 -10 53v52h43v-52c0 -24 -1 -40 -8 -53c11 10 24 18 47 25l49 16l16 -40l-50 -17c-24 -8 -42 -11 -56 -9c14 -8 26 -18 42 -39l31 -42l-34 -24l-30 40c-17 22 -24 38 -28 54c-2 -16 -10 -33 -26 -54l-30 -40
l-37 24l32 42c15 20 27 31 42 39c-15 -2 -31 0 -57 10z" />
    <glyph glyph-name="plus" unicode="+" 
d="M530 360v-60h-200v-200h-60v200h-200v60h200v200h60v-200h200z" />
    <glyph glyph-name="comma" unicode="," horiz-adv-x="217" 
d="M63 0v94h94v-94l-55 -112h-42l55 112h-52z" />
    <glyph glyph-name="hyphen" unicode="-" horiz-adv-x="413" 
d="M60 312h293v-59h-293v59z" />
    <glyph glyph-name="period" unicode="." horiz-adv-x="214" 
d="M60 0v94h94v-94h-94z" />
    <glyph glyph-name="slash" unicode="/" horiz-adv-x="324" 
d="M8 0l250 700h58l-250 -700h-58z" />
    <glyph glyph-name="zero" unicode="0" horiz-adv-x="650" 
d="M325 710c-178 0 -275 -140 -275 -360s97 -360 275 -360c177 0 275 140 275 360s-98 360 -275 360zM538 350c0 -184 -70 -306 -213 -306c-144 0 -213 122 -213 306s69 306 213 306c143 0 213 -122 213 -306z" />
    <glyph glyph-name="one" unicode="1" horiz-adv-x="341" 
d="M242 0h-60v635l-165 -87v64l165 88h60v-700z" />
    <glyph glyph-name="two" unicode="2" horiz-adv-x="529" 
d="M110 59h375v-59h-455v56l272 261c85 81 115 132 115 193c0 90 -52 146 -159 146c-88 0 -156 -60 -161 -143h-65c10 125 115 197 225 197c130 0 223 -71 223 -196c0 -81 -46 -147 -128 -225z" />
    <glyph glyph-name="three" unicode="3" horiz-adv-x="563" 
d="M381 363c88 -23 132 -96 132 -176c0 -120 -90 -197 -238 -197c-146 0 -237 80 -237 201h65c0 -89 60 -147 171 -147c109 0 175 56 175 144c0 90 -66 145 -174 145h-48v58h46c104 0 156 54 156 135s-59 130 -155 130c-111 0 -171 -58 -171 -147h-65c0 121 91 201 237 201
c131 0 218 -71 218 -184c0 -68 -35 -132 -112 -163z" />
    <glyph glyph-name="four" unicode="4" horiz-adv-x="562" 
d="M375 0v152h-350v54l340 494h70v-491h107v-57h-107v-152h-60zM95 209h280v407z" />
    <glyph glyph-name="five" unicode="5" horiz-adv-x="537" 
d="M271 467c138 0 231 -95 231 -238c0 -149 -99 -239 -236 -239c-122 0 -218 74 -231 185h65c13 -85 79 -131 166 -131c105 0 174 75 174 187c0 110 -68 182 -171 182c-69 0 -122 -32 -153 -82h-66l65 369h361v-58h-315l-43 -231c30 33 89 56 153 56z" />
    <glyph glyph-name="six" unicode="6" horiz-adv-x="590" 
d="M309 482c134 0 239 -91 239 -245c0 -149 -98 -247 -239 -247c-155 0 -259 110 -259 351c0 226 99 369 278 369c97 0 195 -51 222 -162h-65c-28 71 -80 106 -165 106c-139 0 -203 -112 -209 -288c31 70 105 116 198 116zM310 46c113 0 176 87 176 191
c0 105 -63 189 -177 189c-108 0 -182 -75 -182 -186c0 -108 71 -194 183 -194z" />
    <glyph glyph-name="seven" unicode="7" horiz-adv-x="480" 
d="M393 641h-383v59h456v-56c-137 -185 -245 -433 -280 -644h-62c40 223 144 470 269 641z" />
    <glyph glyph-name="eight" unicode="8" 
d="M427 378c79 -30 128 -105 128 -187c0 -115 -99 -201 -255 -201s-255 86 -255 201c0 82 49 157 128 187c-65 32 -98 84 -98 152c0 111 91 180 225 180s225 -69 225 -180c0 -68 -33 -120 -98 -152zM135 530c0 -80 64 -131 165 -131s165 51 165 131s-64 128 -165 128
s-165 -48 -165 -128zM300 46c119 0 193 56 193 148c0 94 -74 153 -193 153s-193 -59 -193 -153c0 -92 74 -148 193 -148z" />
    <glyph glyph-name="nine" unicode="9" horiz-adv-x="588" 
d="M280 710c156 0 258 -120 258 -366c0 -192 -62 -354 -258 -354c-115 0 -203 67 -225 162h65c28 -72 87 -106 161 -106c142 0 197 120 197 249c0 13 -1 25 -2 38c-31 -70 -104 -115 -197 -115c-134 0 -239 91 -239 245c0 148 97 247 240 247zM459 460
c2 108 -69 194 -181 194c-113 0 -176 -87 -176 -191c0 -105 63 -189 177 -189c108 0 178 75 180 186z" />
    <glyph glyph-name="colon" unicode=":" horiz-adv-x="214" 
d="M60 406v94h94v-94h-94zM60 0v94h94v-94h-94z" />
    <glyph glyph-name="semicolon" unicode=";" horiz-adv-x="217" 
d="M63 406v94h94v-94h-94zM63 0v94h94v-94l-55 -112h-42l55 112h-52z" />
    <glyph glyph-name="less" unicode="&#x3c;" 
d="M496 573v-69l-337 -178l337 -176v-68l-396 210v70z" />
    <glyph glyph-name="equal" unicode="=" 
d="M109 465h382v-59h-382v59zM109 256h382v-59h-382v59z" />
    <glyph glyph-name="greater" unicode="&#x3e;" 
d="M104 82v69l337 178l-337 176v68l396 -210v-70z" />
    <glyph glyph-name="question" unicode="?" horiz-adv-x="492" 
d="M36 525c0 106 87 185 207 185c118 0 197 -77 197 -182c0 -165 -190 -182 -190 -310h-58c0 160 184 170 184 312c0 79 -60 124 -136 124c-91 0 -140 -59 -140 -129h-64zM174 0v94h95v-94h-95z" />
    <glyph glyph-name="at" unicode="@" horiz-adv-x="854" 
d="M460 709c198 0 354 -129 354 -325c0 -157 -81 -256 -185 -256c-67 0 -112 33 -117 89c-20 -38 -66 -73 -127 -73c-75 0 -136 53 -136 160c0 109 69 215 178 215c60 0 104 -32 115 -79l18 55h42l-44 -210c-15 -77 17 -114 75 -114c77 0 126 92 126 212
c0 162 -118 281 -297 281c-217 0 -365 -174 -365 -378c0 -164 96 -304 293 -304c67 0 128 16 186 43l19 -41c-49 -25 -115 -47 -201 -47c-225 0 -354 152 -354 351c0 238 183 421 420 421zM391 188c62 0 105 50 121 132c18 87 -8 156 -82 156c-88 0 -123 -99 -123 -173
c0 -66 23 -115 84 -115z" />
    <glyph glyph-name="A" unicode="A" horiz-adv-x="639" 
d="M563 0l-71 185h-346l-71 -185h-63l273 700h70l272 -700h-64zM169 243h300l-150 389z" />
    <glyph glyph-name="B" unicode="B" horiz-adv-x="659" 
d="M487 363c77 -25 125 -88 125 -174c0 -113 -83 -189 -220 -189h-310v700h283c139 0 221 -72 221 -178c0 -64 -30 -122 -99 -159zM524 515c0 80 -55 128 -159 128h-222v-255h237c86 0 144 45 144 127zM381 57c113 0 167 54 167 136c0 85 -56 139 -156 139h-249v-275h238z
" />
    <glyph glyph-name="C" unicode="C" horiz-adv-x="740" 
d="M379 49c116 0 196 51 243 163h68c-45 -133 -149 -221 -311 -221c-196 0 -329 147 -329 356c0 210 133 363 329 363c162 0 267 -87 311 -221h-68c-46 111 -129 163 -243 163c-163 0 -265 -127 -265 -304s103 -299 265 -299z" />
    <glyph glyph-name="D" unicode="D" horiz-adv-x="701" 
d="M82 0h219c227 0 350 144 350 350s-123 350 -350 350h-219v-700zM143 59v582h171c171 0 273 -116 273 -291s-102 -290 -273 -291h-171z" />
    <glyph glyph-name="E" unicode="E" horiz-adv-x="594" 
d="M143 59h411v-59h-472v700h451v-59h-390v-259h312v-58h-312v-265z" />
    <glyph glyph-name="F" unicode="F" horiz-adv-x="562" 
d="M532 641h-389v-270h353v-58h-353v-313h-61v700h450v-59z" />
    <glyph glyph-name="G" unicode="G" horiz-adv-x="758" 
d="M395 374h299v-375h-48l-13 123c-51 -88 -147 -131 -252 -131c-197 0 -331 147 -331 356c0 210 134 363 331 363c163 0 274 -88 312 -221h-68c-42 111 -129 163 -244 163c-164 0 -267 -127 -267 -304s104 -299 267 -299c108 0 237 65 251 215v52h-237v58z" />
    <glyph glyph-name="H" unicode="H" horiz-adv-x="703" 
d="M560 325h-417v-325h-61v700h61v-316h417v316h61v-700h-61v325z" />
    <glyph glyph-name="I" unicode="I" horiz-adv-x="225" 
d="M143 700v-700h-61v700h61z" />
    <glyph glyph-name="J" unicode="J" horiz-adv-x="533" 
d="M90 190c0 -85 60 -142 151 -142c90 0 151 52 151 152v500h61v-500c0 -126 -85 -210 -212 -210c-126 0 -211 80 -211 200h60z" />
    <glyph glyph-name="K" unicode="K" horiz-adv-x="621" 
d="M82 0v700h60v-440l382 440h73l-267 -305l287 -395h-74l-254 348l-147 -164v-184h-60z" />
    <glyph glyph-name="L" unicode="L" horiz-adv-x="539" 
d="M143 59h366v-59h-427v700h61v-641z" />
    <glyph glyph-name="M" unicode="M" horiz-adv-x="857" 
d="M428 71l280 629h67v-700h-61v425c0 49 1 103 8 157l-264 -582h-62l-260 582c6 -53 6 -108 7 -157v-425h-61v700h65z" />
    <glyph glyph-name="N" unicode="N" horiz-adv-x="704" 
d="M82 0v700h67l415 -607v607h58v-700h-65l-417 607v-607h-58z" />
    <glyph glyph-name="O" unicode="O" horiz-adv-x="760" 
d="M381 -9c-197 0 -331 147 -331 356c0 210 134 363 331 363s329 -153 329 -363c0 -209 -132 -356 -329 -356zM381 49c163 0 265 122 265 299s-102 304 -265 304c-164 0 -267 -127 -267 -304s104 -299 267 -299z" />
    <glyph glyph-name="P" unicode="P" horiz-adv-x="630" 
d="M82 0v700h266c158 0 242 -100 242 -220s-84 -219 -242 -219h-205v-261h-61zM143 319h217c108 0 166 65 166 159s-59 164 -166 164h-217v-323z" />
    <glyph glyph-name="Q" unicode="Q" horiz-adv-x="764" 
d="M673 57h54v-57h-60c-47 0 -75 11 -98 47c-51 -36 -115 -56 -188 -56c-197 0 -331 147 -331 356c0 210 134 363 331 363s329 -153 329 -363c0 -106 -34 -196 -93 -259c15 -25 26 -31 56 -31zM114 348c0 -177 104 -299 267 -299c64 0 118 19 161 52l-17 34
c-14 29 -25 44 -56 44h-75v55h94c61 0 76 -41 92 -72l7 -14c38 51 59 120 59 200c0 177 -102 304 -265 304c-164 0 -267 -127 -267 -304z" />
    <glyph glyph-name="R" unicode="R" horiz-adv-x="642" 
d="M82 0v700h271c158 0 242 -85 242 -218c0 -106 -59 -188 -172 -211l155 -271h-71l-152 264h-213v-264h-60zM142 322h220c109 0 169 57 169 160s-60 160 -169 160h-220v-320z" />
    <glyph glyph-name="S" unicode="S" horiz-adv-x="589" 
d="M545 184c0 -121 -111 -194 -254 -194c-158 0 -256 79 -256 197h66c0 -86 69 -140 194 -140c96 0 186 48 186 139c0 80 -52 115 -138 130l-117 21c-121 22 -177 90 -177 186c0 116 103 187 242 187c149 0 242 -79 242 -197h-66c0 86 -64 140 -181 140
c-91 0 -173 -44 -173 -132c0 -76 48 -110 130 -125l117 -21c125 -22 185 -91 185 -191z" />
    <glyph glyph-name="T" unicode="T" horiz-adv-x="605" 
d="M332 641v-641h-60v641h-248v59h557v-59h-249z" />
    <glyph glyph-name="U" unicode="U" horiz-adv-x="691" 
d="M137 700v-436c0 -137 74 -216 208 -216s208 79 208 216v436h61v-443c0 -162 -108 -267 -269 -267s-268 104 -268 267v443h60z" />
    <glyph glyph-name="V" unicode="V" horiz-adv-x="670" 
d="M335 72l259 628h64l-289 -700h-70l-287 700h67z" />
    <glyph glyph-name="W" unicode="W" horiz-adv-x="952" 
d="M221 0l-203 700h63l178 -615l183 615h64l185 -618l180 618h63l-209 -700h-70l-183 604l-181 -604h-70z" />
    <glyph glyph-name="X" unicode="X" horiz-adv-x="609" 
d="M593 0h-76l-214 304l-213 -304h-71l244 351l-247 349h76l214 -304l213 304h71l-244 -351z" />
    <glyph glyph-name="Y" unicode="Y" horiz-adv-x="609" 
d="M275 235l-260 465h75l217 -399l214 399h73l-259 -465v-235h-60v235z" />
    <glyph glyph-name="Z" unicode="Z" horiz-adv-x="576" 
d="M109 59h432v-59h-506v56l417 585h-407v59h481v-56z" />
    <glyph glyph-name="bracketleft" unicode="[" horiz-adv-x="281" 
d="M77 750h179v-44h-121v-712h121v-44h-179v800z" />
    <glyph glyph-name="backslash" unicode="\" horiz-adv-x="324" 
d="M316 0h-58l-250 700h58z" />
    <glyph glyph-name="bracketright" unicode="]" horiz-adv-x="281" 
d="M146 -6v712h-121v44h179v-800h-179v44h121z" />
    <glyph glyph-name="asciicircum" unicode="^" 
d="M130 456l136 244h70l135 -244h-63l-107 193l-107 -193h-64z" />
    <glyph glyph-name="underscore" unicode="_" horiz-adv-x="458" 
d="M0 -34h458v-56h-458v56z" />
    <glyph glyph-name="grave" unicode="`" horiz-adv-x="173" 
d="M163 588h-61l-92 122h78z" />
    <glyph glyph-name="a" unicode="a" horiz-adv-x="556" 
d="M508 47h17v-47h-39c-37 0 -73 17 -76 73c-29 -48 -99 -83 -182 -83c-111 0 -180 59 -180 152c0 77 45 143 194 143h168v30c0 105 -60 145 -142 145c-85 0 -136 -39 -141 -105h-59c9 102 92 155 202 155c132 0 198 -77 198 -193v-227c0 -34 7 -43 40 -43zM233 40
c88 0 177 51 177 172v25h-168c-99 0 -134 -40 -134 -96c0 -67 51 -101 125 -101z" />
    <glyph glyph-name="b" unicode="b" horiz-adv-x="622" 
d="M326 510c126 0 240 -92 240 -261c0 -168 -113 -259 -240 -259c-76 0 -152 31 -192 95l-9 -85h-48v730h58v-322c39 67 112 102 191 102zM321 40c108 0 185 78 185 209c0 130 -75 210 -185 211c-103 1 -185 -82 -185 -213s82 -207 185 -207z" />
    <glyph glyph-name="c" unicode="c" horiz-adv-x="571" 
d="M462 345c-29 72 -89 115 -164 115c-103 0 -182 -70 -182 -209c0 -138 79 -208 182 -208c78 0 141 45 169 122h61c-30 -104 -115 -173 -231 -173c-144 0 -241 103 -241 259s97 259 241 259c113 0 197 -62 229 -165h-64z" />
    <glyph glyph-name="d" unicode="d" horiz-adv-x="623" 
d="M488 730h58v-730h-48l-10 91c-39 -65 -115 -101 -192 -101c-127 0 -240 89 -240 257c0 169 114 263 240 263c81 0 153 -36 192 -99v319zM301 40c103 0 185 76 185 207c0 130 -82 213 -185 212c-110 -1 -185 -83 -185 -212c0 -131 77 -207 185 -207z" />
    <glyph glyph-name="e" unicode="e" horiz-adv-x="597" 
d="M540 265v-32h-419c3 -127 84 -191 184 -191c76 0 140 38 169 112h59c-31 -98 -113 -162 -228 -162c-147 0 -244 103 -244 259s97 259 242 259c142 0 237 -99 237 -245zM303 461c-95 0 -170 -60 -181 -179h358c-7 119 -81 179 -177 179z" />
    <glyph glyph-name="f" unicode="f" horiz-adv-x="321" 
d="M21 500h90v110c0 89 46 120 123 120h63v-53h-66c-51 0 -62 -27 -62 -67v-110h128v-52h-128v-448h-58v448h-90v52z" />
    <glyph glyph-name="g" unicode="g" horiz-adv-x="597" 
d="M472 500h48v-486c0 -134 -90 -224 -229 -224c-116 0 -199 64 -220 162h63c19 -74 80 -112 157 -112c111 0 172 66 172 165v111c-31 -68 -104 -106 -184 -106c-122 0 -223 90 -223 249s99 251 223 251c77 0 149 -36 183 -101zM285 60c104 0 175 76 175 198
c0 121 -70 203 -175 203s-169 -83 -169 -203c0 -121 65 -198 169 -198z" />
    <glyph glyph-name="h" unicode="h" horiz-adv-x="571" 
d="M308 510c97 0 192 -52 192 -210v-300h-58v289c0 117 -56 166 -142 166c-108 0 -166 -78 -166 -181v-274h-57v730h57v-312c32 59 103 92 174 92z" />
    <glyph glyph-name="i" unicode="i" horiz-adv-x="211" 
d="M63 622v78h85v-78h-85zM77 0v500h57v-500h-57z" />
    <glyph glyph-name="j" unicode="j" horiz-adv-x="221" 
d="M73 622v78h85v-78h-85zM144 -82c0 -77 -45 -118 -109 -118h-66v53h56c51 0 62 31 62 66v581h57v-582z" />
    <glyph glyph-name="k" unicode="k" horiz-adv-x="491" 
d="M77 0v730h57v-496l264 266h74l-218 -221l220 -279h-72l-188 239l-80 -82v-157h-57z" />
    <glyph glyph-name="l" unicode="l" horiz-adv-x="211" 
d="M134 730v-730h-57v730h57z" />
    <glyph glyph-name="m" unicode="m" horiz-adv-x="853" 
d="M604 510c115 0 178 -77 178 -192v-318h-59v310c0 104 -50 145 -127 145c-75 0 -136 -49 -139 -155v-300h-57v304c0 97 -45 151 -126 151c-89 0 -140 -58 -140 -148v-307h-57v500h47l10 -61c28 50 86 71 140 71c79 0 139 -36 167 -101c31 71 100 101 163 101z" />
    <glyph glyph-name="n" unicode="n" horiz-adv-x="571" 
d="M303 510c123 0 197 -82 197 -210v-300h-58v289c0 113 -61 166 -148 166c-105 0 -160 -76 -160 -181v-274h-57v500h47l9 -84c30 62 93 94 170 94z" />
    <glyph glyph-name="o" unicode="o" horiz-adv-x="612" 
d="M56 249c0 154 99 261 250 261s250 -107 250 -261c0 -152 -99 -259 -250 -259s-250 107 -250 259zM116 250c0 -127 76 -209 190 -209s190 82 190 209c0 128 -76 210 -190 210s-190 -82 -190 -210z" />
    <glyph glyph-name="p" unicode="p" horiz-adv-x="622" 
d="M326 510c126 0 240 -92 240 -261c0 -168 -113 -259 -240 -259c-77 0 -153 32 -192 97v-287h-57v700h48l9 -90c40 66 115 100 192 100zM321 40c108 0 185 78 185 209c0 130 -75 210 -185 211c-103 1 -185 -82 -185 -213s82 -207 185 -207z" />
    <glyph glyph-name="q" unicode="q" horiz-adv-x="623" 
d="M498 500h48v-700h-58v287c-39 -65 -115 -97 -192 -97c-127 0 -240 89 -240 257c0 169 114 263 240 263c77 0 152 -35 192 -101zM301 40c103 0 185 76 185 207c0 130 -82 213 -185 212c-110 -1 -185 -83 -185 -212c0 -131 77 -207 185 -207z" />
    <glyph glyph-name="r" unicode="r" horiz-adv-x="357" 
d="M268 500h61v-55h-62c-88 0 -133 -61 -133 -161v-284h-57v500h47l9 -79c22 46 77 79 135 79z" />
    <glyph glyph-name="s" unicode="s" horiz-adv-x="506" 
d="M46 143h60c3 -66 58 -104 145 -104s143 35 143 96c0 51 -26 77 -86 85l-107 16c-94 14 -142 55 -142 134c0 85 79 140 186 140c113 0 195 -53 197 -153h-58c-2 68 -59 104 -138 104c-77 0 -131 -33 -131 -91c0 -48 29 -73 97 -82l106 -16c89 -13 134 -53 134 -132
c0 -95 -86 -150 -199 -150c-131 0 -204 60 -207 153z" />
    <glyph glyph-name="t" unicode="t" horiz-adv-x="324" 
d="M218 0c-63 0 -112 33 -112 115v333h-95v52h52c32 0 43 13 43 42v86h57v-128h119v-52h-119v-330c0 -33 12 -65 63 -65h55v-53h-63z" />
    <glyph glyph-name="u" unicode="u" horiz-adv-x="561" 
d="M427 500h57v-500h-47l-9 84c-30 -62 -92 -94 -165 -94c-119 0 -192 82 -192 210v300h58v-289c0 -113 60 -166 143 -166c101 0 155 76 155 181v274z" />
    <glyph glyph-name="v" unicode="v" horiz-adv-x="513" 
d="M76 500l181 -429l182 429h62l-215 -500h-59l-215 500h64z" />
    <glyph glyph-name="w" unicode="w" horiz-adv-x="765" 
d="M83 500l126 -435l147 435h58l147 -435l122 435h59l-146 -500h-68l-146 424l-142 -424h-68l-150 500h61z" />
    <glyph glyph-name="x" unicode="x" horiz-adv-x="488" 
d="M18 0l185 251l-185 249h69l157 -216l157 216h69l-185 -249l185 -251h-69l-157 218l-157 -218h-69z" />
    <glyph glyph-name="y" unicode="y" horiz-adv-x="492" 
d="M76 500l178 -475l164 476l62 -1l-210 -582c-35 -96 -83 -118 -155 -118h-89v53h91c60 0 97 33 97 100c0 15 -3 31 -9 47l-193 500h64z" />
    <glyph glyph-name="z" unicode="z" horiz-adv-x="487" 
d="M119 52h321v-52h-389v50l318 398h-322v52h389v-50z" />
    <glyph glyph-name="braceleft" unicode="{" horiz-adv-x="272" 
d="M147 639v-206c0 -40 -23 -65 -58 -83c36 -20 59 -46 59 -82v-199c0 -49 18 -72 57 -73l41 -1v-44l-50 1c-69 1 -106 47 -106 110v197c0 44 -27 61 -70 64v54c42 3 69 20 69 64v202c0 65 41 107 113 107h44v-44h-39c-41 0 -60 -25 -60 -67z" />
    <glyph glyph-name="bar" unicode="|" horiz-adv-x="287" 
d="M110 -80v850h67v-850h-67z" />
    <glyph glyph-name="braceright" unicode="}" horiz-adv-x="271" 
d="M75 749c69 -1 106 -47 106 -110v-197c0 -44 27 -61 70 -64v-54c-42 -3 -69 -20 -69 -64v-202c0 -65 -41 -107 -113 -107h-44v44h39c41 0 60 25 60 67v206c0 40 23 65 58 83c-36 20 -59 46 -59 82v199c0 49 -18 72 -57 73l-41 1v44z" />
    <glyph glyph-name="asciitilde" unicode="~" 
d="M316 336c33 -26 49 -44 84 -44c34 0 56 27 56 73h56c0 -79 -46 -133 -112 -133c-60 0 -89 33 -119 57c-28 23 -48 46 -83 46c-33 0 -56 -28 -56 -73h-55c0 78 45 133 111 133c60 0 93 -39 118 -59z" />
    <glyph glyph-name="exclamdown" unicode="&#xa1;" horiz-adv-x="247" 
d="M77 700h93v-93h-93v93zM92 200c0 99 2 198 9 297h46c7 -99 10 -198 9 -297v-200h-64v200z" />
    <glyph glyph-name="cent" unicode="&#xa2;" horiz-adv-x="552" 
d="M513 269c-28 -96 -102 -162 -204 -172v-97h-59v98c-126 14 -209 112 -209 252s83 238 209 252v98h59v-97c99 -10 173 -73 202 -164h-64c-29 72 -89 115 -164 115c-103 0 -182 -70 -182 -204s79 -203 182 -203c78 0 139 45 167 122h63z" />
    <glyph glyph-name="sterling" unicode="&#xa3;" horiz-adv-x="587" 
d="M481 143h66c0 -100 -60 -143 -154 -143h-341v56c74 35 110 92 110 158c0 42 -9 76 -22 107h-100v56h74c-21 44 -41 90 -41 153c0 110 85 180 216 180c122 0 227 -48 227 -174h-66c0 84 -73 118 -165 118c-96 0 -150 -51 -150 -126c0 -55 25 -100 49 -151h220l-6 -56h-191
c11 -31 19 -66 19 -107c0 -61 -25 -117 -78 -155h245c61 0 88 23 88 84z" />
    <glyph glyph-name="currency" unicode="&#xa4;" horiz-adv-x="615" 
d="M534 340c0 -53 -18 -102 -49 -140l70 -69l-41 -40l-69 69c-38 -29 -86 -47 -138 -47s-99 17 -137 47l-70 -69l-40 40l69 69c-30 39 -48 87 -48 140s18 101 48 140l-69 69l40 40l70 -69c38 30 85 47 137 47s100 -18 138 -47l69 69l41 -40l-70 -69c31 -38 49 -87 49 -140z
M307 167c97 0 170 78 170 173c0 96 -74 173 -170 173s-169 -78 -169 -173c0 -96 74 -173 169 -173z" />
    <glyph glyph-name="yen" unicode="&#xa5;" horiz-adv-x="609" 
d="M15 700h75l216 -338l214 338h74l-229 -349h176v-58h-206v-97h206v-58h-206v-138h-60v138h-206v58h206v97h-206v58h176z" />
    <glyph glyph-name="brokenbar" unicode="&#xa6;" horiz-adv-x="287" 
d="M110 420v350h67v-350h-67zM110 -80v350h67v-350h-67z" />
    <glyph glyph-name="section" unicode="&#xa7;" horiz-adv-x="465" 
d="M324 241c52 -21 84 -59 84 -117c0 -90 -81 -134 -179 -134c-112 0 -185 58 -188 146h55c3 -62 47 -100 131 -100c73 0 126 30 126 87c0 51 -40 73 -81 82l-84 20c-115 26 -135 82 -135 126c0 52 30 95 89 111c-75 29 -89 76 -89 113c0 81 66 135 169 135
c107 0 175 -60 177 -145h-53c-2 59 -48 99 -123 99c-70 0 -116 -34 -116 -89c0 -49 35 -68 92 -80l83 -18c77 -17 126 -57 126 -128c0 -53 -30 -92 -84 -108zM107 351c0 -49 35 -67 92 -79c106 -18 154 21 154 76c0 50 -40 72 -81 81c-119 19 -165 -23 -165 -78z" />
    <glyph glyph-name="dieresis" unicode="&#xa8;" horiz-adv-x="331" 
d="M30 605v77h84v-77h-84zM199 605v77h84v-77h-84z" />
    <glyph glyph-name="copyright" unicode="&#xa9;" horiz-adv-x="801" 
d="M401 710c-200 0 -361 -160 -361 -359c0 -198 162 -361 361 -361c196 0 360 164 360 361c0 199 -163 359 -360 359zM710 351c0 -167 -141 -310 -309 -310c-169 0 -310 140 -310 310c0 168 141 308 310 308c167 0 309 -142 309 -308zM200 350c0 123 82 214 196 214
c95 0 165 -51 192 -141h-52c-25 62 -71 95 -138 95c-88 0 -148 -69 -148 -168c0 -100 60 -168 148 -168c67 0 113 32 138 94h52c-27 -88 -97 -139 -192 -139c-114 0 -196 89 -196 213z" />
    <glyph glyph-name="ordfeminine" unicode="&#xaa;" horiz-adv-x="259" 
d="M134 710c60 0 100 -36 100 -98v-154h-38l-4 29c-9 -18 -38 -34 -75 -34c-49 0 -92 28 -92 80c0 43 29 77 94 77h71v5c0 39 -28 53 -59 53c-33 0 -60 -17 -60 -46h-42c0 61 53 88 105 88zM190 544v31h-69c-35 0 -52 -15 -52 -41c0 -32 27 -44 55 -44c39 0 66 22 66 54z
" />
    <glyph glyph-name="guillemotleft" unicode="&#xab;" horiz-adv-x="541" 
d="M218 60l-178 220l178 220h67l-178 -220l178 -220h-67zM438 60l-178 220l178 220h67l-178 -220l178 -220h-67z" />
    <glyph glyph-name="logicalnot" unicode="&#xac;" 
d="M472 343v-228h-61v167h-331v61h392z" />
    <glyph glyph-name="registered" unicode="&#xae;" horiz-adv-x="463" 
d="M423 518c0 -107 -86 -192 -191 -192s-192 87 -192 192s87 192 192 192c103 0 191 -83 191 -192zM386 518c0 86 -70 155 -154 155c-85 0 -155 -70 -155 -155s70 -155 155 -155c83 0 154 66 154 155zM194 486h45l35 -72h40l-39 77c24 9 41 31 41 61c0 39 -30 65 -69 65h-88
v-203h35v72zM241 586c23 0 39 -14 39 -35c0 -22 -14 -37 -39 -37h-47v72h47z" />
    <glyph glyph-name="macron" unicode="&#xaf;" horiz-adv-x="306" 
d="M20 695h266v-51h-266v51z" />
    <glyph glyph-name="degree" unicode="&#xb0;" horiz-adv-x="322" 
d="M161 458c-70 0 -126 56 -126 126s56 126 126 126s126 -56 126 -126s-56 -126 -126 -126zM161 508c42 0 76 34 76 76s-34 76 -76 76s-76 -34 -76 -76s34 -76 76 -76z" />
    <glyph glyph-name="plusminus" unicode="&#xb1;" 
d="M330 390h200v-60h-200v-180h-60v180h-200v60h200v180h60v-180zM70 0v60h460v-60h-460z" />
    <glyph glyph-name="acute" unicode="&#xb4;" horiz-adv-x="163" 
d="M10 588l75 122h78l-92 -122h-61z" />
    <glyph glyph-name="uni00B5" unicode="&#xb5;" horiz-adv-x="596" 
d="M527 55h19v-55h-21c-50 0 -92 24 -102 63c-33 -50 -91 -73 -150 -73c-58 0 -117 22 -145 70v-229h-58v669h58v-313c0 -94 72 -144 143 -146c73 -2 145 46 145 146v313h55v-375c0 -37 4 -66 56 -70z" />
    <glyph glyph-name="paragraph" unicode="&#xb6;" horiz-adv-x="554" 
d="M400 -65v708h-137v-708h-57v513h-62c-88 0 -126 68 -124 130c2 59 40 122 124 122h365v-57h-52v-708h-57z" />
    <glyph glyph-name="periodcentered" unicode="&#xb7;" horiz-adv-x="270" 
d="M135 256c-28 0 -52 24 -52 52c0 29 24 52 52 52s52 -23 52 -52c0 -28 -24 -52 -52 -52z" />
    <glyph glyph-name="cedilla" unicode="&#xb8;" horiz-adv-x="258" 
d="M101 6l32 -12l-18 -41c45 6 77 -20 77 -57c0 -41 -31 -67 -78 -67c-43 0 -79 28 -79 62h45c2 -16 15 -26 33 -26c17 0 31 9 31 28c0 25 -27 33 -55 24l-21 9z" />
    <glyph glyph-name="ordmasculine" unicode="&#xba;" horiz-adv-x="304" 
d="M26 581c0 74 51 129 125 129s127 -54 127 -129s-53 -128 -127 -128s-125 54 -125 128zM71 580c0 -50 31 -85 81 -85c49 0 81 35 81 85c0 51 -33 88 -81 88c-49 0 -81 -37 -81 -88z" />
    <glyph glyph-name="guillemotright" unicode="&#xbb;" horiz-adv-x="541" 
d="M103 500l178 -220l-178 -220h-67l178 220l-178 220h67zM323 500l178 -220l-178 -220h-67l178 220l-178 220h67z" />
    <glyph glyph-name="onequarter" unicode="&#xbc;" horiz-adv-x="671" 
d="M165 344h-53v301l-82 -41v54l82 42h53v-356zM68 0l450 700h58l-450 -700h-58zM545 0v72h-168v48l168 236h54v-236h54v-48h-54v-72h-54zM434 120h111v159z" />
    <glyph glyph-name="onehalf" unicode="&#xbd;" horiz-adv-x="723" 
d="M112 344v301l-82 -41v54l82 42h53v-356h-53zM518 700h58l-450 -700h-58zM528 51h170v-51h-241v50l135 117c26 23 48 46 49 80c1 40 -24 65 -65 65c-38 0 -68 -25 -69 -61h-53c3 71 59 110 124 110c66 0 118 -40 119 -105c1 -47 -26 -84 -62 -114z" />
    <glyph glyph-name="threequarters" unicode="&#xbe;" horiz-adv-x="726" 
d="M266 443c0 -61 -53 -104 -120 -104c-75 0 -121 45 -121 113h50c-1 -43 32 -66 72 -66c42 0 65 25 65 59c0 35 -23 59 -64 59h-29v46h25c40 0 64 19 64 53c0 36 -26 55 -63 55c-41 0 -71 -24 -70 -66h-50c0 67 46 113 122 113c66 0 115 -37 115 -100
c0 -37 -15 -63 -45 -78c31 -16 49 -48 49 -84zM573 700h58l-450 -700h-58zM654 120h54v-48h-54v-72h-54v72h-168v48l168 236h54v-236zM600 120v159l-111 -159h111z" />
    <glyph glyph-name="questiondown" unicode="&#xbf;" horiz-adv-x="492" 
d="M318 700v-94h-95v94h95zM456 175c0 -106 -87 -185 -207 -185c-118 0 -197 77 -197 182c0 165 190 182 190 310h58c0 -160 -184 -170 -184 -312c0 -79 60 -124 136 -124c91 0 140 59 140 129h64z" />
    <glyph glyph-name="Agrave" unicode="&#xc0;" horiz-adv-x="639" 
d="M350 754h-61l-92 122h78zM563 0l-71 185h-346l-71 -185h-63l273 700h70l272 -700h-64zM169 243h300l-150 389z" />
    <glyph glyph-name="Aacute" unicode="&#xc1;" horiz-adv-x="639" 
d="M442 876l-92 -122h-61l75 122h78zM563 0l-71 185h-346l-71 -185h-63l273 700h70l272 -700h-64zM169 243h300l-150 389z" />
    <glyph glyph-name="Acircumflex" unicode="&#xc2;" horiz-adv-x="639" 
d="M317 833l-62 -79h-64l96 122h63l95 -122h-66zM563 0l-71 185h-346l-71 -185h-63l273 700h70l272 -700h-64zM169 243h300l-150 389z" />
    <glyph glyph-name="Atilde" unicode="&#xc3;" horiz-adv-x="639" 
d="M268 807c-19 0 -33 -12 -34 -36h-45c0 59 27 92 73 92c47 0 79 -35 110 -35c19 0 33 12 34 36h45c0 -59 -27 -92 -73 -92c-47 0 -79 35 -110 35zM563 0l-71 185h-346l-71 -185h-63l273 700h70l272 -700h-64zM169 243h300l-150 389z" />
    <glyph glyph-name="Adieresis" unicode="&#xc4;" horiz-adv-x="639" 
d="M277 848v-77h-84v77h84zM446 848v-77h-84v77h84zM563 0l-71 185h-346l-71 -185h-63l273 700h70l272 -700h-64zM169 243h300l-150 389z" />
    <glyph glyph-name="Aring" unicode="&#xc5;" horiz-adv-x="639" 
d="M563 0l-71 185h-346l-71 -185h-63l262 672c-37 16 -61 51 -61 96c0 62 47 106 108 106s106 -44 106 -106c0 -45 -24 -81 -61 -97l261 -671h-64zM321 828c-34 0 -58 -26 -58 -60s24 -60 58 -60s58 26 58 60s-24 60 -58 60zM169 243h300l-150 389z" />
    <glyph glyph-name="AE" unicode="&#xc6;" horiz-adv-x="973" 
d="M4 0l451 700h457v-59h-370v-259h282v-58h-282v-265h391v-59h-452v185h-287l-119 -185h-71zM231 243h250v388z" />
    <glyph glyph-name="Ccedilla" unicode="&#xc7;" horiz-adv-x="740" 
d="M379 49c116 0 196 51 243 163h68c-43 -126 -139 -212 -287 -220l-17 -39c45 6 77 -20 77 -57c0 -41 -31 -67 -78 -67c-43 0 -79 28 -79 62h45c2 -16 15 -26 33 -26c17 0 31 9 31 28c0 25 -27 33 -55 24l-21 9l27 65c-189 7 -316 152 -316 356c0 210 133 363 329 363
c162 0 267 -87 311 -221h-68c-46 111 -129 163 -243 163c-163 0 -265 -127 -265 -304s103 -299 265 -299z" />
    <glyph glyph-name="Egrave" unicode="&#xc8;" horiz-adv-x="594" 
d="M332 754h-61l-92 122h78zM143 59h411v-59h-472v700h451v-59h-390v-259h312v-58h-312v-265z" />
    <glyph glyph-name="Eacute" unicode="&#xc9;" horiz-adv-x="594" 
d="M424 876l-92 -122h-61l75 122h78zM143 59h411v-59h-472v700h451v-59h-390v-259h312v-58h-312v-265z" />
    <glyph glyph-name="Ecircumflex" unicode="&#xca;" horiz-adv-x="594" 
d="M299 833l-62 -79h-64l96 122h63l95 -122h-66zM143 59h411v-59h-472v700h451v-59h-390v-259h312v-58h-312v-265z" />
    <glyph glyph-name="Edieresis" unicode="&#xcb;" horiz-adv-x="594" 
d="M259 848v-77h-84v77h84zM428 848v-77h-84v77h84zM143 59h411v-59h-472v700h451v-59h-390v-259h312v-58h-312v-265z" />
    <glyph glyph-name="Igrave" unicode="&#xcc;" horiz-adv-x="225" 
d="M143 754h-61l-92 122h78zM143 700v-700h-61v700h61z" />
    <glyph glyph-name="Iacute" unicode="&#xcd;" horiz-adv-x="225" 
d="M82 754l75 122h78l-92 -122h-61zM143 700v-700h-61v700h61z" />
    <glyph glyph-name="Icircumflex" unicode="&#xce;" horiz-adv-x="225" 
d="M110 833l62 -79h66l-95 122h-63l-96 -122h64zM143 700v-700h-61v700h61z" />
    <glyph glyph-name="Idieresis" unicode="&#xcf;" horiz-adv-x="225" 
d="M-14 771v77h84v-77h-84zM155 771v77h84v-77h-84zM143 700v-700h-61v700h61z" />
    <glyph glyph-name="Eth" unicode="&#xd0;" horiz-adv-x="711" 
d="M311 700c227 0 350 -144 350 -350s-123 -350 -350 -350h-219v324h-72v56h72v320h219zM324 59c171 1 273 116 273 291s-102 291 -273 291h-171v-261h128v-56h-128v-265h171z" />
    <glyph glyph-name="Ntilde" unicode="&#xd1;" horiz-adv-x="704" 
d="M297 863c47 0 79 -35 110 -35c19 0 33 12 34 36h45c0 -59 -27 -92 -73 -92c-47 0 -79 35 -110 35c-19 0 -33 -12 -34 -36h-45c0 59 27 92 73 92zM82 0v700h67l415 -607v607h58v-700h-65l-417 607v-607h-58z" />
    <glyph glyph-name="Ograve" unicode="&#xd2;" horiz-adv-x="760" 
d="M411 754h-61l-92 122h78zM381 -9c-197 0 -331 147 -331 356c0 210 134 363 331 363s329 -153 329 -363c0 -209 -132 -356 -329 -356zM381 49c163 0 265 122 265 299s-102 304 -265 304c-164 0 -267 -127 -267 -304s104 -299 267 -299z" />
    <glyph glyph-name="Oacute" unicode="&#xd3;" horiz-adv-x="760" 
d="M350 754l75 122h78l-92 -122h-61zM381 -9c-197 0 -331 147 -331 356c0 210 134 363 331 363s329 -153 329 -363c0 -209 -132 -356 -329 -356zM381 49c163 0 265 122 265 299s-102 304 -265 304c-164 0 -267 -127 -267 -304s104 -299 267 -299z" />
    <glyph glyph-name="Ocircumflex" unicode="&#xd4;" horiz-adv-x="760" 
d="M378 833l62 -79h66l-95 122h-63l-96 -122h64zM381 -9c-197 0 -331 147 -331 356c0 210 134 363 331 363s329 -153 329 -363c0 -209 -132 -356 -329 -356zM381 49c163 0 265 122 265 299s-102 304 -265 304c-164 0 -267 -127 -267 -304s104 -299 267 -299z" />
    <glyph glyph-name="Otilde" unicode="&#xd5;" horiz-adv-x="760" 
d="M323 863c47 0 79 -35 110 -35c19 0 33 12 34 36h45c0 -59 -27 -92 -73 -92c-47 0 -79 35 -110 35c-19 0 -33 -12 -34 -36h-45c0 59 27 92 73 92zM381 -9c-197 0 -331 147 -331 356c0 210 134 363 331 363s329 -153 329 -363c0 -209 -132 -356 -329 -356zM381 49
c163 0 265 122 265 299s-102 304 -265 304c-164 0 -267 -127 -267 -304s104 -299 267 -299z" />
    <glyph glyph-name="Odieresis" unicode="&#xd6;" horiz-adv-x="760" 
d="M254 771v77h84v-77h-84zM423 771v77h84v-77h-84zM381 -9c-197 0 -331 147 -331 356c0 210 134 363 331 363s329 -153 329 -363c0 -209 -132 -356 -329 -356zM381 49c163 0 265 122 265 299s-102 304 -265 304c-164 0 -267 -127 -267 -304s104 -299 267 -299z" />
    <glyph glyph-name="multiply" unicode="&#xd7;" 
d="M499 483l-155 -155l155 -156l-43 -43l-155 156l-156 -156l-43 43l156 156l-156 155l43 43l156 -155l155 155z" />
    <glyph glyph-name="Oslash" unicode="&#xd8;" horiz-adv-x="772" 
d="M611 623c66 -66 105 -162 105 -276c0 -209 -132 -356 -329 -356c-70 0 -132 18 -182 51l-30 -42h-64l52 75c-67 63 -107 158 -107 272c0 210 134 363 331 363c70 0 132 -20 183 -54l31 44h64zM120 348c0 -92 28 -170 79 -223l337 482c-41 29 -91 45 -149 45
c-164 0 -267 -127 -267 -304zM387 49c163 0 265 122 265 299c0 92 -27 170 -76 224l-337 -481c41 -27 91 -42 148 -42z" />
    <glyph glyph-name="Ugrave" unicode="&#xd9;" horiz-adv-x="691" 
d="M375 754h-61l-92 122h78zM137 700v-436c0 -137 74 -216 208 -216s208 79 208 216v436h61v-443c0 -162 -108 -267 -269 -267s-268 104 -268 267v443h60z" />
    <glyph glyph-name="Uacute" unicode="&#xda;" horiz-adv-x="691" 
d="M314 754l75 122h78l-92 -122h-61zM137 700v-436c0 -137 74 -216 208 -216s208 79 208 216v436h61v-443c0 -162 -108 -267 -269 -267s-268 104 -268 267v443h60z" />
    <glyph glyph-name="Ucircumflex" unicode="&#xdb;" horiz-adv-x="691" 
d="M342 833l62 -79h66l-95 122h-63l-96 -122h64zM137 700v-436c0 -137 74 -216 208 -216s208 79 208 216v436h61v-443c0 -162 -108 -267 -269 -267s-268 104 -268 267v443h60z" />
    <glyph glyph-name="Udieresis" unicode="&#xdc;" horiz-adv-x="691" 
d="M218 771v77h84v-77h-84zM387 771v77h84v-77h-84zM137 700v-436c0 -137 74 -216 208 -216s208 79 208 216v436h61v-443c0 -162 -108 -267 -269 -267s-268 104 -268 267v443h60z" />
    <glyph glyph-name="Yacute" unicode="&#xdd;" horiz-adv-x="609" 
d="M274 754l75 122h78l-92 -122h-61zM275 235l-260 465h75l217 -399l214 399h73l-259 -465v-235h-60v235z" />
    <glyph glyph-name="Thorn" unicode="&#xde;" horiz-adv-x="640" 
d="M348 570c158 0 242 -100 242 -220s-84 -219 -242 -219h-205v-131h-61v700h61v-130h205zM360 189c108 0 168 65 168 159s-61 164 -168 164h-217v-323h217z" />
    <glyph glyph-name="germandbls" unicode="&#xdf;" horiz-adv-x="573" 
d="M373 398c92 -19 161 -89 161 -187c0 -139 -95 -221 -226 -221c-35 0 -87 3 -122 17v53c38 -19 84 -22 121 -22c101 0 168 63 168 174c0 99 -82 155 -219 155v54c101 -8 161 46 161 145c0 73 -51 124 -141 124c-83 0 -142 -57 -142 -154v-535h-58v533
c0 118 73 204 202 204c127 0 198 -73 198 -173c0 -66 -33 -133 -103 -167z" />
    <glyph glyph-name="agrave" unicode="&#xe0;" horiz-adv-x="556" 
d="M304 574h-61l-92 122h78zM508 47h17v-47h-39c-37 0 -73 17 -76 73c-29 -48 -99 -83 -182 -83c-111 0 -180 59 -180 152c0 77 45 143 194 143h168v30c0 105 -60 145 -142 145c-85 0 -136 -39 -141 -105h-59c9 102 92 155 202 155c132 0 198 -77 198 -193v-227
c0 -34 7 -43 40 -43zM233 40c88 0 177 51 177 172v25h-168c-99 0 -134 -40 -134 -96c0 -67 51 -101 125 -101z" />
    <glyph glyph-name="aacute" unicode="&#xe1;" horiz-adv-x="556" 
d="M396 696l-92 -122h-61l75 122h78zM508 47h17v-47h-39c-37 0 -73 17 -76 73c-29 -48 -99 -83 -182 -83c-111 0 -180 59 -180 152c0 77 45 143 194 143h168v30c0 105 -60 145 -142 145c-85 0 -136 -39 -141 -105h-59c9 102 92 155 202 155c132 0 198 -77 198 -193v-227
c0 -34 7 -43 40 -43zM233 40c88 0 177 51 177 172v25h-168c-99 0 -134 -40 -134 -96c0 -67 51 -101 125 -101z" />
    <glyph glyph-name="acircumflex" unicode="&#xe2;" horiz-adv-x="556" 
d="M271 653l-62 -79h-64l96 122h63l95 -122h-66zM508 47h17v-47h-39c-37 0 -73 17 -76 73c-29 -48 -99 -83 -182 -83c-111 0 -180 59 -180 152c0 77 45 143 194 143h168v30c0 105 -60 145 -142 145c-85 0 -136 -39 -141 -105h-59c9 102 92 155 202 155
c132 0 198 -77 198 -193v-227c0 -34 7 -43 40 -43zM233 40c88 0 177 51 177 172v25h-168c-99 0 -134 -40 -134 -96c0 -67 51 -101 125 -101z" />
    <glyph glyph-name="atilde" unicode="&#xe3;" horiz-adv-x="556" 
d="M222 627c-19 0 -33 -12 -34 -36h-45c0 59 27 92 73 92c47 0 79 -35 110 -35c19 0 33 12 34 36h45c0 -59 -27 -92 -73 -92c-47 0 -79 35 -110 35zM508 47h17v-47h-39c-37 0 -73 17 -76 73c-29 -48 -99 -83 -182 -83c-111 0 -180 59 -180 152c0 77 45 143 194 143h168v30
c0 105 -60 145 -142 145c-85 0 -136 -39 -141 -105h-59c9 102 92 155 202 155c132 0 198 -77 198 -193v-227c0 -34 7 -43 40 -43zM233 40c88 0 177 51 177 172v25h-168c-99 0 -134 -40 -134 -96c0 -67 51 -101 125 -101z" />
    <glyph glyph-name="adieresis" unicode="&#xe4;" horiz-adv-x="556" 
d="M231 668v-77h-84v77h84zM400 668v-77h-84v77h84zM508 47h17v-47h-39c-37 0 -73 17 -76 73c-29 -48 -99 -83 -182 -83c-111 0 -180 59 -180 152c0 77 45 143 194 143h168v30c0 105 -60 145 -142 145c-85 0 -136 -39 -141 -105h-59c9 102 92 155 202 155
c132 0 198 -77 198 -193v-227c0 -34 7 -43 40 -43zM233 40c88 0 177 51 177 172v25h-168c-99 0 -134 -40 -134 -96c0 -67 51 -101 125 -101z" />
    <glyph glyph-name="aring" unicode="&#xe5;" horiz-adv-x="556" 
d="M508 47h17v-47h-39c-37 0 -73 17 -76 73c-29 -48 -99 -83 -182 -83c-111 0 -180 59 -180 152c0 77 45 143 194 143h168v30c0 105 -60 145 -142 145c-85 0 -136 -39 -141 -105h-59c7 79 58 129 132 147c-21 19 -34 46 -34 79c0 62 47 106 108 106s106 -44 106 -106
c0 -34 -13 -62 -35 -81c82 -24 123 -91 123 -183v-227c0 -34 7 -43 40 -43zM274 641c-34 0 -58 -26 -58 -60s24 -60 58 -60s58 26 58 60s-24 60 -58 60zM233 40c88 0 177 51 177 172v25h-168c-99 0 -134 -40 -134 -96c0 -67 51 -101 125 -101z" />
    <glyph glyph-name="ae" unicode="&#xe6;" horiz-adv-x="954" 
d="M897 261v-32h-423c4 -128 86 -187 183 -187c77 0 139 38 168 112h62c-31 -98 -114 -162 -230 -162c-99 0 -175 47 -215 125c-36 -90 -123 -127 -209 -127c-112 0 -185 52 -185 145c0 77 44 142 194 142h171v38c0 109 -67 147 -143 147c-90 0 -142 -47 -147 -112h-53
c8 102 89 160 200 160c97 0 156 -46 181 -109c41 69 113 109 204 109c145 0 242 -100 242 -249zM473 277h364c-6 119 -83 184 -182 184s-176 -65 -182 -184zM413 212v17h-171c-102 0 -134 -38 -134 -95c0 -67 53 -95 129 -95c89 0 176 51 176 173z" />
    <glyph glyph-name="ccedilla" unicode="&#xe7;" horiz-adv-x="571" 
d="M528 165c-28 -97 -104 -164 -209 -172l-17 -38c45 6 77 -20 77 -57c0 -41 -31 -67 -78 -67c-43 0 -79 28 -79 62h45c2 -16 15 -26 33 -26c17 0 31 9 31 28c0 25 -27 33 -55 24l-21 9l27 64c-136 8 -226 109 -226 259c0 156 97 259 241 259c113 0 197 -62 229 -165h-64
c-29 72 -89 115 -164 115c-103 0 -182 -70 -182 -209c0 -138 79 -208 182 -208c78 0 141 45 169 122h61z" />
    <glyph glyph-name="egrave" unicode="&#xe8;" horiz-adv-x="597" 
d="M333 574h-61l-92 122h78zM540 265v-32h-419c3 -127 84 -191 184 -191c76 0 140 38 169 112h59c-31 -98 -113 -162 -228 -162c-147 0 -244 103 -244 259s97 259 242 259c142 0 237 -99 237 -245zM303 461c-95 0 -170 -60 -181 -179h358c-7 119 -81 179 -177 179z" />
    <glyph glyph-name="eacute" unicode="&#xe9;" horiz-adv-x="597" 
d="M425 696l-92 -122h-61l75 122h78zM540 265v-32h-419c3 -127 84 -191 184 -191c76 0 140 38 169 112h59c-31 -98 -113 -162 -228 -162c-147 0 -244 103 -244 259s97 259 242 259c142 0 237 -99 237 -245zM303 461c-95 0 -170 -60 -181 -179h358c-7 119 -81 179 -177 179z
" />
    <glyph glyph-name="ecircumflex" unicode="&#xea;" horiz-adv-x="597" 
d="M300 653l-62 -79h-64l96 122h63l95 -122h-66zM540 265v-32h-419c3 -127 84 -191 184 -191c76 0 140 38 169 112h59c-31 -98 -113 -162 -228 -162c-147 0 -244 103 -244 259s97 259 242 259c142 0 237 -99 237 -245zM303 461c-95 0 -170 -60 -181 -179h358
c-7 119 -81 179 -177 179z" />
    <glyph glyph-name="edieresis" unicode="&#xeb;" horiz-adv-x="597" 
d="M260 668v-77h-84v77h84zM429 668v-77h-84v77h84zM540 265v-32h-419c3 -127 84 -191 184 -191c76 0 140 38 169 112h59c-31 -98 -113 -162 -228 -162c-147 0 -244 103 -244 259s97 259 242 259c142 0 237 -99 237 -245zM303 461c-95 0 -170 -60 -181 -179h358
c-7 119 -81 179 -177 179z" />
    <glyph glyph-name="igrave" unicode="&#xec;" horiz-adv-x="211" 
d="M136 574h-61l-92 122h78zM77 0v500h57v-500h-57z" />
    <glyph glyph-name="iacute" unicode="&#xed;" horiz-adv-x="211" 
d="M75 574l75 122h78l-92 -122h-61zM77 0v500h57v-500h-57z" />
    <glyph glyph-name="icircumflex" unicode="&#xee;" horiz-adv-x="211" 
d="M103 653l62 -79h66l-95 122h-63l-96 -122h64zM77 0v500h57v-500h-57z" />
    <glyph glyph-name="idieresis" unicode="&#xef;" horiz-adv-x="211" 
d="M-21 591v77h84v-77h-84zM148 591v77h84v-77h-84zM77 0v500h57v-500h-57z" />
    <glyph glyph-name="eth" unicode="&#xf0;" 
d="M405 609c85 -92 143 -218 143 -346c0 -178 -112 -272 -250 -272c-155 0 -241 118 -241 259c0 161 105 260 240 260c56 0 111 -20 150 -59c-25 47 -55 92 -93 133l-104 -51v53l69 34c-33 29 -69 56 -111 80h85c26 -16 52 -35 76 -56l120 59v-53zM299 41
c97 0 188 67 188 209c-5 147 -92 210 -188 210c-97 0 -182 -68 -182 -210s88 -209 182 -209z" />
    <glyph glyph-name="ntilde" unicode="&#xf1;" horiz-adv-x="571" 
d="M251 627c-19 0 -33 -12 -34 -36h-45c0 59 27 92 73 92c47 0 79 -35 110 -35c19 0 33 12 34 36h45c0 -59 -27 -92 -73 -92c-47 0 -79 35 -110 35zM303 510c123 0 197 -82 197 -210v-300h-58v289c0 113 -61 166 -148 166c-105 0 -160 -76 -160 -181v-274h-57v500h47l9 -84
c30 62 93 94 170 94z" />
    <glyph glyph-name="ograve" unicode="&#xf2;" horiz-adv-x="612" 
d="M336 573h-61l-92 122h78zM56 249c0 154 99 261 250 261s250 -107 250 -261c0 -152 -99 -259 -250 -259s-250 107 -250 259zM116 250c0 -127 76 -209 190 -209s190 82 190 209c0 128 -76 210 -190 210s-190 -82 -190 -210z" />
    <glyph glyph-name="oacute" unicode="&#xf3;" horiz-adv-x="612" 
d="M275 573l75 122h78l-92 -122h-61zM56 249c0 154 99 261 250 261s250 -107 250 -261c0 -152 -99 -259 -250 -259s-250 107 -250 259zM116 250c0 -127 76 -209 190 -209s190 82 190 209c0 128 -76 210 -190 210s-190 -82 -190 -210z" />
    <glyph glyph-name="ocircumflex" unicode="&#xf4;" horiz-adv-x="612" 
d="M303 652l62 -79h66l-95 122h-63l-96 -122h64zM56 249c0 154 99 261 250 261s250 -107 250 -261c0 -152 -99 -259 -250 -259s-250 107 -250 259zM116 250c0 -127 76 -209 190 -209s190 82 190 209c0 128 -76 210 -190 210s-190 -82 -190 -210z" />
    <glyph glyph-name="otilde" unicode="&#xf5;" horiz-adv-x="612" 
d="M248 682c47 0 79 -35 110 -35c19 0 33 12 34 36h45c0 -59 -27 -92 -73 -92c-47 0 -79 35 -110 35c-19 0 -33 -12 -34 -36h-45c0 59 27 92 73 92zM56 249c0 154 99 261 250 261s250 -107 250 -261c0 -152 -99 -259 -250 -259s-250 107 -250 259zM116 250
c0 -127 76 -209 190 -209s190 82 190 209c0 128 -76 210 -190 210s-190 -82 -190 -210z" />
    <glyph glyph-name="odieresis" unicode="&#xf6;" horiz-adv-x="612" 
d="M179 590v77h84v-77h-84zM348 590v77h84v-77h-84zM56 249c0 154 99 261 250 261s250 -107 250 -261c0 -152 -99 -259 -250 -259s-250 107 -250 259zM116 250c0 -127 76 -209 190 -209s190 82 190 209c0 128 -76 210 -190 210s-190 -82 -190 -210z" />
    <glyph glyph-name="divide" unicode="&#xf7;" 
d="M301 466c-30 0 -53 23 -53 52s23 52 53 52c29 0 52 -23 52 -52s-23 -52 -52 -52zM70 360h460v-60h-460v60zM301 90c-30 0 -53 23 -53 53c0 28 23 51 53 51c29 0 52 -23 52 -51c0 -30 -23 -53 -52 -53z" />
    <glyph glyph-name="oslash" unicode="&#xf8;" horiz-adv-x="612" 
d="M482 443c47 -47 74 -114 74 -194c0 -152 -99 -259 -250 -259c-53 0 -99 13 -137 36l-38 -50h-58l59 79c-48 46 -76 114 -76 194c0 154 99 261 250 261c54 0 101 -14 140 -38l35 46h58zM116 250c0 -62 18 -114 50 -150l248 329c-30 20 -66 31 -108 31
c-114 0 -190 -82 -190 -210zM306 41c114 0 190 82 190 209c0 61 -17 111 -48 148l-246 -328c29 -19 64 -29 104 -29z" />
    <glyph glyph-name="ugrave" unicode="&#xf9;" horiz-adv-x="561" 
d="M308 575h-61l-92 122h78zM427 500h57v-500h-47l-9 84c-30 -62 -92 -94 -165 -94c-119 0 -192 82 -192 210v300h58v-289c0 -113 60 -166 143 -166c101 0 155 76 155 181v274z" />
    <glyph glyph-name="uacute" unicode="&#xfa;" horiz-adv-x="561" 
d="M400 697l-92 -122h-61l75 122h78zM427 500h57v-500h-47l-9 84c-30 -62 -92 -94 -165 -94c-119 0 -192 82 -192 210v300h58v-289c0 -113 60 -166 143 -166c101 0 155 76 155 181v274z" />
    <glyph glyph-name="ucircumflex" unicode="&#xfb;" horiz-adv-x="561" 
d="M275 654l-62 -79h-64l96 122h63l95 -122h-66zM427 500h57v-500h-47l-9 84c-30 -62 -92 -94 -165 -94c-119 0 -192 82 -192 210v300h58v-289c0 -113 60 -166 143 -166c101 0 155 76 155 181v274z" />
    <glyph glyph-name="udieresis" unicode="&#xfc;" horiz-adv-x="561" 
d="M235 669v-77h-84v77h84zM404 669v-77h-84v77h84zM427 500h57v-500h-47l-9 84c-30 -62 -92 -94 -165 -94c-119 0 -192 82 -192 210v300h58v-289c0 -113 60 -166 143 -166c101 0 155 76 155 181v274z" />
    <glyph glyph-name="yacute" unicode="&#xfd;" horiz-adv-x="492" 
d="M216 574l75 122h78l-92 -122h-61zM76 500l178 -475l164 476l62 -1l-210 -582c-35 -96 -83 -118 -155 -118h-89v53h91c60 0 97 33 97 100c0 15 -3 31 -9 47l-193 500h64z" />
    <glyph glyph-name="thorn" unicode="&#xfe;" horiz-adv-x="622" 
d="M326 510c126 0 240 -92 240 -261c0 -168 -113 -259 -240 -259c-76 0 -151 32 -191 95v-285h-58v930h60v-316c41 63 114 96 189 96zM321 40c108 0 185 78 185 209c0 130 -75 210 -185 211c-103 1 -185 -82 -185 -213s82 -207 185 -207z" />
    <glyph glyph-name="ydieresis" unicode="&#xff;" horiz-adv-x="492" 
d="M120 591v77h84v-77h-84zM289 591v77h84v-77h-84zM76 500l178 -475l164 476l62 -1l-210 -582c-35 -96 -83 -118 -155 -118h-89v53h91c60 0 97 33 97 100c0 15 -3 31 -9 47l-193 500h64z" />
    <glyph glyph-name="Amacron" unicode="&#x100;" horiz-adv-x="639" 
d="M453 828v-51h-266v51h266zM563 0l-71 185h-346l-71 -185h-63l273 700h70l272 -700h-64zM169 243h300l-150 389z" />
    <glyph glyph-name="amacron" unicode="&#x101;" horiz-adv-x="556" 
d="M407 648v-51h-266v51h266zM508 47h17v-47h-39c-37 0 -73 17 -76 73c-29 -48 -99 -83 -182 -83c-111 0 -180 59 -180 152c0 77 45 143 194 143h168v30c0 105 -60 145 -142 145c-85 0 -136 -39 -141 -105h-59c9 102 92 155 202 155c132 0 198 -77 198 -193v-227
c0 -34 7 -43 40 -43zM233 40c88 0 177 51 177 172v25h-168c-99 0 -134 -40 -134 -96c0 -67 51 -101 125 -101z" />
    <glyph glyph-name="Abreve" unicode="&#x102;" horiz-adv-x="639" 
d="M320 754c-74 0 -127 51 -127 122h53c0 -44 29 -70 74 -70s74 26 74 70h53c0 -71 -53 -122 -127 -122zM563 0l-71 185h-346l-71 -185h-63l273 700h70l272 -700h-64zM169 243h300l-150 389z" />
    <glyph glyph-name="abreve" unicode="&#x103;" horiz-adv-x="556" 
d="M274 574c-74 0 -127 51 -127 122h53c0 -44 29 -70 74 -70s74 26 74 70h53c0 -71 -53 -122 -127 -122zM508 47h17v-47h-39c-37 0 -73 17 -76 73c-29 -48 -99 -83 -182 -83c-111 0 -180 59 -180 152c0 77 45 143 194 143h168v30c0 105 -60 145 -142 145
c-85 0 -136 -39 -141 -105h-59c9 102 92 155 202 155c132 0 198 -77 198 -193v-227c0 -34 7 -43 40 -43zM233 40c88 0 177 51 177 172v25h-168c-99 0 -134 -40 -134 -96c0 -67 51 -101 125 -101z" />
    <glyph glyph-name="Aogonek" unicode="&#x104;" horiz-adv-x="639" 
d="M556 -69c0 -20 16 -28 35 -28c11 0 23 2 34 8v-44c-19 -9 -32 -12 -50 -12c-39 0 -74 23 -74 62c0 27 10 56 62 84l-71 184h-346l-71 -185h-63l273 700h70l272 -700c-49 -26 -71 -46 -71 -69zM169 243h300l-150 389z" />
    <glyph glyph-name="aogonek" unicode="&#x105;" horiz-adv-x="556" 
d="M525 0c-49 -26 -71 -46 -71 -69c0 -20 16 -28 35 -28c11 0 23 2 34 8v-44c-19 -9 -32 -12 -50 -12c-39 0 -74 23 -74 62c0 27 11 57 64 86c-28 6 -51 26 -53 70c-29 -48 -99 -83 -182 -83c-111 0 -180 59 -180 152c0 77 45 143 194 143h168v30c0 105 -60 145 -142 145
c-85 0 -136 -39 -141 -105h-59c9 102 92 155 202 155c132 0 198 -77 198 -193v-227c0 -34 7 -43 40 -43h17v-47zM233 40c88 0 177 51 177 172v25h-168c-99 0 -134 -40 -134 -96c0 -67 51 -101 125 -101z" />
    <glyph glyph-name="Cacute" unicode="&#x106;" horiz-adv-x="740" 
d="M350 754l75 122h78l-92 -122h-61zM379 49c116 0 196 51 243 163h68c-45 -133 -149 -221 -311 -221c-196 0 -329 147 -329 356c0 210 133 363 329 363c162 0 267 -87 311 -221h-68c-46 111 -129 163 -243 163c-163 0 -265 -127 -265 -304s103 -299 265 -299z" />
    <glyph glyph-name="cacute" unicode="&#x107;" horiz-adv-x="571" 
d="M266 574l75 122h78l-92 -122h-61zM462 345c-29 72 -89 115 -164 115c-103 0 -182 -70 -182 -209c0 -138 79 -208 182 -208c78 0 141 45 169 122h61c-30 -104 -115 -173 -231 -173c-144 0 -241 103 -241 259s97 259 241 259c113 0 197 -62 229 -165h-64z" />
    <glyph glyph-name="Ccircumflex" unicode="&#x108;" horiz-adv-x="740" 
d="M378 833l62 -79h66l-95 122h-63l-96 -122h64zM379 49c116 0 196 51 243 163h68c-45 -133 -149 -221 -311 -221c-196 0 -329 147 -329 356c0 210 133 363 329 363c162 0 267 -87 311 -221h-68c-46 111 -129 163 -243 163c-163 0 -265 -127 -265 -304s103 -299 265 -299z
" />
    <glyph glyph-name="ccircumflex" unicode="&#x109;" horiz-adv-x="571" 
d="M294 653l62 -79h66l-95 122h-63l-96 -122h64zM462 345c-29 72 -89 115 -164 115c-103 0 -182 -70 -182 -209c0 -138 79 -208 182 -208c78 0 141 45 169 122h61c-30 -104 -115 -173 -231 -173c-144 0 -241 103 -241 259s97 259 241 259c113 0 197 -62 229 -165h-64z" />
    <glyph glyph-name="Cdotaccent" unicode="&#x10a;" horiz-adv-x="740" 
d="M338 802v78h85v-78h-85zM379 49c116 0 196 51 243 163h68c-45 -133 -149 -221 -311 -221c-196 0 -329 147 -329 356c0 210 133 363 329 363c162 0 267 -87 311 -221h-68c-46 111 -129 163 -243 163c-163 0 -265 -127 -265 -304s103 -299 265 -299z" />
    <glyph glyph-name="cdotaccent" unicode="&#x10b;" horiz-adv-x="571" 
d="M254 622v78h85v-78h-85zM462 345c-29 72 -89 115 -164 115c-103 0 -182 -70 -182 -209c0 -138 79 -208 182 -208c78 0 141 45 169 122h61c-30 -104 -115 -173 -231 -173c-144 0 -241 103 -241 259s97 259 241 259c113 0 197 -62 229 -165h-64z" />
    <glyph glyph-name="Ccaron" unicode="&#x10c;" horiz-adv-x="740" 
d="M382 797l-62 79h-66l95 -122h63l96 122h-64zM379 49c116 0 196 51 243 163h68c-45 -133 -149 -221 -311 -221c-196 0 -329 147 -329 356c0 210 133 363 329 363c162 0 267 -87 311 -221h-68c-46 111 -129 163 -243 163c-163 0 -265 -127 -265 -304s103 -299 265 -299z
" />
    <glyph glyph-name="ccaron" unicode="&#x10d;" horiz-adv-x="571" 
d="M298 617l-62 79h-66l95 -122h63l96 122h-64zM462 345c-29 72 -89 115 -164 115c-103 0 -182 -70 -182 -209c0 -138 79 -208 182 -208c78 0 141 45 169 122h61c-30 -104 -115 -173 -231 -173c-144 0 -241 103 -241 259s97 259 241 259c113 0 197 -62 229 -165h-64z" />
    <glyph glyph-name="Dcaron" unicode="&#x10e;" horiz-adv-x="701" 
d="M293 797l-62 79h-66l95 -122h63l96 122h-64zM82 0h219c227 0 350 144 350 350s-123 350 -350 350h-219v-700zM143 59v582h171c171 0 273 -116 273 -291s-102 -290 -273 -291h-171z" />
    <glyph glyph-name="dcaron" unicode="&#x10f;" horiz-adv-x="653" 
d="M488 411v319h58v-730h-48l-10 91c-39 -65 -115 -101 -192 -101c-127 0 -240 89 -240 257c0 169 114 263 240 263c81 0 153 -36 192 -99zM614 730h68l-45 -170h-42zM301 40c103 0 185 76 185 207c0 130 -82 213 -185 212c-110 -1 -185 -83 -185 -212
c0 -131 77 -207 185 -207z" />
    <glyph glyph-name="Dcroat" unicode="&#x110;" horiz-adv-x="711" 
d="M311 700c227 0 350 -144 350 -350s-123 -350 -350 -350h-219v324h-72v56h72v320h219zM324 59c171 1 273 116 273 291s-102 291 -273 291h-171v-261h128v-56h-128v-265h171z" />
    <glyph glyph-name="dcroat" unicode="&#x111;" horiz-adv-x="628" 
d="M608 631v-52h-62v-579h-48l-10 91c-39 -65 -115 -101 -192 -101c-127 0 -240 89 -240 257c0 169 114 263 240 263c81 0 153 -36 192 -99v168h-156v52h156v99h58v-99h62zM301 40c103 0 185 76 185 207c0 130 -82 213 -185 212c-110 -1 -185 -83 -185 -212
c0 -131 77 -207 185 -207z" />
    <glyph glyph-name="Emacron" unicode="&#x112;" horiz-adv-x="594" 
d="M435 828v-51h-266v51h266zM143 59h411v-59h-472v700h451v-59h-390v-259h312v-58h-312v-265z" />
    <glyph glyph-name="emacron" unicode="&#x113;" horiz-adv-x="597" 
d="M436 648v-51h-266v51h266zM540 265v-32h-419c3 -127 84 -191 184 -191c76 0 140 38 169 112h59c-31 -98 -113 -162 -228 -162c-147 0 -244 103 -244 259s97 259 242 259c142 0 237 -99 237 -245zM303 461c-95 0 -170 -60 -181 -179h358c-7 119 -81 179 -177 179z" />
    <glyph glyph-name="Ebreve" unicode="&#x114;" horiz-adv-x="594" 
d="M302 754c-74 0 -127 51 -127 122h53c0 -44 29 -70 74 -70s74 26 74 70h53c0 -71 -53 -122 -127 -122zM143 59h411v-59h-472v700h451v-59h-390v-259h312v-58h-312v-265z" />
    <glyph glyph-name="ebreve" unicode="&#x115;" horiz-adv-x="597" 
d="M303 574c-74 0 -127 51 -127 122h53c0 -44 29 -70 74 -70s74 26 74 70h53c0 -71 -53 -122 -127 -122zM540 265v-32h-419c3 -127 84 -191 184 -191c76 0 140 38 169 112h59c-31 -98 -113 -162 -228 -162c-147 0 -244 103 -244 259s97 259 242 259c142 0 237 -99 237 -245z
M303 461c-95 0 -170 -60 -181 -179h358c-7 119 -81 179 -177 179z" />
    <glyph glyph-name="Edotaccent" unicode="&#x116;" horiz-adv-x="594" 
d="M344 880v-78h-85v78h85zM143 59h411v-59h-472v700h451v-59h-390v-259h312v-58h-312v-265z" />
    <glyph glyph-name="edotaccent" unicode="&#x117;" horiz-adv-x="597" 
d="M345 700v-78h-85v78h85zM540 265v-32h-419c3 -127 84 -191 184 -191c76 0 140 38 169 112h59c-31 -98 -113 -162 -228 -162c-147 0 -244 103 -244 259s97 259 242 259c142 0 237 -99 237 -245zM303 461c-95 0 -170 -60 -181 -179h358c-7 119 -81 179 -177 179z" />
    <glyph glyph-name="Eogonek" unicode="&#x118;" horiz-adv-x="594" 
d="M554 0c-49 -26 -71 -46 -71 -69c0 -20 16 -28 35 -28c11 0 23 2 34 8v-44c-19 -9 -32 -12 -50 -12c-39 0 -74 23 -74 62c0 26 10 55 59 83h-405v700h451v-59h-390v-259h312v-58h-312v-265h411v-59z" />
    <glyph glyph-name="eogonek" unicode="&#x119;" horiz-adv-x="597" 
d="M540 265v-32h-419c3 -127 84 -191 184 -191c76 0 140 38 169 112h59c-24 -75 -78 -130 -153 -152c-49 -26 -71 -46 -71 -69c0 -20 16 -28 35 -28c11 0 23 2 34 8v-44c-19 -9 -32 -12 -50 -12c-39 0 -74 23 -74 62c0 23 8 48 44 73c-143 3 -237 106 -237 259
c0 156 97 259 242 259c142 0 237 -99 237 -245zM303 461c-95 0 -170 -60 -181 -179h358c-7 119 -81 179 -177 179z" />
    <glyph glyph-name="Ecaron" unicode="&#x11a;" horiz-adv-x="594" 
d="M333 754h-63l-95 122h66l62 -79l62 79h64zM143 59h411v-59h-472v700h451v-59h-390v-259h312v-58h-312v-265z" />
    <glyph glyph-name="ecaron" unicode="&#x11b;" horiz-adv-x="597" 
d="M334 574h-63l-95 122h66l62 -79l62 79h64zM540 265v-32h-419c3 -127 84 -191 184 -191c76 0 140 38 169 112h59c-31 -98 -113 -162 -228 -162c-147 0 -244 103 -244 259s97 259 242 259c142 0 237 -99 237 -245zM303 461c-95 0 -170 -60 -181 -179h358
c-7 119 -81 179 -177 179z" />
    <glyph glyph-name="Gcircumflex" unicode="&#x11c;" horiz-adv-x="758" 
d="M381 833l-62 -79h-64l96 122h63l95 -122h-66zM395 374h299v-375h-48l-13 123c-51 -88 -147 -131 -252 -131c-197 0 -331 147 -331 356c0 210 134 363 331 363c163 0 274 -88 312 -221h-68c-42 111 -129 163 -244 163c-164 0 -267 -127 -267 -304s104 -299 267 -299
c108 0 237 65 251 215v52h-237v58z" />
    <glyph glyph-name="gcircumflex" unicode="&#x11d;" horiz-adv-x="597" 
d="M284 653l-62 -79h-64l96 122h63l95 -122h-66zM472 500h48v-486c0 -134 -90 -224 -229 -224c-116 0 -199 64 -220 162h63c19 -74 80 -112 157 -112c111 0 172 66 172 165v111c-31 -68 -104 -106 -184 -106c-122 0 -223 90 -223 249s99 251 223 251c77 0 149 -36 183 -101z
M285 60c104 0 175 76 175 198c0 121 -70 203 -175 203s-169 -83 -169 -203c0 -121 65 -198 169 -198z" />
    <glyph glyph-name="Gbreve" unicode="&#x11e;" horiz-adv-x="758" 
d="M384 754c-74 0 -127 51 -127 122h53c0 -44 29 -70 74 -70s74 26 74 70h53c0 -71 -53 -122 -127 -122zM395 374h299v-375h-48l-13 123c-51 -88 -147 -131 -252 -131c-197 0 -331 147 -331 356c0 210 134 363 331 363c163 0 274 -88 312 -221h-68
c-42 111 -129 163 -244 163c-164 0 -267 -127 -267 -304s104 -299 267 -299c108 0 237 65 251 215v52h-237v58z" />
    <glyph glyph-name="gbreve" unicode="&#x11f;" horiz-adv-x="597" 
d="M287 574c-74 0 -127 51 -127 122h53c0 -44 29 -70 74 -70s74 26 74 70h53c0 -71 -53 -122 -127 -122zM472 500h48v-486c0 -134 -90 -224 -229 -224c-116 0 -199 64 -220 162h63c19 -74 80 -112 157 -112c111 0 172 66 172 165v111c-31 -68 -104 -106 -184 -106
c-122 0 -223 90 -223 249s99 251 223 251c77 0 149 -36 183 -101zM285 60c104 0 175 76 175 198c0 121 -70 203 -175 203s-169 -83 -169 -203c0 -121 65 -198 169 -198z" />
    <glyph glyph-name="Gdotaccent" unicode="&#x120;" horiz-adv-x="758" 
d="M426 880v-78h-85v78h85zM395 374h299v-375h-48l-13 123c-51 -88 -147 -131 -252 -131c-197 0 -331 147 -331 356c0 210 134 363 331 363c163 0 274 -88 312 -221h-68c-42 111 -129 163 -244 163c-164 0 -267 -127 -267 -304s104 -299 267 -299c108 0 237 65 251 215v52
h-237v58z" />
    <glyph glyph-name="gdotaccent" unicode="&#x121;" horiz-adv-x="597" 
d="M329 700v-78h-85v78h85zM472 500h48v-486c0 -134 -90 -224 -229 -224c-116 0 -199 64 -220 162h63c19 -74 80 -112 157 -112c111 0 172 66 172 165v111c-31 -68 -104 -106 -184 -106c-122 0 -223 90 -223 249s99 251 223 251c77 0 149 -36 183 -101zM285 60
c104 0 175 76 175 198c0 121 -70 203 -175 203s-169 -83 -169 -203c0 -121 65 -198 169 -198z" />
    <glyph glyph-name="Gcommaaccent" unicode="&#x122;" horiz-adv-x="758" 
d="M395 374h299v-375h-48l-13 123c-51 -88 -147 -131 -252 -131c-197 0 -331 147 -331 356c0 210 134 363 331 363c163 0 274 -88 312 -221h-68c-42 111 -129 163 -244 163c-164 0 -267 -127 -267 -304s104 -299 267 -299c108 0 237 65 251 215v52h-237v58zM347 -154v78h78
v-78l-31 -84h-44l31 84h-34z" />
    <glyph glyph-name="gcommaaccent" unicode="&#x123;" horiz-adv-x="597" 
d="M326 668v-78h-78v78l31 84h44l-31 -84h34zM472 500h48v-486c0 -134 -90 -224 -229 -224c-116 0 -199 64 -220 162h63c19 -74 80 -112 157 -112c111 0 172 66 172 165v111c-31 -68 -104 -106 -184 -106c-122 0 -223 90 -223 249s99 251 223 251c77 0 149 -36 183 -101z
M285 60c104 0 175 76 175 198c0 121 -70 203 -175 203s-169 -83 -169 -203c0 -121 65 -198 169 -198z" />
    <glyph glyph-name="Hcircumflex" unicode="&#x124;" horiz-adv-x="703" 
d="M349 833l62 -79h66l-95 122h-63l-96 -122h64zM560 325h-417v-325h-61v700h61v-316h417v316h61v-700h-61v325z" />
    <glyph glyph-name="hcircumflex" unicode="&#x125;" horiz-adv-x="571" 
d="M164 754l-62 79l-62 -79h-64l96 122h63l95 -122h-66zM308 510c97 0 192 -52 192 -210v-300h-58v289c0 117 -56 166 -142 166c-108 0 -166 -78 -166 -181v-274h-57v730h57v-312c32 59 103 92 174 92z" />
    <glyph glyph-name="Hbar" unicode="&#x126;" horiz-adv-x="715" 
d="M700 588v-58h-73v-530h-61v325h-417v-325h-61v530h-73v58h73v112h61v-112h417v112h61v-112h73zM566 384v146h-417v-146h417z" />
    <glyph glyph-name="hbar" unicode="&#x127;" horiz-adv-x="571" 
d="M308 510c97 0 192 -52 192 -210v-300h-58v289c0 117 -56 166 -142 166c-108 0 -166 -78 -166 -181v-274h-57v579h-56v52h56v99h57v-99h163v-52h-163v-161c32 59 103 92 174 92z" />
    <glyph glyph-name="Itilde" unicode="&#x128;" horiz-adv-x="225" 
d="M55 863c47 0 79 -35 110 -35c19 0 33 12 34 36h45c0 -59 -27 -92 -73 -92c-47 0 -79 35 -110 35c-19 0 -33 -12 -34 -36h-45c0 59 27 92 73 92zM143 700v-700h-61v700h61z" />
    <glyph glyph-name="itilde" unicode="&#x129;" horiz-adv-x="211" 
d="M48 683c47 0 79 -35 110 -35c19 0 33 12 34 36h45c0 -59 -27 -92 -73 -92c-47 0 -79 35 -110 35c-19 0 -33 -12 -34 -36h-45c0 59 27 92 73 92zM77 0v500h57v-500h-57z" />
    <glyph glyph-name="Imacron" unicode="&#x12a;" horiz-adv-x="225" 
d="M-20 828h266v-51h-266v51zM143 700v-700h-61v700h61z" />
    <glyph glyph-name="imacron" unicode="&#x12b;" horiz-adv-x="211" 
d="M-27 648h266v-51h-266v51zM77 0v500h57v-500h-57z" />
    <glyph glyph-name="Ibreve" unicode="&#x12c;" horiz-adv-x="225" 
d="M113 754c-74 0 -127 51 -127 122h53c0 -44 29 -70 74 -70s74 26 74 70h53c0 -71 -53 -122 -127 -122zM143 700v-700h-61v700h61z" />
    <glyph glyph-name="ibreve" unicode="&#x12d;" horiz-adv-x="211" 
d="M106 574c-74 0 -127 51 -127 122h53c0 -44 29 -70 74 -70s74 26 74 70h53c0 -71 -53 -122 -127 -122zM77 0v500h57v-500h-57z" />
    <glyph glyph-name="Iogonek" unicode="&#x12e;" horiz-adv-x="225" 
d="M143 0c-49 -26 -71 -46 -71 -69c0 -20 16 -28 35 -28c11 0 23 2 34 8v-44c-19 -9 -32 -12 -50 -12c-39 0 -74 23 -74 62c0 27 11 57 65 86v697h61v-700z" />
    <glyph glyph-name="iogonek" unicode="&#x12f;" horiz-adv-x="211" 
d="M63 700h85v-78h-85v78zM77 5v495h57v-500c-49 -26 -71 -46 -71 -69c0 -20 16 -28 35 -28c11 0 23 2 34 8v-44c-19 -9 -32 -12 -50 -12c-39 0 -74 23 -74 62c0 28 11 58 69 88z" />
    <glyph glyph-name="Idotaccent" unicode="&#x130;" horiz-adv-x="225" 
d="M70 802v78h85v-78h-85zM143 700v-700h-61v700h61z" />
    <glyph glyph-name="dotlessi" unicode="&#x131;" horiz-adv-x="211" 
d="M77 0v500h57v-500h-57z" />
    <glyph glyph-name="IJ" unicode="&#x132;" horiz-adv-x="727" 
d="M143 700v-700h-61v700h61zM284 190c0 -85 60 -142 151 -142c90 0 151 52 151 152v500h61v-500c0 -126 -85 -210 -212 -210c-126 0 -211 80 -211 200h60z" />
    <glyph glyph-name="ij" unicode="&#x133;" horiz-adv-x="431" 
d="M63 622v78h85v-78h-85zM283 622v78h85v-78h-85zM77 0v500h57v-500h-57zM354 -82c0 -77 -45 -118 -109 -118h-66v53h56c51 0 62 31 62 66v581h57v-582z" />
    <glyph glyph-name="Jcircumflex" unicode="&#x134;" horiz-adv-x="533" 
d="M419 833l62 -79h66l-95 122h-63l-96 -122h64zM90 190c0 -85 60 -142 151 -142c90 0 151 52 151 152v500h61v-500c0 -126 -85 -210 -212 -210c-126 0 -211 80 -211 200h60z" />
    <glyph glyph-name="jcircumflex" unicode="&#x135;" horiz-adv-x="221" 
d="M113 653l62 -79h66l-95 122h-63l-96 -122h64zM144 -82c0 -77 -45 -118 -109 -118h-66v53h56c51 0 62 31 62 66v581h57v-582z" />
    <glyph glyph-name="Kcommaaccent" unicode="&#x136;" horiz-adv-x="621" 
d="M330 395l287 -395h-74l-254 348l-147 -164v-184h-60v700h60v-440l382 440h73zM278 -137v78h78v-78l-31 -84h-44l31 84h-34z" />
    <glyph glyph-name="kcommaaccent" unicode="&#x137;" horiz-adv-x="491" 
d="M254 279l220 -279h-72l-188 239l-80 -82v-157h-57v730h57v-496l264 266h74zM229 -129v78h78v-78l-31 -84h-44l31 84h-34z" />
    <glyph glyph-name="Lacute" unicode="&#x139;" horiz-adv-x="539" 
d="M82 754l75 122h78l-92 -122h-61zM143 59h366v-59h-427v700h61v-641z" />
    <glyph glyph-name="lacute" unicode="&#x13a;" horiz-adv-x="211" 
d="M75 764l75 122h78l-92 -122h-61zM134 730v-730h-57v730h57z" />
    <glyph glyph-name="Lcommaaccent" unicode="&#x13b;" horiz-adv-x="539" 
d="M143 59h366v-59h-427v700h61v-641zM264 -137v78h78v-78l-31 -84h-44l31 84h-34z" />
    <glyph glyph-name="lcommaaccent" unicode="&#x13c;" horiz-adv-x="211" 
d="M134 730v-730h-57v730h57zM67 -51h78v-78l-31 -84h-44l31 84h-34v78z" />
    <glyph glyph-name="Lcaron" unicode="&#x13d;" horiz-adv-x="539" 
d="M143 59h366v-59h-427v700h61v-641zM327 700l-45 -170h-42l19 170h68z" />
    <glyph glyph-name="lcaron" unicode="&#x13e;" horiz-adv-x="241" 
d="M134 730v-730h-57v730h57zM270 730l-45 -170h-42l19 170h68z" />
    <glyph glyph-name="Ldot" unicode="&#x13f;" horiz-adv-x="543" 
d="M143 59h366v-59h-427v700h61v-641zM372 351c-22 0 -42 19 -42 41c0 24 20 42 42 42s42 -18 42 -42c0 -22 -20 -41 -42 -41z" />
    <glyph glyph-name="ldot" unicode="&#x140;" horiz-adv-x="311" 
d="M134 730v-730h-57v730h57zM257 331c-22 0 -42 19 -42 41c0 24 20 42 42 42s42 -18 42 -42c0 -22 -20 -41 -42 -41z" />
    <glyph glyph-name="Lslash" unicode="&#x141;" horiz-adv-x="550" 
d="M150 59h366v-59h-427v338l-74 -48v66l74 48v296h61v-256l142 92v-66l-142 -92v-319z" />
    <glyph glyph-name="lslash" unicode="&#x142;" horiz-adv-x="231" 
d="M224 478v-54l-79 -29v-395h-58v373l-80 -30v54l80 30v303h58v-281z" />
    <glyph glyph-name="Nacute" unicode="&#x143;" horiz-adv-x="704" 
d="M324 754l75 122h78l-92 -122h-61zM82 0v700h67l415 -607v607h58v-700h-65l-417 607v-607h-58z" />
    <glyph glyph-name="nacute" unicode="&#x144;" horiz-adv-x="571" 
d="M425 696l-92 -122h-61l75 122h78zM303 510c123 0 197 -82 197 -210v-300h-58v289c0 113 -61 166 -148 166c-105 0 -160 -76 -160 -181v-274h-57v500h47l9 -84c30 62 93 94 170 94z" />
    <glyph glyph-name="Ncommaaccent" unicode="&#x145;" horiz-adv-x="704" 
d="M564 700h58v-700h-65l-417 607v-607h-58v700h67l415 -607v607zM312 -127v78h78v-78l-31 -84h-44l31 84h-34z" />
    <glyph glyph-name="ncommaaccent" unicode="&#x146;" horiz-adv-x="571" 
d="M303 510c123 0 197 -82 197 -210v-300h-58v289c0 113 -61 166 -148 166c-105 0 -160 -76 -160 -181v-274h-57v500h47l9 -84c30 62 93 94 170 94zM249 -129v78h78v-78l-31 -84h-44l31 84h-34z" />
    <glyph glyph-name="Ncaron" unicode="&#x147;" horiz-adv-x="704" 
d="M356 797l-62 79h-66l95 -122h63l96 122h-64zM82 0v700h67l415 -607v607h58v-700h-65l-417 607v-607h-58z" />
    <glyph glyph-name="ncaron" unicode="&#x148;" horiz-adv-x="571" 
d="M334 574h-63l-95 122h66l62 -79l62 79h64zM303 510c123 0 197 -82 197 -210v-300h-58v289c0 113 -61 166 -148 166c-105 0 -160 -76 -160 -181v-274h-57v500h47l9 -84c30 62 93 94 170 94z" />
    <glyph glyph-name="Eng" unicode="&#x14a;" horiz-adv-x="704" 
d="M562 0l-422 607v-607h-58v700h67l415 -594v594h58v-782c0 -77 -43 -118 -109 -118h-66v55h56c44 0 59 20 59 65v80z" />
    <glyph glyph-name="eng" unicode="&#x14b;" horiz-adv-x="562" 
d="M433 -87v391c0 102 -64 151 -147 151c-101 0 -161 -76 -161 -171v-284h-58v500h47l9 -70c38 55 106 80 169 80c114 0 199 -73 199 -205v-392c0 -64 -38 -113 -115 -113h-50v59h56c38 0 51 17 51 54z" />
    <glyph glyph-name="Omacron" unicode="&#x14c;" horiz-adv-x="760" 
d="M248 828h266v-51h-266v51zM381 -9c-197 0 -331 147 -331 356c0 210 134 363 331 363s329 -153 329 -363c0 -209 -132 -356 -329 -356zM381 49c163 0 265 122 265 299s-102 304 -265 304c-164 0 -267 -127 -267 -304s104 -299 267 -299z" />
    <glyph glyph-name="omacron" unicode="&#x14d;" horiz-adv-x="612" 
d="M173 647h266v-51h-266v51zM56 249c0 154 99 261 250 261s250 -107 250 -261c0 -152 -99 -259 -250 -259s-250 107 -250 259zM116 250c0 -127 76 -209 190 -209s190 82 190 209c0 128 -76 210 -190 210s-190 -82 -190 -210z" />
    <glyph glyph-name="Obreve" unicode="&#x14e;" horiz-adv-x="760" 
d="M381 754c-74 0 -127 51 -127 122h53c0 -44 29 -70 74 -70s74 26 74 70h53c0 -71 -53 -122 -127 -122zM381 -9c-197 0 -331 147 -331 356c0 210 134 363 331 363s329 -153 329 -363c0 -209 -132 -356 -329 -356zM381 49c163 0 265 122 265 299s-102 304 -265 304
c-164 0 -267 -127 -267 -304s104 -299 267 -299z" />
    <glyph glyph-name="obreve" unicode="&#x14f;" horiz-adv-x="612" 
d="M306 573c-74 0 -127 51 -127 122h53c0 -44 29 -70 74 -70s74 26 74 70h53c0 -71 -53 -122 -127 -122zM56 249c0 154 99 261 250 261s250 -107 250 -261c0 -152 -99 -259 -250 -259s-250 107 -250 259zM116 250c0 -127 76 -209 190 -209s190 82 190 209
c0 128 -76 210 -190 210s-190 -82 -190 -210z" />
    <glyph glyph-name="Ohungarumlaut" unicode="&#x150;" horiz-adv-x="760" 
d="M294 754l75 122h76l-92 -122h-59zM409 754l95 122h76l-112 -122h-59zM381 -9c-197 0 -331 147 -331 356c0 210 134 363 331 363s329 -153 329 -363c0 -209 -132 -356 -329 -356zM381 49c163 0 265 122 265 299s-102 304 -265 304c-164 0 -267 -127 -267 -304
s104 -299 267 -299z" />
    <glyph glyph-name="ohungarumlaut" unicode="&#x151;" horiz-adv-x="612" 
d="M219 573l75 122h76l-92 -122h-59zM334 573l95 122h76l-112 -122h-59zM56 249c0 154 99 261 250 261s250 -107 250 -261c0 -152 -99 -259 -250 -259s-250 107 -250 259zM116 250c0 -127 76 -209 190 -209s190 82 190 209c0 128 -76 210 -190 210s-190 -82 -190 -210z" />
    <glyph glyph-name="OE" unicode="&#x152;" horiz-adv-x="1144" 
d="M713 59h391v-59h-452v128c-55 -85 -149 -137 -265 -137c-197 0 -331 147 -331 356c0 210 134 363 331 363c116 0 210 -54 265 -141v131h431v-59h-370v-259h282v-58h-282v-265zM387 49c163 0 265 122 265 299s-102 304 -265 304c-164 0 -267 -127 -267 -304
s104 -299 267 -299z" />
    <glyph glyph-name="oe" unicode="&#x153;" horiz-adv-x="1035" 
d="M978 264v-31h-423c3 -128 86 -191 183 -191c77 0 139 38 168 112h62c-31 -98 -114 -162 -230 -162c-99 0 -176 48 -215 127c-39 -79 -117 -129 -219 -129c-149 0 -248 107 -248 259c0 153 99 260 248 260c100 0 178 -49 218 -128c39 80 115 129 214 129
c145 0 242 -100 242 -246zM554 280h364c-6 119 -83 181 -182 181s-176 -64 -182 -181zM304 41c114 0 190 82 190 209s-76 209 -190 209s-190 -82 -190 -209s76 -209 190 -209z" />
    <glyph glyph-name="Racute" unicode="&#x154;" horiz-adv-x="642" 
d="M281 754l75 122h78l-92 -122h-61zM82 0v700h271c158 0 242 -85 242 -218c0 -106 -59 -188 -172 -211l155 -271h-71l-152 264h-213v-264h-60zM142 322h220c109 0 169 57 169 160s-60 160 -169 160h-220v-320z" />
    <glyph glyph-name="racute" unicode="&#x155;" horiz-adv-x="357" 
d="M325 696l-92 -122h-61l75 122h78zM268 500h61v-55h-62c-88 0 -133 -61 -133 -161v-284h-57v500h47l9 -79c22 46 77 79 135 79z" />
    <glyph glyph-name="Rcommaaccent" unicode="&#x156;" horiz-adv-x="642" 
d="M595 482c0 -106 -59 -188 -172 -211l155 -271h-71l-152 264h-213v-264h-60v700h271c158 0 242 -85 242 -218zM142 322h220c109 0 169 57 169 160s-60 160 -169 160h-220v-320zM276 -127v78h78v-78l-31 -84h-44l31 84h-34z" />
    <glyph glyph-name="rcommaaccent" unicode="&#x157;" horiz-adv-x="357" 
d="M268 500h61v-55h-62c-88 0 -133 -61 -133 -161v-284h-57v500h47l9 -79c22 46 77 79 135 79zM67 -127v78h78v-78l-31 -84h-44l31 84h-34z" />
    <glyph glyph-name="Rcaron" unicode="&#x158;" horiz-adv-x="642" 
d="M313 797l-62 79h-66l95 -122h63l96 122h-64zM82 0v700h271c158 0 242 -85 242 -218c0 -106 -59 -188 -172 -211l155 -271h-71l-152 264h-213v-264h-60zM142 322h220c109 0 169 57 169 160s-60 160 -169 160h-220v-320z" />
    <glyph glyph-name="rcaron" unicode="&#x159;" horiz-adv-x="357" 
d="M234 574h-63l-95 122h66l62 -79l62 79h64zM133 421c22 46 77 79 135 79h61v-55h-62c-88 0 -133 -61 -133 -161v-284h-57v500h47z" />
    <glyph glyph-name="Sacute" unicode="&#x15a;" horiz-adv-x="589" 
d="M257 754l75 122h78l-92 -122h-61zM545 184c0 -121 -111 -194 -254 -194c-158 0 -256 79 -256 197h66c0 -86 69 -140 194 -140c96 0 186 48 186 139c0 80 -52 115 -138 130l-117 21c-121 22 -177 90 -177 186c0 116 103 187 242 187c149 0 242 -79 242 -197h-66
c0 86 -64 140 -181 140c-91 0 -173 -44 -173 -132c0 -76 48 -110 130 -125l117 -21c125 -22 185 -91 185 -191z" />
    <glyph glyph-name="sacute" unicode="&#x15b;" horiz-adv-x="506" 
d="M215 574l75 122h78l-92 -122h-61zM46 143h60c3 -66 58 -104 145 -104s143 35 143 96c0 51 -26 77 -86 85l-107 16c-94 14 -142 55 -142 134c0 85 79 140 186 140c113 0 195 -53 197 -153h-58c-2 68 -59 104 -138 104c-77 0 -131 -33 -131 -91c0 -48 29 -73 97 -82
l106 -16c89 -13 134 -53 134 -132c0 -95 -86 -150 -199 -150c-131 0 -204 60 -207 153z" />
    <glyph glyph-name="Scircumflex" unicode="&#x15c;" horiz-adv-x="589" 
d="M285 833l62 -79h66l-95 122h-63l-96 -122h64zM545 184c0 -121 -111 -194 -254 -194c-158 0 -256 79 -256 197h66c0 -86 69 -140 194 -140c96 0 186 48 186 139c0 80 -52 115 -138 130l-117 21c-121 22 -177 90 -177 186c0 116 103 187 242 187c149 0 242 -79 242 -197
h-66c0 86 -64 140 -181 140c-91 0 -173 -44 -173 -132c0 -76 48 -110 130 -125l117 -21c125 -22 185 -91 185 -191z" />
    <glyph glyph-name="scircumflex" unicode="&#x15d;" horiz-adv-x="506" 
d="M243 653l62 -79h66l-95 122h-63l-96 -122h64zM46 143h60c3 -66 58 -104 145 -104s143 35 143 96c0 51 -26 77 -86 85l-107 16c-94 14 -142 55 -142 134c0 85 79 140 186 140c113 0 195 -53 197 -153h-58c-2 68 -59 104 -138 104c-77 0 -131 -33 -131 -91
c0 -48 29 -73 97 -82l106 -16c89 -13 134 -53 134 -132c0 -95 -86 -150 -199 -150c-131 0 -204 60 -207 153z" />
    <glyph glyph-name="Scedilla" unicode="&#x15e;" horiz-adv-x="589" 
d="M545 184c0 -116 -103 -188 -238 -194l-16 -37c45 6 77 -20 77 -57c0 -41 -31 -67 -78 -67c-43 0 -79 28 -79 62h45c2 -16 15 -26 33 -26c17 0 31 9 31 28c0 25 -27 33 -55 24l-21 9l27 64c-146 7 -236 84 -236 197h66c0 -86 69 -140 194 -140c96 0 186 48 186 139
c0 80 -52 115 -138 130l-117 21c-121 22 -177 90 -177 186c0 116 103 187 242 187c149 0 242 -79 242 -197h-66c0 86 -64 140 -181 140c-91 0 -173 -44 -173 -132c0 -76 48 -110 130 -125l117 -21c125 -22 185 -91 185 -191z" />
    <glyph glyph-name="scedilla" unicode="&#x15f;" horiz-adv-x="506" 
d="M452 140c0 -90 -77 -144 -181 -149l-16 -38c45 6 77 -20 77 -57c0 -41 -31 -67 -78 -67c-43 0 -79 28 -79 62h45c2 -16 15 -26 33 -26c17 0 31 9 31 28c0 25 -27 33 -55 24l-21 9l27 64c-120 6 -186 64 -189 153h60c3 -66 58 -104 145 -104s143 35 143 96
c0 51 -26 77 -86 85l-107 16c-94 14 -142 55 -142 134c0 85 79 140 186 140c113 0 195 -53 197 -153h-58c-2 68 -59 104 -138 104c-77 0 -131 -33 -131 -91c0 -48 29 -73 97 -82l106 -16c89 -13 134 -53 134 -132z" />
    <glyph glyph-name="Scaron" unicode="&#x160;" horiz-adv-x="589" 
d="M289 797l-62 79h-66l95 -122h63l96 122h-64zM545 184c0 -121 -111 -194 -254 -194c-158 0 -256 79 -256 197h66c0 -86 69 -140 194 -140c96 0 186 48 186 139c0 80 -52 115 -138 130l-117 21c-121 22 -177 90 -177 186c0 116 103 187 242 187c149 0 242 -79 242 -197h-66
c0 86 -64 140 -181 140c-91 0 -173 -44 -173 -132c0 -76 48 -110 130 -125l117 -21c125 -22 185 -91 185 -191z" />
    <glyph glyph-name="scaron" unicode="&#x161;" horiz-adv-x="506" 
d="M247 617l-62 79h-66l95 -122h63l96 122h-64zM46 143h60c3 -66 58 -104 145 -104s143 35 143 96c0 51 -26 77 -86 85l-107 16c-94 14 -142 55 -142 134c0 85 79 140 186 140c113 0 195 -53 197 -153h-58c-2 68 -59 104 -138 104c-77 0 -131 -33 -131 -91
c0 -48 29 -73 97 -82l106 -16c89 -13 134 -53 134 -132c0 -95 -86 -150 -199 -150c-131 0 -204 60 -207 153z" />
    <glyph glyph-name="uni0162" unicode="&#x162;" horiz-adv-x="605" 
d="M24 700h557v-59h-249v-641h-60v641h-248v59zM263 -127v78h78v-78l-31 -84h-44l31 84h-34z" />
    <glyph glyph-name="uni0163" unicode="&#x163;" horiz-adv-x="324" 
d="M282 448h-119v-330c0 -33 12 -65 63 -65h55v-53h-63c-63 0 -112 33 -112 115v333h-95v52h52c32 0 43 13 43 42v86h57v-128h119v-52zM161 -127v78h78v-78l-31 -84h-44l31 84h-34z" />
    <glyph glyph-name="Tcaron" unicode="&#x164;" horiz-adv-x="605" 
d="M304 797l-62 79h-66l95 -122h63l96 122h-64zM332 641v-641h-60v641h-248v59h557v-59h-249z" />
    <glyph glyph-name="tcaron" unicode="&#x165;" horiz-adv-x="324" 
d="M308 730l-45 -170h-42l19 170h68zM218 0c-63 0 -112 33 -112 115v333h-95v52h52c32 0 43 13 43 42v86h57v-128h119v-52h-119v-330c0 -33 12 -65 63 -65h55v-53h-63z" />
    <glyph glyph-name="Tbar" unicode="&#x166;" horiz-adv-x="601" 
d="M581 641h-249v-255h106v-54h-106v-332h-60v332h-110v54h110v255h-248v59h557v-59z" />
    <glyph glyph-name="tbar" unicode="&#x167;" horiz-adv-x="333" 
d="M291 254h-124v-136c0 -33 12 -65 63 -65h55v-53h-63c-63 0 -112 33 -112 115v139h-90v52h90v142h-95v52h52c32 0 43 13 43 42v86h57v-128h119v-52h-119v-142h124v-52z" />
    <glyph glyph-name="Utilde" unicode="&#x168;" horiz-adv-x="691" 
d="M287 863c47 0 79 -35 110 -35c19 0 33 12 34 36h45c0 -59 -27 -92 -73 -92c-47 0 -79 35 -110 35c-19 0 -33 -12 -34 -36h-45c0 59 27 92 73 92zM137 700v-436c0 -137 74 -216 208 -216s208 79 208 216v436h61v-443c0 -162 -108 -267 -269 -267s-268 104 -268 267v443h60
z" />
    <glyph glyph-name="utilde" unicode="&#x169;" horiz-adv-x="561" 
d="M226 628c-19 0 -33 -12 -34 -36h-45c0 59 27 92 73 92c47 0 79 -35 110 -35c19 0 33 12 34 36h45c0 -59 -27 -92 -73 -92c-47 0 -79 35 -110 35zM427 500h57v-500h-47l-9 84c-30 -62 -92 -94 -165 -94c-119 0 -192 82 -192 210v300h58v-289c0 -113 60 -166 143 -166
c101 0 155 76 155 181v274z" />
    <glyph glyph-name="Umacron" unicode="&#x16a;" horiz-adv-x="691" 
d="M212 828h266v-51h-266v51zM137 700v-436c0 -137 74 -216 208 -216s208 79 208 216v436h61v-443c0 -162 -108 -267 -269 -267s-268 104 -268 267v443h60z" />
    <glyph glyph-name="umacron" unicode="&#x16b;" horiz-adv-x="561" 
d="M411 649v-51h-266v51h266zM427 500h57v-500h-47l-9 84c-30 -62 -92 -94 -165 -94c-119 0 -192 82 -192 210v300h58v-289c0 -113 60 -166 143 -166c101 0 155 76 155 181v274z" />
    <glyph glyph-name="Ubreve" unicode="&#x16c;" horiz-adv-x="691" 
d="M345 754c-74 0 -127 51 -127 122h53c0 -44 29 -70 74 -70s74 26 74 70h53c0 -71 -53 -122 -127 -122zM137 700v-436c0 -137 74 -216 208 -216s208 79 208 216v436h61v-443c0 -162 -108 -267 -269 -267s-268 104 -268 267v443h60z" />
    <glyph glyph-name="ubreve" unicode="&#x16d;" horiz-adv-x="561" 
d="M278 575c-74 0 -127 51 -127 122h53c0 -44 29 -70 74 -70s74 26 74 70h53c0 -71 -53 -122 -127 -122zM427 500h57v-500h-47l-9 84c-30 -62 -92 -94 -165 -94c-119 0 -192 82 -192 210v300h58v-289c0 -113 60 -166 143 -166c101 0 155 76 155 181v274z" />
    <glyph glyph-name="Uring" unicode="&#x16e;" horiz-adv-x="691" 
d="M238 833c0 62 47 106 108 106s106 -44 106 -106s-45 -106 -106 -106s-108 44 -108 106zM288 833c0 -34 24 -60 58 -60s58 26 58 60s-24 60 -58 60s-58 -26 -58 -60zM137 700v-436c0 -137 74 -216 208 -216s208 79 208 216v436h61v-443c0 -162 -108 -267 -269 -267
s-268 104 -268 267v443h60z" />
    <glyph glyph-name="uring" unicode="&#x16f;" horiz-adv-x="561" 
d="M279 548c-61 0 -108 44 -108 106s47 106 108 106s106 -44 106 -106s-45 -106 -106 -106zM279 714c-34 0 -58 -26 -58 -60s24 -60 58 -60s58 26 58 60s-24 60 -58 60zM427 500h57v-500h-47l-9 84c-30 -62 -92 -94 -165 -94c-119 0 -192 82 -192 210v300h58v-289
c0 -113 60 -166 143 -166c101 0 155 76 155 181v274z" />
    <glyph glyph-name="Uhungarumlaut" unicode="&#x170;" horiz-adv-x="691" 
d="M258 754l75 122h76l-92 -122h-59zM373 754l95 122h76l-112 -122h-59zM137 700v-436c0 -137 74 -216 208 -216s208 79 208 216v436h61v-443c0 -162 -108 -267 -269 -267s-268 104 -268 267v443h60z" />
    <glyph glyph-name="uhungarumlaut" unicode="&#x171;" horiz-adv-x="561" 
d="M342 697l-92 -122h-59l75 122h76zM365 575h-59l95 122h76zM427 500h57v-500h-47l-9 84c-30 -62 -92 -94 -165 -94c-119 0 -192 82 -192 210v300h58v-289c0 -113 60 -166 143 -166c101 0 155 76 155 181v274z" />
    <glyph glyph-name="Uogonek" unicode="&#x172;" horiz-adv-x="691" 
d="M553 700h61v-443c0 -142 -83 -240 -211 -262c-46 -25 -67 -45 -67 -67c0 -20 16 -28 35 -28c11 0 23 2 34 8v-44c-19 -9 -32 -12 -50 -12c-39 0 -74 23 -74 62c0 24 8 50 48 76c-152 7 -252 109 -252 267v443h60v-436c0 -137 74 -216 208 -216s208 79 208 216v436z" />
    <glyph glyph-name="uogonek" unicode="&#x173;" horiz-adv-x="561" 
d="M484 0c-49 -26 -71 -46 -71 -69c0 -20 16 -28 35 -28c11 0 23 2 34 8v-44c-19 -9 -32 -12 -50 -12c-39 0 -74 23 -74 62c0 29 12 61 78 93l-8 74c-30 -62 -92 -94 -165 -94c-119 0 -192 82 -192 210v300h58v-289c0 -113 60 -166 143 -166c101 0 155 76 155 181v274h57
v-500z" />
    <glyph glyph-name="Wcircumflex" unicode="&#x174;" horiz-adv-x="952" 
d="M474 833l62 -79h66l-95 122h-63l-96 -122h64zM221 0l-203 700h63l178 -615l183 615h64l185 -618l180 618h63l-209 -700h-70l-183 604l-181 -604h-70z" />
    <glyph glyph-name="wcircumflex" unicode="&#x175;" horiz-adv-x="765" 
d="M382 653l62 -79h66l-95 122h-63l-96 -122h64zM83 500l126 -435l147 435h58l147 -435l122 435h59l-146 -500h-68l-146 424l-142 -424h-68l-150 500h61z" />
    <glyph glyph-name="Ycircumflex" unicode="&#x176;" horiz-adv-x="609" 
d="M302 833l62 -79h66l-95 122h-63l-96 -122h64zM275 235l-260 465h75l217 -399l214 399h73l-259 -465v-235h-60v235z" />
    <glyph glyph-name="ycircumflex" unicode="&#x177;" horiz-adv-x="492" 
d="M244 653l62 -79h66l-95 122h-63l-96 -122h64zM76 500l178 -475l164 476l62 -1l-210 -582c-35 -96 -83 -118 -155 -118h-89v53h91c60 0 97 33 97 100c0 15 -3 31 -9 47l-193 500h64z" />
    <glyph glyph-name="Ydieresis" unicode="&#x178;" horiz-adv-x="609" 
d="M178 771v77h84v-77h-84zM347 771v77h84v-77h-84zM275 235l-260 465h75l217 -399l214 399h73l-259 -465v-235h-60v235z" />
    <glyph glyph-name="Zacute" unicode="&#x179;" horiz-adv-x="576" 
d="M257 754l75 122h78l-92 -122h-61zM109 59h432v-59h-506v56l417 585h-407v59h481v-56z" />
    <glyph glyph-name="zacute" unicode="&#x17a;" horiz-adv-x="487" 
d="M212 564l75 122h78l-92 -122h-61zM119 52h321v-52h-389v50l318 398h-322v52h389v-50z" />
    <glyph glyph-name="Zdotaccent" unicode="&#x17b;" horiz-adv-x="576" 
d="M245 802v78h85v-78h-85zM109 59h432v-59h-506v56l417 585h-407v59h481v-56z" />
    <glyph glyph-name="zdotaccent" unicode="&#x17c;" horiz-adv-x="487" 
d="M200 612v78h85v-78h-85zM119 52h321v-52h-389v50l318 398h-322v52h389v-50z" />
    <glyph glyph-name="Zcaron" unicode="&#x17d;" horiz-adv-x="576" 
d="M289 797l-62 79h-66l95 -122h63l96 122h-64zM109 59h432v-59h-506v56l417 585h-407v59h481v-56z" />
    <glyph glyph-name="zcaron" unicode="&#x17e;" horiz-adv-x="487" 
d="M244 607l-62 79h-66l95 -122h63l96 122h-64zM119 52h321v-52h-389v50l318 398h-322v52h389v-50z" />
    <glyph glyph-name="florin" unicode="&#x192;" horiz-adv-x="500" 
d="M396 647c-41 0 -61 -26 -67 -59l-43 -221h144v-56h-154l-58 -300c-15 -79 -59 -124 -128 -124h-45v53h44c41 0 61 26 67 59l60 312h-130v56h141l40 209c15 79 59 124 128 124h45v-53h-44z" />
    <glyph glyph-name="Aringacute" unicode="&#x1fa;" horiz-adv-x="639" 
d="M453 1039l-92 -122h-61l75 122h78zM563 0l-71 185h-346l-71 -185h-63l265 680c-38 16 -63 51 -63 97c0 62 47 106 108 106s106 -44 106 -106c0 -47 -26 -83 -65 -99l264 -678h-64zM322 837c-34 0 -58 -26 -58 -60s24 -60 58 -60s58 26 58 60s-24 60 -58 60zM169 243h300
l-150 389z" />
    <glyph glyph-name="aringacute" unicode="&#x1fb;" horiz-adv-x="556" 
d="M403 833l-92 -122h-61l75 122h78zM508 47h17v-47h-39c-37 0 -73 17 -76 73c-29 -48 -99 -83 -182 -83c-111 0 -180 59 -180 152c0 77 45 143 194 143h168v30c0 105 -60 145 -142 145c-85 0 -136 -39 -141 -105h-59c7 78 58 128 131 147c-22 18 -35 46 -35 79
c0 62 47 106 108 106s106 -44 106 -106c0 -33 -13 -62 -35 -81c83 -23 125 -91 125 -183v-227c0 -34 7 -43 40 -43zM272 641c-34 0 -58 -26 -58 -60s24 -60 58 -60s58 26 58 60s-24 60 -58 60zM233 40c88 0 177 51 177 172v25h-168c-99 0 -134 -40 -134 -96
c0 -67 51 -101 125 -101z" />
    <glyph glyph-name="AEacute" unicode="&#x1fc;" horiz-adv-x="973" 
d="M636 775l75 122h78l-92 -122h-61zM4 0l451 700h457v-59h-370v-259h282v-58h-282v-265h391v-59h-452v185h-287l-119 -185h-71zM231 243h250v388z" />
    <glyph glyph-name="aeacute" unicode="&#x1fd;" horiz-adv-x="954" 
d="M580 694l-92 -122h-61l75 122h78zM897 261v-32h-423c4 -128 86 -187 183 -187c77 0 139 38 168 112h62c-31 -98 -114 -162 -230 -162c-99 0 -175 47 -215 125c-36 -90 -123 -127 -209 -127c-112 0 -185 52 -185 145c0 77 44 142 194 142h171v38c0 109 -67 147 -143 147
c-90 0 -142 -47 -147 -112h-53c8 102 89 160 200 160c97 0 156 -46 181 -109c41 69 113 109 204 109c145 0 242 -100 242 -249zM473 277h364c-6 119 -83 184 -182 184s-176 -65 -182 -184zM413 212v17h-171c-102 0 -134 -38 -134 -95c0 -67 53 -95 129 -95
c89 0 176 51 176 173z" />
    <glyph glyph-name="Oslashacute" unicode="&#x1fe;" horiz-adv-x="772" 
d="M509 876l-92 -122h-61l75 122h78zM611 623c66 -66 105 -162 105 -276c0 -209 -132 -356 -329 -356c-70 0 -132 18 -182 51l-30 -42h-64l52 75c-67 63 -107 158 -107 272c0 210 134 363 331 363c70 0 132 -20 183 -54l31 44h64zM120 348c0 -92 28 -170 79 -223l337 482
c-41 29 -91 45 -149 45c-164 0 -267 -127 -267 -304zM387 49c163 0 265 122 265 299c0 92 -27 170 -76 224l-337 -481c41 -27 91 -42 148 -42z" />
    <glyph glyph-name="Scommaaccent" unicode="&#x218;" horiz-adv-x="589" 
d="M360 375c125 -22 185 -91 185 -191c0 -121 -111 -194 -254 -194c-158 0 -256 79 -256 197h66c0 -86 69 -140 194 -140c96 0 186 48 186 139c0 80 -52 115 -138 130l-117 21c-121 22 -177 90 -177 186c0 116 103 187 242 187c149 0 242 -79 242 -197h-66
c0 86 -64 140 -181 140c-91 0 -173 -44 -173 -132c0 -76 48 -110 130 -125zM247 -137v78h78v-78l-31 -84h-44l31 84h-34z" />
    <glyph glyph-name="scommaaccent" unicode="&#x219;" horiz-adv-x="506" 
d="M318 272c89 -13 134 -53 134 -132c0 -95 -86 -150 -199 -150c-131 0 -204 60 -207 153h60c3 -66 58 -104 145 -104s143 35 143 96c0 51 -26 77 -86 85l-107 16c-94 14 -142 55 -142 134c0 85 79 140 186 140c113 0 195 -53 197 -153h-58c-2 68 -59 104 -138 104
c-77 0 -131 -33 -131 -91c0 -48 29 -73 97 -82zM211 -137v78h78v-78l-31 -84h-44l31 84h-34z" />
    <glyph glyph-name="uni021A" unicode="&#x21a;" horiz-adv-x="605" 
d="M24 700h557v-59h-249v-641h-60v641h-248v59zM263 -127v78h78v-78l-31 -84h-44l31 84h-34z" />
    <glyph glyph-name="uni021B" unicode="&#x21b;" horiz-adv-x="324" 
d="M282 448h-119v-330c0 -33 12 -65 63 -65h55v-53h-63c-63 0 -112 33 -112 115v333h-95v52h52c32 0 43 13 43 42v86h57v-128h119v-52zM161 -127v78h78v-78l-31 -84h-44l31 84h-34z" />
    <glyph glyph-name="uni0237" unicode="&#x237;" horiz-adv-x="221" 
d="M144 -82c0 -77 -45 -118 -109 -118h-66v53h56c51 0 62 31 62 66v581h57v-582z" />
    <glyph glyph-name="uni02BB" unicode="&#x2bb;" horiz-adv-x="142" 
d="M76 683h34v-78h-78v78l31 84h44z" />
    <glyph glyph-name="uni02BC" unicode="&#x2bc;" horiz-adv-x="267" 
d="M230 730l-45 -170h-42l19 170h68z" />
    <glyph glyph-name="circumflex" unicode="&#x2c6;" horiz-adv-x="324" 
d="M159 667l62 -79h66l-95 122h-63l-96 -122h64z" />
    <glyph glyph-name="caron" unicode="&#x2c7;" horiz-adv-x="324" 
d="M163 631l-62 79h-66l95 -122h63l96 122h-64z" />
    <glyph glyph-name="breve" unicode="&#x2d8;" horiz-adv-x="295" 
d="M148 588c-74 0 -127 51 -127 122h53c0 -44 29 -70 74 -70s74 26 74 70h53c0 -71 -53 -122 -127 -122z" />
    <glyph glyph-name="dotaccent" unicode="&#x2d9;" horiz-adv-x="182" 
d="M48 637v78h85v-78h-85z" />
    <glyph glyph-name="ring" unicode="&#x2da;" horiz-adv-x="264" 
d="M25 632c0 62 47 106 108 106s106 -44 106 -106s-45 -106 -106 -106s-108 44 -108 106zM75 632c0 -34 24 -60 58 -60s58 26 58 60s-24 60 -58 60s-58 -26 -58 -60z" />
    <glyph glyph-name="ogonek" unicode="&#x2db;" horiz-adv-x="206" 
d="M168 -133c-19 -9 -32 -12 -50 -12c-39 0 -74 23 -74 62c0 30 13 63 83 95l43 -12c-49 -26 -71 -46 -71 -69c0 -20 16 -28 35 -28c11 0 23 2 34 8v-44z" />
    <glyph glyph-name="tilde" unicode="&#x2dc;" horiz-adv-x="306" 
d="M113 697c47 0 79 -35 110 -35c19 0 33 12 34 36h45c0 -59 -27 -92 -73 -92c-47 0 -79 35 -110 35c-19 0 -33 -12 -34 -36h-45c0 59 27 92 73 92z" />
    <glyph glyph-name="hungarumlaut" unicode="&#x2dd;" horiz-adv-x="321" 
d="M35 588l75 122h76l-92 -122h-59zM150 588l95 122h76l-112 -122h-59z" />
    <glyph glyph-name="uni0326" unicode="&#x326;" horiz-adv-x="0" 
d="M-154 -18h78v-78l-31 -84h-44l31 84h-34v78z" />
    <glyph glyph-name="uni0335" unicode="&#x335;" horiz-adv-x="0" 
d="M-286 304h276v-54h-276v54z" />
    <glyph glyph-name="uni0336" unicode="&#x336;" horiz-adv-x="0" 
d="M-580 306h486v-58h-486v58z" />
    <glyph glyph-name="uni0337" unicode="&#x337;" horiz-adv-x="0" 
d="M-433 -22l408 542h58l-408 -542h-58z" />
    <glyph glyph-name="uni0338" unicode="&#x338;" horiz-adv-x="0" 
d="M-514 0l450 700h64l-450 -700h-64z" />
    <glyph glyph-name="pi" unicode="&#x3c0;" horiz-adv-x="648" 
d="M588 442h-103v-345c0 -26 10 -38 37 -38h66v-59h-56c-62 0 -105 30 -105 101v341h-215v-442h-58v442h-94v58h528v-58z" />
    <glyph glyph-name="Wgrave" unicode="&#x1e80;" horiz-adv-x="952" 
d="M507 754h-61l-92 122h78zM221 0l-203 700h63l178 -615l183 615h64l185 -618l180 618h63l-209 -700h-70l-183 604l-181 -604h-70z" />
    <glyph glyph-name="wgrave" unicode="&#x1e81;" horiz-adv-x="765" 
d="M415 574h-61l-92 122h78zM83 500l126 -435l147 435h58l147 -435l122 435h59l-146 -500h-68l-146 424l-142 -424h-68l-150 500h61z" />
    <glyph glyph-name="Wacute" unicode="&#x1e82;" horiz-adv-x="952" 
d="M446 754l75 122h78l-92 -122h-61zM221 0l-203 700h63l178 -615l183 615h64l185 -618l180 618h63l-209 -700h-70l-183 604l-181 -604h-70z" />
    <glyph glyph-name="wacute" unicode="&#x1e83;" horiz-adv-x="765" 
d="M354 574l75 122h78l-92 -122h-61zM83 500l126 -435l147 435h58l147 -435l122 435h59l-146 -500h-68l-146 424l-142 -424h-68l-150 500h61z" />
    <glyph glyph-name="Wdieresis" unicode="&#x1e84;" horiz-adv-x="952" 
d="M350 771v77h84v-77h-84zM519 771v77h84v-77h-84zM221 0l-203 700h63l178 -615l183 615h64l185 -618l180 618h63l-209 -700h-70l-183 604l-181 -604h-70z" />
    <glyph glyph-name="wdieresis" unicode="&#x1e85;" horiz-adv-x="765" 
d="M258 591v77h84v-77h-84zM427 591v77h84v-77h-84zM83 500l126 -435l147 435h58l147 -435l122 435h59l-146 -500h-68l-146 424l-142 -424h-68l-150 500h61z" />
    <glyph glyph-name="Ygrave" unicode="&#x1ef2;" horiz-adv-x="609" 
d="M335 754h-61l-92 122h78zM275 235l-260 465h75l217 -399l214 399h73l-259 -465v-235h-60v235z" />
    <glyph glyph-name="ygrave" unicode="&#x1ef3;" horiz-adv-x="492" 
d="M277 574h-61l-92 122h78zM76 500l178 -475l164 476l62 -1l-210 -582c-35 -96 -83 -118 -155 -118h-89v53h91c60 0 97 33 97 100c0 15 -3 31 -9 47l-193 500h64z" />
    <glyph glyph-name="endash" unicode="&#x2013;" horiz-adv-x="620" 
d="M60 312h500v-59h-500v59z" />
    <glyph glyph-name="emdash" unicode="&#x2014;" horiz-adv-x="1000" 
d="M60 312h880v-59h-880v59z" />
    <glyph glyph-name="quoteleft" unicode="&#x2018;" horiz-adv-x="217" 
d="M60 494v94l55 112h42l-55 -112h52v-94h-94z" />
    <glyph glyph-name="quoteright" unicode="&#x2019;" horiz-adv-x="217" 
d="M60 494l55 112h-52v94h94v-94l-55 -112h-42z" />
    <glyph glyph-name="quotesinglbase" unicode="&#x201a;" horiz-adv-x="217" 
d="M63 0v94h94v-94l-55 -112h-42l55 112h-52z" />
    <glyph glyph-name="quotedblleft" unicode="&#x201c;" horiz-adv-x="367" 
d="M60 494v94l55 112h42l-55 -112h52v-94h-94zM210 494v94l55 112h42l-55 -112h52v-94h-94z" />
    <glyph glyph-name="quotedblright" unicode="&#x201d;" horiz-adv-x="367" 
d="M60 494l55 112h-52v94h94v-94l-55 -112h-42zM210 494l55 112h-52v94h94v-94l-55 -112h-42z" />
    <glyph glyph-name="quotedblbase" unicode="&#x201e;" horiz-adv-x="367" 
d="M63 0v94h94v-94l-55 -112h-42l55 112h-52zM213 0v94h94v-94l-55 -112h-42l55 112h-52z" />
    <glyph glyph-name="dagger" unicode="&#x2020;" horiz-adv-x="453" 
d="M413 533v-62h-156v-371h-61v371h-156v62h156v167h61v-167h156z" />
    <glyph glyph-name="daggerdbl" unicode="&#x2021;" horiz-adv-x="453" 
d="M413 468h-156v-136h156v-62h-156v-170h-61v170h-156v62h156v136h-156v62h156v170h61v-170h156v-62z" />
    <glyph glyph-name="bullet" unicode="&#x2022;" horiz-adv-x="380" 
d="M190 141c-82 0 -150 67 -150 150c0 82 67 150 150 150c82 0 150 -67 150 -150c0 -82 -67 -150 -150 -150z" />
    <glyph glyph-name="ellipsis" unicode="&#x2026;" horiz-adv-x="607" 
d="M62 0v94h94v-94h-94zM257 0v94h94v-94h-94zM451 0v94h94v-94h-94z" />
    <glyph glyph-name="perthousand" unicode="&#x2030;" horiz-adv-x="1258" 
d="M40 530c0 103 51 179 148 179c95 0 147 -72 147 -179c0 -106 -50 -181 -147 -181c-96 0 -148 73 -148 181zM191 0l435 700h70l-436 -700h-69zM277 530c0 71 -23 127 -89 127c-64 0 -90 -51 -90 -127c0 -75 22 -129 90 -129c66 0 89 51 89 129zM705 -10
c-96 0 -148 72 -148 181c0 104 51 179 148 179c94 0 148 -73 148 -179c0 -105 -51 -181 -148 -181zM1070 -10c-96 0 -148 72 -148 181c0 104 51 179 148 179c94 0 148 -73 148 -179c0 -105 -51 -181 -148 -181zM705 42c64 0 89 45 89 129c0 73 -21 127 -89 127
c-66 0 -89 -49 -89 -127c0 -79 23 -129 89 -129zM1070 42c64 0 89 45 89 129c0 73 -21 127 -89 127c-66 0 -89 -49 -89 -127c0 -79 23 -129 89 -129z" />
    <glyph glyph-name="guilsinglleft" unicode="&#x2039;" horiz-adv-x="321" 
d="M218 60l-178 220l178 220h67l-178 -220l178 -220h-67z" />
    <glyph glyph-name="guilsinglright" unicode="&#x203a;" horiz-adv-x="321" 
d="M103 500l178 -220l-178 -220h-67l178 220l-178 220h67z" />
    <glyph glyph-name="uni2042" unicode="&#x2042;" horiz-adv-x="640" 
d="M196 597l13 39l49 -16c23 -7 37 -15 49 -25c-8 13 -10 29 -10 53v52h43v-52c0 -24 -1 -40 -8 -53c11 10 24 18 47 25l49 16l16 -40l-50 -17c-24 -8 -42 -11 -56 -9c14 -8 26 -18 42 -39l31 -42l-34 -24l-30 40c-17 22 -24 38 -28 54c-2 -16 -10 -33 -26 -54l-30 -40
l-37 24l32 42c15 20 27 31 42 39c-15 -2 -31 0 -57 10zM36 317l13 39l49 -16c23 -7 37 -15 49 -25c-8 13 -10 29 -10 53v52h43v-52c0 -24 -1 -40 -8 -53c11 10 24 18 47 25l49 16l16 -40l-50 -17c-24 -8 -42 -11 -56 -9c14 -8 26 -18 42 -39l31 -42l-34 -24l-30 40
c-17 22 -24 38 -28 54c-2 -16 -10 -33 -26 -54l-30 -40l-37 24l32 42c15 20 27 31 42 39c-15 -2 -31 0 -57 10zM356 317l13 39l49 -16c23 -7 37 -15 49 -25c-8 13 -10 29 -10 53v52h43v-52c0 -24 -1 -40 -8 -53c11 10 24 18 47 25l49 16l16 -40l-50 -17
c-24 -8 -42 -11 -56 -9c14 -8 26 -18 42 -39l31 -42l-34 -24l-30 40c-17 22 -24 38 -28 54c-2 -16 -10 -33 -26 -54l-30 -40l-37 24l32 42c15 20 27 31 42 39c-15 -2 -31 0 -57 10z" />
    <glyph glyph-name="fraction" unicode="&#x2044;" horiz-adv-x="168" 
d="M-170 0l450 700h58l-450 -700h-58z" />
    <glyph glyph-name="Euro" unicode="&#x20ac;" horiz-adv-x="624" 
d="M389 42c69 0 127 23 171 62l34 -50c-55 -44 -124 -70 -205 -70c-160 0 -278 101 -317 251h-62v56h51c-2 18 -3 37 -3 56c0 20 1 39 4 58h-52v56h62c40 149 158 249 317 249c81 0 150 -26 205 -70l-34 -50c-44 39 -102 62 -171 62c-126 0 -217 -75 -251 -191h303l-7 -56
h-308c-3 -18 -4 -37 -4 -57s1 -39 4 -57h297l-6 -56h-280c35 -117 125 -193 252 -193z" />
    <glyph glyph-name="uni2116" unicode="&#x2116;" horiz-adv-x="1123" 
d="M728 530c0 109 69 181 172 181c104 0 173 -72 173 -181c0 -108 -69 -180 -173 -180c-103 0 -172 72 -172 180zM82 0v700h72l431 -614v614h60v-700h-72l-431 614v-614h-60zM780 531c0 -78 49 -130 120 -130c73 0 121 52 121 130s-48 130 -121 130
c-71 0 -120 -52 -120 -130zM792 224v52h216v-52h-216z" />
    <glyph glyph-name="uni2117" unicode="&#x2117;" horiz-adv-x="463" 
d="M423 518c0 -107 -86 -192 -191 -192s-192 87 -192 192s87 192 192 192c103 0 191 -83 191 -192zM232 673c-85 0 -155 -70 -155 -155s70 -155 155 -155c83 0 154 66 154 155c0 86 -70 155 -154 155zM203 481h50c39 0 71 24 71 68c0 41 -30 68 -71 68h-85v-202h35v66z
M251 586c21 0 37 -15 37 -36s-16 -38 -37 -38h-48v74h48z" />
    <glyph glyph-name="trademark" unicode="&#x2122;" horiz-adv-x="570" 
d="M20 658v42h237v-42h-99v-244h-42v244h-96zM509 700h41v-286h-43v137c0 12 0 40 6 59l-80 -196h-36l-81 195c6 -14 5 -46 5 -57v-138h-42v286h40l95 -223z" />
    <glyph glyph-name="estimated" unicode="&#x212e;" horiz-adv-x="739" 
d="M40 353c2 211 138 357 330 357c193 0 328 -123 328 -329c1 -16 1 -38 0 -53h-558v-180c52 -74 136 -117 242 -117c103 0 196 54 238 133l38 -14c-49 -98 -153 -159 -278 -159c-204 0 -342 147 -340 362zM140 546v-182h459v200c-50 68 -133 108 -229 106
c-100 -2 -181 -50 -230 -124z" />
    <glyph glyph-name="oneeighth" unicode="&#x215b;" horiz-adv-x="714" 
d="M112 344v301l-82 -41v54l82 42h53v-356h-53zM518 700h58l-450 -700h-58zM634 194c33 -14 58 -48 58 -88c0 -65 -53 -111 -133 -111c-78 0 -131 45 -131 111c0 40 25 74 58 88c-22 15 -39 40 -39 71c0 55 47 96 113 96s113 -40 113 -96c0 -31 -16 -57 -39 -71zM560 314
c-36 0 -62 -24 -62 -52c0 -29 26 -52 62 -52s62 23 62 52c0 28 -26 52 -62 52zM560 43c47 0 79 26 79 66c0 38 -32 60 -79 60c-48 0 -79 -22 -79 -60c0 -40 31 -66 79 -66z" />
    <glyph glyph-name="threeeighths" unicode="&#x215c;" horiz-adv-x="769" 
d="M266 443c0 -61 -53 -104 -120 -104c-75 0 -121 45 -121 113h50c-1 -43 32 -66 72 -66c42 0 65 25 65 59c0 35 -23 59 -64 59h-29v46h25c40 0 64 19 64 53c0 36 -26 55 -63 55c-41 0 -71 -24 -70 -66h-50c0 67 46 113 122 113c66 0 115 -37 115 -100
c0 -37 -15 -63 -45 -78c31 -16 49 -48 49 -84zM573 700h58l-450 -700h-58zM689 194c33 -14 58 -48 58 -88c0 -65 -53 -111 -133 -111c-78 0 -131 45 -131 111c0 40 25 74 58 88c-22 15 -39 40 -39 71c0 55 47 96 113 96s113 -40 113 -96c0 -31 -16 -57 -39 -71zM615 314
c-36 0 -62 -24 -62 -52c0 -29 26 -52 62 -52s62 23 62 52c0 28 -26 52 -62 52zM615 43c47 0 79 26 79 66c0 38 -32 60 -79 60c-48 0 -79 -22 -79 -60c0 -40 31 -66 79 -66z" />
    <glyph glyph-name="fiveeighths" unicode="&#x215d;" horiz-adv-x="780" 
d="M279 466c0 -79 -55 -127 -127 -127c-65 0 -119 38 -123 106h50c4 -37 34 -60 73 -60c44 0 73 33 73 79s-29 77 -74 77c-33 0 -57 -18 -67 -39h-52l36 198h191v-47h-147l-17 -87c15 12 36 20 65 20c70 0 119 -46 119 -120zM584 700h58l-450 -700h-58zM700 194
c33 -14 58 -48 58 -88c0 -65 -53 -111 -133 -111c-78 0 -131 45 -131 111c0 40 25 74 58 88c-22 15 -39 40 -39 71c0 55 47 96 113 96s113 -40 113 -96c0 -31 -16 -57 -39 -71zM626 314c-36 0 -62 -24 -62 -52c0 -29 26 -52 62 -52s62 23 62 52c0 28 -26 52 -62 52zM626 43
c47 0 79 26 79 66c0 38 -32 60 -79 60c-48 0 -79 -22 -79 -60c0 -40 31 -66 79 -66z" />
    <glyph glyph-name="seveneighths" unicode="&#x215e;" horiz-adv-x="716" 
d="M114 344h-53c15 104 66 220 129 309h-180v47h240v-51c-71 -86 -122 -203 -136 -305zM520 700h58l-450 -700h-58zM636 194c33 -14 58 -48 58 -88c0 -65 -53 -111 -133 -111c-78 0 -131 45 -131 111c0 40 25 74 58 88c-22 15 -39 40 -39 71c0 55 47 96 113 96
s113 -40 113 -96c0 -31 -16 -57 -39 -71zM562 314c-36 0 -62 -24 -62 -52c0 -29 26 -52 62 -52s62 23 62 52c0 28 -26 52 -62 52zM562 43c47 0 79 26 79 66c0 38 -32 60 -79 60c-48 0 -79 -22 -79 -60c0 -40 31 -66 79 -66z" />
    <glyph glyph-name="uni2160" unicode="&#x2160;" horiz-adv-x="508" 
d="M448 650h-165v-600h165v-50h-388v50h167v600h-167v50h388v-50z" />
    <glyph glyph-name="uni2161" unicode="&#x2161;" horiz-adv-x="806" 
d="M746 0h-686v50h153v600h-153v50h686v-50h-150v-600h150v-50zM539 650h-270v-600h270v600z" />
    <glyph glyph-name="uni2162" unicode="&#x2162;" horiz-adv-x="1120" 
d="M1060 0h-1000v50h150v600h-150v50h1000v-50h-151v-600h151v-50zM267 50h265v600h-265v-600zM853 650h-265v-600h265v600z" />
    <glyph glyph-name="uni2163" unicode="&#x2163;" horiz-adv-x="1096" 
d="M1036 0h-976v49h150v601h-150v50h974v-50h-128l-198 -601h328v-49zM267 49h331l-201 601h-130v-601zM843 650h-383l193 -591z" />
    <glyph glyph-name="uni2164" unicode="&#x2164;" horiz-adv-x="848" 
d="M788 650h-104l-203 -602h303v-48h-716v48h303l-202 602h-109v50h728v-50zM621 650h-389l194 -593z" />
    <glyph glyph-name="uni2165" unicode="&#x2165;" horiz-adv-x="1097" 
d="M1037 0h-977v50h327l-201 600h-126v50h976v-50h-150v-600h151v-50zM637 650h-388l193 -592zM497 50h334v600h-131z" />
    <glyph glyph-name="uni2166" unicode="&#x2166;" horiz-adv-x="1431" 
d="M1371 0h-1311v50h326l-198 600h-128v50h1311v-50h-165v-600h165v-50zM639 650h-388l190 -592zM496 50h334v600h-128zM1150 650h-264v-600h264v600z" />
    <glyph glyph-name="uni2167" unicode="&#x2167;" horiz-adv-x="1716" 
d="M1656 0h-1596v50h323l-195 600h-128v50h1596v-50h-157v-600h157v-50zM625 650h-374l187 -595zM493 50h330v600h-135zM879 50h255v600h-255v-600zM1189 50h255v600h-255v-600z" />
    <glyph glyph-name="uni2168" unicode="&#x2168;" horiz-adv-x="1062" 
d="M1002 0h-942v48h152v602h-152v50h941v-50h-104l-216 -308l205 -294h116v-48zM396 650h-129v-602h135l211 293zM645 383l185 267h-367zM468 48h348l-171 252z" />
    <glyph glyph-name="uni2169" unicode="&#x2169;" horiz-adv-x="827" 
d="M766 650h-103l-215 -307l204 -295h115v-48h-707v48h110l210 294l-218 308h-102v50h706v-50zM413 382l183 268h-367zM233 48h350l-171 252z" />
    <glyph glyph-name="arrowleft" unicode="&#x2190;" horiz-adv-x="799" 
d="M365 556l42 -42l-233 -233h565v-60h-565l233 -233l-42 -42l-305 305z" />
    <glyph glyph-name="arrowup" unicode="&#x2191;" horiz-adv-x="736" 
d="M60 377l308 302l308 -302l-42 -42l-236 230v-565h-60v565l-236 -230z" />
    <glyph glyph-name="arrowright" unicode="&#x2192;" horiz-adv-x="799" 
d="M434 556l305 -305l-305 -305l-42 42l233 233h-565v60h565l-233 233z" />
    <glyph glyph-name="arrowdown" unicode="&#x2193;" horiz-adv-x="730" 
d="M670 283l-305 -305l-305 305l42 42l233 -233v565h60v-565l233 233z" />
    <glyph glyph-name="arrowboth" unicode="&#x2194;" horiz-adv-x="938" 
d="M665 34v88l97 100l-361 -1v1l-225 -1l100 -101v-87l-216 218l214 217v-88l-97 -99l222 1v1l362 -1l-97 99v87l214 -216z" />
    <glyph glyph-name="arrowupdn" unicode="&#x2195;" horiz-adv-x="554" 
d="M306 -43l100 98h88l-218 -215l-216 215h86l100 -98l-1 223v140l1 222l-100 -98h-86l216 214l218 -214h-88l-100 98v-585z" />
    <glyph glyph-name="uni2196" unicode="&#x2196;" horiz-adv-x="621" 
d="M491 502v-60h-329l399 -399l-42 -43l-400 400v-330h-59v432h431z" />
    <glyph glyph-name="uni2197" unicode="&#x2197;" horiz-adv-x="621" 
d="M130 502h431v-432h-59v330l-400 -400l-42 43l399 399h-329v60z" />
    <glyph glyph-name="uni2198" unicode="&#x2198;" horiz-adv-x="622" 
d="M562 431v-431h-432v59h330l-400 400l43 42l399 -399v329h60z" />
    <glyph glyph-name="uni2199" unicode="&#x2199;" horiz-adv-x="621" 
d="M491 0h-431v432h59v-330l400 400l42 -43l-399 -399h329v-60z" />
    <glyph glyph-name="partialdiff" unicode="&#x2202;" horiz-adv-x="603" 
d="M310 700c151 -96 233 -259 233 -418c0 -166 -89 -292 -259 -292c-150 0 -239 102 -239 249c0 128 85 250 245 250c69 0 142 -30 179 -86c-48 156 -156 243 -247 297h88zM290 40c115 0 186 85 186 199c0 115 -71 200 -186 200s-185 -85 -185 -200c0 -114 70 -199 185 -199
z" />
    <glyph glyph-name="emptyset" unicode="&#x2205;" horiz-adv-x="647" 
d="M589 491l-69 -73c34 -45 53 -104 53 -169c0 -147 -95 -259 -244 -259c-64 0 -119 21 -160 57l-65 -68l-36 29l69 73c-33 45 -52 103 -52 168c0 147 96 260 244 260c64 0 119 -21 160 -57l64 68zM143 249c0 -48 13 -91 35 -125l271 286c-32 28 -73 44 -120 44
c-108 0 -186 -86 -186 -205zM515 249c0 49 -13 92 -36 126l-270 -286c31 -28 73 -44 120 -44c108 0 186 85 186 204z" />
    <glyph glyph-name="product" unicode="&#x220f;" horiz-adv-x="648" 
d="M60 700h528v-62h-117v-642h-62v642h-169v-642h-61v642h-119v62z" />
    <glyph glyph-name="summation" unicode="&#x2211;" horiz-adv-x="591" 
d="M60 -126v59l233 354l-233 354v59h471v-58l-400 -1l232 -354l-232 -354l400 -1v-58h-471z" />
    <glyph glyph-name="minus" unicode="&#x2212;" 
d="M70 360h460v-60h-460v60z" />
    <glyph glyph-name="radical" unicode="&#x221a;" horiz-adv-x="779" 
d="M708 760v-58h-143l-303 -802h-61l-141 377h61l111 -296l294 779h182z" />
    <glyph glyph-name="infinity" unicode="&#x221e;" horiz-adv-x="931" 
d="M235 71c-111 0 -195 89 -195 196c0 108 87 197 195 197c112 0 175 -79 231 -149c56 70 118 149 230 149c109 0 195 -91 195 -197c0 -103 -82 -196 -195 -196c-112 0 -174 79 -230 150c-56 -71 -119 -150 -231 -150zM235 129c60 0 108 32 193 138
c-81 103 -127 139 -193 139c-77 0 -134 -63 -134 -139c0 -74 59 -138 134 -138zM696 129c76 0 135 63 135 138c0 76 -59 139 -135 139c-65 0 -109 -34 -192 -139c81 -102 126 -138 192 -138z" />
    <glyph glyph-name="integral" unicode="&#x222b;" horiz-adv-x="440" 
d="M310 753h50v-53h-56c-31 0 -57 -24 -57 -59v-664c0 -84 -50 -130 -123 -130h-44v53h49c37 0 60 23 60 61v669c0 80 56 123 121 123z" />
    <glyph glyph-name="approxequal" unicode="&#x2248;" 
d="M316 465c33 -26 49 -44 84 -44c34 0 56 27 56 73h56c0 -79 -46 -133 -112 -133c-60 0 -89 33 -119 57c-28 23 -48 46 -83 46c-33 0 -56 -28 -56 -73h-55c0 78 45 133 111 133c60 0 93 -39 118 -59zM316 245c33 -26 49 -44 84 -44c34 0 56 27 56 73h56
c0 -79 -46 -133 -112 -133c-60 0 -89 33 -119 57c-28 23 -48 46 -83 46c-33 0 -56 -28 -56 -73h-55c0 78 45 133 111 133c60 0 93 -39 118 -59z" />
    <glyph glyph-name="notequal" unicode="&#x2260;" 
d="M493 406h-128l-68 -150h193v-59h-220l-48 -105h-59l48 105h-103v59h130l68 150h-195v59h222l46 102h59l-46 -102h101v-59z" />
    <glyph glyph-name="lessequal" unicode="&#x2264;" 
d="M504 583v-69l-337 -158l337 -156v-68l-396 190v70zM108 59h396v-59h-396v59z" />
    <glyph glyph-name="greaterequal" unicode="&#x2265;" 
d="M96 132v69l337 158l-337 156v68l396 -190v-70zM492 59v-59h-396v59h396z" />
    <glyph glyph-name="filledbox" unicode="&#x25a0;" horiz-adv-x="779" 
d="M40 700h699v-699h-699v699z" />
    <glyph glyph-name="uni25A1" unicode="&#x25a1;" horiz-adv-x="780" 
d="M40 700h700v-700h-700v700zM96 644v-588h588v588h-588z" />
    <glyph glyph-name="triagup" unicode="&#x25b2;" horiz-adv-x="931" 
d="M40 0h851l-426 703z" />
    <glyph glyph-name="uni25B3" unicode="&#x25b3;" horiz-adv-x="927" 
d="M40 0l423 700l424 -700h-847zM134 53h658l-329 544z" />
    <glyph glyph-name="lozenge" unicode="&#x25ca;" horiz-adv-x="579" 
d="M256 0l-216 350l216 350h68l215 -350l-215 -350h-68zM475 350l-186 302l-185 -302l185 -300z" />
    <glyph glyph-name="circle" unicode="&#x25cb;" horiz-adv-x="803" 
d="M401 -10c-200 0 -361 162 -361 362c0 199 162 361 361 361s362 -162 362 -361s-163 -362 -362 -362zM401 45c169 0 307 138 307 307s-138 306 -307 306s-306 -137 -306 -306c0 -170 137 -307 306 -307z" />
    <glyph glyph-name="uni25CF" unicode="&#x25cf;" horiz-adv-x="809" 
d="M405 -19c-202 0 -365 163 -365 365c0 201 163 364 365 364c201 0 364 -163 364 -364c0 -202 -163 -365 -364 -365z" />
    <glyph glyph-name="uni262E" unicode="&#x262e;" horiz-adv-x="803" 
d="M401 -10c-200 0 -361 162 -361 362c0 199 162 361 361 361s362 -162 362 -361s-163 -362 -362 -362zM123 223l249 152v282c-155 -15 -277 -146 -277 -305c0 -46 10 -90 28 -129zM680 224c18 39 28 82 28 128c0 159 -121 289 -276 304v-281zM372 46v259l-218 -135
c50 -68 129 -115 218 -124zM432 47c89 9 167 56 217 124l-217 134v-258z" />
    <glyph glyph-name="uni2713" unicode="&#x2713;" horiz-adv-x="779" 
d="M654 500l33 -33l-405 -401l-195 216l36 34l159 -178z" />
    <glyph glyph-name="uniA7B6" unicode="&#xa7b6;" horiz-adv-x="784" 
d="M554 59h190v-59h-266v56c106 86 173 182 173 332c0 157 -96 264 -259 264s-259 -107 -259 -264c0 -150 67 -246 173 -332v-56h-266v59h190c-113 94 -161 198 -161 328c0 190 126 323 323 323s323 -133 323 -323c0 -130 -48 -234 -161 -328z" />
    <glyph glyph-name="i.loclTRK" horiz-adv-x="211" 
d="M63 622v78h85v-78h-85zM77 0v500h57v-500h-57z" />
    <glyph glyph-name="f_f_t" horiz-adv-x="953" 
d="M911 448h-119v-330c0 -33 12 -65 63 -65h55v-53h-63c-63 0 -112 33 -112 115v333h-252v-448h-58v448h-256v-448h-58v448h-90v52h90v110c0 89 46 120 123 120h63v-53h-66c-51 0 -62 -27 -62 -67v-110h256v110c0 89 46 120 123 120h63v-53h-66c-51 0 -62 -27 -62 -67v-110
h209c32 0 43 13 43 42v86h57v-128h119v-52z" />
    <glyph glyph-name="f_t" horiz-adv-x="639" 
d="M597 448h-119v-330c0 -33 12 -65 63 -65h55v-53h-63c-63 0 -112 33 -112 115v333h-252v-448h-58v448h-90v52h90v110c0 89 46 120 123 120h63v-53h-66c-51 0 -62 -27 -62 -67v-110h209c32 0 43 13 43 42v86h57v-128h119v-52z" />
    <glyph glyph-name="t_t" horiz-adv-x="635" 
d="M593 445h-119v-320c0 -33 12 -65 63 -65h56l-1 -60h-63c-63 0 -113 41 -113 115v330h-252v-320c0 -33 12 -65 63 -65h56l-1 -60h-63c-63 0 -113 41 -113 115v330h-94v55h47c32 0 47 15 47 48v90h58v-138h205c32 0 47 15 47 48v90h58v-138h119v-55z" />
    <glyph glyph-name="zero.tf" horiz-adv-x="650" 
d="M325 710c164 0 255 -140 255 -360s-91 -360 -255 -360c-165 0 -255 140 -255 360s90 360 255 360zM325 656c-130 0 -193 -122 -193 -306c0 -86 14 -158 41 -211l276 462c-31 35 -72 55 -124 55zM325 44c130 0 193 122 193 306c0 85 -14 158 -41 210l-276 -461
c31 -36 72 -55 124 -55z" />
    <glyph glyph-name="one.tf" horiz-adv-x="650" 
d="M382 59h191v-59h-446v59h195v576l-195 -87v64l195 88h60v-641z" />
    <glyph glyph-name="two.tf" horiz-adv-x="650" 
d="M178 59h375v-59h-455v56l272 261c85 81 115 132 115 193c0 90 -52 146 -159 146c-88 0 -156 -60 -161 -143h-65c10 125 115 197 225 197c130 0 223 -71 223 -196c0 -81 -46 -147 -128 -225z" />
    <glyph glyph-name="three.tf" horiz-adv-x="650" 
d="M431 363c88 -23 132 -96 132 -176c0 -120 -90 -197 -238 -197c-146 0 -237 80 -237 201h65c0 -89 60 -147 171 -147c109 0 175 56 175 144c0 90 -66 145 -174 145h-48v58h46c104 0 156 54 156 135s-59 130 -155 130c-111 0 -171 -58 -171 -147h-65c0 121 91 201 237 201
c131 0 218 -71 218 -184c0 -68 -35 -132 -112 -163z" />
    <glyph glyph-name="four.tf" horiz-adv-x="650" 
d="M417 0v152h-350v54l340 494h70v-491h107v-57h-107v-152h-60zM137 209h280v407z" />
    <glyph glyph-name="five.tf" horiz-adv-x="650" 
d="M328 467c138 0 231 -95 231 -238c0 -149 -99 -239 -236 -239c-122 0 -218 74 -231 185h65c13 -85 79 -131 166 -131c105 0 174 75 174 187c0 110 -68 182 -171 182c-69 0 -122 -32 -153 -82h-66l65 369h361v-58h-315l-43 -231c30 33 89 56 153 56z" />
    <glyph glyph-name="six.tf" horiz-adv-x="650" 
d="M334 482c134 0 239 -91 239 -245c0 -149 -98 -247 -239 -247c-155 0 -259 110 -259 351c0 226 99 369 278 369c97 0 195 -51 222 -162h-65c-28 71 -80 106 -165 106c-139 0 -203 -112 -209 -288c31 70 105 116 198 116zM335 46c113 0 176 87 176 191
c0 105 -63 189 -177 189c-108 0 -182 -75 -182 -186c0 -108 71 -194 183 -194z" />
    <glyph glyph-name="seven.tf" horiz-adv-x="650" 
d="M480 641h-383v59h456v-56c-137 -185 -245 -433 -280 -644h-62c40 223 144 470 269 641z" />
    <glyph glyph-name="eight.tf" horiz-adv-x="650" 
d="M452 378c79 -30 128 -105 128 -187c0 -115 -99 -201 -255 -201s-255 86 -255 201c0 82 49 157 128 187c-65 32 -98 84 -98 152c0 111 91 180 225 180s225 -69 225 -180c0 -68 -33 -120 -98 -152zM160 530c0 -80 64 -131 165 -131s165 51 165 131s-64 128 -165 128
s-165 -48 -165 -128zM325 46c119 0 193 56 193 148c0 94 -74 153 -193 153s-193 -59 -193 -153c0 -92 74 -148 193 -148z" />
    <glyph glyph-name="nine.tf" horiz-adv-x="650" 
d="M316 710c156 0 258 -120 258 -366c0 -192 -62 -354 -258 -354c-115 0 -203 67 -225 162h65c28 -72 87 -106 161 -106c142 0 197 120 197 249c0 13 -1 25 -2 38c-31 -70 -104 -115 -197 -115c-134 0 -239 91 -239 245c0 148 97 247 240 247zM495 460
c2 108 -69 194 -181 194c-113 0 -176 -87 -176 -191c0 -105 63 -189 177 -189c108 0 178 75 180 186z" />
    <glyph glyph-name="zero.dnom" horiz-adv-x="339" 
d="M169 361c-93 0 -145 -74 -145 -183s52 -183 145 -183s146 74 146 183s-53 183 -146 183zM263 178c0 -82 -33 -133 -94 -133s-92 51 -92 133c0 81 31 132 92 132s94 -51 94 -132z" />
    <glyph glyph-name="one.dnom" horiz-adv-x="213" 
d="M165 0h-53v303l-82 -41v52l82 42h53v-356z" />
    <glyph glyph-name="two.dnom" horiz-adv-x="301" 
d="M106 51h170v-51h-241v50l135 117c26 23 48 46 49 80c1 40 -24 65 -65 65c-38 0 -68 -25 -69 -61h-53c3 71 59 110 124 110c66 0 118 -40 119 -105c1 -47 -26 -84 -62 -114z" />
    <glyph glyph-name="three.dnom" horiz-adv-x="293" 
d="M217 183c31 -16 49 -48 49 -84c0 -61 -53 -104 -120 -104c-75 0 -121 45 -121 113h50c-1 -43 32 -66 72 -66c42 0 65 25 65 59c0 35 -23 59 -64 59h-29v46h25c40 0 64 19 64 53c0 36 -26 55 -63 55c-41 0 -71 -24 -70 -66h-50c0 67 46 113 122 113c66 0 115 -37 115 -100
c0 -37 -15 -63 -45 -78z" />
    <glyph glyph-name="four.dnom" horiz-adv-x="315" 
d="M189 0v72h-168v48l168 236h54v-236h54v-48h-54v-72h-54zM78 120h111v159z" />
    <glyph glyph-name="five.dnom" horiz-adv-x="304" 
d="M160 242c70 0 119 -46 119 -120c0 -79 -55 -127 -127 -127c-65 0 -119 38 -123 106h50c4 -37 34 -60 73 -60c44 0 73 33 73 79s-29 77 -74 77c-33 0 -57 -18 -67 -39h-52l36 198h191v-47h-147l-17 -87c15 12 36 20 65 20z" />
    <glyph glyph-name="six.dnom" horiz-adv-x="319" 
d="M170 246c65 0 123 -45 123 -124c0 -78 -56 -127 -127 -127c-70 0 -136 48 -136 177c0 115 52 189 144 189c58 0 109 -32 120 -91h-53c-11 30 -36 44 -71 44c-56 1 -81 -44 -85 -108c17 25 47 40 85 40zM165 42c47 0 75 35 75 80c0 44 -28 78 -75 78
c-45 0 -76 -31 -76 -77s30 -81 76 -81z" />
    <glyph glyph-name="seven.dnom" horiz-adv-x="260" 
d="M190 309h-180v47h240v-51c-71 -86 -122 -203 -136 -305h-53c15 104 66 220 129 309z" />
    <glyph glyph-name="eight.dnom" horiz-adv-x="308" 
d="M228 194c33 -14 58 -48 58 -88c0 -65 -53 -111 -133 -111c-78 0 -131 45 -131 111c0 40 25 74 58 88c-22 15 -39 40 -39 71c0 55 47 96 113 96s113 -40 113 -96c0 -31 -16 -57 -39 -71zM154 314c-36 0 -62 -24 -62 -52c0 -29 26 -52 62 -52s62 23 62 52
c0 28 -26 52 -62 52zM154 43c47 0 79 26 79 66c0 38 -32 60 -79 60c-48 0 -79 -22 -79 -60c0 -40 31 -66 79 -66z" />
    <glyph glyph-name="nine.dnom" horiz-adv-x="320" 
d="M156 361c73 0 133 -50 133 -184c0 -107 -38 -182 -136 -182c-66 0 -110 37 -120 91h52c10 -31 37 -45 68 -45c61 -1 86 52 82 110c-17 -25 -47 -41 -85 -41c-65 0 -124 45 -124 124c0 78 56 127 130 127zM154 156c46 0 77 31 77 77s-31 81 -77 81c-47 0 -75 -35 -75 -80
c0 -44 28 -78 75 -78z" />
    <glyph glyph-name="zero.numr" horiz-adv-x="339" 
d="M169 705c-93 0 -146 -74 -146 -183s53 -183 146 -183s147 74 147 183s-54 183 -147 183zM263 522c0 -82 -33 -135 -94 -135s-92 53 -92 135c0 81 31 134 92 134s94 -53 94 -134z" />
    <glyph glyph-name="one.numr" horiz-adv-x="213" 
d="M165 344h-53v301l-82 -41v54l82 42h53v-356z" />
    <glyph glyph-name="two.numr" horiz-adv-x="301" 
d="M106 395h170v-51h-241v50l135 117c26 23 48 46 49 80c1 40 -24 65 -65 65c-38 0 -68 -25 -69 -61h-53c3 71 59 110 124 110c66 0 118 -40 119 -105c1 -47 -26 -84 -62 -114z" />
    <glyph glyph-name="three.numr" horiz-adv-x="293" 
d="M217 527c31 -16 49 -48 49 -84c0 -61 -53 -104 -120 -104c-75 0 -121 45 -121 113h50c-1 -43 32 -66 72 -66c42 0 65 25 65 59c0 35 -23 59 -64 59h-29v46h25c40 0 64 19 64 53c0 36 -26 55 -63 55c-41 0 -71 -24 -70 -66h-50c0 67 46 113 122 113c66 0 115 -37 115 -100
c0 -37 -15 -63 -45 -78z" />
    <glyph glyph-name="four.numr" horiz-adv-x="315" 
d="M189 344v72h-168v48l168 236h54v-236h54v-48h-54v-72h-54zM78 464h111v159z" />
    <glyph glyph-name="five.numr" horiz-adv-x="304" 
d="M160 586c70 0 119 -46 119 -120c0 -79 -55 -127 -127 -127c-65 0 -119 38 -123 106h50c4 -37 34 -60 73 -60c44 0 73 33 73 79s-29 77 -74 77c-33 0 -57 -18 -67 -39h-52l36 198h191v-47h-147l-17 -87c15 12 36 20 65 20z" />
    <glyph glyph-name="six.numr" horiz-adv-x="319" 
d="M170 590c65 0 120 -45 120 -124c0 -78 -53 -127 -124 -127c-70 0 -136 48 -136 177c0 115 52 189 144 189c58 0 109 -32 120 -91h-53c-11 30 -36 44 -71 44c-56 1 -83 -44 -85 -108c16 24 47 40 85 40zM165 386c47 0 75 35 75 80c0 44 -28 78 -75 78
c-45 0 -76 -31 -76 -77s30 -81 76 -81z" />
    <glyph glyph-name="seven.numr" horiz-adv-x="260" 
d="M190 653h-180v47h240v-51c-71 -86 -122 -203 -136 -305h-53c15 104 66 220 129 309z" />
    <glyph glyph-name="eight.numr" horiz-adv-x="308" 
d="M228 538c33 -14 58 -48 58 -88c0 -65 -53 -111 -133 -111c-78 0 -131 45 -131 111c0 40 25 74 58 88c-22 15 -39 40 -39 71c0 55 47 96 113 96s113 -40 113 -96c0 -31 -16 -57 -39 -71zM154 660c-36 0 -62 -25 -62 -53c0 -29 26 -53 62 -53s62 24 62 53
c0 28 -26 53 -62 53zM154 387c47 0 79 26 79 66c0 38 -32 60 -79 60c-48 0 -79 -22 -79 -60c0 -40 31 -66 79 -66z" />
    <glyph glyph-name="nine.numr" horiz-adv-x="320" 
d="M156 705c73 0 133 -50 133 -184c0 -107 -38 -182 -136 -182c-66 0 -110 37 -120 91h52c10 -31 37 -45 68 -45c61 -1 86 52 82 110c-17 -25 -47 -41 -85 -41c-65 0 -121 45 -121 124c0 78 53 127 127 127zM154 500c46 0 77 31 77 77s-31 81 -77 81c-47 0 -75 -35 -75 -80
c0 -44 28 -78 75 -78z" />
    </font>
</defs>
</svg>
