<?xml version="1.0" standalone="no"?>
<!DOCTYPE svg PUBLIC "-//W3C//DTD SVG 1.1//EN" "http://www.w3.org/Graphics/SVG/1.1/DTD/svg11.dtd" >
<svg xmlns="http://www.w3.org/2000/svg" xmlns:xlink="http://www.w3.org/1999/xlink" version="1.1">
<metadata>
Created by FontForge 20170924 at Mon Jun 12 15:19:57 2017
 By www-data
Copyright 2017 Fontstore Pte Ltd. All rights reserved.
</metadata>
<defs>
<font id="NeurialGrotesk-ExtraboldItalic" horiz-adv-x="600" >
  <font-face 
    font-family="Neurial Grotesk Exbold Italic"
    font-weight="800"
    font-style="italic"
    font-stretch="normal"
    units-per-em="1000"
    panose-1="0 0 9 0 0 0 0 0 0 0"
    ascent="800"
    descent="-200"
    x-height="528"
    cap-height="728"
    bbox="-740 -263 1778 1101"
    underline-thickness="80"
    underline-position="-115"
    slope="-8"
    stemh="126"
    stemv="133"
    unicode-range="U+0020-FB03"
  />
<missing-glyph horiz-adv-x="589" 
d="M103 707h507l-100 -707h-507z" />
    <glyph glyph-name="f_f" unicode="ff" horiz-adv-x="752" 
d="M729 619c-45 0 -65 -19 -71 -61l-4 -30h115l-21 -152h-115l-53 -376h-176l53 376h-174l-53 -376h-176l53 376h-76l21 152h76l6 42c17 120 61 190 200 190h109l-20 -141h-44c-45 0 -65 -19 -71 -61l-4 -30h174l6 42c17 120 61 190 200 190h118l-20 -141h-53z" />
    <glyph glyph-name="fi" unicode="fi" horiz-adv-x="667" 
d="M654 528l-74 -528h-176l53 376h-174l-53 -376h-176l53 376h-76l21 152h76l6 42c17 120 61 190 200 190h108l-20 -141h-43c-45 0 -65 -19 -71 -61l-4 -30h350zM512 750h167l-22 -159h-167z" />
    <glyph glyph-name="fl" unicode="fl" horiz-adv-x="661" 
d="M419 528l-21 -152h-115l-53 -376h-176l53 376h-76l21 152h76l6 42c17 120 61 190 200 190h118l-20 -141h-53c-45 0 -65 -19 -71 -61l-4 -30h115zM506 760h176l-107 -760h-176z" />
    <glyph glyph-name="f_f_i" unicode="ffi" horiz-adv-x="1017" 
d="M1004 528l-74 -528h-176l53 376h-174l-53 -376h-176l53 376h-174l-53 -376h-176l53 376h-76l21 152h76l6 42c17 120 61 190 200 190h108l-20 -141h-43c-45 0 -65 -19 -71 -61l-4 -30h174l6 42c17 120 61 190 200 190h111l-20 -141h-46c-45 0 -65 -19 -71 -61l-4 -30h350z
M863 760h167l-22 -159h-167z" />
    <glyph glyph-name=".notdef" horiz-adv-x="589" 
d="M103 707h507l-100 -707h-507z" />
    <glyph glyph-name="space" unicode=" " horiz-adv-x="180" 
 />
    <glyph glyph-name="exclam" unicode="!" horiz-adv-x="298" 
d="M107 534l27 194h160l-27 -194c-14 -99 -33 -197 -62 -296h-120c-1 99 8 197 22 296zM13 0l28 198h198l-28 -198h-198z" />
    <glyph glyph-name="quotedbl" unicode="&#x22;" horiz-adv-x="466" 
d="M114 670l8 58h150l-8 -58c-19 -136 -36 -206 -52 -248h-108c-6 60 -2 159 10 248zM314 670l8 58h150l-8 -58c-18 -130 -36 -207 -52 -248h-108c-6 60 -2 159 10 248z" />
    <glyph glyph-name="numbersign" unicode="#" horiz-adv-x="668" 
d="M646 410h-92l-32 -93h91l-48 -139h-91l-62 -178h-150l62 178h-80l-62 -178h-150l62 178h-91l48 139h91l32 93h-91l47 139h92l62 179h150l-62 -179h80l62 179h150l-62 -179h91zM292 317h80l32 93h-80z" />
    <glyph glyph-name="dollar" unicode="$" horiz-adv-x="649" 
d="M622 508h-159c10 66 -36 86 -92 86c-85 0 -102 -47 -102 -73c0 -39 45 -54 96 -70l68 -21c96 -30 167 -88 167 -191c0 -139 -108 -226 -249 -244l-10 -76h-131l11 79c-125 24 -201 109 -184 224h161c-6 -43 18 -84 113 -84c58 0 110 21 110 66c0 35 -17 50 -76 69l-81 26
c-84 27 -177 70 -177 193c0 113 79 222 237 242l11 77h131l-11 -80c119 -22 184 -103 167 -223z" />
    <glyph glyph-name="percent" unicode="%" horiz-adv-x="1002" 
d="M253 315c-93 0 -179 66 -179 197c0 121 74 226 197 226c104 0 179 -77 179 -200c0 -135 -90 -223 -197 -223zM169 0l557 728h145l-556 -728h-146zM256 437c39 0 57 52 57 103c0 44 -13 75 -44 75c-40 0 -58 -52 -58 -103c0 -48 16 -75 45 -75zM759 -10
c-93 0 -179 66 -179 197c0 121 74 226 197 226c104 0 179 -77 179 -200c0 -135 -90 -223 -197 -223zM762 112c39 0 57 52 57 103c0 44 -13 75 -44 75c-40 0 -58 -52 -58 -103c0 -48 16 -75 45 -75z" />
    <glyph glyph-name="ampersand" unicode="&#x26;" horiz-adv-x="741" 
d="M592 154c11 -7 26 -10 50 -10h56l-20 -144h-88c-63 0 -97 12 -126 41c-53 -34 -120 -51 -193 -51c-142 0 -242 66 -242 192c0 76 37 149 154 208l13 7c-43 62 -52 97 -52 140c0 118 91 201 228 201c130 0 212 -75 212 -175c0 -89 -66 -143 -137 -180l-26 -13l84 -109
c29 41 49 71 59 142h141c-16 -106 -54 -181 -113 -249zM371 615c-40 0 -66 -29 -66 -65c0 -18 6 -37 28 -66l18 -23l13 9c32 21 67 47 67 88c0 36 -26 57 -60 57zM207 209c0 -56 38 -83 90 -83c29 0 58 9 84 21l-114 154l-1 -1c-45 -27 -59 -57 -59 -91z" />
    <glyph glyph-name="quotesingle" unicode="'" horiz-adv-x="270" 
d="M115 656l10 72h150l-10 -72c-14 -104 -21 -158 -50 -233h-108c-9 79 -6 129 8 233z" />
    <glyph glyph-name="parenleft" unicode="(" horiz-adv-x="338" 
d="M139 -134c-60 107 -94 256 -94 389c0 221 93 460 233 598h143c-118 -159 -197 -393 -197 -587c0 -130 22 -290 56 -400h-141z" />
    <glyph glyph-name="parenright" unicode=")" horiz-adv-x="339" 
d="M141 464c0 165 -18 303 -58 389h143c85 -151 111 -359 84 -536c-26 -170 -90 -317 -223 -451h-141c117 144 195 384 195 598z" />
    <glyph glyph-name="asterisk" unicode="*" horiz-adv-x="454" 
d="M68 582l30 83l83 -29c22 -8 40 -14 52 -23c-1 17 -4 34 -4 57v90h87v-90c0 -23 -1 -40 -5 -57c14 9 30 17 53 25l84 28l28 -84l-84 -29c-21 -6 -39 -12 -58 -13c15 -10 26 -23 41 -43l54 -73l-72 -53l-52 73c-16 18 -26 36 -32 52c-7 -16 -18 -33 -32 -52l-53 -73l-73 53
l57 73c14 18 25 33 40 43c-19 1 -37 7 -58 13z" />
    <glyph glyph-name="plus" unicode="+" 
d="M557 401l-22 -154h-160l-23 -163h-154l23 163h-160l22 154h160l23 163h154l-23 -163h160z" />
    <glyph glyph-name="comma" unicode="," horiz-adv-x="278" 
d="M3 0l27 193h198l-27 -193l-91 -123h-96l80 123h-91z" />
    <glyph glyph-name="hyphen" unicode="-" horiz-adv-x="439" 
d="M56 380h360l-21 -155h-360z" />
    <glyph glyph-name="period" unicode="." horiz-adv-x="278" 
d="M3 0l27 193h198l-27 -193h-198z" />
    <glyph glyph-name="slash" unicode="/" horiz-adv-x="413" 
d="M-37 0l362 728h153l-362 -728h-153z" />
    <glyph glyph-name="zero" unicode="0" horiz-adv-x="724" 
d="M349 -10c-197 0 -302 136 -302 323c0 232 140 425 360 425c175 0 297 -125 297 -331c0 -245 -146 -417 -355 -417zM354 142c91 0 172 92 172 255c0 116 -46 189 -132 189c-106 0 -171 -109 -171 -257c0 -130 53 -187 131 -187z" />
    <glyph glyph-name="one" unicode="1" horiz-adv-x="412" 
d="M304 0h-173l78 553l-163 -72l23 169l164 78h173z" />
    <glyph glyph-name="two" unicode="2" horiz-adv-x="595" 
d="M411 253l-130 -91h260l-23 -162h-512l22 157l296 216c48 35 94 66 94 120c0 46 -29 87 -90 87c-65 0 -101 -45 -107 -110h-166c10 184 133 268 283 268c154 0 257 -88 257 -228c0 -122 -95 -195 -184 -257z" />
    <glyph glyph-name="three" unicode="3" horiz-adv-x="610" 
d="M483 365c52 -24 87 -76 87 -150c0 -150 -140 -225 -287 -225c-168 0 -281 105 -260 263h168c-11 -80 39 -115 93 -115c52 0 99 32 99 87c0 39 -24 75 -87 75h-65l19 132h68c63 0 100 28 100 83c0 46 -35 77 -87 77c-65 0 -105 -46 -109 -115l-165 1
c14 155 120 260 292 260c151 0 252 -82 252 -205c0 -84 -49 -146 -118 -168z" />
    <glyph glyph-name="four" unicode="4" horiz-adv-x="634" 
d="M309 0l17 123h-326l22 153l383 452h184l-63 -453h90l-22 -152h-90l-17 -123h-178zM193 275h155l29 208z" />
    <glyph glyph-name="five" unicode="5" horiz-adv-x="625" 
d="M595 580h-306l-33 -92c26 12 61 20 109 20c126 0 228 -85 228 -238c0 -167 -129 -280 -304 -280c-135 0 -272 77 -263 254h163c-4 -66 44 -106 100 -106c63 0 119 48 119 126c0 65 -37 106 -97 106c-69 0 -105 -46 -115 -76h-160l140 434h439z" />
    <glyph glyph-name="six" unicode="6" horiz-adv-x="635" 
d="M360 505c133 0 247 -88 241 -250c-6 -166 -130 -264 -277 -264c-157 0 -283 107 -279 324c5 225 125 423 341 423c140 0 236 -84 256 -209h-164c-10 49 -57 66 -100 66c-72 0 -122 -48 -139 -124c29 21 69 34 121 34zM433 259c2 68 -41 109 -100 109
c-64 0 -120 -49 -122 -120c-2 -61 34 -111 100 -111c68 0 120 52 122 122z" />
    <glyph glyph-name="seven" unicode="7" horiz-adv-x="541" 
d="M366 580h-316l20 148h521l-19 -137c-182 -191 -299 -405 -346 -591h-172c42 181 161 391 312 580z" />
    <glyph glyph-name="eight" unicode="8" horiz-adv-x="635" 
d="M519 382c40 -23 75 -73 75 -150c0 -146 -125 -242 -295 -242c-156 0 -271 80 -271 217c0 95 55 164 123 187c-26 22 -54 63 -54 128c0 133 118 216 271 216c132 0 246 -73 246 -202c0 -81 -49 -132 -95 -154zM348 450c52 0 97 35 97 85c0 43 -33 74 -85 74
c-58 0 -97 -39 -97 -85c0 -45 37 -74 85 -74zM307 133c66 0 112 41 112 96c0 52 -40 90 -102 90c-66 0 -113 -43 -113 -99c0 -52 42 -87 103 -87z" />
    <glyph glyph-name="nine" unicode="9" horiz-adv-x="637" 
d="M348 738c124 0 271 -71 271 -324c0 -226 -117 -423 -343 -423c-151 0 -246 87 -254 209h164c6 -49 53 -64 94 -64c56 0 120 28 137 121c-32 -21 -74 -33 -119 -33c-97 0 -236 56 -236 233c0 176 136 281 286 281zM230 470c0 -68 49 -109 106 -109c61 0 117 46 117 121
c0 68 -47 110 -106 110c-67 0 -117 -54 -117 -122z" />
    <glyph glyph-name="colon" unicode=":" horiz-adv-x="278" 
d="M50 335l27 193h198l-27 -193h-198zM3 0l27 193h198l-27 -193h-198z" />
    <glyph glyph-name="semicolon" unicode=";" horiz-adv-x="267" 
d="M39 335l27 193h198l-27 -193h-198zM3 0l27 193h198l-27 -193l-91 -123h-96l80 123h-91z" />
    <glyph glyph-name="less" unicode="&#x3c;" 
d="M564 591l-24 -173l-317 -100l290 -91l-24 -171l-415 164l29 207z" />
    <glyph glyph-name="equal" unicode="=" 
d="M118 517h434l-19 -140h-434zM85 283h434l-19 -140h-434z" />
    <glyph glyph-name="greater" unicode="&#x3e;" 
d="M53 56l24 174l317 100l-289 96l23 165l415 -163l-29 -207z" />
    <glyph glyph-name="question" unicode="?" horiz-adv-x="554" 
d="M57 494c0 140 94 244 269 244c157 0 243 -84 243 -192c0 -184 -253 -181 -253 -314h-149c0 183 210 194 210 294c0 40 -27 63 -67 63c-56 0 -82 -38 -82 -95h-171zM110 0l27 193h198l-27 -193h-198z" />
    <glyph glyph-name="at" unicode="@" horiz-adv-x="932" 
d="M498 738c236 0 419 -143 419 -362c0 -181 -105 -294 -228 -294c-75 0 -129 33 -129 98c-19 -30 -65 -70 -136 -70c-98 0 -179 74 -179 195c0 125 85 244 221 244c66 0 117 -26 140 -79l14 51h85l-60 -289c-11 -53 15 -71 54 -71c52 0 119 68 119 215
c0 173 -125 282 -316 282c-223 0 -368 -150 -368 -366c0 -195 114 -301 306 -301c67 0 134 13 179 34l27 -71c-57 -30 -135 -44 -210 -44c-245 0 -402 147 -402 378c0 250 184 450 464 450zM434 198c61 -6 104 33 125 119c25 103 -22 151 -78 151c-77 0 -122 -88 -122 -163
c0 -67 32 -103 75 -107z" />
    <glyph glyph-name="A" unicode="A" horiz-adv-x="730" 
d="M499 0l-28 136h-241l-68 -136h-191l375 728h169l170 -728h-186zM296 267h148l-43 209z" />
    <glyph glyph-name="B" unicode="B" horiz-adv-x="678" 
d="M560 375c57 -26 85 -82 85 -144c0 -144 -110 -231 -262 -231h-360l102 728h309c151 0 233 -77 233 -184c0 -56 -22 -138 -107 -169zM385 431c68 0 96 35 96 80c0 33 -21 66 -76 66h-123l-21 -146h124zM363 151c55 0 96 25 96 79c0 41 -30 64 -76 64h-141l-20 -143h141z
" />
    <glyph glyph-name="C" unicode="C" horiz-adv-x="749" 
d="M379 153c69 0 129 34 160 102h195c-45 -168 -186 -264 -363 -264c-194 0 -333 116 -333 330c0 225 154 417 408 417c177 0 302 -105 312 -263h-188c-12 67 -72 101 -142 101c-124 0 -203 -106 -203 -242c0 -117 59 -181 154 -181z" />
    <glyph glyph-name="D" unicode="D" horiz-adv-x="740" 
d="M23 0h275c262 0 431 153 431 389c0 212 -146 339 -347 339h-257zM223 154l58 420h64c120 0 196 -56 196 -188c0 -138 -83 -232 -251 -232h-67z" />
    <glyph glyph-name="E" unicode="E" horiz-adv-x="595" 
d="M595 574h-314l-18 -134h223l-21 -150h-223l-19 -136h329l-22 -154h-507l102 728h491z" />
    <glyph glyph-name="F" unicode="F" horiz-adv-x="583" 
d="M602 574h-321l-19 -139h257l-21 -150h-257l-40 -285h-178l102 728h498z" />
    <glyph glyph-name="G" unicode="G" horiz-adv-x="793" 
d="M339 -10c-164 0 -302 104 -302 319c0 236 165 429 402 429c178 0 308 -100 324 -251h-190c-19 65 -78 89 -138 89c-113 0 -210 -86 -210 -242c0 -118 62 -184 156 -184c63 0 154 23 179 119l4 18h-202l20 142h380l-60 -429h-150l-1 63c-54 -46 -128 -73 -212 -73z" />
    <glyph glyph-name="H" unicode="H" horiz-adv-x="739" 
d="M505 292h-263l-41 -292h-178l102 728h178l-38 -276h263l38 276h178l-102 -728h-178z" />
    <glyph glyph-name="I" unicode="I" horiz-adv-x="298" 
d="M303 728l-102 -728h-178l102 728h178z" />
    <glyph glyph-name="J" unicode="J" horiz-adv-x="606" 
d="M195 251c-9 -68 17 -100 77 -100c55 0 89 27 98 92l68 485h178l-67 -480c-24 -174 -141 -258 -290 -258c-148 0 -261 83 -237 261h173z" />
    <glyph glyph-name="K" unicode="K" horiz-adv-x="732" 
d="M23 0l102 728h178l-40 -288l295 288h229l-324 -317l210 -411h-213l-133 279l-100 -98l-26 -181h-178z" />
    <glyph glyph-name="L" unicode="L" horiz-adv-x="581" 
d="M224 162h323l-23 -162h-501l102 728h178z" />
    <glyph glyph-name="M" unicode="M" horiz-adv-x="918" 
d="M450 194l252 534h221l-102 -728h-175l28 198c12 85 29 186 47 255l-216 -453h-162l-87 480c-1 -84 -16 -196 -30 -282l-28 -198h-175l102 728h223z" />
    <glyph glyph-name="N" unicode="N" horiz-adv-x="729" 
d="M23 0l102 728h178l193 -436l61 436h177l-102 -728h-177l-195 421l-59 -421h-178z" />
    <glyph glyph-name="O" unicode="O" horiz-adv-x="779" 
d="M39 345c0 240 181 393 386 393c186 0 342 -126 342 -347c0 -238 -181 -390 -387 -390c-185 0 -341 122 -341 344zM576 395c0 130 -84 178 -158 178c-103 0 -188 -93 -188 -229c0 -126 74 -178 152 -178c105 0 194 96 194 229z" />
    <glyph glyph-name="P" unicode="P" horiz-adv-x="665" 
d="M23 0l102 728h297c139 0 245 -86 245 -232c0 -165 -135 -261 -294 -261h-135l-33 -235h-182zM259 386h92c80 0 126 40 126 105c0 57 -35 83 -103 83h-88z" />
    <glyph glyph-name="Q" unicode="Q" horiz-adv-x="811" 
d="M741 144h33l-20 -144h-97c-45 0 -74 19 -93 45c-56 -29 -119 -44 -184 -44c-185 0 -341 122 -341 344c0 240 181 393 386 393c186 0 342 -126 342 -347c0 -93 -27 -172 -73 -235c9 -7 22 -12 47 -12zM230 344c0 -126 74 -178 152 -178c27 0 53 6 76 18
c-17 20 -29 23 -58 23h-51l20 141h90c39 0 70 -3 104 -39c8 26 13 55 13 86c0 130 -84 178 -158 178c-103 0 -188 -93 -188 -229z" />
    <glyph glyph-name="R" unicode="R" horiz-adv-x="694" 
d="M23 0l102 728h317c154 0 250 -89 250 -231c0 -130 -76 -207 -170 -240l88 -257h-200l-73 233h-103l-33 -233h-178zM254 380h126c76 0 123 45 123 107c0 60 -33 87 -93 87h-128z" />
    <glyph glyph-name="S" unicode="S" horiz-adv-x="660" 
d="M302 -10c-175 0 -296 93 -278 232h172c-7 -54 42 -84 119 -84c82 0 124 32 124 79c0 32 -21 49 -75 63l-99 26c-129 34 -193 95 -193 197c0 125 93 235 307 235c132 0 280 -46 271 -228h-169c9 66 -46 86 -106 86c-78 0 -115 -32 -115 -72c0 -28 18 -49 87 -66l102 -25
c121 -30 179 -101 179 -199c0 -165 -157 -244 -326 -244z" />
    <glyph glyph-name="T" unicode="T" horiz-adv-x="644" 
d="M455 574l-81 -574h-178l81 574h-213l21 154h604l-21 -154h-213z" />
    <glyph glyph-name="U" unicode="U" horiz-adv-x="720" 
d="M295 728l-63 -447c-13 -96 41 -138 112 -138s133 42 145 127l64 458h181l-64 -458c-24 -171 -131 -280 -330 -280c-186 0 -314 112 -285 322l58 416h182z" />
    <glyph glyph-name="V" unicode="V" horiz-adv-x="750" 
d="M365 216l231 512h214l-363 -728h-214l-163 728h199z" />
    <glyph glyph-name="W" unicode="W" horiz-adv-x="1096" 
d="M164 0l-86 728h197l33 -486l198 486h217l42 -486l183 486h200l-298 -728h-210l-60 500l-206 -500h-210z" />
    <glyph glyph-name="X" unicode="X" horiz-adv-x="755" 
d="M795 728l-270 -358l178 -370h-215l-116 244l-178 -244h-216l273 370l-168 358h215l103 -245l178 245h216z" />
    <glyph glyph-name="Y" unicode="Y" horiz-adv-x="730" 
d="M269 264l-204 464h204l108 -278l199 278h219l-348 -464l-37 -264h-178z" />
    <glyph glyph-name="Z" unicode="Z" horiz-adv-x="621" 
d="M253 154h321l-22 -154h-549l19 133l388 441h-326l23 154h549l-20 -133z" />
    <glyph glyph-name="bracketleft" unicode="[" horiz-adv-x="351" 
d="M145 870h261l-20 -142h-119l-102 -728h119l-20 -142h-261z" />
    <glyph glyph-name="backslash" unicode="\" horiz-adv-x="639" 
d="M602 0h-174l-358 762h174z" />
    <glyph glyph-name="bracketright" unicode="]" horiz-adv-x="351" 
d="M110 0l102 728h-117l20 142h261l-142 -1012h-261l20 142h117z" />
    <glyph glyph-name="asciicircum" unicode="^" 
d="M132 473l177 255h114l103 -255h-152l-31 84l-58 -84h-153z" />
    <glyph glyph-name="underscore" unicode="_" horiz-adv-x="567" 
d="M-38 -10h567l-22 -155h-567z" />
    <glyph glyph-name="grave" unicode="`" horiz-adv-x="277" 
d="M326 646h-125l-130 164h138z" />
    <glyph glyph-name="a" unicode="a" horiz-adv-x="596" 
d="M535 126h22l-18 -126h-92c-49 0 -85 15 -93 55c-32 -41 -89 -65 -164 -65c-107 0 -177 51 -177 151c0 101 72 174 213 174h133l3 20c6 38 -16 66 -69 66c-52 0 -81 -27 -87 -64h-156c14 123 112 201 259 201c98 0 251 -35 226 -219l-23 -169c-3 -22 13 -24 23 -24z
M341 189l2 17h-90c-53 0 -57 -32 -57 -43c0 -30 29 -38 60 -38c59 0 81 30 85 64z" />
    <glyph glyph-name="b" unicode="b" horiz-adv-x="664" 
d="M403 539c134 0 230 -95 230 -256c0 -196 -143 -293 -277 -293c-68 0 -130 24 -163 64l-15 -54h-165l106 760h176l-38 -271c34 30 85 50 146 50zM329 147c69 0 122 54 122 129c0 64 -40 106 -100 106c-69 0 -124 -55 -124 -129c0 -66 43 -106 102 -106z" />
    <glyph glyph-name="c" unicode="c" horiz-adv-x="591" 
d="M392 307c2 55 -35 82 -75 82c-65 0 -108 -61 -108 -147c0 -76 38 -100 80 -100c39 0 74 25 89 80h186c-22 -141 -133 -232 -288 -232c-150 0 -246 94 -246 248c0 180 132 301 296 301c147 0 253 -83 251 -232h-185z" />
    <glyph glyph-name="d" unicode="d" horiz-adv-x="663" 
d="M508 760h175l-106 -760h-166l1 44c-37 -32 -92 -54 -159 -54c-102 0 -223 61 -223 245c0 193 122 304 276 304c69 0 127 -22 161 -66zM315 147c65 0 122 53 122 128c0 70 -47 107 -102 107c-65 0 -122 -52 -122 -129c0 -68 44 -106 102 -106z" />
    <glyph glyph-name="e" unicode="e" horiz-adv-x="601" 
d="M573 311c1 -34 -4 -70 -11 -94h-368c8 -76 52 -89 96 -89c38 0 72 16 88 49h176c-36 -113 -128 -189 -274 -189c-122 0 -248 76 -249 253c-1 182 132 298 292 298c151 0 247 -94 250 -228zM313 404c-44 0 -87 -18 -107 -77h200c-5 59 -47 77 -93 77z" />
    <glyph glyph-name="f" unicode="f" horiz-adv-x="402" 
d="M379 619c-45 0 -65 -19 -71 -61l-4 -30h115l-21 -152h-115l-53 -376h-176l53 376h-76l21 152h76l6 42c17 120 61 190 200 190h118l-20 -141h-53z" />
    <glyph glyph-name="g" unicode="g" horiz-adv-x="639" 
d="M466 528h161l-70 -498c-25 -177 -143 -240 -291 -240c-151 0 -260 80 -260 199h167c7 -36 44 -57 98 -57c75 0 105 35 113 87l4 31c-30 -23 -74 -37 -125 -37c-148 0 -231 97 -231 243c0 169 115 282 262 282c70 0 126 -27 154 -62zM309 166c63 0 113 50 113 119
c0 61 -39 97 -94 97c-62 0 -114 -47 -114 -118c0 -63 42 -98 95 -98z" />
    <glyph glyph-name="h" unicode="h" horiz-adv-x="636" 
d="M405 539c142 0 212 -103 190 -258l-40 -281h-176l34 266c12 93 -37 115 -78 115c-67 0 -97 -44 -106 -106l-40 -275h-176l106 760h177l-39 -274c30 31 83 53 148 53z" />
    <glyph glyph-name="i" unicode="i" horiz-adv-x="276" 
d="M99 591l22 159h167l-22 -159h-167zM13 0l74 528h176l-74 -528h-176z" />
    <glyph glyph-name="j" unicode="j" horiz-adv-x="286" 
d="M110 591l22 159h167l-22 -159h-167zM197 -28c-17 -121 -74 -172 -212 -172h-76l22 153h35c38 0 53 13 58 47l73 528h176z" />
    <glyph glyph-name="k" unicode="k" horiz-adv-x="618" 
d="M13 0l106 760h177l-58 -416l197 185h215l-262 -243l172 -286h-198l-100 177l-53 -47l-19 -130h-177z" />
    <glyph glyph-name="l" unicode="l" horiz-adv-x="276" 
d="M13 0l107 760h176l-107 -760h-176z" />
    <glyph glyph-name="m" unicode="m" horiz-adv-x="934" 
d="M722 538c133 0 194 -98 174 -246l-40 -293h-176l40 285c9 67 -17 99 -66 99c-46 0 -82 -28 -95 -95l-40 -288h-169l39 277c11 79 -20 106 -65 106c-47 0 -85 -28 -95 -99l-40 -284h-176l74 528h166l8 -56c32 41 84 66 145 66c63 0 119 -25 146 -84c40 57 105 84 170 84z
" />
    <glyph glyph-name="n" unicode="n" horiz-adv-x="630" 
d="M413 538c124 0 201 -90 178 -250l-40 -288h-176l39 276c10 74 -17 114 -76 114c-61 0 -100 -40 -110 -114l-39 -276h-176l74 528h166l1 -53c36 39 94 63 159 63z" />
    <glyph glyph-name="o" unicode="o" horiz-adv-x="622" 
d="M30 243c0 176 137 297 304 297c133 0 256 -95 256 -265c0 -171 -132 -285 -299 -285c-146 0 -261 98 -261 253zM297 138c67 0 120 56 120 141c0 82 -50 113 -97 113c-65 0 -116 -59 -116 -145c0 -80 44 -109 93 -109z" />
    <glyph glyph-name="p" unicode="p" horiz-adv-x="666" 
d="M393 540c125 0 242 -77 242 -258c0 -190 -129 -293 -272 -293c-70 0 -134 25 -167 65l-35 -254h-176l102 728h166v-35c33 29 80 47 140 47zM327 146c69 0 125 57 125 130c0 63 -42 105 -101 105c-66 0 -124 -54 -124 -130c0 -63 41 -105 100 -105z" />
    <glyph glyph-name="q" unicode="q" horiz-adv-x="665" 
d="M486 529h166l-102 -728h-176l33 237c-38 -32 -92 -48 -152 -48c-134 0 -224 97 -224 243c0 184 111 306 278 306c71 0 128 -25 163 -65zM312 147c65 0 126 49 126 128c0 67 -43 107 -101 107c-69 0 -123 -56 -123 -132c0 -67 43 -103 98 -103z" />
    <glyph glyph-name="r" unicode="r" horiz-adv-x="430" 
d="M364 528h88l-21 -154h-86c-82 0 -104 -33 -113 -96l-40 -278h-176l74 528h166l9 -44c17 24 49 44 99 44z" />
    <glyph glyph-name="s" unicode="s" horiz-adv-x="531" 
d="M3 171h170c-4 -39 24 -59 72 -59c41 0 69 14 69 41c0 21 -14 34 -62 44l-61 13c-115 24 -149 78 -149 142c0 114 110 186 250 186c153 0 241 -73 226 -175h-171c5 33 -22 53 -66 53c-39 0 -61 -16 -61 -39c0 -21 18 -28 61 -38l71 -16c102 -23 145 -75 145 -151
c0 -123 -123 -182 -259 -182c-138 0 -235 60 -235 181z" />
    <glyph glyph-name="t" unicode="t" horiz-adv-x="405" 
d="M22 376l21 152h25c32 0 51 5 57 47l14 101h176l-21 -148h119l-21 -152h-119l-23 -163c-7 -50 4 -60 48 -60h63l-22 -153h-124c-112 0 -164 54 -145 185l27 191h-75z" />
    <glyph glyph-name="u" unicode="u" horiz-adv-x="602" 
d="M425 529h164l-74 -529h-162v54c-32 -39 -85 -64 -151 -64c-103 0 -186 65 -166 207l46 332h165l-39 -284c-10 -76 13 -106 71 -106s96 35 105 100z" />
    <glyph glyph-name="v" unicode="v" horiz-adv-x="608" 
d="M221 528l62 -355l166 355h191l-277 -528h-202l-119 528h179z" />
    <glyph glyph-name="w" unicode="w" horiz-adv-x="852" 
d="M229 528l19 -337l123 337h189l24 -339l113 339h182l-214 -528h-193l-28 347l-136 -347h-194l-67 528h182z" />
    <glyph glyph-name="x" unicode="x" horiz-adv-x="617" 
d="M-15 0l204 277l-140 251h202l71 -150l113 150h206l-216 -264l141 -264h-198l-77 154l-105 -154h-201z" />
    <glyph glyph-name="y" unicode="y" 
d="M214 528l68 -359l163 359h187l-306 -611c-58 -117 -136 -117 -218 -117h-142l22 154h140c24 0 38 9 38 33c0 8 -2 17 -5 29l-126 512h179z" />
    <glyph glyph-name="z" unicode="z" horiz-adv-x="522" 
d="M248 154h222l-22 -154h-450l22 154l256 220h-223l21 154h450l-21 -154z" />
    <glyph glyph-name="braceleft" unicode="{" horiz-adv-x="339" 
d="M271 687l-32 -225c-6 -43 -30 -82 -61 -97c27 -19 41 -51 34 -98l-32 -224c-6 -39 13 -43 34 -43h58l-20 -142h-65c-100 0 -164 55 -149 164l29 207c8 55 -21 70 -47 70l19 132c26 0 58 15 66 70l32 227c12 89 67 144 167 144h91l-20 -142h-58c-21 0 -41 -4 -46 -43z" />
    <glyph glyph-name="bar" unicode="|" horiz-adv-x="281" 
d="M33 -83l124 884h117l-124 -884h-117z" />
    <glyph glyph-name="braceright" unicode="}" horiz-adv-x="339" 
d="M195 872c100 0 150 -55 135 -164l-30 -207c-8 -55 22 -70 48 -70l-19 -132c-26 0 -59 -15 -67 -70l-29 -207c-15 -109 -81 -164 -181 -164h-79l20 142h58c21 0 40 4 46 43l31 224c7 47 30 79 61 98c-27 15 -39 54 -33 97l32 225c5 39 -13 43 -34 43h-58l20 142h79z" />
    <glyph glyph-name="asciitilde" unicode="~" 
d="M320 342c36 -28 57 -46 78 -46c25 0 43 23 43 68h124c0 -114 -57 -198 -159 -198c-60 0 -93 27 -135 61c-32 26 -42 38 -62 38c-27 0 -45 -20 -45 -68h-124c0 113 53 198 158 198c47 0 78 -18 122 -53z" />
    <glyph glyph-name="exclamdown" unicode="&#xa1;" horiz-adv-x="298" 
d="M118 748h198l-28 -198h-198zM62 214c14 99 33 197 62 296h120c1 -99 -8 -197 -22 -296l-30 -214h-160z" />
    <glyph glyph-name="cent" unicode="&#xa2;" horiz-adv-x="592" 
d="M281 237c34 0 68 17 87 61h179c-27 -123 -111 -197 -233 -211l-12 -87h-111l13 92c-107 26 -170 114 -170 232c0 157 88 287 246 309l13 95h111l-14 -98c104 -23 174 -101 175 -210h-178c-7 46 -35 65 -71 65c-68 0 -109 -62 -109 -151c0 -60 26 -97 74 -97z" />
    <glyph glyph-name="sterling" unicode="&#xa3;" horiz-adv-x="672" 
d="M475 217h150c0 -122 -56 -217 -199 -217h-391l20 141c53 5 112 46 112 113c0 13 -2 26 -6 40h-97l16 114h45c-7 28 -13 58 -13 89c0 120 83 241 263 241c151 0 243 -86 243 -215h-171c0 34 -21 71 -78 72c-49 0 -84 -30 -84 -89c0 -32 10 -65 22 -98h171l-16 -114h-124
c1 -6 1 -13 1 -19c0 -61 -30 -101 -63 -125h132c46 0 67 25 67 67z" />
    <glyph glyph-name="currency" unicode="&#xa4;" horiz-adv-x="790" 
d="M656 520c28 -42 43 -93 43 -147c0 -76 -30 -148 -79 -203l73 -85l-90 -79l-78 91c-42 -22 -90 -34 -140 -34c-56 0 -110 16 -154 44l-114 -101l-68 79l109 95c-27 42 -43 94 -43 153c0 82 30 152 78 204l-69 80l90 79l74 -87c43 21 91 32 139 32c60 0 114 -17 157 -47
l116 102l68 -79zM283 341c0 -70 52 -116 114 -116c70 0 134 52 134 135c0 76 -56 119 -115 119c-87 0 -133 -66 -133 -138z" />
    <glyph glyph-name="yen" unicode="&#xa5;" horiz-adv-x="761" 
d="M85 728h205l107 -288l200 288h209l-257 -355h88l-16 -114h-154l-6 -46h154l-16 -114h-154l-14 -99h-178l14 99h-150l16 114h150l6 46h-150l16 114h84z" />
    <glyph glyph-name="brokenbar" unicode="&#xa6;" horiz-adv-x="281" 
d="M106 437l51 364h117l-51 -364h-117zM33 -83l51 364h117l-51 -364h-117z" />
    <glyph glyph-name="section" unicode="&#xa7;" horiz-adv-x="502" 
d="M387 270c48 -30 66 -70 66 -120c0 -107 -89 -160 -210 -160c-137 0 -227 69 -227 175h154c0 -37 25 -57 65 -57c31 0 52 11 52 35c0 23 -21 31 -44 39l-94 31c-95 32 -120 90 -120 139c0 46 19 86 66 109c-47 32 -61 75 -61 115c0 98 83 162 206 162
c126 0 211 -68 211 -169h-152c0 32 -23 51 -56 51c-29 0 -47 -15 -47 -35c0 -23 21 -29 53 -39l70 -22c102 -32 140 -84 140 -151c0 -52 -31 -84 -72 -103zM176 369c0 -29 29 -37 59 -45c31 -8 57 7 57 33c0 28 -20 36 -43 44c-52 17 -73 -4 -73 -32z" />
    <glyph glyph-name="dieresis" unicode="&#xa8;" horiz-adv-x="469" 
d="M102 647l20 145h152l-20 -145h-152zM327 647l20 145h152l-20 -145h-152z" />
    <glyph glyph-name="copyright" unicode="&#xa9;" horiz-adv-x="824" 
d="M799 362c0 -205 -167 -372 -372 -372s-375 169 -375 372c0 207 168 375 375 375c209 0 372 -167 372 -375zM425 639c-151 0 -274 -125 -274 -279c0 -149 121 -271 274 -271c154 0 276 119 276 271c0 155 -123 279 -276 279zM428 153c104 0 179 60 197 149h-110
c-12 -38 -47 -57 -86 -57c-61 0 -98 46 -98 119s37 120 98 120c39 0 74 -20 86 -57h110c-18 93 -92 148 -192 148c-130 0 -206 -92 -206 -215c0 -126 80 -207 201 -207z" />
    <glyph glyph-name="ordfeminine" unicode="&#xaa;" horiz-adv-x="256" 
d="M179 740c64 0 105 -38 105 -109v-143h-57l-7 22c-9 -14 -34 -28 -66 -28c-47 0 -88 29 -88 81c0 43 28 76 88 76h68v7c0 27 -19 41 -48 41c-27 0 -48 -12 -48 -33h-55c0 64 60 86 108 86zM168 536c30 0 54 15 54 43v17h-54c-30 0 -40 -14 -40 -30c0 -20 15 -30 40 -30z
" />
    <glyph glyph-name="guillemotleft" unicode="&#xab;" horiz-adv-x="691" 
d="M193 56l-157 239l223 233h181l-222 -233l156 -239h-181zM454 56l-157 239l223 233h181l-222 -233l156 -239h-181z" />
    <glyph glyph-name="logicalnot" unicode="&#xac;" 
d="M531 367l-21 -154l-19 -135h-148l19 135h-306l21 154h454z" />
    <glyph glyph-name="registered" unicode="&#xae;" horiz-adv-x="538" 
d="M535 506c0 -128 -97 -232 -232 -232c-131 0 -231 105 -231 232c0 126 100 232 231 232c136 0 232 -106 232 -232zM303 671c-100 0 -163 -74 -163 -165c0 -90 63 -164 163 -164c106 0 165 74 165 164s-62 165 -165 165zM283 478h15l36 -75h67l-44 83c23 11 39 32 39 63
c0 44 -35 70 -75 70h-98v-216h60v75zM308 568c19 0 28 -7 28 -23s-10 -24 -28 -24h-25v47h25z" />
    <glyph glyph-name="macron" unicode="&#xaf;" horiz-adv-x="395" 
d="M106 782h329l-16 -111h-329z" />
    <glyph glyph-name="degree" unicode="&#xb0;" horiz-adv-x="373" 
d="M231 423c-86 0 -155 68 -155 155c0 86 69 155 155 155c87 0 155 -69 155 -155c0 -87 -68 -155 -155 -155zM231 519c33 0 60 27 60 60c0 32 -27 59 -60 59c-32 0 -59 -27 -59 -59c0 -33 27 -60 59 -60z" />
    <glyph glyph-name="plusminus" unicode="&#xb1;" 
d="M409 483h161l-21 -154h-161l-16 -111h-154l16 111h-163l21 154h163l16 110h154zM24 0l22 154h478l-22 -154h-478z" />
    <glyph glyph-name="acute" unicode="&#xb4;" horiz-adv-x="234" 
d="M93 646l117 164h138l-130 -164h-125z" />
    <glyph glyph-name="uni00B5" unicode="&#xb5;" horiz-adv-x="690" 
d="M614 150l30 -1l-21 -149h-67c-45 0 -97 12 -113 55c-26 -38 -82 -65 -143 -65c-45 0 -89 14 -102 36l-32 -226h-165l102 728h165l-41 -292c-9 -62 28 -97 82 -97c63 0 93 47 99 89l42 300h166l-45 -318c-6 -40 -1 -59 43 -60z" />
    <glyph glyph-name="paragraph" unicode="&#xb6;" horiz-adv-x="757" 
d="M535 -190v748h-97v-748h-168v539h-7c-93 0 -186 67 -187 184c-1 119 80 195 187 195h514v-170h-74v-748h-168z" />
    <glyph glyph-name="periodcentered" unicode="&#xb7;" horiz-adv-x="310" 
d="M151 204c-52 0 -96 40 -96 95c0 60 48 110 112 110c52 0 96 -39 96 -94c0 -61 -48 -111 -112 -111z" />
    <glyph glyph-name="cedilla" unicode="&#xb8;" horiz-adv-x="290" 
d="M89 6l53 -13l-17 -40c48 1 84 -23 84 -73c0 -58 -47 -90 -112 -90c-67 0 -112 39 -104 89h75c0 -13 11 -21 26 -21c18 0 27 10 27 25c0 20 -18 28 -41 23l-29 18z" />
    <glyph glyph-name="ordmasculine" unicode="&#xba;" horiz-adv-x="300" 
d="M68 581c0 76 52 130 127 130c74 0 126 -54 126 -130c0 -74 -52 -129 -126 -129c-75 0 -127 55 -127 129zM130 581c0 -43 23 -75 65 -75s64 32 64 75c0 44 -22 76 -64 76s-65 -32 -65 -76z" />
    <glyph glyph-name="guillemotright" unicode="&#xbb;" horiz-adv-x="695" 
d="M246 529l157 -233l-223 -239h-182l224 239l-158 233h182zM511 529l157 -233l-223 -239h-182l224 239l-158 233h182z" />
    <glyph glyph-name="onequarter" unicode="&#xbc;" horiz-adv-x="811" 
d="M294 350h-232l12 82h75l29 207l-85 -38l12 86l85 41h88l-42 -296h70zM603 728h103l-460 -728h-103zM729 142h48l-12 -77h-47l-9 -65h-90l9 65h-170l11 77l200 236h93zM639 142l16 112l-99 -112h83z" />
    <glyph glyph-name="onehalf" unicode="&#xbd;" horiz-adv-x="836" 
d="M294 350h-232l12 82h75l29 207l-85 -38l12 86l85 41h88l-42 -296h70zM603 728h103l-460 -728h-103zM730 132l-69 -50h133l-12 -82h-265l11 80l154 113c26 19 50 36 50 64c0 25 -15 46 -48 46c-34 0 -53 -24 -57 -58h-84c5 95 69 138 146 138c80 0 133 -45 133 -117
c0 -63 -47 -101 -92 -134z" />
    <glyph glyph-name="threequarters" unicode="&#xbe;" horiz-adv-x="830" 
d="M333 462c0 -78 -72 -117 -149 -117c-86 0 -145 54 -134 135h85c-5 -41 21 -60 50 -60c28 0 53 17 53 47c0 21 -13 40 -46 40h-34l10 67h35c34 0 53 15 53 44c0 25 -18 41 -46 41c-35 0 -56 -24 -58 -60h-84c7 80 62 134 151 134c78 0 130 -42 130 -106
c0 -43 -25 -75 -62 -87c28 -13 46 -40 46 -78zM622 728h103l-460 -728h-103zM748 142h48l-12 -77h-47l-9 -65h-90l9 65h-170l11 77l200 236h93zM658 142l16 112l-99 -112h83z" />
    <glyph glyph-name="questiondown" unicode="&#xbf;" horiz-adv-x="544" 
d="M468 728l-27 -193h-198l27 193h198zM521 234c0 -140 -94 -244 -269 -244c-157 0 -243 84 -243 192c0 184 253 181 253 314h149c0 -183 -210 -194 -210 -294c0 -40 27 -63 67 -63c56 0 82 38 82 95h171z" />
    <glyph glyph-name="Agrave" unicode="&#xc0;" horiz-adv-x="730" 
d="M492 778h-125l-130 164h138zM499 0l-28 136h-241l-68 -136h-191l375 728h169l170 -728h-186zM296 267h148l-43 209z" />
    <glyph glyph-name="Aacute" unicode="&#xc1;" horiz-adv-x="730" 
d="M630 942l-130 -164h-125l117 164h138zM499 0l-28 136h-241l-68 -136h-191l375 728h169l170 -728h-186zM296 267h148l-43 209z" />
    <glyph glyph-name="Acircumflex" unicode="&#xc2;" horiz-adv-x="730" 
d="M448 844l-52 -66h-139l138 164h134l90 -164h-139zM499 0l-28 136h-241l-68 -136h-191l375 728h169l170 -728h-186zM296 267h148l-43 209z" />
    <glyph glyph-name="Atilde" unicode="&#xc3;" horiz-adv-x="730" 
d="M367 834c-27 0 -45 -16 -49 -44h-85c3 93 59 151 136 151c73 0 98 -53 145 -53c26 0 44 16 48 44h85c-3 -93 -58 -151 -135 -151c-73 0 -96 53 -145 53zM499 0l-28 136h-241l-68 -136h-191l375 728h169l170 -728h-186zM296 267h148l-43 209z" />
    <glyph glyph-name="Adieresis" unicode="&#xc4;" horiz-adv-x="730" 
d="M422 924l-20 -145h-152l20 145h152zM647 924l-20 -145h-152l20 145h152zM499 0l-28 136h-241l-68 -136h-191l375 728h169l170 -728h-186zM296 267h148l-43 209z" />
    <glyph glyph-name="Aring" unicode="&#xc5;" horiz-adv-x="730" 
d="M499 0l-28 136h-241l-68 -136h-191l375 728h32c-45 18 -77 60 -77 117c0 87 69 136 142 136c72 0 131 -50 131 -127c0 -64 -37 -108 -86 -126h27l170 -728h-186zM440 900c-30 0 -53 -22 -53 -54c0 -26 20 -47 49 -47c30 0 53 22 53 54c0 26 -20 47 -49 47zM296 267h148
l-43 209z" />
    <glyph glyph-name="AE" unicode="&#xc6;" horiz-adv-x="1034" 
d="M-42 0l524 728h573l-21 -154h-313l-19 -134h223l-21 -150h-223l-19 -136h329l-22 -154h-497l21 146h-221l-101 -146h-213zM369 287h143l36 259z" />
    <glyph glyph-name="Ccedilla" unicode="&#xc7;" horiz-adv-x="749" 
d="M379 153c69 0 129 34 160 102h195c-43 -161 -174 -255 -340 -263l-13 -32c48 1 84 -23 84 -73c0 -58 -47 -90 -112 -90c-67 0 -112 39 -104 89h75c0 -13 11 -21 26 -21c18 0 27 10 27 25c0 20 -18 28 -41 23l-29 18l28 61c-175 14 -297 128 -297 329
c0 225 154 417 408 417c177 0 302 -105 312 -263h-188c-12 67 -72 101 -142 101c-124 0 -203 -106 -203 -242c0 -117 59 -181 154 -181z" />
    <glyph glyph-name="Egrave" unicode="&#xc8;" horiz-adv-x="595" 
d="M432 778h-125l-130 164h138zM595 574h-314l-18 -134h223l-21 -150h-223l-19 -136h329l-22 -154h-507l102 728h491z" />
    <glyph glyph-name="Eacute" unicode="&#xc9;" horiz-adv-x="595" 
d="M570 942l-130 -164h-125l117 164h138zM595 574h-314l-18 -134h223l-21 -150h-223l-19 -136h329l-22 -154h-507l102 728h491z" />
    <glyph glyph-name="Ecircumflex" unicode="&#xca;" horiz-adv-x="595" 
d="M388 844l-52 -66h-139l138 164h134l90 -164h-139zM595 574h-314l-18 -134h223l-21 -150h-223l-19 -136h329l-22 -154h-507l102 728h491z" />
    <glyph glyph-name="Edieresis" unicode="&#xcb;" horiz-adv-x="595" 
d="M362 924l-20 -145h-152l20 145h152zM587 924l-20 -145h-152l20 145h152zM595 574h-314l-18 -134h223l-21 -150h-223l-19 -136h329l-22 -154h-507l102 728h491z" />
    <glyph glyph-name="Igrave" unicode="&#xcc;" horiz-adv-x="298" 
d="M275 778h-125l-130 164h138zM303 728l-102 -728h-178l102 728h178z" />
    <glyph glyph-name="Iacute" unicode="&#xcd;" horiz-adv-x="298" 
d="M158 778l117 164h138l-130 -164h-125zM303 728l-102 -728h-178l102 728h178z" />
    <glyph glyph-name="Icircumflex" unicode="&#xce;" horiz-adv-x="298" 
d="M40 778l138 164h134l90 -164h-139l-32 66l-52 -66h-139zM303 728l-102 -728h-178l102 728h178z" />
    <glyph glyph-name="Idieresis" unicode="&#xcf;" horiz-adv-x="298" 
d="M33 779l20 145h152l-20 -145h-152zM258 779l20 145h152l-20 -145h-152zM303 728l-102 -728h-178l102 728h178z" />
    <glyph glyph-name="Eth" unicode="&#xd0;" horiz-adv-x="758" 
d="M400 728c201 0 347 -127 347 -339c0 -236 -169 -389 -431 -389h-275l41 292h-67l20 145h67l41 291h257zM308 154c168 0 251 94 251 232c0 132 -76 188 -196 188h-64l-19 -137h90l-20 -145h-90l-19 -138h67z" />
    <glyph glyph-name="Ntilde" unicode="&#xd1;" horiz-adv-x="729" 
d="M368 941c73 0 98 -53 145 -53c26 0 44 16 48 44h85c-3 -93 -58 -151 -135 -151c-73 0 -96 53 -145 53c-27 0 -45 -16 -49 -44h-85c3 93 59 151 136 151zM23 0l102 728h178l193 -436l61 436h177l-102 -728h-177l-195 421l-59 -421h-178z" />
    <glyph glyph-name="Ograve" unicode="&#xd2;" horiz-adv-x="779" 
d="M486 788h-125l-130 164h138zM39 345c0 240 181 393 386 393c186 0 342 -126 342 -347c0 -238 -181 -390 -387 -390c-185 0 -341 122 -341 344zM576 395c0 130 -84 178 -158 178c-103 0 -188 -93 -188 -229c0 -126 74 -178 152 -178c105 0 194 96 194 229z" />
    <glyph glyph-name="Oacute" unicode="&#xd3;" horiz-adv-x="779" 
d="M369 788l117 164h138l-130 -164h-125zM39 345c0 240 181 393 386 393c186 0 342 -126 342 -347c0 -238 -181 -390 -387 -390c-185 0 -341 122 -341 344zM576 395c0 130 -84 178 -158 178c-103 0 -188 -93 -188 -229c0 -126 74 -178 152 -178c105 0 194 96 194 229z" />
    <glyph glyph-name="Ocircumflex" unicode="&#xd4;" horiz-adv-x="779" 
d="M251 788l138 164h134l90 -164h-139l-32 66l-52 -66h-139zM39 345c0 240 181 393 386 393c186 0 342 -126 342 -347c0 -238 -181 -390 -387 -390c-185 0 -341 122 -341 344zM576 395c0 130 -84 178 -158 178c-103 0 -188 -93 -188 -229c0 -126 74 -178 152 -178
c105 0 194 96 194 229z" />
    <glyph glyph-name="Otilde" unicode="&#xd5;" horiz-adv-x="779" 
d="M363 951c73 0 98 -53 145 -53c26 0 44 16 48 44h85c-3 -93 -58 -151 -135 -151c-73 0 -96 53 -145 53c-27 0 -45 -16 -49 -44h-85c3 93 59 151 136 151zM39 345c0 240 181 393 386 393c186 0 342 -126 342 -347c0 -238 -181 -390 -387 -390c-185 0 -341 122 -341 344z
M576 395c0 130 -84 178 -158 178c-103 0 -188 -93 -188 -229c0 -126 74 -178 152 -178c105 0 194 96 194 229z" />
    <glyph glyph-name="Odieresis" unicode="&#xd6;" horiz-adv-x="779" 
d="M244 789l20 145h152l-20 -145h-152zM469 789l20 145h152l-20 -145h-152zM39 345c0 240 181 393 386 393c186 0 342 -126 342 -347c0 -238 -181 -390 -387 -390c-185 0 -341 122 -341 344zM576 395c0 130 -84 178 -158 178c-103 0 -188 -93 -188 -229
c0 -126 74 -178 152 -178c105 0 194 96 194 229z" />
    <glyph glyph-name="multiply" unicode="&#xd7;" 
d="M50 169l152 133l-111 129l116 103l112 -130l150 130l91 -106l-150 -130l114 -132l-116 -103l-114 133l-153 -133z" />
    <glyph glyph-name="Oslash" unicode="&#xd8;" horiz-adv-x="779" 
d="M659 654c66 -59 108 -148 108 -263c0 -238 -181 -390 -387 -390c-43 0 -85 7 -123 20l-33 -52h-142l70 110c-69 58 -113 148 -113 266c0 240 181 393 386 393c46 0 90 -8 131 -23l27 43h142zM226 344c0 -45 9 -81 25 -108l213 335c-15 4 -31 6 -46 6
c-105 0 -192 -95 -192 -233zM382 163c107 0 198 97 198 232c0 41 -8 74 -22 100l-209 -329c11 -2 22 -3 33 -3z" />
    <glyph glyph-name="Ugrave" unicode="&#xd9;" horiz-adv-x="720" 
d="M485 778h-125l-130 164h138zM295 728l-63 -447c-13 -96 41 -138 112 -138s133 42 145 127l64 458h181l-64 -458c-24 -171 -131 -280 -330 -280c-186 0 -314 112 -285 322l58 416h182z" />
    <glyph glyph-name="Uacute" unicode="&#xda;" horiz-adv-x="720" 
d="M368 778l117 164h138l-130 -164h-125zM295 728l-63 -447c-13 -96 41 -138 112 -138s133 42 145 127l64 458h181l-64 -458c-24 -171 -131 -280 -330 -280c-186 0 -314 112 -285 322l58 416h182z" />
    <glyph glyph-name="Ucircumflex" unicode="&#xdb;" horiz-adv-x="720" 
d="M250 778l138 164h134l90 -164h-139l-32 66l-52 -66h-139zM295 728l-63 -447c-13 -96 41 -138 112 -138s133 42 145 127l64 458h181l-64 -458c-24 -171 -131 -280 -330 -280c-186 0 -314 112 -285 322l58 416h182z" />
    <glyph glyph-name="Udieresis" unicode="&#xdc;" horiz-adv-x="720" 
d="M243 779l20 145h152l-20 -145h-152zM468 779l20 145h152l-20 -145h-152zM295 728l-63 -447c-13 -96 41 -138 112 -138s133 42 145 127l64 458h181l-64 -458c-24 -171 -131 -280 -330 -280c-186 0 -314 112 -285 322l58 416h182z" />
    <glyph glyph-name="Yacute" unicode="&#xdd;" horiz-adv-x="730" 
d="M367 778l117 164h138l-130 -164h-125zM269 264l-204 464h204l108 -278l199 278h219l-348 -464l-37 -264h-178z" />
    <glyph glyph-name="Thorn" unicode="&#xde;" horiz-adv-x="654" 
d="M387 611c158 0 252 -98 252 -237c0 -156 -119 -256 -265 -256h-158l-17 -118h-181l102 728h181l-16 -117h102zM330 269c81 0 126 37 126 99c0 55 -36 89 -97 89h-96l-26 -188h93z" />
    <glyph glyph-name="germandbls" unicode="&#xdf;" horiz-adv-x="646" 
d="M494 400c73 -23 118 -91 118 -176c0 -132 -97 -234 -271 -234c-49 0 -96 8 -120 22l19 137c18 -15 48 -25 81 -25c52 0 110 26 110 97c0 83 -66 104 -135 96l18 128c73 0 115 31 115 93c0 40 -27 68 -73 68c-56 0 -88 -29 -97 -91l-71 -515h-176l65 479
c25 184 127 259 279 259c146 0 234 -73 234 -182c0 -84 -49 -133 -96 -156z" />
    <glyph glyph-name="agrave" unicode="&#xe0;" horiz-adv-x="596" 
d="M389 578h-125l-130 164h138zM535 126h22l-18 -126h-92c-49 0 -85 15 -93 55c-32 -41 -89 -65 -164 -65c-107 0 -177 51 -177 151c0 101 72 174 213 174h133l3 20c6 38 -16 66 -69 66c-52 0 -81 -27 -87 -64h-156c14 123 112 201 259 201c98 0 251 -35 226 -219l-23 -169
c-3 -22 13 -24 23 -24zM341 189l2 17h-90c-53 0 -57 -32 -57 -43c0 -30 29 -38 60 -38c59 0 81 30 85 64z" />
    <glyph glyph-name="aacute" unicode="&#xe1;" horiz-adv-x="596" 
d="M527 742l-130 -164h-125l117 164h138zM535 126h22l-18 -126h-92c-49 0 -85 15 -93 55c-32 -41 -89 -65 -164 -65c-107 0 -177 51 -177 151c0 101 72 174 213 174h133l3 20c6 38 -16 66 -69 66c-52 0 -81 -27 -87 -64h-156c14 123 112 201 259 201c98 0 251 -35 226 -219
l-23 -169c-3 -22 13 -24 23 -24zM341 189l2 17h-90c-53 0 -57 -32 -57 -43c0 -30 29 -38 60 -38c59 0 81 30 85 64z" />
    <glyph glyph-name="acircumflex" unicode="&#xe2;" horiz-adv-x="596" 
d="M345 644l-52 -66h-139l138 164h134l90 -164h-139zM535 126h22l-18 -126h-92c-49 0 -85 15 -93 55c-32 -41 -89 -65 -164 -65c-107 0 -177 51 -177 151c0 101 72 174 213 174h133l3 20c6 38 -16 66 -69 66c-52 0 -81 -27 -87 -64h-156c14 123 112 201 259 201
c98 0 251 -35 226 -219l-23 -169c-3 -22 13 -24 23 -24zM341 189l2 17h-90c-53 0 -57 -32 -57 -43c0 -30 29 -38 60 -38c59 0 81 30 85 64z" />
    <glyph glyph-name="atilde" unicode="&#xe3;" horiz-adv-x="596" 
d="M264 634c-27 0 -45 -16 -49 -44h-85c3 93 59 151 136 151c73 0 98 -53 145 -53c26 0 44 16 48 44h85c-3 -93 -58 -151 -135 -151c-73 0 -96 53 -145 53zM535 126h22l-18 -126h-92c-49 0 -85 15 -93 55c-32 -41 -89 -65 -164 -65c-107 0 -177 51 -177 151
c0 101 72 174 213 174h133l3 20c6 38 -16 66 -69 66c-52 0 -81 -27 -87 -64h-156c14 123 112 201 259 201c98 0 251 -35 226 -219l-23 -169c-3 -22 13 -24 23 -24zM341 189l2 17h-90c-53 0 -57 -32 -57 -43c0 -30 29 -38 60 -38c59 0 81 30 85 64z" />
    <glyph glyph-name="adieresis" unicode="&#xe4;" horiz-adv-x="596" 
d="M319 724l-20 -145h-152l20 145h152zM544 724l-20 -145h-152l20 145h152zM535 126h22l-18 -126h-92c-49 0 -85 15 -93 55c-32 -41 -89 -65 -164 -65c-107 0 -177 51 -177 151c0 101 72 174 213 174h133l3 20c6 38 -16 66 -69 66c-52 0 -81 -27 -87 -64h-156
c14 123 112 201 259 201c98 0 251 -35 226 -219l-23 -169c-3 -22 13 -24 23 -24zM341 189l2 17h-90c-53 0 -57 -32 -57 -43c0 -30 29 -38 60 -38c59 0 81 30 85 64z" />
    <glyph glyph-name="aring" unicode="&#xe5;" horiz-adv-x="596" 
d="M535 126h22l-18 -126h-92c-49 0 -85 15 -93 55c-32 -41 -89 -65 -164 -65c-107 0 -177 51 -177 151c0 101 72 174 213 174h133l3 20c6 38 -16 66 -69 66c-52 0 -81 -27 -87 -64h-156c12 102 81 173 188 194c-25 22 -40 54 -40 94c0 87 69 136 142 136
c72 0 131 -50 131 -127c0 -51 -23 -88 -57 -111c74 -23 138 -80 121 -204l-23 -169c-3 -22 13 -24 23 -24zM337 680c-30 0 -53 -22 -53 -54c0 -26 20 -47 49 -47c30 0 53 22 53 54c0 26 -20 47 -49 47zM341 189l2 17h-90c-53 0 -57 -32 -57 -43c0 -30 29 -38 60 -38
c59 0 81 30 85 64z" />
    <glyph glyph-name="ae" unicode="&#xe6;" horiz-adv-x="915" 
d="M640 539c170 0 262 -127 241 -283l-5 -38h-358c-4 -65 37 -90 87 -90c37 0 76 14 94 49h168c-43 -136 -151 -189 -267 -189c-90 0 -156 31 -196 89c-37 -53 -108 -87 -200 -87c-122 0 -191 60 -191 150c0 113 88 175 213 175h133l4 25c6 38 -20 61 -68 61
c-55 0 -82 -30 -87 -64h-158c14 123 125 201 256 201c58 0 121 -15 159 -59c44 37 103 60 175 60zM716 328c2 52 -34 75 -80 75s-92 -23 -103 -75h183zM341 189l2 17h-90c-53 0 -57 -32 -57 -43c0 -30 29 -38 60 -38c59 0 81 30 85 64z" />
    <glyph glyph-name="ccedilla" unicode="&#xe7;" horiz-adv-x="591" 
d="M577 307h-185c2 55 -35 82 -75 82c-65 0 -108 -61 -108 -147c0 -76 38 -100 80 -100c39 0 74 25 89 80h186c-21 -135 -124 -224 -269 -232l-9 -21c48 1 84 -23 84 -73c0 -58 -47 -90 -112 -90c-67 0 -112 39 -104 89h75c0 -13 11 -21 26 -21c18 0 27 10 27 25
c0 20 -18 28 -41 23l-29 18l24 52c-127 16 -206 106 -206 246c0 180 132 301 296 301c147 0 253 -83 251 -232z" />
    <glyph glyph-name="egrave" unicode="&#xe8;" horiz-adv-x="601" 
d="M384 579h-125l-130 164h138zM573 311c1 -34 -4 -70 -11 -94h-368c8 -76 52 -89 96 -89c38 0 72 16 88 49h176c-36 -113 -128 -189 -274 -189c-122 0 -248 76 -249 253c-1 182 132 298 292 298c151 0 247 -94 250 -228zM313 404c-44 0 -87 -18 -107 -77h200
c-5 59 -47 77 -93 77z" />
    <glyph glyph-name="eacute" unicode="&#xe9;" horiz-adv-x="601" 
d="M522 743l-130 -164h-125l117 164h138zM573 311c1 -34 -4 -70 -11 -94h-368c8 -76 52 -89 96 -89c38 0 72 16 88 49h176c-36 -113 -128 -189 -274 -189c-122 0 -248 76 -249 253c-1 182 132 298 292 298c151 0 247 -94 250 -228zM313 404c-44 0 -87 -18 -107 -77h200
c-5 59 -47 77 -93 77z" />
    <glyph glyph-name="ecircumflex" unicode="&#xea;" horiz-adv-x="601" 
d="M340 645l-52 -66h-139l138 164h134l90 -164h-139zM573 311c1 -34 -4 -70 -11 -94h-368c8 -76 52 -89 96 -89c38 0 72 16 88 49h176c-36 -113 -128 -189 -274 -189c-122 0 -248 76 -249 253c-1 182 132 298 292 298c151 0 247 -94 250 -228zM313 404
c-44 0 -87 -18 -107 -77h200c-5 59 -47 77 -93 77z" />
    <glyph glyph-name="edieresis" unicode="&#xeb;" horiz-adv-x="601" 
d="M314 725l-20 -145h-152l20 145h152zM539 725l-20 -145h-152l20 145h152zM573 311c1 -34 -4 -70 -11 -94h-368c8 -76 52 -89 96 -89c38 0 72 16 88 49h176c-36 -113 -128 -189 -274 -189c-122 0 -248 76 -249 253c-1 182 132 298 292 298c151 0 247 -94 250 -228zM313 404
c-44 0 -87 -18 -107 -77h200c-5 59 -47 77 -93 77z" />
    <glyph glyph-name="igrave" unicode="&#xec;" horiz-adv-x="276" 
d="M235 578h-125l-130 164h138zM13 0l74 528h176l-74 -528h-176z" />
    <glyph glyph-name="iacute" unicode="&#xed;" horiz-adv-x="276" 
d="M118 578l117 164h138l-130 -164h-125zM13 0l74 528h176l-74 -528h-176z" />
    <glyph glyph-name="icircumflex" unicode="&#xee;" horiz-adv-x="276" 
d="M0 578l138 164h134l90 -164h-139l-32 66l-52 -66h-139zM13 0l74 528h176l-74 -528h-176z" />
    <glyph glyph-name="idieresis" unicode="&#xef;" horiz-adv-x="276" 
d="M-7 579l20 145h152l-20 -145h-152zM218 579l20 145h152l-20 -145h-152zM13 0l74 528h176l-74 -528h-176z" />
    <glyph glyph-name="eth" unicode="&#xf0;" horiz-adv-x="653" 
d="M550 644c48 -82 75 -182 75 -294c0 -252 -168 -359 -326 -359c-157 0 -262 102 -262 255c0 167 112 279 281 279c52 0 100 -17 129 -43c-11 36 -28 71 -49 104l-123 -48l16 114l42 16c-40 42 -85 78 -132 110h233c19 -15 37 -32 54 -50l131 51l-16 -114zM299 148
c81 0 131 56 131 129c0 55 -39 104 -105 104c-82 0 -128 -54 -128 -127c0 -54 36 -106 102 -106z" />
    <glyph glyph-name="ntilde" unicode="&#xf1;" horiz-adv-x="630" 
d="M309 634c-27 0 -45 -16 -49 -44h-85c3 93 59 151 136 151c73 0 98 -53 145 -53c26 0 44 16 48 44h85c-3 -93 -58 -151 -135 -151c-73 0 -96 53 -145 53zM413 538c124 0 201 -90 178 -250l-40 -288h-176l39 276c10 74 -17 114 -76 114c-61 0 -100 -40 -110 -114l-39 -276
h-176l74 528h166l1 -53c36 39 94 63 159 63z" />
    <glyph glyph-name="ograve" unicode="&#xf2;" horiz-adv-x="622" 
d="M395 580h-125l-130 164h138zM30 243c0 176 137 297 304 297c133 0 256 -95 256 -265c0 -171 -132 -285 -299 -285c-146 0 -261 98 -261 253zM297 138c67 0 120 56 120 141c0 82 -50 113 -97 113c-65 0 -116 -59 -116 -145c0 -80 44 -109 93 -109z" />
    <glyph glyph-name="oacute" unicode="&#xf3;" horiz-adv-x="622" 
d="M278 580l117 164h138l-130 -164h-125zM30 243c0 176 137 297 304 297c133 0 256 -95 256 -265c0 -171 -132 -285 -299 -285c-146 0 -261 98 -261 253zM297 138c67 0 120 56 120 141c0 82 -50 113 -97 113c-65 0 -116 -59 -116 -145c0 -80 44 -109 93 -109z" />
    <glyph glyph-name="ocircumflex" unicode="&#xf4;" horiz-adv-x="622" 
d="M160 580l138 164h134l90 -164h-139l-32 66l-52 -66h-139zM30 243c0 176 137 297 304 297c133 0 256 -95 256 -265c0 -171 -132 -285 -299 -285c-146 0 -261 98 -261 253zM297 138c67 0 120 56 120 141c0 82 -50 113 -97 113c-65 0 -116 -59 -116 -145
c0 -80 44 -109 93 -109z" />
    <glyph glyph-name="otilde" unicode="&#xf5;" horiz-adv-x="622" 
d="M272 743c73 0 98 -53 145 -53c26 0 44 16 48 44h85c-3 -93 -58 -151 -135 -151c-73 0 -96 53 -145 53c-27 0 -45 -16 -49 -44h-85c3 93 59 151 136 151zM30 243c0 176 137 297 304 297c133 0 256 -95 256 -265c0 -171 -132 -285 -299 -285c-146 0 -261 98 -261 253z
M297 138c67 0 120 56 120 141c0 82 -50 113 -97 113c-65 0 -116 -59 -116 -145c0 -80 44 -109 93 -109z" />
    <glyph glyph-name="odieresis" unicode="&#xf6;" horiz-adv-x="622" 
d="M153 581l20 145h152l-20 -145h-152zM378 581l20 145h152l-20 -145h-152zM30 243c0 176 137 297 304 297c133 0 256 -95 256 -265c0 -171 -132 -285 -299 -285c-146 0 -261 98 -261 253zM297 138c67 0 120 56 120 141c0 82 -50 113 -97 113c-65 0 -116 -59 -116 -145
c0 -80 44 -109 93 -109z" />
    <glyph glyph-name="divide" unicode="&#xf7;" 
d="M328 422c-50 0 -84 34 -84 83c0 51 44 97 100 97c51 0 82 -36 82 -83c0 -52 -42 -97 -98 -97zM82 398h474l-22 -154h-474zM274 40c-50 0 -84 34 -84 83c0 51 44 97 100 97c51 0 82 -36 82 -83c0 -52 -42 -97 -98 -97z" />
    <glyph glyph-name="oslash" unicode="&#xf8;" horiz-adv-x="634" 
d="M642 558l-98 -113c33 -43 54 -100 54 -170c0 -171 -132 -285 -299 -285c-46 0 -89 10 -126 28l-36 -42h-143l95 109c-32 42 -51 95 -51 158c0 176 137 297 304 297c42 0 82 -9 119 -27l39 45h142zM212 247c0 -7 0 -13 1 -19l140 161c-8 2 -17 3 -25 3
c-65 0 -116 -59 -116 -145zM425 279c0 10 -1 18 -2 27l-143 -165c8 -2 16 -3 25 -3c67 0 120 56 120 141z" />
    <glyph glyph-name="ugrave" unicode="&#xf9;" horiz-adv-x="602" 
d="M397 578h-125l-130 164h138zM425 529h164l-74 -529h-162v54c-32 -39 -85 -64 -151 -64c-103 0 -186 65 -166 207l46 332h165l-39 -284c-10 -76 13 -106 71 -106s96 35 105 100z" />
    <glyph glyph-name="uacute" unicode="&#xfa;" horiz-adv-x="602" 
d="M535 742l-130 -164h-125l117 164h138zM425 529h164l-74 -529h-162v54c-32 -39 -85 -64 -151 -64c-103 0 -186 65 -166 207l46 332h165l-39 -284c-10 -76 13 -106 71 -106s96 35 105 100z" />
    <glyph glyph-name="ucircumflex" unicode="&#xfb;" horiz-adv-x="602" 
d="M353 644l-52 -66h-139l138 164h134l90 -164h-139zM425 529h164l-74 -529h-162v54c-32 -39 -85 -64 -151 -64c-103 0 -186 65 -166 207l46 332h165l-39 -284c-10 -76 13 -106 71 -106s96 35 105 100z" />
    <glyph glyph-name="udieresis" unicode="&#xfc;" horiz-adv-x="602" 
d="M327 724l-20 -145h-152l20 145h152zM552 724l-20 -145h-152l20 145h152zM425 529h164l-74 -529h-162v54c-32 -39 -85 -64 -151 -64c-103 0 -186 65 -166 207l46 332h165l-39 -284c-10 -76 13 -106 71 -106s96 35 105 100z" />
    <glyph glyph-name="yacute" unicode="&#xfd;" 
d="M265 578l117 164h138l-130 -164h-125zM214 528l68 -359l163 359h187l-306 -611c-58 -117 -136 -117 -218 -117h-142l22 154h140c24 0 38 9 38 33c0 8 -2 17 -5 29l-126 512h179z" />
    <glyph glyph-name="thorn" unicode="&#xfe;" horiz-adv-x="666" 
d="M395 540c122 0 240 -77 240 -258c0 -190 -130 -292 -270 -292c-77 0 -139 26 -168 66l-36 -256h-176l135 960h176l-37 -267c28 26 73 47 136 47zM328 146c70 0 124 54 124 129c0 67 -43 106 -102 106c-67 0 -123 -51 -123 -129c0 -68 42 -106 101 -106z" />
    <glyph glyph-name="ydieresis" unicode="&#xff;" 
d="M140 579l20 145h152l-20 -145h-152zM365 579l20 145h152l-20 -145h-152zM214 528l68 -359l163 359h187l-306 -611c-58 -117 -136 -117 -218 -117h-142l22 154h140c24 0 38 9 38 33c0 8 -2 17 -5 29l-126 512h179z" />
    <glyph glyph-name="Amacron" unicode="&#x100;" horiz-adv-x="730" 
d="M621 914l-16 -111h-329l16 111h329zM499 0l-28 136h-241l-68 -136h-191l375 728h169l170 -728h-186zM296 267h148l-43 209z" />
    <glyph glyph-name="amacron" unicode="&#x101;" horiz-adv-x="596" 
d="M518 714l-16 -111h-329l16 111h329zM535 126h22l-18 -126h-92c-49 0 -85 15 -93 55c-32 -41 -89 -65 -164 -65c-107 0 -177 51 -177 151c0 101 72 174 213 174h133l3 20c6 38 -16 66 -69 66c-52 0 -81 -27 -87 -64h-156c14 123 112 201 259 201c98 0 251 -35 226 -219
l-23 -169c-3 -22 13 -24 23 -24zM341 189l2 17h-90c-53 0 -57 -32 -57 -43c0 -30 29 -38 60 -38c59 0 81 30 85 64z" />
    <glyph glyph-name="Abreve" unicode="&#x102;" horiz-adv-x="730" 
d="M444 766c-90 0 -157 66 -140 166h107c-8 -37 8 -62 40 -62c36 0 55 22 58 62h107c-8 -110 -71 -166 -172 -166zM499 0l-28 136h-241l-68 -136h-191l375 728h169l170 -728h-186zM296 267h148l-43 209z" />
    <glyph glyph-name="abreve" unicode="&#x103;" horiz-adv-x="596" 
d="M341 566c-90 0 -157 66 -140 166h107c-8 -37 8 -62 40 -62c36 0 55 22 58 62h107c-8 -110 -71 -166 -172 -166zM535 126h22l-18 -126h-92c-49 0 -85 15 -93 55c-32 -41 -89 -65 -164 -65c-107 0 -177 51 -177 151c0 101 72 174 213 174h133l3 20c6 38 -16 66 -69 66
c-52 0 -81 -27 -87 -64h-156c14 123 112 201 259 201c98 0 251 -35 226 -219l-23 -169c-3 -22 13 -24 23 -24zM341 189l2 17h-90c-53 0 -57 -32 -57 -43c0 -30 29 -38 60 -38c59 0 81 30 85 64z" />
    <glyph glyph-name="Aogonek" unicode="&#x104;" horiz-adv-x="730" 
d="M600 -75c0 -12 6 -21 27 -21c12 0 23 3 36 8l-14 -94c-25 -13 -50 -16 -69 -16c-57 0 -95 28 -95 78c0 45 29 91 96 120h-82l-28 136h-241l-68 -136h-191l375 728h169l170 -728c-49 -18 -85 -44 -85 -75zM296 267h148l-43 209z" />
    <glyph glyph-name="aogonek" unicode="&#x105;" horiz-adv-x="596" 
d="M539 0c-49 -18 -85 -44 -85 -75c0 -12 6 -21 27 -21c12 0 23 3 36 8l-14 -94c-25 -13 -50 -16 -69 -16c-57 0 -95 28 -95 78c0 45 29 91 96 120h12c-49 0 -85 15 -93 55c-32 -41 -89 -65 -164 -65c-107 0 -177 51 -177 151c0 101 72 174 213 174h133l3 20
c6 38 -16 66 -69 66c-52 0 -81 -27 -87 -64h-156c14 123 112 201 259 201c98 0 251 -35 226 -219l-23 -169c-3 -22 13 -24 23 -24h22zM341 189l2 17h-90c-53 0 -57 -32 -57 -43c0 -30 29 -38 60 -38c59 0 81 30 85 64z" />
    <glyph glyph-name="Cacute" unicode="&#x106;" horiz-adv-x="749" 
d="M390 788l117 164h138l-130 -164h-125zM379 153c69 0 129 34 160 102h195c-45 -168 -186 -264 -363 -264c-194 0 -333 116 -333 330c0 225 154 417 408 417c177 0 302 -105 312 -263h-188c-12 67 -72 101 -142 101c-124 0 -203 -106 -203 -242c0 -117 59 -181 154 -181z
" />
    <glyph glyph-name="cacute" unicode="&#x107;" horiz-adv-x="591" 
d="M270 579l117 164h138l-130 -164h-125zM392 307c2 55 -35 82 -75 82c-65 0 -108 -61 -108 -147c0 -76 38 -100 80 -100c39 0 74 25 89 80h186c-22 -141 -133 -232 -288 -232c-150 0 -246 94 -246 248c0 180 132 301 296 301c147 0 253 -83 251 -232h-185z" />
    <glyph glyph-name="Ccircumflex" unicode="&#x108;" horiz-adv-x="749" 
d="M272 788l138 164h134l90 -164h-139l-32 66l-52 -66h-139zM379 153c69 0 129 34 160 102h195c-45 -168 -186 -264 -363 -264c-194 0 -333 116 -333 330c0 225 154 417 408 417c177 0 302 -105 312 -263h-188c-12 67 -72 101 -142 101c-124 0 -203 -106 -203 -242
c0 -117 59 -181 154 -181z" />
    <glyph glyph-name="ccircumflex" unicode="&#x109;" horiz-adv-x="591" 
d="M152 579l138 164h134l90 -164h-139l-32 66l-52 -66h-139zM392 307c2 55 -35 82 -75 82c-65 0 -108 -61 -108 -147c0 -76 38 -100 80 -100c39 0 74 25 89 80h186c-22 -141 -133 -232 -288 -232c-150 0 -246 94 -246 248c0 180 132 301 296 301c147 0 253 -83 251 -232
h-185z" />
    <glyph glyph-name="Cdotaccent" unicode="&#x10a;" horiz-adv-x="749" 
d="M371 801l22 159h167l-22 -159h-167zM379 153c69 0 129 34 160 102h195c-45 -168 -186 -264 -363 -264c-194 0 -333 116 -333 330c0 225 154 417 408 417c177 0 302 -105 312 -263h-188c-12 67 -72 101 -142 101c-124 0 -203 -106 -203 -242c0 -117 59 -181 154 -181z" />
    <glyph glyph-name="cdotaccent" unicode="&#x10b;" horiz-adv-x="591" 
d="M251 592l22 159h167l-22 -159h-167zM392 307c2 55 -35 82 -75 82c-65 0 -108 -61 -108 -147c0 -76 38 -100 80 -100c39 0 74 25 89 80h186c-22 -141 -133 -232 -288 -232c-150 0 -246 94 -246 248c0 180 132 301 296 301c147 0 253 -83 251 -232h-185z" />
    <glyph glyph-name="Ccaron" unicode="&#x10c;" horiz-adv-x="749" 
d="M658 952l-138 -164h-134l-90 164h139l32 -66l52 66h139zM379 153c69 0 129 34 160 102h195c-45 -168 -186 -264 -363 -264c-194 0 -333 116 -333 330c0 225 154 417 408 417c177 0 302 -105 312 -263h-188c-12 67 -72 101 -142 101c-124 0 -203 -106 -203 -242
c0 -117 59 -181 154 -181z" />
    <glyph glyph-name="ccaron" unicode="&#x10d;" horiz-adv-x="591" 
d="M538 743l-138 -164h-134l-90 164h139l32 -66l52 66h139zM392 307c2 55 -35 82 -75 82c-65 0 -108 -61 -108 -147c0 -76 38 -100 80 -100c39 0 74 25 89 80h186c-22 -141 -133 -232 -288 -232c-150 0 -246 94 -246 248c0 180 132 301 296 301c147 0 253 -83 251 -232h-185
z" />
    <glyph glyph-name="Dcaron" unicode="&#x10e;" horiz-adv-x="740" 
d="M577 942l-138 -164h-134l-90 164h139l32 -66l52 66h139zM23 0h275c262 0 431 153 431 389c0 212 -146 339 -347 339h-257zM223 154l58 420h64c120 0 196 -56 196 -188c0 -138 -83 -232 -251 -232h-67z" />
    <glyph glyph-name="dcaron" unicode="&#x10f;" horiz-adv-x="714" 
d="M467 473l41 287h175l-106 -760h-166l1 44c-37 -32 -92 -54 -159 -54c-102 0 -223 61 -223 245c0 193 122 304 276 304c69 0 127 -22 161 -66zM733 760h134l-56 -198h-106zM315 147c65 0 122 53 122 128c0 70 -47 107 -102 107c-65 0 -122 -52 -122 -129
c0 -68 44 -106 102 -106z" />
    <glyph glyph-name="Dcroat" unicode="&#x110;" horiz-adv-x="758" 
d="M400 728c201 0 347 -127 347 -339c0 -236 -169 -389 -431 -389h-275l41 292h-67l20 145h67l41 291h257zM308 154c168 0 251 94 251 232c0 132 -76 188 -196 188h-64l-19 -137h90l-20 -145h-90l-19 -138h67z" />
    <glyph glyph-name="dcroat" unicode="&#x111;" horiz-adv-x="689" 
d="M745 697l-18 -131h-71l-79 -566h-166l1 44c-37 -32 -92 -54 -159 -54c-102 0 -223 61 -223 245c0 193 122 304 276 304c69 0 127 -22 161 -66l14 93h-147l18 131h147l9 63h175l-9 -63h71zM315 147c65 0 122 53 122 128c0 70 -47 107 -102 107c-65 0 -122 -52 -122 -129
c0 -68 44 -106 102 -106z" />
    <glyph glyph-name="Emacron" unicode="&#x112;" horiz-adv-x="595" 
d="M561 914l-16 -111h-329l16 111h329zM595 574h-314l-18 -134h223l-21 -150h-223l-19 -136h329l-22 -154h-507l102 728h491z" />
    <glyph glyph-name="emacron" unicode="&#x113;" horiz-adv-x="601" 
d="M513 715l-16 -111h-329l16 111h329zM573 311c1 -34 -4 -70 -11 -94h-368c8 -76 52 -89 96 -89c38 0 72 16 88 49h176c-36 -113 -128 -189 -274 -189c-122 0 -248 76 -249 253c-1 182 132 298 292 298c151 0 247 -94 250 -228zM313 404c-44 0 -87 -18 -107 -77h200
c-5 59 -47 77 -93 77z" />
    <glyph glyph-name="Ebreve" unicode="&#x114;" horiz-adv-x="595" 
d="M384 766c-90 0 -157 66 -140 166h107c-8 -37 8 -62 40 -62c36 0 55 22 58 62h107c-8 -110 -71 -166 -172 -166zM595 574h-314l-18 -134h223l-21 -150h-223l-19 -136h329l-22 -154h-507l102 728h491z" />
    <glyph glyph-name="ebreve" unicode="&#x115;" horiz-adv-x="601" 
d="M336 567c-90 0 -157 66 -140 166h107c-8 -37 8 -62 40 -62c36 0 55 22 58 62h107c-8 -110 -71 -166 -172 -166zM573 311c1 -34 -4 -70 -11 -94h-368c8 -76 52 -89 96 -89c38 0 72 16 88 49h176c-36 -113 -128 -189 -274 -189c-122 0 -248 76 -249 253
c-1 182 132 298 292 298c151 0 247 -94 250 -228zM313 404c-44 0 -87 -18 -107 -77h200c-5 59 -47 77 -93 77z" />
    <glyph glyph-name="Edotaccent" unicode="&#x116;" horiz-adv-x="595" 
d="M485 950l-22 -159h-167l22 159h167zM595 574h-314l-18 -134h223l-21 -150h-223l-19 -136h329l-22 -154h-507l102 728h491z" />
    <glyph glyph-name="edotaccent" unicode="&#x117;" horiz-adv-x="601" 
d="M437 751l-22 -159h-167l22 159h167zM573 311c1 -34 -4 -70 -11 -94h-368c8 -76 52 -89 96 -89c38 0 72 16 88 49h176c-36 -113 -128 -189 -274 -189c-122 0 -248 76 -249 253c-1 182 132 298 292 298c151 0 247 -94 250 -228zM313 404c-44 0 -87 -18 -107 -77h200
c-5 59 -47 77 -93 77z" />
    <glyph glyph-name="Eogonek" unicode="&#x118;" horiz-adv-x="595" 
d="M595 574h-314l-18 -134h223l-21 -150h-223l-19 -136h329l-22 -154c-49 -18 -85 -44 -85 -75c0 -12 6 -21 27 -21c12 0 23 3 36 8l-14 -94c-25 -13 -50 -16 -69 -16c-57 0 -95 28 -95 78c0 45 29 91 96 120h-403l102 728h491z" />
    <glyph glyph-name="eogonek" unicode="&#x119;" horiz-adv-x="601" 
d="M573 311c1 -34 -4 -70 -11 -94h-368c8 -76 52 -89 96 -89c38 0 72 16 88 49h176c-28 -88 -90 -154 -186 -179c-37 -17 -62 -39 -62 -65c0 -12 6 -21 27 -21c12 0 23 3 36 8l-14 -94c-25 -13 -50 -16 -69 -16c-57 0 -95 28 -95 78c0 36 19 73 61 101
c-112 11 -220 88 -221 252c-1 182 132 298 292 298c151 0 247 -94 250 -228zM313 404c-44 0 -87 -18 -107 -77h200c-5 59 -47 77 -93 77z" />
    <glyph glyph-name="Ecaron" unicode="&#x11a;" horiz-adv-x="595" 
d="M445 778h-134l-90 164h139l32 -66l52 66h139zM595 574h-314l-18 -134h223l-21 -150h-223l-19 -136h329l-22 -154h-507l102 728h491z" />
    <glyph glyph-name="ecaron" unicode="&#x11b;" horiz-adv-x="601" 
d="M397 579h-134l-90 164h139l32 -66l52 66h139zM573 311c1 -34 -4 -70 -11 -94h-368c8 -76 52 -89 96 -89c38 0 72 16 88 49h176c-36 -113 -128 -189 -274 -189c-122 0 -248 76 -249 253c-1 182 132 298 292 298c151 0 247 -94 250 -228zM313 404c-44 0 -87 -18 -107 -77
h200c-5 59 -47 77 -93 77z" />
    <glyph glyph-name="Gcircumflex" unicode="&#x11c;" horiz-adv-x="793" 
d="M265 788l138 164h134l90 -164h-139l-32 66l-52 -66h-139zM339 -10c-164 0 -302 104 -302 319c0 236 165 429 402 429c178 0 308 -100 324 -251h-190c-19 65 -78 89 -138 89c-113 0 -210 -86 -210 -242c0 -118 62 -184 156 -184c63 0 154 23 179 119l4 18h-202l20 142h380
l-60 -429h-150l-1 63c-54 -46 -128 -73 -212 -73z" />
    <glyph glyph-name="gcircumflex" unicode="&#x11d;" horiz-adv-x="639" 
d="M376 644l-52 -66h-139l138 164h134l90 -164h-139zM466 528h161l-70 -498c-25 -177 -143 -240 -291 -240c-151 0 -260 80 -260 199h167c7 -36 44 -57 98 -57c75 0 105 35 113 87l4 31c-30 -23 -74 -37 -125 -37c-148 0 -231 97 -231 243c0 169 115 282 262 282
c70 0 126 -27 154 -62zM309 166c63 0 113 50 113 119c0 61 -39 97 -94 97c-62 0 -114 -47 -114 -118c0 -63 42 -98 95 -98z" />
    <glyph glyph-name="Gbreve" unicode="&#x11e;" horiz-adv-x="793" 
d="M517 942h107c-8 -110 -71 -166 -172 -166c-90 0 -157 66 -140 166h107c-8 -37 8 -62 40 -62c36 0 55 22 58 62zM339 -10c-164 0 -302 104 -302 319c0 236 165 429 402 429c178 0 308 -100 324 -251h-190c-19 65 -78 89 -138 89c-113 0 -210 -86 -210 -242
c0 -118 62 -184 156 -184c63 0 154 23 179 119l4 18h-202l20 142h380l-60 -429h-150l-1 63c-54 -46 -128 -73 -212 -73z" />
    <glyph glyph-name="gbreve" unicode="&#x11f;" horiz-adv-x="639" 
d="M372 566c-90 0 -157 66 -140 166h107c-8 -37 8 -62 40 -62c36 0 55 22 58 62h107c-8 -110 -71 -166 -172 -166zM466 528h161l-70 -498c-25 -177 -143 -240 -291 -240c-151 0 -260 80 -260 199h167c7 -36 44 -57 98 -57c75 0 105 35 113 87l4 31c-30 -23 -74 -37 -125 -37
c-148 0 -231 97 -231 243c0 169 115 282 262 282c70 0 126 -27 154 -62zM309 166c63 0 113 50 113 119c0 61 -39 97 -94 97c-62 0 -114 -47 -114 -118c0 -63 42 -98 95 -98z" />
    <glyph glyph-name="Gdotaccent" unicode="&#x120;" horiz-adv-x="793" 
d="M364 801l22 159h167l-22 -159h-167zM339 -10c-164 0 -302 104 -302 319c0 236 165 429 402 429c178 0 308 -100 324 -251h-190c-19 65 -78 89 -138 89c-113 0 -210 -86 -210 -242c0 -118 62 -184 156 -184c63 0 154 23 179 119l4 18h-202l20 142h380l-60 -429h-150l-1 63
c-54 -46 -128 -73 -212 -73z" />
    <glyph glyph-name="gdotaccent" unicode="&#x121;" horiz-adv-x="639" 
d="M473 750l-22 -159h-167l22 159h167zM466 528h161l-70 -498c-25 -177 -143 -240 -291 -240c-151 0 -260 80 -260 199h167c7 -36 44 -57 98 -57c75 0 105 35 113 87l4 31c-30 -23 -74 -37 -125 -37c-148 0 -231 97 -231 243c0 169 115 282 262 282c70 0 126 -27 154 -62z
M309 166c63 0 113 50 113 119c0 61 -39 97 -94 97c-62 0 -114 -47 -114 -118c0 -63 42 -98 95 -98z" />
    <glyph glyph-name="Gcommaaccent" unicode="&#x122;" horiz-adv-x="793" 
d="M362 287l20 142h380l-60 -429h-150l-1 63c-54 -46 -128 -73 -212 -73c-164 0 -302 104 -302 319c0 236 165 429 402 429c178 0 308 -100 324 -251h-190c-19 65 -78 89 -138 89c-113 0 -210 -86 -210 -242c0 -118 62 -184 156 -184c63 0 154 23 179 119l4 18h-202z
M274 -172l18 131h145l-18 -131l-64 -87h-86l65 87h-60z" />
    <glyph glyph-name="gcommaaccent" unicode="&#x123;" horiz-adv-x="639" 
d="M452 709l-18 -131h-145l18 131l64 87h86l-65 -87h60zM466 528h161l-70 -498c-25 -177 -143 -240 -291 -240c-151 0 -260 80 -260 199h167c7 -36 44 -57 98 -57c75 0 105 35 113 87l4 31c-30 -23 -74 -37 -125 -37c-148 0 -231 97 -231 243c0 169 115 282 262 282
c70 0 126 -27 154 -62zM309 166c63 0 113 50 113 119c0 61 -39 97 -94 97c-62 0 -114 -47 -114 -118c0 -63 42 -98 95 -98z" />
    <glyph glyph-name="Hcircumflex" unicode="&#x124;" horiz-adv-x="739" 
d="M260 778l138 164h134l90 -164h-139l-32 66l-52 -66h-139zM505 292h-263l-41 -292h-178l102 728h178l-38 -276h263l38 276h178l-102 -728h-178z" />
    <glyph glyph-name="hcircumflex" unicode="&#x125;" horiz-adv-x="636" 
d="M225 876l-52 -66h-139l138 164h134l90 -164h-139zM405 539c142 0 212 -103 190 -258l-40 -281h-176l34 266c12 93 -37 115 -78 115c-67 0 -97 -44 -106 -106l-40 -275h-176l106 760h177l-39 -274c30 31 83 53 148 53z" />
    <glyph glyph-name="Hbar" unicode="&#x126;" horiz-adv-x="755" 
d="M785 613l-15 -111h-50l-70 -502h-178l41 292h-263l-41 -292h-178l70 502h-52l15 111h53l16 115h178l-16 -115h263l16 115h178l-16 -115h49zM536 452l7 50h-263l-7 -50h263z" />
    <glyph glyph-name="hbar" unicode="&#x127;" horiz-adv-x="647" 
d="M416 539c142 0 212 -103 190 -258l-40 -281h-176l34 266c12 93 -37 115 -78 115c-67 0 -97 -44 -106 -106l-40 -275h-176l79 566h-66l18 131h66l9 63h177l-9 -63h156l-18 -131h-157l-11 -80c30 31 83 53 148 53z" />
    <glyph glyph-name="Itilde" unicode="&#x128;" horiz-adv-x="298" 
d="M152 941c73 0 98 -53 145 -53c26 0 44 16 48 44h85c-3 -93 -58 -151 -135 -151c-73 0 -96 53 -145 53c-27 0 -45 -16 -49 -44h-85c3 93 59 151 136 151zM303 728l-102 -728h-178l102 728h178z" />
    <glyph glyph-name="itilde" unicode="&#x129;" horiz-adv-x="276" 
d="M112 741c73 0 98 -53 145 -53c26 0 44 16 48 44h85c-3 -93 -58 -151 -135 -151c-73 0 -96 53 -145 53c-27 0 -45 -16 -49 -44h-85c3 93 59 151 136 151zM13 0l74 528h176l-74 -528h-176z" />
    <glyph glyph-name="Imacron" unicode="&#x12a;" horiz-adv-x="298" 
d="M75 914h329l-16 -111h-329zM303 728l-102 -728h-178l102 728h178z" />
    <glyph glyph-name="imacron" unicode="&#x12b;" horiz-adv-x="276" 
d="M35 714h329l-16 -111h-329zM13 0l74 528h176l-74 -528h-176z" />
    <glyph glyph-name="Ibreve" unicode="&#x12c;" horiz-adv-x="298" 
d="M292 932h107c-8 -110 -71 -166 -172 -166c-90 0 -157 66 -140 166h107c-8 -37 8 -62 40 -62c36 0 55 22 58 62zM303 728l-102 -728h-178l102 728h178z" />
    <glyph glyph-name="ibreve" unicode="&#x12d;" horiz-adv-x="276" 
d="M252 732h107c-8 -110 -71 -166 -172 -166c-90 0 -157 66 -140 166h107c-8 -37 8 -62 40 -62c36 0 55 22 58 62zM13 0l74 528h176l-74 -528h-176z" />
    <glyph glyph-name="Iogonek" unicode="&#x12e;" horiz-adv-x="298" 
d="M201 0c-49 -18 -85 -44 -85 -75c0 -12 6 -21 27 -21c12 0 23 3 36 8l-14 -94c-25 -13 -50 -16 -69 -16c-57 0 -95 28 -95 78c0 45 29 91 96 120h-74l102 728h178z" />
    <glyph glyph-name="iogonek" unicode="&#x12f;" horiz-adv-x="276" 
d="M121 750h167l-22 -159h-167zM13 0l74 528h176l-74 -528c-49 -18 -85 -44 -85 -75c0 -12 6 -21 27 -21c12 0 23 3 36 8l-14 -94c-25 -13 -50 -16 -69 -16c-57 0 -95 28 -95 78c0 45 29 91 96 120h-72z" />
    <glyph glyph-name="Idotaccent" unicode="&#x130;" horiz-adv-x="298" 
d="M139 791l22 159h167l-22 -159h-167zM303 728l-102 -728h-178l102 728h178z" />
    <glyph glyph-name="dotlessi" unicode="&#x131;" horiz-adv-x="276" 
d="M13 0l74 528h176l-74 -528h-176z" />
    <glyph glyph-name="IJ" unicode="&#x132;" horiz-adv-x="874" 
d="M303 728l-102 -728h-178l102 728h178zM463 251c-9 -68 17 -100 77 -100c55 0 89 27 98 92l68 485h178l-67 -480c-24 -174 -141 -258 -290 -258c-148 0 -261 83 -237 261h173z" />
    <glyph glyph-name="ij" unicode="&#x133;" horiz-adv-x="554" 
d="M99 591l22 159h167l-22 -159h-167zM378 591l22 159h167l-22 -159h-167zM13 0l74 528h176l-74 -528h-176zM465 -28c-17 -121 -74 -172 -212 -172h-76l22 153h35c38 0 53 13 58 47l73 528h176z" />
    <glyph glyph-name="Jcircumflex" unicode="&#x134;" horiz-adv-x="606" 
d="M353 778l138 164h134l90 -164h-139l-32 66l-52 -66h-139zM195 251c-9 -68 17 -100 77 -100c55 0 89 27 98 92l68 485h178l-67 -480c-24 -174 -141 -258 -290 -258c-148 0 -261 83 -237 261h173z" />
    <glyph glyph-name="jcircumflex" unicode="&#x135;" horiz-adv-x="286" 
d="M12 578l138 164h134l90 -164h-139l-32 66l-52 -66h-139zM197 -28c-17 -121 -74 -172 -212 -172h-76l22 153h35c38 0 53 13 58 47l73 528h176z" />
    <glyph glyph-name="Kcommaaccent" unicode="&#x136;" horiz-adv-x="732" 
d="M787 728l-324 -317l210 -411h-213l-133 279l-100 -98l-26 -181h-178l102 728h178l-40 -288l295 288h229zM215 -166l18 131h145l-18 -131l-64 -87h-86l65 87h-60z" />
    <glyph glyph-name="kcommaaccent" unicode="&#x137;" horiz-adv-x="618" 
d="M650 529l-262 -243l172 -286h-198l-100 177l-53 -47l-19 -130h-177l106 760h177l-58 -416l197 185h215zM187 -163l18 131h145l-18 -131l-64 -87h-86l65 87h-60z" />
    <glyph glyph-name="Lacute" unicode="&#x139;" horiz-adv-x="581" 
d="M158 778l117 164h138l-130 -164h-125zM224 162h323l-23 -162h-501l102 728h178z" />
    <glyph glyph-name="lacute" unicode="&#x13a;" horiz-adv-x="276" 
d="M149 810l117 164h138l-130 -164h-125zM13 0l107 760h176l-107 -760h-176z" />
    <glyph glyph-name="Lcommaaccent" unicode="&#x13b;" horiz-adv-x="581" 
d="M224 162h323l-23 -162h-501l102 728h178zM177 -176l18 131h145l-18 -131l-64 -87h-86l65 87h-60z" />
    <glyph glyph-name="lcommaaccent" unicode="&#x13c;" horiz-adv-x="276" 
d="M120 760h176l-107 -760h-176zM6 -163l18 131h145l-18 -131l-64 -87h-86l65 87h-60z" />
    <glyph glyph-name="Lcaron" unicode="&#x13d;" horiz-adv-x="581" 
d="M224 162h323l-23 -162h-501l102 728h178zM505 728l-56 -198h-106l28 198h134z" />
    <glyph glyph-name="lcaron" unicode="&#x13e;" horiz-adv-x="325" 
d="M13 0l107 760h176l-107 -760h-176zM478 760l-56 -198h-106l28 198h134z" />
    <glyph glyph-name="Ldot" unicode="&#x13f;" horiz-adv-x="581" 
d="M224 162h323l-23 -162h-501l102 728h178zM437 374c-42 0 -77 32 -77 76c0 48 38 88 90 88c41 0 76 -31 76 -75c0 -49 -38 -89 -89 -89z" />
    <glyph glyph-name="ldot" unicode="&#x140;" horiz-adv-x="416" 
d="M13 0l107 760h176l-107 -760h-176zM353 302c-42 0 -77 32 -77 76c0 48 38 88 90 88c41 0 76 -31 76 -75c0 -49 -38 -89 -89 -89z" />
    <glyph glyph-name="Lslash" unicode="&#x141;" horiz-adv-x="591" 
d="M234 162h323l-23 -162h-501l41 291l-74 -44l21 147l73 44l41 290h178l-24 -175l108 65l-21 -148l-108 -64z" />
    <glyph glyph-name="lslash" unicode="&#x142;" horiz-adv-x="317" 
d="M354 527l-21 -148l-73 -26l-50 -353h-176l40 286l-75 -27l21 148l75 27l46 328h176l-37 -261z" />
    <glyph glyph-name="Nacute" unicode="&#x143;" horiz-adv-x="729" 
d="M374 778l117 164h138l-130 -164h-125zM23 0l102 728h178l193 -436l61 436h177l-102 -728h-177l-195 421l-59 -421h-178z" />
    <glyph glyph-name="nacute" unicode="&#x144;" horiz-adv-x="630" 
d="M572 742l-130 -164h-125l117 164h138zM413 538c124 0 201 -90 178 -250l-40 -288h-176l39 276c10 74 -17 114 -76 114c-61 0 -100 -40 -110 -114l-39 -276h-176l74 528h166l1 -53c36 39 94 63 159 63z" />
    <glyph glyph-name="Ncommaaccent" unicode="&#x145;" horiz-adv-x="729" 
d="M557 728h177l-102 -728h-177l-195 421l-59 -421h-178l102 728h178l193 -436zM233 -163l18 131h145l-18 -131l-64 -87h-86l65 87h-60z" />
    <glyph glyph-name="ncommaaccent" unicode="&#x146;" horiz-adv-x="630" 
d="M413 538c124 0 201 -90 178 -250l-40 -288h-176l39 276c10 74 -17 114 -76 114c-61 0 -100 -40 -110 -114l-39 -276h-176l74 528h166l1 -53c36 39 94 63 159 63zM187 -163l18 131h145l-18 -131l-64 -87h-86l65 87h-60z" />
    <glyph glyph-name="Ncaron" unicode="&#x147;" horiz-adv-x="729" 
d="M642 942l-138 -164h-134l-90 164h139l32 -66l52 66h139zM23 0l102 728h178l193 -436l61 436h177l-102 -728h-177l-195 421l-59 -421h-178z" />
    <glyph glyph-name="ncaron" unicode="&#x148;" horiz-adv-x="630" 
d="M447 578h-134l-90 164h139l32 -66l52 66h139zM413 538c124 0 201 -90 178 -250l-40 -288h-176l39 276c10 74 -17 114 -76 114c-61 0 -100 -40 -110 -114l-39 -276h-176l74 528h166l1 -53c36 39 94 63 159 63z" />
    <glyph glyph-name="Eng" unicode="&#x14a;" horiz-adv-x="729" 
d="M454 0l-194 421l-59 -421h-178l102 728h178l193 -436l61 436h177l-109 -768c-16 -113 -74 -160 -212 -160h-76l22 153h45c32 0 45 9 48 34z" />
    <glyph glyph-name="eng" unicode="&#x14b;" horiz-adv-x="640" 
d="M374 -16l42 292c11 74 -17 114 -76 114c-61 0 -100 -40 -110 -114l-39 -276h-176l74 528h166l1 -53c36 39 94 63 159 63c124 0 201 -90 178 -250l-47 -331c-17 -120 -99 -169 -219 -169h-107l22 153h62c45 0 64 9 70 43z" />
    <glyph glyph-name="Omacron" unicode="&#x14c;" horiz-adv-x="779" 
d="M286 924h329l-16 -111h-329zM39 345c0 240 181 393 386 393c186 0 342 -126 342 -347c0 -238 -181 -390 -387 -390c-185 0 -341 122 -341 344zM576 395c0 130 -84 178 -158 178c-103 0 -188 -93 -188 -229c0 -126 74 -178 152 -178c105 0 194 96 194 229z" />
    <glyph glyph-name="omacron" unicode="&#x14d;" horiz-adv-x="622" 
d="M195 716h329l-16 -111h-329zM30 243c0 176 137 297 304 297c133 0 256 -95 256 -265c0 -171 -132 -285 -299 -285c-146 0 -261 98 -261 253zM297 138c67 0 120 56 120 141c0 82 -50 113 -97 113c-65 0 -116 -59 -116 -145c0 -80 44 -109 93 -109z" />
    <glyph glyph-name="Obreve" unicode="&#x14e;" horiz-adv-x="779" 
d="M503 942h107c-8 -110 -71 -166 -172 -166c-90 0 -157 66 -140 166h107c-8 -37 8 -62 40 -62c36 0 55 22 58 62zM39 345c0 240 181 393 386 393c186 0 342 -126 342 -347c0 -238 -181 -390 -387 -390c-185 0 -341 122 -341 344zM576 395c0 130 -84 178 -158 178
c-103 0 -188 -93 -188 -229c0 -126 74 -178 152 -178c105 0 194 96 194 229z" />
    <glyph glyph-name="obreve" unicode="&#x14f;" horiz-adv-x="622" 
d="M412 734h107c-8 -110 -71 -166 -172 -166c-90 0 -157 66 -140 166h107c-8 -37 8 -62 40 -62c36 0 55 22 58 62zM30 243c0 176 137 297 304 297c133 0 256 -95 256 -265c0 -171 -132 -285 -299 -285c-146 0 -261 98 -261 253zM297 138c67 0 120 56 120 141
c0 82 -50 113 -97 113c-65 0 -116 -59 -116 -145c0 -80 44 -109 93 -109z" />
    <glyph glyph-name="Ohungarumlaut" unicode="&#x150;" horiz-adv-x="779" 
d="M283 788l117 164h138l-130 -164h-125zM456 788l139 164h139l-152 -164h-126zM39 345c0 240 181 393 386 393c186 0 342 -126 342 -347c0 -238 -181 -390 -387 -390c-185 0 -341 122 -341 344zM576 395c0 130 -84 178 -158 178c-103 0 -188 -93 -188 -229
c0 -126 74 -178 152 -178c105 0 194 96 194 229z" />
    <glyph glyph-name="ohungarumlaut" unicode="&#x151;" horiz-adv-x="622" 
d="M192 580l117 164h138l-130 -164h-125zM365 580l139 164h139l-152 -164h-126zM30 243c0 176 137 297 304 297c133 0 256 -95 256 -265c0 -171 -132 -285 -299 -285c-146 0 -261 98 -261 253zM297 138c67 0 120 56 120 141c0 82 -50 113 -97 113c-65 0 -116 -59 -116 -145
c0 -80 44 -109 93 -109z" />
    <glyph glyph-name="OE" unicode="&#x152;" horiz-adv-x="1127" 
d="M1127 574h-313l-19 -134h223l-21 -150h-223l-19 -136h329l-22 -154h-507l8 60c-51 -45 -128 -70 -205 -70c-183 0 -319 117 -319 344c0 228 160 404 386 404c93 0 171 -28 222 -83l10 73h491zM386 158c109 0 190 98 190 228c0 123 -72 184 -158 184
c-107 0 -188 -94 -188 -227c0 -124 70 -185 156 -185z" />
    <glyph glyph-name="oe" unicode="&#x153;" horiz-adv-x="973" 
d="M710 540c159 0 251 -108 229 -271l-7 -52h-359c-7 -50 30 -88 93 -88c42 0 73 16 89 49h168c-41 -129 -149 -188 -265 -188c-71 0 -149 23 -185 78c-46 -48 -115 -78 -190 -78c-148 0 -251 92 -251 252c0 179 137 298 291 298c86 0 154 -33 193 -87c46 57 116 87 194 87z
M772 327c2 52 -35 77 -81 77s-91 -25 -102 -77h183zM301 134c68 0 113 65 113 143c0 65 -31 115 -91 115c-68 0 -113 -65 -113 -143c0 -65 31 -115 91 -115z" />
    <glyph glyph-name="Racute" unicode="&#x154;" horiz-adv-x="694" 
d="M281 778l117 164h138l-130 -164h-125zM23 0l102 728h317c154 0 250 -89 250 -231c0 -130 -76 -207 -170 -240l88 -257h-200l-73 233h-103l-33 -233h-178zM254 380h126c76 0 123 45 123 107c0 60 -33 87 -93 87h-128z" />
    <glyph glyph-name="racute" unicode="&#x155;" horiz-adv-x="430" 
d="M482 742l-130 -164h-125l117 164h138zM265 484c17 24 49 44 99 44h88l-21 -154h-86c-82 0 -104 -33 -113 -96l-40 -278h-176l74 528h166z" />
    <glyph glyph-name="Rcommaaccent" unicode="&#x156;" horiz-adv-x="694" 
d="M692 497c0 -130 -76 -207 -170 -240l88 -257h-200l-73 233h-103l-33 -233h-178l102 728h317c154 0 250 -89 250 -231zM380 380c76 0 123 45 123 107c0 60 -33 87 -93 87h-128l-28 -194h126zM191 -163l18 131h145l-18 -131l-64 -87h-86l65 87h-60z" />
    <glyph glyph-name="rcommaaccent" unicode="&#x157;" horiz-adv-x="430" 
d="M364 528h88l-21 -154h-86c-82 0 -104 -33 -113 -96l-40 -278h-176l74 528h166l9 -44c17 24 49 44 99 44zM9 -163l18 131h145l-18 -131l-64 -87h-86l65 87h-60z" />
    <glyph glyph-name="Rcaron" unicode="&#x158;" horiz-adv-x="694" 
d="M549 942l-138 -164h-134l-90 164h139l32 -66l52 66h139zM23 0l102 728h317c154 0 250 -89 250 -231c0 -130 -76 -207 -170 -240l88 -257h-200l-73 233h-103l-33 -233h-178zM254 380h126c76 0 123 45 123 107c0 60 -33 87 -93 87h-128z" />
    <glyph glyph-name="rcaron" unicode="&#x159;" horiz-adv-x="430" 
d="M357 578h-134l-90 164h139l32 -66l52 66h139zM265 484c17 24 49 44 99 44h88l-21 -154h-86c-82 0 -104 -33 -113 -96l-40 -278h-176l74 528h166z" />
    <glyph glyph-name="Sacute" unicode="&#x15a;" horiz-adv-x="660" 
d="M323 788l117 164h138l-130 -164h-125zM302 -10c-175 0 -296 93 -278 232h172c-7 -54 42 -84 119 -84c82 0 124 32 124 79c0 32 -21 49 -75 63l-99 26c-129 34 -193 95 -193 197c0 125 93 235 307 235c132 0 280 -46 271 -228h-169c9 66 -46 86 -106 86
c-78 0 -115 -32 -115 -72c0 -28 18 -49 87 -66l102 -25c121 -30 179 -101 179 -199c0 -165 -157 -244 -326 -244z" />
    <glyph glyph-name="sacute" unicode="&#x15b;" horiz-adv-x="531" 
d="M236 578l117 164h138l-130 -164h-125zM3 171h170c-4 -39 24 -59 72 -59c41 0 69 14 69 41c0 21 -14 34 -62 44l-61 13c-115 24 -149 78 -149 142c0 114 110 186 250 186c153 0 241 -73 226 -175h-171c5 33 -22 53 -66 53c-39 0 -61 -16 -61 -39c0 -21 18 -28 61 -38
l71 -16c102 -23 145 -75 145 -151c0 -123 -123 -182 -259 -182c-138 0 -235 60 -235 181z" />
    <glyph glyph-name="Scircumflex" unicode="&#x15c;" horiz-adv-x="660" 
d="M205 788l138 164h134l90 -164h-139l-32 66l-52 -66h-139zM302 -10c-175 0 -296 93 -278 232h172c-7 -54 42 -84 119 -84c82 0 124 32 124 79c0 32 -21 49 -75 63l-99 26c-129 34 -193 95 -193 197c0 125 93 235 307 235c132 0 280 -46 271 -228h-169c9 66 -46 86 -106 86
c-78 0 -115 -32 -115 -72c0 -28 18 -49 87 -66l102 -25c121 -30 179 -101 179 -199c0 -165 -157 -244 -326 -244z" />
    <glyph glyph-name="scircumflex" unicode="&#x15d;" horiz-adv-x="531" 
d="M118 578l138 164h134l90 -164h-139l-32 66l-52 -66h-139zM3 171h170c-4 -39 24 -59 72 -59c41 0 69 14 69 41c0 21 -14 34 -62 44l-61 13c-115 24 -149 78 -149 142c0 114 110 186 250 186c153 0 241 -73 226 -175h-171c5 33 -22 53 -66 53c-39 0 -61 -16 -61 -39
c0 -21 18 -28 61 -38l71 -16c102 -23 145 -75 145 -151c0 -123 -123 -182 -259 -182c-138 0 -235 60 -235 181z" />
    <glyph glyph-name="Scedilla" unicode="&#x15e;" horiz-adv-x="660" 
d="M650 510h-169c9 66 -46 86 -106 86c-78 0 -115 -32 -115 -72c0 -28 18 -49 87 -66l102 -25c121 -30 179 -101 179 -199c0 -157 -143 -237 -303 -244l-13 -30c48 1 84 -23 84 -73c0 -58 -47 -90 -112 -90c-67 0 -112 39 -104 89h75c0 -13 11 -21 26 -21c18 0 27 10 27 25
c0 20 -18 28 -41 23l-29 18l28 60c-155 12 -259 102 -242 231h172c-7 -54 42 -84 119 -84c82 0 124 32 124 79c0 32 -21 49 -75 63l-99 26c-129 34 -193 95 -193 197c0 125 93 235 307 235c132 0 280 -46 271 -228z" />
    <glyph glyph-name="scedilla" unicode="&#x15f;" horiz-adv-x="531" 
d="M518 363h-171c5 33 -22 53 -66 53c-39 0 -61 -16 -61 -39c0 -21 18 -28 61 -38l71 -16c102 -23 145 -75 145 -151c0 -117 -112 -176 -240 -182l-9 -21c48 1 84 -23 84 -73c0 -58 -47 -90 -112 -90c-67 0 -112 39 -104 89h75c0 -13 11 -21 26 -21c18 0 27 10 27 25
c0 20 -18 28 -41 23l-29 18l24 52c-116 11 -195 70 -195 179h170c-4 -39 24 -59 72 -59c41 0 69 14 69 41c0 21 -14 34 -62 44l-61 13c-115 24 -149 78 -149 142c0 114 110 186 250 186c153 0 241 -73 226 -175z" />
    <glyph glyph-name="Scaron" unicode="&#x160;" horiz-adv-x="660" 
d="M591 952l-138 -164h-134l-90 164h139l32 -66l52 66h139zM302 -10c-175 0 -296 93 -278 232h172c-7 -54 42 -84 119 -84c82 0 124 32 124 79c0 32 -21 49 -75 63l-99 26c-129 34 -193 95 -193 197c0 125 93 235 307 235c132 0 280 -46 271 -228h-169c9 66 -46 86 -106 86
c-78 0 -115 -32 -115 -72c0 -28 18 -49 87 -66l102 -25c121 -30 179 -101 179 -199c0 -165 -157 -244 -326 -244z" />
    <glyph glyph-name="scaron" unicode="&#x161;" horiz-adv-x="531" 
d="M504 742l-138 -164h-134l-90 164h139l32 -66l52 66h139zM3 171h170c-4 -39 24 -59 72 -59c41 0 69 14 69 41c0 21 -14 34 -62 44l-61 13c-115 24 -149 78 -149 142c0 114 110 186 250 186c153 0 241 -73 226 -175h-171c5 33 -22 53 -66 53c-39 0 -61 -16 -61 -39
c0 -21 18 -28 61 -38l71 -16c102 -23 145 -75 145 -151c0 -123 -123 -182 -259 -182c-138 0 -235 60 -235 181z" />
    <glyph glyph-name="uni0162" unicode="&#x162;" horiz-adv-x="644" 
d="M85 728h604l-21 -154h-213l-81 -574h-178l81 574h-213zM200 -163l18 131h145l-18 -131l-64 -87h-86l65 87h-60z" />
    <glyph glyph-name="uni0163" unicode="&#x163;" horiz-adv-x="405" 
d="M273 376l-23 -163c-7 -50 4 -60 48 -60h63l-22 -153h-124c-112 0 -164 54 -145 185l27 191h-75l21 152h25c32 0 51 5 57 47l14 101h176l-21 -148h119l-21 -152h-119zM107 -163l18 131h145l-18 -131l-64 -87h-86l65 87h-60z" />
    <glyph glyph-name="Tcaron" unicode="&#x164;" horiz-adv-x="644" 
d="M599 942l-138 -164h-134l-90 164h139l32 -66l52 66h139zM455 574l-81 -574h-178l81 574h-213l21 154h604l-21 -154h-213z" />
    <glyph glyph-name="tcaron" unicode="&#x165;" horiz-adv-x="412" 
d="M508 760l-56 -198h-106l28 198h134zM22 376l21 152h25c32 0 51 5 57 47l14 101h176l-21 -148h119l-21 -152h-119l-23 -163c-7 -50 4 -60 48 -60h63l-22 -153h-124c-112 0 -164 54 -145 185l27 191h-75z" />
    <glyph glyph-name="Tbar" unicode="&#x166;" horiz-adv-x="644" 
d="M668 574h-213l-23 -162h110l-18 -131h-110l-40 -281h-178l40 281h-111l18 131h111l23 162h-213l21 154h604z" />
    <glyph glyph-name="tbar" unicode="&#x167;" horiz-adv-x="432" 
d="M282 376l-5 -36h129l-18 -131h-130c-5 -47 6 -56 49 -56h63l-22 -153h-124c-112 0 -164 54 -145 185l3 24h-61l18 131h62l5 36h-75l21 152h25c32 0 51 5 57 47l14 101h176l-21 -148h119l-21 -152h-119z" />
    <glyph glyph-name="Utilde" unicode="&#x168;" horiz-adv-x="720" 
d="M362 941c73 0 98 -53 145 -53c26 0 44 16 48 44h85c-3 -93 -58 -151 -135 -151c-73 0 -96 53 -145 53c-27 0 -45 -16 -49 -44h-85c3 93 59 151 136 151zM295 728l-63 -447c-13 -96 41 -138 112 -138s133 42 145 127l64 458h181l-64 -458c-24 -171 -131 -280 -330 -280
c-186 0 -314 112 -285 322l58 416h182z" />
    <glyph glyph-name="utilde" unicode="&#x169;" horiz-adv-x="602" 
d="M272 634c-27 0 -45 -16 -49 -44h-85c3 93 59 151 136 151c73 0 98 -53 145 -53c26 0 44 16 48 44h85c-3 -93 -58 -151 -135 -151c-73 0 -96 53 -145 53zM425 529h164l-74 -529h-162v54c-32 -39 -85 -64 -151 -64c-103 0 -186 65 -166 207l46 332h165l-39 -284
c-10 -76 13 -106 71 -106s96 35 105 100z" />
    <glyph glyph-name="Umacron" unicode="&#x16a;" horiz-adv-x="720" 
d="M285 914h329l-16 -111h-329zM295 728l-63 -447c-13 -96 41 -138 112 -138s133 42 145 127l64 458h181l-64 -458c-24 -171 -131 -280 -330 -280c-186 0 -314 112 -285 322l58 416h182z" />
    <glyph glyph-name="umacron" unicode="&#x16b;" horiz-adv-x="602" 
d="M526 714l-16 -111h-329l16 111h329zM425 529h164l-74 -529h-162v54c-32 -39 -85 -64 -151 -64c-103 0 -186 65 -166 207l46 332h165l-39 -284c-10 -76 13 -106 71 -106s96 35 105 100z" />
    <glyph glyph-name="Ubreve" unicode="&#x16c;" horiz-adv-x="720" 
d="M502 932h107c-8 -110 -71 -166 -172 -166c-90 0 -157 66 -140 166h107c-8 -37 8 -62 40 -62c36 0 55 22 58 62zM295 728l-63 -447c-13 -96 41 -138 112 -138s133 42 145 127l64 458h181l-64 -458c-24 -171 -131 -280 -330 -280c-186 0 -314 112 -285 322l58 416h182z" />
    <glyph glyph-name="ubreve" unicode="&#x16d;" horiz-adv-x="602" 
d="M349 566c-90 0 -157 66 -140 166h107c-8 -37 8 -62 40 -62c36 0 55 22 58 62h107c-8 -110 -71 -166 -172 -166zM425 529h164l-74 -529h-162v54c-32 -39 -85 -64 -151 -64c-103 0 -186 65 -166 207l46 332h165l-39 -284c-10 -76 13 -106 71 -106s96 35 105 100z" />
    <glyph glyph-name="Uring" unicode="&#x16e;" horiz-adv-x="720" 
d="M425 718c-72 0 -131 49 -131 127c0 87 69 136 142 136c72 0 131 -50 131 -127c0 -87 -69 -136 -142 -136zM429 799c30 0 53 22 53 54c0 26 -20 47 -49 47c-30 0 -53 -22 -53 -54c0 -26 20 -47 49 -47zM295 728l-63 -447c-13 -96 41 -138 112 -138s133 42 145 127l64 458
h181l-64 -458c-24 -171 -131 -280 -330 -280c-186 0 -314 112 -285 322l58 416h182z" />
    <glyph glyph-name="uring" unicode="&#x16f;" horiz-adv-x="602" 
d="M337 518c-72 0 -131 49 -131 127c0 87 69 136 142 136c72 0 131 -50 131 -127c0 -87 -69 -136 -142 -136zM345 700c-30 0 -53 -22 -53 -54c0 -26 20 -47 49 -47c30 0 53 22 53 54c0 26 -20 47 -49 47zM425 529h164l-74 -529h-162v54c-32 -39 -85 -64 -151 -64
c-103 0 -186 65 -166 207l46 332h165l-39 -284c-10 -76 13 -106 71 -106s96 35 105 100z" />
    <glyph glyph-name="Uhungarumlaut" unicode="&#x170;" horiz-adv-x="720" 
d="M282 778l117 164h138l-130 -164h-125zM455 778l139 164h139l-152 -164h-126zM295 728l-63 -447c-13 -96 41 -138 112 -138s133 42 145 127l64 458h181l-64 -458c-24 -171 -131 -280 -330 -280c-186 0 -314 112 -285 322l58 416h182z" />
    <glyph glyph-name="uhungarumlaut" unicode="&#x171;" horiz-adv-x="602" 
d="M449 742l-130 -164h-125l117 164h138zM493 578h-126l139 164h139zM384 239l41 290h164l-74 -529h-162v54c-32 -39 -85 -64 -151 -64c-103 0 -186 65 -166 207l46 332h165l-39 -284c-10 -76 13 -106 71 -106s96 35 105 100z" />
    <glyph glyph-name="Uogonek" unicode="&#x172;" horiz-adv-x="720" 
d="M553 728h181l-64 -458c-21 -150 -106 -252 -260 -275h2c-49 -18 -85 -44 -85 -75c0 -12 6 -21 27 -21c12 0 23 3 36 8l-14 -94c-25 -13 -50 -16 -69 -16c-57 0 -95 28 -95 78c0 43 27 88 89 117c-165 15 -273 125 -246 320l58 416h182l-63 -447c-13 -96 41 -138 112 -138
s133 42 145 127z" />
    <glyph glyph-name="uogonek" unicode="&#x173;" horiz-adv-x="602" 
d="M515 0c-49 -18 -85 -44 -85 -75c0 -12 6 -21 27 -21c12 0 23 3 36 8l-14 -94c-25 -13 -50 -16 -69 -16c-57 0 -95 28 -95 78c0 45 29 91 96 120h-58v54c-32 -39 -85 -64 -151 -64c-103 0 -186 65 -166 207l46 332h165l-39 -284c-10 -76 13 -106 71 -106s96 35 105 100
l41 290h164z" />
    <glyph glyph-name="Wcircumflex" unicode="&#x174;" horiz-adv-x="1096" 
d="M441 778l138 164h134l90 -164h-139l-32 66l-52 -66h-139zM164 0l-86 728h197l33 -486l198 486h217l42 -486l183 486h200l-298 -728h-210l-60 500l-206 -500h-210z" />
    <glyph glyph-name="wcircumflex" unicode="&#x175;" horiz-adv-x="852" 
d="M291 578l138 164h134l90 -164h-139l-32 66l-52 -66h-139zM229 528l19 -337l123 337h189l24 -339l113 339h182l-214 -528h-193l-28 347l-136 -347h-194l-67 528h182z" />
    <glyph glyph-name="Ycircumflex" unicode="&#x176;" horiz-adv-x="730" 
d="M249 778l138 164h134l90 -164h-139l-32 66l-52 -66h-139zM269 264l-204 464h204l108 -278l199 278h219l-348 -464l-37 -264h-178z" />
    <glyph glyph-name="ycircumflex" unicode="&#x177;" 
d="M147 578l138 164h134l90 -164h-139l-32 66l-52 -66h-139zM214 528l68 -359l163 359h187l-306 -611c-58 -117 -136 -117 -218 -117h-142l22 154h140c24 0 38 9 38 33c0 8 -2 17 -5 29l-126 512h179z" />
    <glyph glyph-name="Ydieresis" unicode="&#x178;" horiz-adv-x="730" 
d="M242 779l20 145h152l-20 -145h-152zM467 779l20 145h152l-20 -145h-152zM269 264l-204 464h204l108 -278l199 278h219l-348 -464l-37 -264h-178z" />
    <glyph glyph-name="Zacute" unicode="&#x179;" horiz-adv-x="621" 
d="M326 778l117 164h138l-130 -164h-125zM253 154h321l-22 -154h-549l19 133l388 441h-326l23 154h549l-20 -133z" />
    <glyph glyph-name="zacute" unicode="&#x17a;" horiz-adv-x="522" 
d="M243 578l117 164h138l-130 -164h-125zM248 154h222l-22 -154h-450l22 154l256 220h-223l21 154h450l-21 -154z" />
    <glyph glyph-name="Zdotaccent" unicode="&#x17b;" horiz-adv-x="621" 
d="M307 791l22 159h167l-22 -159h-167zM253 154h321l-22 -154h-549l19 133l388 441h-326l23 154h549l-20 -133z" />
    <glyph glyph-name="zdotaccent" unicode="&#x17c;" horiz-adv-x="522" 
d="M224 591l22 159h167l-22 -159h-167zM248 154h222l-22 -154h-450l22 154l256 220h-223l21 154h450l-21 -154z" />
    <glyph glyph-name="Zcaron" unicode="&#x17d;" horiz-adv-x="621" 
d="M594 942l-138 -164h-134l-90 164h139l32 -66l52 66h139zM253 154h321l-22 -154h-549l19 133l388 441h-326l23 154h549l-20 -133z" />
    <glyph glyph-name="zcaron" unicode="&#x17e;" horiz-adv-x="522" 
d="M511 742l-138 -164h-134l-90 164h139l32 -66l52 66h139zM248 154h222l-22 -154h-450l22 154l256 220h-223l21 154h450l-21 -154z" />
    <glyph glyph-name="florin" unicode="&#x192;" horiz-adv-x="589" 
d="M534 579c-60 0 -77 -20 -90 -60l-37 -111h141l-18 -128h-165l-97 -293c-36 -110 -85 -148 -204 -148h-92l21 148h58c51 0 67 14 80 54l78 239h-109l18 128h133l59 180c27 84 74 140 198 140h114l-21 -149h-67z" />
    <glyph glyph-name="Aringacute" unicode="&#x1fa;" horiz-adv-x="730" 
d="M654 1101l-130 -164h-125l117 164h138zM499 0l-28 136h-241l-68 -136h-191l355 689c-19 21 -31 50 -31 85c0 87 69 136 142 136c72 0 131 -50 131 -127c0 -43 -17 -77 -43 -100l160 -683h-186zM434 829c-30 0 -53 -22 -53 -54c0 -26 20 -47 49 -47c30 0 53 22 53 54
c0 26 -20 47 -49 47zM296 267h148l-43 209z" />
    <glyph glyph-name="aringacute" unicode="&#x1fb;" horiz-adv-x="596" 
d="M538 899l-130 -164h-125l117 164h138zM535 126h22l-18 -126h-92c-49 0 -85 15 -93 55c-32 -41 -89 -65 -164 -65c-107 0 -177 51 -177 151c0 101 72 174 213 174h133l3 20c6 38 -16 66 -69 66c-52 0 -81 -27 -87 -64h-156c10 91 66 157 154 185c-10 18 -15 39 -15 63
c0 87 69 136 142 136c72 0 131 -50 131 -127c0 -32 -9 -59 -25 -80c64 -27 113 -84 98 -195l-23 -169c-3 -22 13 -24 23 -24zM328 640c-30 0 -53 -22 -53 -54c0 -26 20 -47 49 -47c30 0 53 22 53 54c0 26 -20 47 -49 47zM341 189l2 17h-90c-53 0 -57 -32 -57 -43
c0 -30 29 -38 60 -38c59 0 81 30 85 64z" />
    <glyph glyph-name="AEacute" unicode="&#x1fc;" horiz-adv-x="1034" 
d="M691 778l117 164h138l-130 -164h-125zM-42 0l524 728h573l-21 -154h-313l-19 -134h223l-21 -150h-223l-19 -136h329l-22 -154h-497l21 146h-221l-101 -146h-213zM369 287h143l36 259z" />
    <glyph glyph-name="aeacute" unicode="&#x1fd;" horiz-adv-x="915" 
d="M670 742l-130 -164h-125l117 164h138zM640 539c170 0 262 -127 241 -283l-5 -38h-358c-4 -65 37 -90 87 -90c37 0 76 14 94 49h168c-43 -136 -151 -189 -267 -189c-90 0 -156 31 -196 89c-37 -53 -108 -87 -200 -87c-122 0 -191 60 -191 150c0 113 88 175 213 175h133
l4 25c6 38 -20 61 -68 61c-55 0 -82 -30 -87 -64h-158c14 123 125 201 256 201c58 0 121 -15 159 -59c44 37 103 60 175 60zM716 328c2 52 -34 75 -80 75s-92 -23 -103 -75h183zM341 189l2 17h-90c-53 0 -57 -32 -57 -43c0 -30 29 -38 60 -38c59 0 81 30 85 64z" />
    <glyph glyph-name="Oslashacute" unicode="&#x1fe;" horiz-adv-x="779" 
d="M581 952l-130 -164h-125l117 164h138zM659 654c66 -59 108 -148 108 -263c0 -238 -181 -390 -387 -390c-43 0 -85 7 -123 20l-33 -52h-142l70 110c-69 58 -113 148 -113 266c0 240 181 393 386 393c46 0 90 -8 131 -23l27 43h142zM226 344c0 -45 9 -81 25 -108l213 335
c-15 4 -31 6 -46 6c-105 0 -192 -95 -192 -233zM382 163c107 0 198 97 198 232c0 41 -8 74 -22 100l-209 -329c11 -2 22 -3 33 -3z" />
    <glyph glyph-name="Scommaaccent" unicode="&#x218;" horiz-adv-x="660" 
d="M650 510h-169c9 66 -46 86 -106 86c-78 0 -115 -32 -115 -72c0 -28 18 -49 87 -66l102 -25c121 -30 179 -101 179 -199c0 -165 -157 -244 -326 -244c-175 0 -296 93 -278 232h172c-7 -54 42 -84 119 -84c82 0 124 32 124 79c0 32 -21 49 -75 63l-99 26
c-129 34 -193 95 -193 197c0 125 93 235 307 235c132 0 280 -46 271 -228zM207 -172l18 131h145l-18 -131l-64 -87h-86l65 87h-60z" />
    <glyph glyph-name="scommaaccent" unicode="&#x219;" horiz-adv-x="531" 
d="M518 363h-171c5 33 -22 53 -66 53c-39 0 -61 -16 -61 -39c0 -21 18 -28 61 -38l71 -16c102 -23 145 -75 145 -151c0 -123 -123 -182 -259 -182c-138 0 -235 60 -235 181h170c-4 -39 24 -59 72 -59c41 0 69 14 69 41c0 21 -14 34 -62 44l-61 13c-115 24 -149 78 -149 142
c0 114 110 186 250 186c153 0 241 -73 226 -175zM143 -163l18 131h145l-18 -131l-64 -87h-86l65 87h-60z" />
    <glyph glyph-name="uni021A" unicode="&#x21a;" horiz-adv-x="644" 
d="M85 728h604l-21 -154h-213l-81 -574h-178l81 574h-213zM200 -163l18 131h145l-18 -131l-64 -87h-86l65 87h-60z" />
    <glyph glyph-name="uni021B" unicode="&#x21b;" horiz-adv-x="405" 
d="M273 376l-23 -163c-7 -50 4 -60 48 -60h63l-22 -153h-124c-112 0 -164 54 -145 185l27 191h-75l21 152h25c32 0 51 5 57 47l14 101h176l-21 -148h119l-21 -152h-119zM107 -163l18 131h145l-18 -131l-64 -87h-86l65 87h-60z" />
    <glyph glyph-name="uni0237" unicode="&#x237;" horiz-adv-x="286" 
d="M197 -28c-17 -121 -74 -172 -212 -172h-76l22 153h35c38 0 53 13 58 47l73 528h176z" />
    <glyph glyph-name="uni02BB" unicode="&#x2bb;" horiz-adv-x="176" 
d="M232 823l-65 -87h60l-18 -131h-145l18 131l64 87h86z" />
    <glyph glyph-name="uni02BC" unicode="&#x2bc;" horiz-adv-x="266" 
d="M365 760l-56 -198h-106l28 198h134z" />
    <glyph glyph-name="circumflex" unicode="&#x2c6;" horiz-adv-x="427" 
d="M87 646l138 164h134l90 -164h-139l-32 66l-52 -66h-139z" />
    <glyph glyph-name="caron" unicode="&#x2c7;" horiz-adv-x="427" 
d="M472 810l-138 -164h-134l-90 164h139l32 -66l52 66h139z" />
    <glyph glyph-name="breve" unicode="&#x2d8;" horiz-adv-x="358" 
d="M305 810h107c-8 -110 -71 -166 -172 -166c-90 0 -157 66 -140 166h107c-8 -37 8 -62 40 -62c36 0 55 22 58 62z" />
    <glyph glyph-name="dotaccent" unicode="&#x2d9;" horiz-adv-x="257" 
d="M101 659l22 159h167l-22 -159h-167z" />
    <glyph glyph-name="ring" unicode="&#x2da;" horiz-adv-x="312" 
d="M207 599c-72 0 -131 49 -131 127c0 87 69 136 142 136c72 0 131 -50 131 -127c0 -87 -69 -136 -142 -136zM211 680c30 0 53 22 53 54c0 26 -20 47 -49 47c-30 0 -53 -22 -53 -54c0 -26 20 -47 49 -47z" />
    <glyph glyph-name="ogonek" unicode="&#x2db;" horiz-adv-x="302" 
d="M160 -182c-25 -13 -50 -16 -69 -16c-57 0 -95 28 -95 78c0 45 29 91 96 120h104c-49 -18 -85 -44 -85 -75c0 -12 6 -21 27 -21c12 0 23 3 36 8z" />
    <glyph glyph-name="tilde" unicode="&#x2dc;" horiz-adv-x="436" 
d="M215 809c73 0 98 -53 145 -53c26 0 44 16 48 44h85c-3 -93 -58 -151 -135 -151c-73 0 -96 53 -145 53c-27 0 -45 -16 -49 -44h-85c3 93 59 151 136 151z" />
    <glyph glyph-name="hungarumlaut" unicode="&#x2dd;" horiz-adv-x="480" 
d="M93 646l117 164h138l-130 -164h-125zM266 646l139 164h139l-152 -164h-126z" />
    <glyph glyph-name="uni0326" unicode="&#x326;" horiz-adv-x="0" 
d="M-248 0h145l-18 -131l-64 -87h-86l65 87h-60z" />
    <glyph glyph-name="uni0335" unicode="&#x335;" horiz-adv-x="0" 
d="M-356 365h399l-18 -131h-399z" />
    <glyph glyph-name="uni0336" unicode="&#x336;" horiz-adv-x="0" 
d="M-637 352h595l-12 -111h-595z" />
    <glyph glyph-name="uni0337" unicode="&#x337;" horiz-adv-x="0" 
d="M-600 -42l499 609h142l-498 -609h-143z" />
    <glyph glyph-name="uni0338" unicode="&#x338;" horiz-adv-x="0" 
d="M-740 -31l591 789h142l-591 -789h-142z" />
    <glyph glyph-name="pi" unicode="&#x3c0;" horiz-adv-x="800" 
d="M785 421h-120v-187c0 -70 48 -67 78 -67h42v-167h-112c-136 0 -182 92 -182 188l-1 233h-138v-421h-176v421h-115v154h724v-154z" />
    <glyph glyph-name="Wgrave" unicode="&#x1e80;" horiz-adv-x="1096" 
d="M676 778h-125l-130 164h138zM164 0l-86 728h197l33 -486l198 486h217l42 -486l183 486h200l-298 -728h-210l-60 500l-206 -500h-210z" />
    <glyph glyph-name="wgrave" unicode="&#x1e81;" horiz-adv-x="852" 
d="M526 578h-125l-130 164h138zM229 528l19 -337l123 337h189l24 -339l113 339h182l-214 -528h-193l-28 347l-136 -347h-194l-67 528h182z" />
    <glyph glyph-name="Wacute" unicode="&#x1e82;" horiz-adv-x="1096" 
d="M559 778l117 164h138l-130 -164h-125zM164 0l-86 728h197l33 -486l198 486h217l42 -486l183 486h200l-298 -728h-210l-60 500l-206 -500h-210z" />
    <glyph glyph-name="wacute" unicode="&#x1e83;" horiz-adv-x="852" 
d="M409 578l117 164h138l-130 -164h-125zM229 528l19 -337l123 337h189l24 -339l113 339h182l-214 -528h-193l-28 347l-136 -347h-194l-67 528h182z" />
    <glyph glyph-name="Wdieresis" unicode="&#x1e84;" horiz-adv-x="1096" 
d="M434 779l20 145h152l-20 -145h-152zM659 779l20 145h152l-20 -145h-152zM164 0l-86 728h197l33 -486l198 486h217l42 -486l183 486h200l-298 -728h-210l-60 500l-206 -500h-210z" />
    <glyph glyph-name="wdieresis" unicode="&#x1e85;" horiz-adv-x="852" 
d="M284 579l20 145h152l-20 -145h-152zM509 579l20 145h152l-20 -145h-152zM229 528l19 -337l123 337h189l24 -339l113 339h182l-214 -528h-193l-28 347l-136 -347h-194l-67 528h182z" />
    <glyph glyph-name="Ygrave" unicode="&#x1ef2;" horiz-adv-x="730" 
d="M484 778h-125l-130 164h138zM269 264l-204 464h204l108 -278l199 278h219l-348 -464l-37 -264h-178z" />
    <glyph glyph-name="ygrave" unicode="&#x1ef3;" 
d="M382 578h-125l-130 164h138zM214 528l68 -359l163 359h187l-306 -611c-58 -117 -136 -117 -218 -117h-142l22 154h140c24 0 38 9 38 33c0 8 -2 17 -5 29l-126 512h179z" />
    <glyph glyph-name="endash" unicode="&#x2013;" horiz-adv-x="663" 
d="M46 380h604l-21 -155h-604z" />
    <glyph glyph-name="emdash" unicode="&#x2014;" horiz-adv-x="999" 
d="M46 380h940l-21 -155h-940z" />
    <glyph glyph-name="quoteleft" unicode="&#x2018;" horiz-adv-x="279" 
d="M291 637l-28 -193h-198l28 193l91 123h96l-80 -123h91z" />
    <glyph glyph-name="quoteright" unicode="&#x2019;" horiz-adv-x="278" 
d="M93 444l81 123h-91l27 193h198l-27 -193l-92 -123h-96z" />
    <glyph glyph-name="quotesinglbase" unicode="&#x201a;" horiz-adv-x="278" 
d="M3 0l27 193h198l-27 -193l-91 -123h-96l80 123h-91z" />
    <glyph glyph-name="quotedblleft" unicode="&#x201c;" horiz-adv-x="519" 
d="M291 637l-28 -193h-198l28 193l91 123h96l-80 -123h91zM531 637l-28 -193h-198l28 193l91 123h96l-80 -123h91z" />
    <glyph glyph-name="quotedblright" unicode="&#x201d;" horiz-adv-x="518" 
d="M93 444l81 123h-91l27 193h198l-27 -193l-92 -123h-96zM333 444l81 123h-91l27 193h198l-27 -193l-92 -123h-96z" />
    <glyph glyph-name="quotedblbase" unicode="&#x201e;" horiz-adv-x="518" 
d="M3 0l27 193h198l-27 -193l-91 -123h-96l80 123h-91zM243 0l27 193h198l-27 -193l-91 -123h-96l80 123h-91z" />
    <glyph glyph-name="dagger" unicode="&#x2020;" horiz-adv-x="525" 
d="M506 568v-128h-145v-336h-129v336h-145v128h145v160h129v-160h145z" />
    <glyph glyph-name="daggerdbl" unicode="&#x2021;" horiz-adv-x="496" 
d="M479 456h-145v-80h145v-128h-145v-144h-129v144h-145v128h145v80h-145v128h145v144h129v-144h145v-128z" />
    <glyph glyph-name="bullet" unicode="&#x2022;" horiz-adv-x="428" 
d="M205 140c-94 0 -159 69 -159 158c0 101 85 191 193 191c95 0 158 -70 158 -159c0 -105 -88 -190 -192 -190z" />
    <glyph glyph-name="ellipsis" unicode="&#x2026;" horiz-adv-x="813" 
d="M3 0l28 198h198l-28 -198h-198zM270 0l28 198h198l-28 -198h-198zM538 0l28 198h198l-28 -198h-198z" />
    <glyph glyph-name="perthousand" unicode="&#x2030;" horiz-adv-x="1401" 
d="M253 315c-93 0 -179 66 -179 197c0 121 74 226 197 226c104 0 179 -77 179 -200c0 -135 -90 -223 -197 -223zM162 0l557 728h145l-556 -728h-146zM256 437c39 0 57 52 57 103c0 44 -13 75 -44 75c-40 0 -58 -52 -58 -103c0 -48 16 -75 45 -75zM754 -10
c-93 0 -179 66 -179 197c0 121 74 226 197 226c104 0 179 -77 179 -200c0 -135 -90 -223 -197 -223zM1158 -10c-93 0 -179 66 -179 197c0 121 74 226 197 226c104 0 179 -77 179 -200c0 -135 -90 -223 -197 -223zM757 112c39 0 57 52 57 103c0 44 -13 75 -44 75
c-40 0 -58 -52 -58 -103c0 -48 16 -75 45 -75zM1161 112c39 0 57 52 57 103c0 44 -13 75 -44 75c-40 0 -58 -52 -58 -103c0 -48 16 -75 45 -75z" />
    <glyph glyph-name="guilsinglleft" unicode="&#x2039;" horiz-adv-x="430" 
d="M193 56l-157 239l223 233h181l-222 -233l156 -239h-181z" />
    <glyph glyph-name="guilsinglright" unicode="&#x203a;" horiz-adv-x="430" 
d="M246 529l157 -233l-223 -239h-182l224 239l-158 233h182z" />
    <glyph glyph-name="uni2042" unicode="&#x2042;" horiz-adv-x="734" 
d="M214 591l23 64l64 -22c17 -6 31 -11 40 -18c-1 13 -3 26 -3 44v69h67v-69c0 -18 -1 -31 -4 -44c11 7 23 13 41 19l64 22l22 -65l-65 -22c-16 -5 -30 -9 -44 -10c11 -8 20 -18 31 -33l42 -56l-56 -41l-40 56c-12 14 -20 28 -24 40c-6 -12 -14 -25 -25 -40l-41 -56l-56 41
l44 56c11 14 19 25 31 33c-15 1 -29 5 -45 10zM14 291l23 64l64 -22c17 -6 31 -11 40 -18c-1 13 -3 26 -3 44v69h67v-69c0 -18 -1 -31 -4 -44c11 7 23 13 41 19l64 22l22 -65l-65 -22c-16 -5 -30 -9 -44 -10c11 -8 20 -18 31 -33l42 -56l-56 -41l-40 56
c-12 14 -20 28 -24 40c-6 -12 -14 -25 -25 -40l-41 -56l-56 41l44 56c11 14 19 25 31 33c-15 1 -29 5 -45 10zM414 291l23 64l64 -22c17 -6 31 -11 40 -18c-1 13 -3 26 -3 44v69h67v-69c0 -18 -1 -31 -4 -44c11 7 23 13 41 19l64 22l22 -65l-65 -22c-16 -5 -30 -9 -44 -10
c11 -8 20 -18 31 -33l42 -56l-56 -41l-40 56c-12 14 -20 28 -24 40c-6 -12 -14 -25 -25 -40l-41 -56l-56 41l44 56c11 14 19 25 31 33c-15 1 -29 5 -45 10z" />
    <glyph glyph-name="fraction" unicode="&#x2044;" horiz-adv-x="221" 
d="M-157 0l460 728h103l-460 -728h-103z" />
    <glyph glyph-name="Euro" unicode="&#x20ac;" horiz-adv-x="648" 
d="M413 157c37 0 80 10 108 28l70 -143c-60 -34 -115 -52 -189 -52c-159 0 -278 89 -314 240h-78l16 114h51l3 42h-48l16 114h62c60 141 194 238 369 238c74 0 152 -18 202 -52l-110 -142c-22 18 -63 28 -100 28c-63 0 -115 -26 -150 -72h186l-29 -114h-204
c-2 -13 -4 -27 -5 -42h199l-26 -114h-157c22 -52 66 -73 128 -73z" />
    <glyph glyph-name="uni2116" unicode="&#x2116;" horiz-adv-x="1241" 
d="M773 506c0 130 92 233 231 233c127 0 214 -85 214 -210c0 -129 -94 -230 -232 -230c-119 0 -213 76 -213 207zM25 0l102 728h140l233 -396l55 396h173l-102 -728h-140l-232 396l-56 -396h-173zM1079 527c0 57 -40 83 -80 83c-53 0 -86 -47 -86 -99c0 -61 41 -82 80 -82
c54 0 86 48 86 98zM761 134l18 130h361l-18 -130h-361z" />
    <glyph glyph-name="uni2117" unicode="&#x2117;" horiz-adv-x="538" 
d="M535 506c0 -128 -97 -232 -232 -232c-131 0 -231 105 -231 232c0 126 100 232 231 232c136 0 232 -106 232 -232zM303 671c-100 0 -163 -74 -163 -165c0 -90 63 -164 163 -164c106 0 165 74 165 164s-62 165 -165 165zM289 461h33c47 0 82 25 82 75c0 44 -30 77 -76 77
h-99v-216h60v64zM313 562c18 0 31 -7 31 -26c0 -18 -13 -26 -31 -26h-24v52h24z" />
    <glyph glyph-name="trademark" unicode="&#x2122;" horiz-adv-x="687" 
d="M84 641l12 87h258l-12 -87h-79l-29 -210h-100l29 210h-79zM515 516l103 212h93l-41 -297h-86l11 78c3 24 9 56 15 70l-68 -148h-72l-28 148c2 -14 0 -46 -3 -70l-11 -78h-86l41 297h90z" />
    <glyph glyph-name="estimated" unicode="&#x212e;" horiz-adv-x="816" 
d="M82 367c2 220 143 371 343 371c201 0 341 -128 341 -342c1 -16 1 -39 0 -55h-580v-187c54 -77 141 -122 252 -122c107 0 203 56 247 139l40 -15c-51 -102 -159 -165 -289 -165c-213 0 -356 152 -354 376zM186 568v-189h477v208c-52 70 -138 112 -238 110
c-103 -2 -188 -52 -239 -129z" />
    <glyph glyph-name="oneeighth" unicode="&#x215b;" horiz-adv-x="859" 
d="M294 350h-232l12 82h75l29 207l-85 -38l12 86l85 41h88l-42 -296h70zM603 728h103l-460 -728h-103zM774 199c21 -13 39 -39 39 -79c0 -76 -65 -125 -153 -125c-80 0 -140 41 -140 112c0 49 29 85 65 97c-14 12 -29 33 -29 67c0 69 61 112 140 112c69 0 128 -38 128 -104
c0 -42 -26 -69 -50 -80zM686 233c28 0 52 19 52 45c0 23 -18 40 -46 40c-31 0 -52 -21 -52 -46c0 -24 20 -39 46 -39zM664 67c36 0 61 22 61 52c0 27 -22 47 -55 47c-35 0 -61 -22 -61 -52c0 -28 23 -47 55 -47z" />
    <glyph glyph-name="threeeighths" unicode="&#x215c;" horiz-adv-x="878" 
d="M333 462c0 -78 -72 -117 -149 -117c-86 0 -145 54 -134 135h85c-5 -41 21 -60 50 -60c28 0 53 17 53 47c0 21 -13 40 -46 40h-34l10 67h35c34 0 53 15 53 44c0 25 -18 41 -46 41c-35 0 -56 -24 -58 -60h-84c7 80 62 134 151 134c78 0 130 -42 130 -106
c0 -43 -25 -75 -62 -87c28 -13 46 -40 46 -78zM622 728h103l-460 -728h-103zM793 199c21 -13 39 -39 39 -79c0 -76 -65 -125 -153 -125c-80 0 -140 41 -140 112c0 49 29 85 65 97c-14 12 -29 33 -29 67c0 69 61 112 140 112c69 0 128 -38 128 -104c0 -42 -26 -69 -50 -80z
M705 233c28 0 52 19 52 45c0 23 -18 40 -46 40c-31 0 -52 -21 -52 -46c0 -24 20 -39 46 -39zM683 67c36 0 61 22 61 52c0 27 -22 47 -55 47c-35 0 -61 -22 -61 -52c0 -28 23 -47 55 -47z" />
    <glyph glyph-name="fiveeighths" unicode="&#x215d;" horiz-adv-x="879" 
d="M339 490c0 -87 -67 -145 -157 -145c-70 0 -140 40 -136 131h83c-2 -35 23 -56 53 -56c34 0 63 26 63 67c0 35 -19 56 -51 56c-36 0 -55 -23 -61 -39h-81l72 224h227l-10 -75h-160l-18 -51c14 6 32 11 58 11c65 0 118 -44 118 -123zM623 728h103l-460 -728h-103zM794 199
c21 -13 39 -39 39 -79c0 -76 -65 -125 -153 -125c-80 0 -140 41 -140 112c0 49 29 85 65 97c-14 12 -29 33 -29 67c0 69 61 112 140 112c69 0 128 -38 128 -104c0 -42 -26 -69 -50 -80zM706 233c28 0 52 19 52 45c0 23 -18 40 -46 40c-31 0 -52 -21 -52 -46
c0 -24 20 -39 46 -39zM684 67c36 0 61 22 61 52c0 27 -22 47 -55 47c-35 0 -61 -22 -61 -52c0 -28 23 -47 55 -47z" />
    <glyph glyph-name="seveneighths" unicode="&#x215e;" horiz-adv-x="848" 
d="M155 350h-88c23 95 85 205 164 303h-166l10 75h270l-10 -70c-94 -99 -155 -211 -180 -308zM592 728h103l-460 -728h-103zM763 199c21 -13 39 -39 39 -79c0 -76 -65 -125 -153 -125c-80 0 -140 41 -140 112c0 49 29 85 65 97c-14 12 -29 33 -29 67c0 69 61 112 140 112
c69 0 128 -38 128 -104c0 -42 -26 -69 -50 -80zM675 233c28 0 52 19 52 45c0 23 -18 40 -46 40c-31 0 -52 -21 -52 -46c0 -24 20 -39 46 -39zM653 67c36 0 61 22 61 52c0 27 -22 47 -55 47c-35 0 -61 -22 -61 -52c0 -28 23 -47 55 -47z" />
    <glyph glyph-name="uni2160" unicode="&#x2160;" horiz-adv-x="537" 
d="M477 617h-121v-506h121v-111h-417v111h121v506h-121v111h417v-111z" />
    <glyph glyph-name="uni2161" unicode="&#x2161;" horiz-adv-x="851" 
d="M791 0h-731v111h120v506h-120v111h731v-111h-119v-506h119v-111zM496 617h-140v-506h140v506z" />
    <glyph glyph-name="uni2162" unicode="&#x2162;" horiz-adv-x="1195" 
d="M1135 0h-1075v115h128v498h-128v115h1075v-115h-128v-498h128v-115zM363 115h146v498h-146v-498zM831 613h-146v-498h146v498z" />
    <glyph glyph-name="uni2163" unicode="&#x2163;" horiz-adv-x="1232" 
d="M1172 -1h-1112v115h148v499h-148v115h1112v-115h-88l-162 -499h250v-115zM383 114h212l-163 499h-49v-499zM904 613h-288l144 -468z" />
    <glyph glyph-name="uni2164" unicode="&#x2164;" horiz-adv-x="944" 
d="M884 613h-87l-162 -498h247v-115h-820v115h251l-163 498h-90v115h824v-115zM617 613h-287l143 -467z" />
    <glyph glyph-name="uni2165" unicode="&#x2165;" horiz-adv-x="1232" 
d="M1172 0h-1112v115h255l-162 498h-93v115h1112v-115h-131v-498h131v-115zM617 613h-284l142 -463zM636 115h228v498h-67z" />
    <glyph glyph-name="uni2166" unicode="&#x2166;" horiz-adv-x="1515" 
d="M1455 0h-1395v115h244l-162 498h-82v115h1393v-115h-126v-498h127zM605 613h-283l143 -463zM624 115h229v498h-68zM1151 613h-121v-498h121v498z" />
    <glyph glyph-name="uni2167" unicode="&#x2167;" horiz-adv-x="1838" 
d="M1778 0h-1718v115h234l-158 498h-76v115h1716v-115h-125v-498h127v-115zM591 613h-275l138 -461zM614 115h236v498h-79zM1026 115h136v498h-136v-498zM1339 115h136v498h-136v-498z" />
    <glyph glyph-name="uni2168" unicode="&#x2168;" horiz-adv-x="1155" 
d="M1095 0h-1035v115h123v498h-123v115h1035v-115h-72l-185 -256l180 -242h77v-115zM416 613h-58v-498h61l181 244zM720 454l113 159h-225zM609 115h215l-108 151z" />
    <glyph glyph-name="uni2169" unicode="&#x2169;" horiz-adv-x="933" 
d="M873 613h-103l-184 -255l179 -243h108v-115h-813v115h107l180 245l-184 253h-103v115h813v-115zM466 454l113 159h-222zM357 115h215l-108 151z" />
    <glyph glyph-name="arrowleft" unicode="&#x2190;" horiz-adv-x="877" 
d="M402 622l55 -55l-254 -254h614v-72h-615l252 -252l-52 -51l-342 341z" />
    <glyph glyph-name="arrowup" unicode="&#x2191;" horiz-adv-x="804" 
d="M60 414l340 339l344 -339l-51 -51l-257 251v-614h-72v615l-253 -252z" />
    <glyph glyph-name="arrowright" unicode="&#x2192;" horiz-adv-x="877" 
d="M474 620l343 -342l-343 -342l-54 55l254 254l-614 -1v73h614l-251 252z" />
    <glyph glyph-name="arrowdown" unicode="&#x2193;" horiz-adv-x="804" 
d="M744 285l-342 -342l-342 342l55 55l254 -254v614h72v-615l252 252z" />
    <glyph glyph-name="arrowboth" unicode="&#x2194;" horiz-adv-x="1027" 
d="M722 28v106l105 107l-381 -1v1l-245 -1l107 -108v-105l-248 250l247 249v-107l-106 -106l243 2v1h142v-1l241 -1l-106 106v106l246 -248z" />
    <glyph glyph-name="arrowupdn" unicode="&#x2195;" horiz-adv-x="618" 
d="M345 -37l107 106h106l-250 -248l-248 248h105l107 -107l-1 244h-1v142h1l1 241l-107 -107h-105l248 247l250 -247h-106l-107 106v-625z" />
    <glyph glyph-name="uni2196" unicode="&#x2196;" horiz-adv-x="679" 
d="M544 557v-78h-359l434 -433l-51 -52l-435 435v-356h-73v484h484z" />
    <glyph glyph-name="uni2197" unicode="&#x2197;" horiz-adv-x="682" 
d="M138 559h484v-484h-77v359l-434 -434l-51 51l434 435h-356v73z" />
    <glyph glyph-name="uni2198" unicode="&#x2198;" horiz-adv-x="679" 
d="M619 484v-484h-484v78h359l-434 433l51 52l435 -434v355h73z" />
    <glyph glyph-name="uni2199" unicode="&#x2199;" horiz-adv-x="683" 
d="M544 0h-484v484h78v-359l433 434l52 -51l-434 -435h355v-73z" />
    <glyph glyph-name="partialdiff" unicode="&#x2202;" horiz-adv-x="623" 
d="M444 728c104 -64 171 -234 171 -386c0 -195 -110 -352 -314 -352c-156 0 -273 91 -273 258c0 161 109 264 260 270c52 2 95 -8 123 -25c-42 112 -128 164 -229 234zM303 148c65 0 109 49 109 114c0 61 -38 99 -94 99c-61 0 -109 -46 -109 -115c0 -59 36 -98 94 -98z" />
    <glyph glyph-name="emptyset" unicode="&#x2205;" 
d="M608 500l-86 -78c24 -40 37 -87 37 -139c0 -165 -129 -288 -282 -288c-66 0 -122 19 -165 52l-85 -78l-55 63l86 78c-23 40 -35 87 -35 141c0 157 122 286 278 286c66 0 123 -19 166 -53l86 79zM183 251c0 -8 1 -17 2 -24l163 149c-13 8 -30 12 -49 12
c-77 0 -116 -72 -116 -137zM398 280c0 9 -1 18 -2 26l-165 -151c13 -7 29 -11 48 -11c77 0 119 72 119 136z" />
    <glyph glyph-name="product" unicode="&#x220f;" horiz-adv-x="756" 
d="M782 728l-21 -154h-108l-80 -574h-165l80 574h-142l-80 -574h-165l80 574h-97l21 154h677z" />
    <glyph glyph-name="summation" unicode="&#x2211;" horiz-adv-x="595" 
d="M243 350l-155 245l17 133h516l-22 -157l-312 3l149 -239l-202 -209l303 -1l-22 -157h-516l20 144z" />
    <glyph glyph-name="minus" unicode="&#x2212;" 
d="M84 407h474l-22 -154h-474z" />
    <glyph glyph-name="radical" unicode="&#x221a;" horiz-adv-x="849" 
d="M918 874v-148h-265l-311 -830h-160l-147 392h160l67 -178l286 764h370z" />
    <glyph glyph-name="infinity" unicode="&#x221e;" horiz-adv-x="1013" 
d="M283 33c-136 0 -243 93 -243 231c0 136 106 235 244 235c102 0 175 -55 222 -121c47 66 120 121 222 121c138 0 244 -99 244 -235c0 -138 -107 -231 -243 -231c-100 0 -175 50 -223 117c-48 -67 -123 -117 -223 -117zM296 188c52 0 92 35 125 77c-33 42 -73 77 -125 77
c-53 0 -86 -36 -86 -77s33 -77 86 -77zM716 188c53 0 86 36 86 77s-33 77 -86 77c-52 0 -92 -35 -125 -77c33 -42 73 -77 125 -77z" />
    <glyph glyph-name="integral" unicode="&#x222b;" horiz-adv-x="491" 
d="M405 889h134l-23 -161h-90c-50 0 -53 -22 -57 -51l-103 -736c-15 -107 -82 -146 -180 -146h-112l23 162h70c29 0 46 5 51 41l100 730c15 110 83 161 187 161z" />
    <glyph glyph-name="approxequal" unicode="&#x2248;" 
d="M344 491c36 -28 57 -46 78 -46c25 0 43 23 43 68h124c0 -114 -57 -198 -159 -198c-60 0 -93 27 -135 61c-32 26 -42 38 -62 38c-27 0 -45 -20 -45 -68h-124c0 113 53 198 158 198c47 0 78 -18 122 -53zM304 251c36 -28 57 -46 78 -46c25 0 43 23 43 68h124
c0 -114 -57 -198 -159 -198c-60 0 -93 27 -135 61c-32 26 -42 38 -62 38c-27 0 -45 -20 -45 -68h-124c0 113 53 198 158 198c47 0 78 -18 122 -53z" />
    <glyph glyph-name="notequal" unicode="&#x2260;" 
d="M533 377h-142l-48 -94h176l-19 -140h-228l-46 -91h-109l46 91h-97l19 140h149l48 94h-183l19 140h234l46 90h109l-46 -90h91z" />
    <glyph glyph-name="lessequal" unicode="&#x2264;" 
d="M569 629l-22 -159l-291 -76l269 -80l-22 -155l-427 148l25 174zM55 154h448l-22 -154h-448z" />
    <glyph glyph-name="greaterequal" unicode="&#x2265;" 
d="M67 159l23 159l291 80l-269 78l21 153l428 -148l-25 -174zM515 154l-22 -154h-448l22 154h448z" />
    <glyph glyph-name="filledbox" unicode="&#x25a0;" horiz-adv-x="811" 
d="M42 728h727v-727h-727v727z" />
    <glyph glyph-name="uni25A1" unicode="&#x25a1;" horiz-adv-x="812" 
d="M42 728h728v-728h-728v728zM113 657v-586h586v586h-586z" />
    <glyph glyph-name="triagup" unicode="&#x25b2;" horiz-adv-x="969" 
d="M42 0h885l-443 731z" />
    <glyph glyph-name="uni25B3" unicode="&#x25b3;" horiz-adv-x="965" 
d="M42 0l440 728l441 -728h-881zM177 75h612l-306 506z" />
    <glyph glyph-name="lozenge" unicode="&#x25ca;" horiz-adv-x="645" 
d="M259 0l-217 361l217 367h121l223 -367l-223 -361h-121zM511 360l-189 322l-188 -322l188 -314z" />
    <glyph glyph-name="circle" unicode="&#x25cb;" horiz-adv-x="836" 
d="M417 -10c-208 0 -375 168 -375 376c0 207 168 376 375 376s377 -169 377 -376s-170 -376 -377 -376zM418 63c167 0 304 136 304 303c0 169 -137 304 -304 304c-168 0 -304 -135 -304 -304c0 -168 136 -303 304 -303z" />
    <glyph glyph-name="uni25CF" unicode="&#x25cf;" horiz-adv-x="842" 
d="M422 -20c-210 0 -380 170 -380 380c0 209 170 378 380 378c209 0 378 -169 378 -378c0 -210 -169 -380 -378 -380z" />
    <glyph glyph-name="uni262E" unicode="&#x262e;" horiz-adv-x="836" 
d="M417 -15c-210 0 -380 170 -380 381c0 210 171 381 380 381c210 0 382 -172 382 -381s-172 -381 -382 -381zM131 239l251 154v284c-158 -18 -278 -152 -278 -311c0 -44 9 -87 27 -127zM705 239c18 40 27 84 27 127c0 158 -120 292 -277 311v-285zM382 54v254l-214 -133
c52 -67 129 -112 214 -121zM455 54c84 10 161 55 213 122l-213 131v-253z" />
    <glyph glyph-name="uni2713" unicode="&#x2713;" horiz-adv-x="724" 
d="M694 613l72 -75l-472 -445l-242 272l79 73l168 -187z" />
    <glyph glyph-name="uniA7B6" unicode="&#xa7b6;" horiz-adv-x="711" 
d="M677 420c0 -89 -45 -196 -105 -277h99v-143h-294v143c41 33 114 138 114 246c0 119 -56 174 -140 173s-140 -56 -140 -173c0 -118 73 -213 114 -246v-143h-298v143h103c-60 81 -105 188 -105 277c0 200 123 317 326 317s326 -117 326 -317z" />
    <glyph glyph-name="i.loclTRK" horiz-adv-x="276" 
d="M99 591l22 159h167l-22 -159h-167zM13 0l74 528h176l-74 -528h-176z" />
    <glyph glyph-name="f_f_t" horiz-adv-x="1109" 
d="M977 376l-23 -163c-7 -50 4 -60 48 -60h63l-22 -153h-124c-112 0 -164 54 -145 185l27 191h-168l-53 -376h-176l53 376h-174l-53 -376h-176l53 376h-76l21 152h76l6 42c17 120 61 190 200 190h108l-20 -141h-43c-45 0 -65 -19 -71 -61l-4 -30h174l6 42
c17 120 61 190 200 190h108l-20 -141h-43c-45 0 -65 -19 -71 -61l-4 -30h118c32 0 51 5 57 47l14 101h176l-21 -148h119l-21 -152h-119z" />
    <glyph glyph-name="f_t" horiz-adv-x="759" 
d="M627 376l-23 -163c-7 -50 4 -60 48 -60h63l-22 -153h-124c-112 0 -164 54 -145 185l27 191h-168l-53 -376h-176l53 376h-76l21 152h76l6 42c17 120 61 190 200 190h108l-20 -141h-43c-45 0 -65 -19 -71 -61l-4 -30h118c32 0 51 5 57 47l14 101h176l-21 -148h119l-21 -152
h-119z" />
    <glyph glyph-name="t_t" horiz-adv-x="770" 
d="M638 376l-23 -163c-7 -50 4 -60 48 -60h63l-22 -153h-124c-112 0 -164 54 -145 185l27 191h-189l-23 -163c-7 -50 4 -60 48 -60h63l-22 -153h-124c-112 0 -164 54 -145 185l27 191h-75l21 152h25c32 0 51 5 57 47l14 101h176l-21 -148h139c32 0 51 5 57 47l14 101h176
l-21 -148h119l-21 -152h-119z" />
    <glyph glyph-name="zero.tf" horiz-adv-x="650" 
d="M303 -10c-186 0 -283 128 -283 323c0 232 133 425 341 425c163 0 277 -125 277 -331c0 -245 -138 -417 -335 -417zM203 258l227 290c-18 31 -44 48 -78 48c-96 0 -154 -113 -154 -267c0 -27 2 -50 5 -71zM306 132c82 0 155 96 155 265c0 19 -1 37 -3 53l-222 -283
c18 -24 42 -35 70 -35z" />
    <glyph glyph-name="one.tf" horiz-adv-x="650" 
d="M428 163h152l-22 -163h-490l22 163h165l55 390l-193 -72l23 169l194 78h173z" />
    <glyph glyph-name="two.tf" horiz-adv-x="650" 
d="M424 253l-130 -91h260l-23 -162h-512l22 157l296 216c48 35 94 66 94 120c0 46 -29 87 -90 87c-65 0 -101 -45 -107 -110h-166c10 184 133 268 283 268c154 0 257 -88 257 -228c0 -122 -96 -195 -184 -257z" />
    <glyph glyph-name="three.tf" horiz-adv-x="650" 
d="M497 365c52 -24 87 -76 87 -150c0 -150 -140 -225 -287 -225c-168 0 -281 105 -260 263h168c-11 -80 39 -115 93 -115c52 0 99 32 99 87c0 39 -24 75 -87 75h-65l19 132h68c63 0 100 28 100 83c0 46 -35 77 -87 77c-65 0 -105 -46 -109 -115l-165 1
c14 155 120 260 292 260c151 0 252 -82 252 -205c0 -84 -49 -146 -118 -168z" />
    <glyph glyph-name="four.tf" horiz-adv-x="650" 
d="M320 0l17 123h-326l22 153l383 452h184l-63 -453h90l-22 -152h-90l-17 -123h-178zM204 275h155l29 208z" />
    <glyph glyph-name="five.tf" horiz-adv-x="650" 
d="M600 580h-306l-33 -92c26 12 61 20 109 20c126 0 228 -85 228 -238c0 -167 -129 -280 -304 -280c-135 0 -272 77 -263 254h163c-4 -66 44 -106 100 -106c63 0 119 48 119 126c0 65 -37 106 -97 106c-69 0 -105 -46 -115 -76h-160l140 434h439z" />
    <glyph glyph-name="six.tf" horiz-adv-x="650" 
d="M348 505c133 0 247 -88 241 -250c-6 -166 -130 -264 -277 -264c-157 0 -283 107 -279 324c5 225 125 423 341 423c140 0 236 -84 256 -209h-164c-10 49 -57 66 -100 66c-72 0 -122 -48 -139 -124c29 21 69 34 121 34zM421 259c2 68 -41 109 -100 109
c-64 0 -120 -49 -122 -120c-2 -61 34 -111 100 -111c68 0 120 52 122 122z" />
    <glyph glyph-name="seven.tf" horiz-adv-x="650" 
d="M400 580h-316l20 148h521l-19 -137c-182 -191 -299 -405 -346 -591h-172c42 181 161 391 312 580z" />
    <glyph glyph-name="eight.tf" horiz-adv-x="650" 
d="M523 382c40 -23 75 -73 75 -150c0 -146 -125 -242 -295 -242c-156 0 -271 80 -271 217c0 95 55 164 123 187c-26 22 -54 63 -54 128c0 133 118 216 271 216c132 0 246 -73 246 -202c0 -81 -49 -132 -95 -154zM352 450c52 0 97 35 97 85c0 43 -33 74 -85 74
c-58 0 -97 -39 -97 -85c0 -45 37 -74 85 -74zM311 133c66 0 112 41 112 96c0 52 -40 90 -102 90c-66 0 -113 -43 -113 -99c0 -52 42 -87 103 -87z" />
    <glyph glyph-name="nine.tf" horiz-adv-x="650" 
d="M348 738c124 0 271 -71 271 -324c0 -226 -117 -423 -343 -423c-151 0 -246 87 -254 209h164c6 -49 53 -64 94 -64c56 0 120 28 137 121c-32 -21 -74 -33 -119 -33c-97 0 -236 56 -236 233c0 176 136 281 286 281zM230 470c0 -68 49 -109 106 -109c61 0 117 46 117 121
c0 68 -47 110 -106 110c-67 0 -117 -54 -117 -122z" />
    <glyph glyph-name="zero.dnom" horiz-adv-x="381" 
d="M170 -5c-103 0 -159 71 -159 171c0 119 70 217 183 217c92 0 156 -66 156 -176c0 -125 -73 -212 -180 -212zM171 72c48 0 89 48 89 132c0 63 -25 102 -71 102c-56 0 -89 -56 -89 -132c0 -71 29 -102 71 -102z" />
    <glyph glyph-name="one.dnom" horiz-adv-x="280" 
d="M185 82h72l-12 -82h-232l12 82h73l29 207l-85 -38l12 86l85 41h88z" />
    <glyph glyph-name="two.dnom" horiz-adv-x="315" 
d="M209 132l-69 -50h133l-12 -82h-265l11 80l154 113c26 19 50 36 50 64c0 25 -15 46 -48 46c-34 0 -53 -24 -57 -58h-84c5 95 69 138 146 138c80 0 133 -45 133 -117c0 -63 -47 -101 -92 -134z" />
    <glyph glyph-name="three.dnom" horiz-adv-x="320" 
d="M238 190c28 -13 46 -40 46 -78c0 -78 -72 -117 -149 -117c-86 0 -145 54 -134 135h85c-5 -41 21 -60 50 -60c28 0 53 17 53 47c0 21 -13 40 -46 40h-34l10 67h35c34 0 53 15 53 44c0 25 -18 41 -46 41c-35 0 -56 -24 -58 -60h-84c7 80 62 134 151 134
c78 0 130 -42 130 -106c0 -43 -25 -75 -62 -87z" />
    <glyph glyph-name="four.dnom" horiz-adv-x="340" 
d="M148 0l9 65h-170l11 77l200 236h93l-33 -236h48l-12 -77h-47l-9 -65h-90zM85 142h83l16 112z" />
    <glyph glyph-name="five.dnom" horiz-adv-x="320" 
d="M292 303h-160l-18 -51c14 6 32 11 58 11c65 0 118 -44 118 -123c0 -87 -67 -145 -157 -145c-70 0 -140 40 -136 131h83c-2 -35 23 -56 53 -56c34 0 63 26 63 67c0 35 -19 56 -51 56c-36 0 -55 -23 -61 -39h-81l72 224h227z" />
    <glyph glyph-name="six.dnom" horiz-adv-x="333" 
d="M173 262c65 0 125 -46 125 -125c0 -89 -69 -142 -145 -142c-88 0 -144 51 -144 168s62 220 174 220c74 0 119 -43 131 -108h-83c-6 26 -31 36 -54 36c-39 0 -66 -29 -73 -71c16 13 39 22 69 22zM150 69c35 0 63 27 63 66c0 36 -24 58 -56 58s-63 -25 -63 -65
c0 -33 21 -59 56 -59z" />
    <glyph glyph-name="seven.dnom" horiz-adv-x="289" 
d="M182 303h-166l10 75h270l-10 -70c-94 -99 -155 -211 -180 -308h-88c23 95 85 205 164 303z" />
    <glyph glyph-name="eight.dnom" horiz-adv-x="338" 
d="M253 199c21 -13 39 -39 39 -79c0 -76 -65 -125 -153 -125c-80 0 -140 41 -140 112c0 49 29 85 65 97c-14 12 -29 33 -29 67c0 69 61 112 140 112c69 0 128 -38 128 -104c0 -42 -26 -69 -50 -80zM165 233c28 0 52 19 52 45c0 23 -18 40 -46 40c-31 0 -52 -21 -52 -46
c0 -24 20 -39 46 -39zM143 67c36 0 61 22 61 52c0 27 -22 47 -55 47c-35 0 -61 -22 -61 -52c0 -28 23 -47 55 -47z" />
    <glyph glyph-name="nine.dnom" horiz-adv-x="340" 
d="M166 383c65 0 144 -42 144 -167c0 -123 -60 -221 -175 -221c-68 0 -130 44 -130 108h83c2 -24 26 -34 50 -34c35 0 67 23 73 71c-19 -16 -43 -24 -72 -24c-50 0 -118 35 -118 119c0 90 63 148 145 148zM162 186c32 0 62 24 62 64c0 32 -20 59 -55 59s-63 -26 -63 -65
c0 -37 25 -58 56 -58z" />
    <glyph glyph-name="zero.numr" horiz-adv-x="381" 
d="M219 345c-103 0 -159 71 -159 171c0 119 70 217 183 217c92 0 156 -66 156 -176c0 -125 -73 -212 -180 -212zM220 422c48 0 89 48 89 132c0 63 -25 102 -71 102c-56 0 -89 -56 -89 -132c0 -71 29 -102 71 -102z" />
    <glyph glyph-name="one.numr" horiz-adv-x="280" 
d="M236 432h70l-12 -82h-232l12 82h75l29 207l-85 -38l12 86l85 41h88z" />
    <glyph glyph-name="two.numr" horiz-adv-x="315" 
d="M258 482l-69 -50h133l-12 -82h-265l11 80l154 113c26 19 50 36 50 64c0 25 -15 46 -48 46c-34 0 -53 -24 -57 -58h-84c5 95 69 138 146 138c80 0 133 -45 133 -117c0 -63 -47 -101 -92 -134z" />
    <glyph glyph-name="three.numr" horiz-adv-x="319" 
d="M287 540c28 -13 46 -40 46 -78c0 -78 -72 -117 -149 -117c-86 0 -145 54 -134 135h85c-5 -41 21 -60 50 -60c28 0 53 17 53 47c0 21 -13 40 -46 40h-34l10 67h35c34 0 53 15 53 44c0 25 -18 41 -46 41c-35 0 -56 -24 -58 -60h-84c7 80 62 134 151 134
c78 0 130 -42 130 -106c0 -43 -25 -75 -62 -87z" />
    <glyph glyph-name="four.numr" horiz-adv-x="342" 
d="M199 350l9 65h-172l11 77l196 236h99l-33 -236h48l-12 -77h-47l-9 -65h-90zM148 492h71l16 104z" />
    <glyph glyph-name="five.numr" horiz-adv-x="320" 
d="M341 653h-160l-18 -51c14 6 32 11 58 11c65 0 118 -44 118 -123c0 -87 -67 -145 -157 -145c-70 0 -140 40 -136 131h83c-2 -35 23 -56 53 -56c34 0 63 26 63 67c0 35 -19 56 -51 56c-36 0 -55 -23 -61 -39h-81l72 224h227z" />
    <glyph glyph-name="six.numr" horiz-adv-x="333" 
d="M222 612c65 0 125 -46 125 -125c0 -89 -69 -142 -145 -142c-88 0 -144 51 -144 168s62 220 174 220c74 0 119 -43 131 -108h-83c-6 26 -31 36 -54 36c-39 0 -66 -29 -73 -71c16 13 39 22 69 22zM199 419c35 0 63 27 63 66c0 36 -24 58 -56 58s-63 -25 -63 -65
c0 -33 21 -59 56 -59z" />
    <glyph glyph-name="seven.numr" horiz-adv-x="289" 
d="M231 653h-166l10 75h270l-10 -70c-94 -99 -155 -211 -180 -308h-88c23 95 85 205 164 303z" />
    <glyph glyph-name="eight.numr" horiz-adv-x="338" 
d="M302 549c21 -13 39 -39 39 -79c0 -76 -65 -125 -153 -125c-80 0 -140 41 -140 112c0 49 29 85 65 97c-14 12 -29 33 -29 67c0 69 61 112 140 112c69 0 128 -38 128 -104c0 -42 -26 -69 -50 -80zM214 583c28 0 52 19 52 45c0 23 -18 40 -46 40c-31 0 -52 -21 -52 -46
c0 -24 20 -39 46 -39zM192 417c36 0 61 22 61 52c0 27 -22 47 -55 47c-35 0 -61 -22 -61 -52c0 -28 23 -47 55 -47z" />
    <glyph glyph-name="nine.numr" horiz-adv-x="340" 
d="M216 733c65 0 144 -42 144 -167c0 -123 -60 -221 -175 -221c-68 0 -130 44 -130 108h83c2 -24 26 -34 50 -34c35 0 67 23 73 71c-19 -16 -43 -24 -72 -24c-50 0 -118 35 -118 119c0 90 63 148 145 148zM212 536c32 0 62 24 62 64c0 32 -20 59 -55 59s-63 -26 -63 -65
c0 -37 25 -58 56 -58z" />
    </font>
</defs>
</svg>
