<?xml version="1.0" standalone="no"?>
<!DOCTYPE svg PUBLIC "-//W3C//DTD SVG 1.1//EN" "http://www.w3.org/Graphics/SVG/1.1/DTD/svg11.dtd" >
<svg xmlns="http://www.w3.org/2000/svg" xmlns:xlink="http://www.w3.org/1999/xlink" version="1.1">
<metadata>
Created by FontForge 20170924 at Mon Jun 12 15:14:52 2017
 By www-data
Copyright 2017 Fontstore Pte Ltd. All rights reserved.
</metadata>
<defs>
<font id="NeurialGrotesk-Medium" horiz-adv-x="600" >
  <font-face 
    font-family="Neurial Grotesk Medium"
    font-weight="500"
    font-stretch="normal"
    units-per-em="1000"
    panose-1="0 0 6 0 0 0 0 0 0 0"
    ascent="800"
    descent="-200"
    x-height="512"
    cap-height="712"
    bbox="-613 -248 1710 1067"
    underline-thickness="80"
    underline-position="-115"
    stemh="88"
    stemv="92"
    unicode-range="U+0020-FB03"
  />
<missing-glyph horiz-adv-x="589" 
d="M41 707h507v-707h-507v707z" />
    <glyph glyph-name="f_f" unicode="ff" horiz-adv-x="686" 
d="M607 652c-54 0 -65 -27 -65 -65v-75h122v-96h-122v-416h-110v416h-220v-416h-110v416h-84v96h84v83c0 97 46 149 157 149h75v-92h-56c-55 0 -66 -27 -66 -65v-75h220v83c0 97 46 149 157 149h75v-92h-57z" />
    <glyph glyph-name="fi" unicode="fi" horiz-adv-x="607" 
d="M541 512v-512h-109v416h-220v-416h-110v416h-84v96h84v83c0 97 46 149 157 149h71v-92h-52c-55 0 -66 -27 -66 -65v-75h329zM424 738h125v-112h-125v112z" />
    <glyph glyph-name="fl" unicode="fl" horiz-adv-x="591" 
d="M18 512h84v83c0 97 46 149 157 149h75v-92h-56c-55 0 -66 -27 -66 -65v-75h122v-96h-122v-416h-110v416h-84v96zM525 743v-743h-109v743h109z" />
    <glyph glyph-name="f_f_i" unicode="ffi" horiz-adv-x="936" 
d="M871 512v-512h-109v416h-220v-416h-110v416h-220v-416h-110v416h-84v96h84v83c0 97 46 149 157 149h75v-92h-56c-55 0 -66 -27 -66 -65v-75h220v83c0 97 46 149 157 149h71v-92h-53c-54 0 -65 -27 -65 -65v-75h329zM754 738h125v-112h-125v112z" />
    <glyph glyph-name=".notdef" horiz-adv-x="589" 
d="M41 707h507v-707h-507v707z" />
    <glyph glyph-name="space" unicode=" " horiz-adv-x="191" 
 />
    <glyph glyph-name="exclam" unicode="!" horiz-adv-x="269" 
d="M81 515v197h106v-197c1 -99 -3 -198 -14 -297h-78c-11 99 -14 198 -14 297zM65 0v139h139v-139h-139z" />
    <glyph glyph-name="quotedbl" unicode="&#x22;" horiz-adv-x="421" 
d="M71 594v118h103v-118c-1 -48 -3 -90 -17 -138h-69c-14 48 -16 90 -17 138zM247 594v118h103v-118c-2 -48 -3 -90 -18 -138h-68c-15 48 -16 90 -17 138z" />
    <glyph glyph-name="numbersign" unicode="#" horiz-adv-x="627" 
d="M580 430h-96l-33 -151h100l-18 -92h-101l-42 -187h-98l41 187h-113l-41 -187h-99l42 187h-93l18 92h94l33 151h-99l18 92h102l42 190h98l-41 -190h112l42 190h99l-42 -190h93zM240 279h113l33 151h-113z" />
    <glyph glyph-name="dollar" unicode="$" horiz-adv-x="631" 
d="M582 199c0 -120 -97 -195 -225 -207v-85h-90v86c-137 16 -218 95 -218 209h108c0 -68 53 -115 162 -115c85 0 149 36 149 107c0 61 -37 87 -114 103l-113 25c-97 20 -179 80 -179 195c0 107 79 186 205 202v86h90v-85c118 -13 211 -80 211 -209h-107
c0 77 -57 116 -149 116c-83 0 -136 -36 -136 -102c0 -58 36 -86 113 -103l112 -24c115 -25 181 -93 181 -199z" />
    <glyph glyph-name="percent" unicode="%" horiz-adv-x="919" 
d="M204 334c-102 0 -164 78 -164 194c0 114 62 194 164 194c101 0 164 -78 164 -194c0 -115 -61 -194 -164 -194zM184 0l444 712h103l-444 -712h-103zM204 417c55 0 71 50 71 111c0 58 -16 111 -71 111c-54 0 -71 -51 -71 -111c0 -59 15 -111 71 -111zM714 -10
c-102 0 -164 77 -164 194c0 114 62 194 164 194c101 0 165 -79 165 -194c0 -114 -62 -194 -165 -194zM714 73c54 0 71 47 71 111c0 59 -15 110 -71 110c-55 0 -71 -49 -71 -110c0 -62 16 -111 71 -111z" />
    <glyph glyph-name="ampersand" unicode="&#x26;" horiz-adv-x="751" 
d="M674 96h49v-96h-58c-69 0 -110 16 -150 62c-57 -50 -129 -72 -205 -72c-137 0 -245 71 -245 195c0 67 31 134 141 195l17 9l-11 13c-58 65 -74 111 -74 156c0 99 79 164 196 164c115 0 190 -63 190 -155c0 -69 -43 -124 -107 -166l-44 -29l147 -163c25 44 42 98 44 166
h96c0 -93 -28 -177 -74 -240l1 -1c25 -27 47 -38 87 -38zM331 638c-54 0 -88 -33 -88 -79c0 -35 21 -65 56 -105l17 -19l37 23c45 28 68 66 68 102c0 47 -36 78 -90 78zM178 192c0 -75 63 -112 137 -112c47 0 99 15 140 49l-175 196l-15 -9c-69 -42 -87 -83 -87 -124z" />
    <glyph glyph-name="quotesingle" unicode="'" horiz-adv-x="245" 
d="M71 594v118h103v-118c-1 -48 -3 -90 -17 -138h-69c-14 48 -16 90 -17 138z" />
    <glyph glyph-name="parenleft" unicode="(" horiz-adv-x="294" 
d="M51 349c-1 160 48 326 134 441h95c-72 -105 -115 -273 -115 -435c0 -163 43 -330 114 -435h-94c-83 111 -132 273 -134 429z" />
    <glyph glyph-name="parenright" unicode=")" horiz-adv-x="294" 
d="M129 355c0 162 -44 330 -115 435h95c86 -115 134 -281 134 -441c-2 -156 -51 -318 -134 -429h-94c70 105 114 272 114 435z" />
    <glyph glyph-name="asterisk" unicode="*" horiz-adv-x="376" 
d="M29 590l20 59l64 -22c23 -7 39 -15 51 -24c-5 15 -8 31 -8 55v68h63v-68c0 -24 -1 -40 -7 -55c12 9 27 17 50 25l64 21l21 -59l-65 -22c-22 -8 -40 -12 -56 -11c14 -9 26 -20 41 -41l41 -56l-51 -36l-39 54c-17 20 -25 37 -30 53c-4 -16 -13 -33 -29 -53l-40 -54l-53 36
l43 56c15 19 27 32 42 41c-17 -1 -34 3 -58 11z" />
    <glyph glyph-name="plus" unicode="+" 
d="M533 378v-101h-182v-184h-102v184h-182v101h182v184h102v-184h182z" />
    <glyph glyph-name="comma" unicode="," horiz-adv-x="244" 
d="M53 0v138h140v-138l-64 -117h-65l58 117h-69z" />
    <glyph glyph-name="hyphen" unicode="-" horiz-adv-x="412" 
d="M51 342h309v-101h-309v101z" />
    <glyph glyph-name="period" unicode="." horiz-adv-x="242" 
d="M51 0v138h140v-138h-140z" />
    <glyph glyph-name="slash" unicode="/" horiz-adv-x="363" 
d="M4 0l255 712h100l-255 -712h-100z" />
    <glyph glyph-name="zero" unicode="0" horiz-adv-x="679" 
d="M338 722c-190 0 -294 -148 -294 -366c0 -217 104 -366 294 -366s298 149 298 366c0 218 -108 366 -298 366zM523 356c0 -165 -65 -269 -185 -269s-182 104 -182 269s62 269 182 269s185 -104 185 -269z" />
    <glyph glyph-name="one" unicode="1" horiz-adv-x="374" 
d="M287 0h-109v599l-160 -80v110l160 83h109v-712z" />
    <glyph glyph-name="two" unicode="2" horiz-adv-x="558" 
d="M380 275l-193 -171h329v-104h-480v100l269 242c66 60 96 100 97 155c1 78 -47 124 -129 124c-75 0 -131 -52 -134 -127h-110c6 147 117 228 244 228c140 0 244 -76 244 -215c0 -97 -55 -162 -137 -232z" />
    <glyph glyph-name="three" unicode="3" horiz-adv-x="582" 
d="M418 367c78 -24 122 -90 122 -169c0 -129 -102 -208 -253 -208c-158 0 -255 92 -255 228h110c0 -86 56 -133 141 -133c87 0 139 47 139 117c0 71 -48 116 -140 116h-55v91h51c85 0 130 43 130 111c0 69 -50 108 -126 108c-85 0 -141 -46 -140 -133h-107
c0 136 92 227 250 227c141 0 238 -73 238 -197c0 -68 -37 -127 -105 -158z" />
    <glyph glyph-name="four" unicode="4" horiz-adv-x="594" 
d="M362 0v139h-339v98l331 475h120v-474h100v-99h-100v-139h-112zM137 238h225v319z" />
    <glyph glyph-name="five" unicode="5" horiz-adv-x="574" 
d="M300 485c142 0 241 -97 241 -244c0 -157 -110 -251 -257 -251c-131 0 -244 75 -252 215h108c8 -75 64 -120 141 -120c87 0 145 62 145 155c0 92 -57 154 -144 154c-67 0 -113 -38 -133 -79h-107l71 397h396v-97h-311l-35 -175c28 26 72 45 137 45z" />
    <glyph glyph-name="six" unicode="6" horiz-adv-x="608" 
d="M327 492c132 0 243 -89 243 -248c0 -156 -109 -254 -253 -254c-143 0 -273 95 -273 354c0 230 104 378 289 378c117 0 218 -65 239 -182h-109c-22 57 -68 86 -136 86c-112 0 -166 -87 -169 -213c32 49 94 79 169 79zM315 87c92 0 148 68 148 157s-56 156 -148 156
c-89 0 -151 -62 -151 -154c0 -91 60 -159 151 -159z" />
    <glyph glyph-name="seven" unicode="7" horiz-adv-x="507" 
d="M364 614h-354v98h485v-91c-145 -188 -244 -421 -273 -621h-110c30 205 127 435 252 614z" />
    <glyph glyph-name="eight" unicode="8" horiz-adv-x="615" 
d="M465 385c64 -31 109 -99 109 -176c0 -127 -104 -219 -267 -219c-161 0 -266 90 -266 217c0 76 46 146 110 178c-47 29 -82 81 -82 148c0 114 98 189 238 189c141 0 240 -75 240 -190c0 -66 -35 -118 -82 -147zM308 636c-80 0 -133 -41 -133 -106s53 -109 133 -109
s132 44 132 109s-52 106 -132 106zM308 84c94 0 155 49 155 125s-61 126 -155 126s-155 -50 -155 -126s61 -125 155 -125z" />
    <glyph glyph-name="nine" unicode="9" horiz-adv-x="607" 
d="M293 722c146 0 270 -103 270 -365c0 -215 -78 -367 -274 -367c-134 0 -223 75 -242 183h108c20 -60 74 -87 135 -87c111 0 159 87 159 192c0 7 0 13 -1 20c-32 -48 -93 -77 -167 -77c-131 0 -245 88 -245 248c0 156 108 253 257 253zM441 467c1 91 -59 159 -150 159
c-92 0 -148 -69 -148 -157c0 -89 56 -156 148 -156c89 0 149 62 150 154z" />
    <glyph glyph-name="colon" unicode=":" horiz-adv-x="242" 
d="M51 375v138h140v-138h-140zM51 0v138h140v-138h-140z" />
    <glyph glyph-name="semicolon" unicode=";" horiz-adv-x="244" 
d="M53 375v138h140v-138h-140zM53 0v138h140v-138l-64 -117h-65l58 117h-69z" />
    <glyph glyph-name="less" unicode="&#x3c;" 
d="M506 581v-113l-322 -143l322 -141v-113l-415 189v131z" />
    <glyph glyph-name="equal" unicode="=" 
d="M98 488h404v-95h-404v95zM98 268h404v-95h-404v95z" />
    <glyph glyph-name="greater" unicode="&#x3e;" 
d="M94 71v112l322 144l-322 141v113l415 -189v-131z" />
    <glyph glyph-name="question" unicode="?" horiz-adv-x="522" 
d="M31 511c0 119 86 211 232 211c134 0 219 -85 219 -190c0 -176 -198 -180 -198 -308h-98c0 179 177 180 177 302c0 57 -40 99 -106 99c-75 1 -112 -50 -112 -114h-114zM165 0v138h141v-138h-141z" />
    <glyph glyph-name="at" unicode="@" horiz-adv-x="898" 
d="M477 722c215 0 383 -135 383 -342c0 -167 -92 -272 -204 -272c-71 0 -119 33 -123 91c-20 -34 -66 -70 -130 -70c-86 0 -155 62 -155 175c0 116 76 228 197 228c62 0 109 -29 126 -79l16 53h61l-51 -244c-14 -67 16 -95 65 -95c66 0 123 81 123 213
c0 167 -121 281 -305 281c-220 0 -366 -163 -366 -372c0 -178 104 -303 298 -303c67 0 131 15 183 39l23 -54c-53 -27 -124 -46 -205 -46c-234 0 -375 150 -375 363c0 243 183 434 439 434zM410 192c62 -2 105 43 123 127c21 94 -14 153 -80 153c-83 0 -123 -94 -123 -168
c0 -67 27 -110 80 -112z" />
    <glyph glyph-name="A" unicode="A" horiz-adv-x="679" 
d="M547 0l-61 163h-300l-61 -163h-115l273 712h114l272 -712h-122zM221 254h231l-115 309z" />
    <glyph glyph-name="B" unicode="B" horiz-adv-x="667" 
d="M507 369c78 -24 122 -90 122 -172c0 -121 -90 -197 -237 -197h-320v712h297c152 0 235 -73 235 -187c0 -60 -24 -126 -97 -156zM490 511c0 61 -42 103 -127 103h-178v-207h187c75 0 118 41 118 104zM380 98c85 0 131 40 131 107c0 69 -47 110 -125 110h-201v-217h195z
" />
    <glyph glyph-name="C" unicode="C" horiz-adv-x="747" 
d="M383 95c95 0 167 43 203 136h124c-39 -144 -156 -240 -328 -240c-204 0 -341 145 -341 360c0 214 134 371 345 371c168 0 285 -92 324 -239h-124c-35 91 -107 136 -202 136c-139 0 -226 -108 -226 -264c0 -155 86 -260 225 -260z" />
    <glyph glyph-name="D" unicode="D" horiz-adv-x="718" 
d="M72 0h247c226 0 358 145 358 356c0 210 -132 356 -358 356h-247v-712zM185 101v511h134c149 0 240 -96 240 -253c0 -158 -91 -258 -240 -258h-134z" />
    <glyph glyph-name="E" unicode="E" 
d="M185 101h379v-101h-492v712h476v-100h-363v-204h282v-99h-282v-208z" />
    <glyph glyph-name="F" unicode="F" horiz-adv-x="571" 
d="M543 612h-358v-213h311v-98h-311v-301h-113v712h471v-100z" />
    <glyph glyph-name="G" unicode="G" horiz-adv-x="774" 
d="M379 398h335v-399h-93l-12 100c-51 -70 -133 -108 -235 -108c-194 0 -333 139 -333 356c0 220 139 375 348 375c169 0 288 -91 322 -234h-125c-33 90 -107 131 -198 131c-139 0 -230 -104 -230 -264s90 -262 227 -262c92 0 210 53 216 190l6 -2v22h-228v95z" />
    <glyph glyph-name="H" unicode="H" horiz-adv-x="719" 
d="M534 310h-349v-310h-113v712h113v-298h349v298h113v-712h-113v310z" />
    <glyph glyph-name="I" unicode="I" horiz-adv-x="257" 
d="M185 712v-712h-113v712h113z" />
    <glyph glyph-name="J" unicode="J" horiz-adv-x="561" 
d="M133 217c0 -77 47 -124 124 -124c74 0 123 44 123 129v490h112v-491c0 -149 -99 -231 -233 -231c-141 0 -236 80 -236 227h110z" />
    <glyph glyph-name="K" unicode="K" horiz-adv-x="668" 
d="M72 0v712h112v-377l333 377h133l-273 -306l281 -406h-142l-222 319l-110 -121v-198h-112z" />
    <glyph glyph-name="L" unicode="L" horiz-adv-x="557" 
d="M185 104h342v-104h-455v712h113v-608z" />
    <glyph glyph-name="M" unicode="M" horiz-adv-x="884" 
d="M444 125l235 587h133v-712h-112v325c0 65 2 140 10 200l-215 -525h-106l-213 537c7 -67 8 -147 7 -212v-325h-111v712h137z" />
    <glyph glyph-name="N" unicode="N" horiz-adv-x="715" 
d="M72 0v712h116l344 -531v531h111v-712h-115l-345 525v-525h-111z" />
    <glyph glyph-name="O" unicode="O" horiz-adv-x="768" 
d="M385 -9c-205 0 -344 149 -344 363c0 215 139 368 344 368c204 0 342 -153 342 -368c0 -214 -138 -363 -342 -363zM385 97c139 0 222 102 222 258s-83 261 -222 261c-140 0 -224 -105 -224 -261s84 -258 224 -258z" />
    <glyph glyph-name="P" unicode="P" horiz-adv-x="645" 
d="M72 0v712h289c150 0 248 -99 248 -231c0 -133 -99 -231 -248 -231h-174v-250h-115zM187 348h165c89 0 138 52 138 132c0 79 -49 132 -138 132h-165v-264z" />
    <glyph glyph-name="Q" unicode="Q" horiz-adv-x="780" 
d="M702 95h48v-95h-67c-49 0 -79 9 -106 45c-53 -35 -118 -54 -192 -54c-205 0 -344 149 -344 363c0 215 139 368 344 368c204 0 342 -153 342 -368c0 -95 -27 -177 -75 -239c11 -14 22 -20 50 -20zM161 355c0 -158 84 -260 224 -260c51 0 94 13 128 38l-14 20
c-19 29 -28 38 -62 38h-64v93h98c54 0 70 -24 94 -57l13 -16c19 40 29 88 29 144c0 156 -83 261 -222 261c-140 0 -224 -105 -224 -261z" />
    <glyph glyph-name="R" unicode="R" horiz-adv-x="664" 
d="M72 0v712h305c148 0 246 -88 246 -228c0 -110 -58 -194 -156 -219l141 -265h-127l-132 250h-165v-250h-112zM184 348h182c90 0 139 47 139 133c0 85 -49 131 -139 131h-182v-264z" />
    <glyph glyph-name="S" unicode="S" horiz-adv-x="622" 
d="M584 199c0 -132 -119 -209 -272 -209c-174 0 -281 85 -281 212h116c0 -68 56 -115 166 -115c86 0 153 41 153 110c0 62 -38 89 -113 103l-115 22c-126 23 -192 92 -192 195c0 120 102 205 262 205c144 0 264 -66 264 -210h-113c0 77 -61 116 -154 116
c-82 0 -142 -38 -142 -103c0 -58 36 -87 115 -102l115 -21c130 -24 191 -95 191 -203z" />
    <glyph glyph-name="T" unicode="T" horiz-adv-x="622" 
d="M367 612v-612h-112v612h-233v100h578v-100h-233z" />
    <glyph glyph-name="U" unicode="U" horiz-adv-x="705" 
d="M179 712v-445c0 -115 67 -177 173 -177c107 0 174 62 174 177v445h114v-439c0 -173 -111 -283 -288 -283s-286 110 -286 283v439h113z" />
    <glyph glyph-name="V" unicode="V" horiz-adv-x="698" 
d="M351 135l218 577h120l-280 -712h-121l-279 712h123z" />
    <glyph glyph-name="W" unicode="W" horiz-adv-x="1004" 
d="M212 0l-197 712h118l147 -567l162 567h124l156 -568l152 568h115l-202 -712h-127l-159 558l-162 -558h-127z" />
    <glyph glyph-name="X" unicode="X" horiz-adv-x="661" 
d="M645 0h-133l-184 281l-182 -281h-128l229 358l-230 354h133l179 -281l182 281h128l-230 -354z" />
    <glyph glyph-name="Y" unicode="Y" horiz-adv-x="662" 
d="M272 248l-264 464h136l186 -345l190 345h134l-270 -464v-248h-112v248z" />
    <glyph glyph-name="Z" unicode="Z" horiz-adv-x="592" 
d="M177 101h381v-101h-523v90l377 522h-367v100h504v-90z" />
    <glyph glyph-name="bracketleft" unicode="[" horiz-adv-x="312" 
d="M70 803h215v-87h-121v-719h121v-87h-215v893z" />
    <glyph glyph-name="backslash" unicode="\" horiz-adv-x="368" 
d="M364 0h-110l-250 727h110z" />
    <glyph glyph-name="bracketright" unicode="]" horiz-adv-x="312" 
d="M146 -3v719h-119v87h215v-893h-215v87h119z" />
    <glyph glyph-name="asciicircum" unicode="^" 
d="M118 463l138 249h90l136 -249h-102l-79 146l-80 -146h-103z" />
    <glyph glyph-name="underscore" unicode="_" horiz-adv-x="506" 
d="M0 -23h506v-100h-506v100z" />
    <glyph glyph-name="grave" unicode="`" horiz-adv-x="198" 
d="M188 614h-89l-98 140h104z" />
    <glyph glyph-name="a" unicode="a" horiz-adv-x="574" 
d="M528 82h19v-82h-62c-42 0 -80 16 -88 65c-29 -45 -92 -75 -172 -75c-113 0 -185 59 -185 157c0 87 55 151 195 151h149v26c0 75 -45 110 -112 110c-68 0 -112 -34 -115 -87h-101c3 111 94 175 220 175c120 0 218 -60 218 -199v-207c0 -28 11 -34 34 -34zM384 202v21h-134
c-74 0 -97 -33 -97 -71c0 -52 41 -75 97 -75c76 0 134 41 134 125z" />
    <glyph glyph-name="b" unicode="b" horiz-adv-x="641" 
d="M351 523c140 0 243 -100 243 -267c0 -171 -107 -266 -243 -266c-79 0 -147 34 -177 86l-9 -76h-100v743h110v-308c30 54 96 88 176 88zM329 87c89 0 152 64 152 169s-62 169 -152 170c-86 0 -152 -66 -152 -171c0 -106 66 -168 152 -168z" />
    <glyph glyph-name="c" unicode="c" horiz-adv-x="581" 
d="M429 328c-18 64 -67 100 -127 100c-85 0 -143 -62 -143 -171c0 -115 60 -171 140 -171c64 0 111 36 132 104h116c-26 -124 -120 -200 -246 -200c-152 0 -254 106 -254 267c0 160 102 266 255 266c125 0 218 -71 245 -195h-118z" />
    <glyph glyph-name="d" unicode="d" horiz-adv-x="641" 
d="M466 743h110v-743h-100l-9 78c-31 -52 -98 -88 -177 -88c-141 0 -243 98 -243 265c0 172 107 268 243 268c80 0 145 -34 176 -86v306zM312 87c86 0 152 62 152 168c0 105 -66 171 -152 170c-90 0 -152 -66 -152 -170c0 -106 63 -168 152 -168z" />
    <glyph glyph-name="e" unicode="e" 
d="M553 267v-41h-392c2 -96 65 -146 145 -146c60 0 110 28 131 84h111c-27 -104 -119 -174 -244 -174c-153 0 -254 106 -254 267c0 160 101 266 253 266c149 0 250 -102 250 -256zM303 436c-73 0 -133 -45 -141 -134h280c-6 89 -65 134 -139 134z" />
    <glyph glyph-name="f" unicode="f" horiz-adv-x="357" 
d="M18 512h84v83c0 97 46 149 157 149h75v-92h-56c-55 0 -66 -27 -66 -65v-75h122v-96h-122v-416h-110v416h-84v96z" />
    <glyph glyph-name="g" unicode="g" horiz-adv-x="616" 
d="M454 512h97v-480c0 -149 -100 -242 -252 -242c-129 0 -222 71 -239 178h109c16 -59 67 -88 131 -88c91 0 144 54 144 134v80c-29 -52 -92 -83 -167 -83c-133 0 -230 97 -230 255c0 160 97 256 231 256c75 0 133 -30 165 -81zM300 107c85 0 142 63 142 158
s-56 161 -142 161s-140 -66 -140 -161s54 -158 140 -158z" />
    <glyph glyph-name="h" unicode="h" 
d="M336 523c97 0 204 -52 204 -227v-296h-109v279c0 99 -47 144 -123 143c-87 0 -134 -60 -134 -146v-276h-109v743h109v-297c30 48 88 77 162 77z" />
    <glyph glyph-name="i" unicode="i" horiz-adv-x="240" 
d="M59 608v114h121v-114h-121zM65 0v512h109v-512h-109z" />
    <glyph glyph-name="j" unicode="j" horiz-adv-x="250" 
d="M69 608v114h121v-114h-121zM184 -47c0 -101 -53 -153 -153 -153h-65v97h53c43 0 56 24 56 60v555h109v-559z" />
    <glyph glyph-name="k" unicode="k" horiz-adv-x="547" 
d="M65 0v743h109v-458l224 228h136l-219 -221l221 -292h-138l-161 215l-60 -61v-154h-112z" />
    <glyph glyph-name="l" unicode="l" horiz-adv-x="240" 
d="M174 743v-743h-109v743h109z" />
    <glyph glyph-name="m" unicode="m" horiz-adv-x="890" 
d="M639 522c108 0 192 -70 192 -203v-319h-111v299c0 87 -41 124 -106 124c-62 0 -110 -39 -113 -127v-296h-107v292c0 89 -40 131 -105 131c-71 0 -115 -44 -115 -126v-297h-109v512h99l13 -58c27 45 78 68 138 68c74 0 134 -31 164 -93c30 65 96 93 160 93z" />
    <glyph glyph-name="n" unicode="n" horiz-adv-x="598" 
d="M334 522c129 0 205 -85 205 -216v-306h-110v283c0 96 -49 143 -124 143c-85 0 -131 -60 -131 -151v-275h-109v512h99l8 -69c29 49 84 79 162 79z" />
    <glyph glyph-name="o" unicode="o" horiz-adv-x="621" 
d="M47 256c0 158 108 267 263 267c156 0 264 -109 264 -267s-108 -266 -264 -266c-155 0 -263 108 -263 266zM159 257c0 -105 60 -173 151 -173c92 0 152 68 152 173c0 106 -60 173 -152 173c-91 0 -151 -67 -151 -173z" />
    <glyph glyph-name="p" unicode="p" horiz-adv-x="641" 
d="M351 522c136 0 243 -95 243 -267c0 -166 -102 -265 -243 -265c-78 0 -146 32 -177 85v-275h-109v712h100l9 -78c31 53 97 88 177 88zM329 87c89 0 152 63 152 168s-62 170 -152 170c-86 1 -152 -65 -152 -171c0 -105 66 -167 152 -167z" />
    <glyph glyph-name="q" unicode="q" horiz-adv-x="641" 
d="M476 513h100v-713h-110v273c-31 -52 -99 -83 -176 -83c-141 0 -243 98 -243 264c0 173 107 269 243 269c80 0 146 -35 177 -88zM312 87c86 0 152 62 152 167s-66 172 -152 171c-90 0 -152 -66 -152 -171s63 -167 152 -167z" />
    <glyph glyph-name="r" unicode="r" horiz-adv-x="389" 
d="M300 512h67v-98h-73c-85 0 -118 -54 -118 -141v-273h-110v512h100l13 -66c19 36 62 66 121 66z" />
    <glyph glyph-name="s" unicode="s" horiz-adv-x="517" 
d="M33 155h109c1 -53 50 -84 117 -84s107 25 107 70c0 39 -20 60 -78 69l-103 18c-100 17 -139 69 -139 142c0 92 91 152 207 152c125 0 216 -60 217 -162h-108c-1 52 -46 81 -109 81c-60 0 -98 -25 -98 -67c0 -37 26 -54 83 -64l101 -18c95 -17 139 -64 139 -141
c0 -106 -98 -161 -217 -161c-135 0 -226 65 -228 165z" />
    <glyph glyph-name="t" unicode="t" horiz-adv-x="360" 
d="M233 0c-89 0 -138 50 -138 139v276h-86v97h44c32 0 42 16 42 48v89h109v-137h119v-97h-119v-255c0 -41 12 -63 60 -63h58v-97h-89z" />
    <glyph glyph-name="u" unicode="u" horiz-adv-x="579" 
d="M409 513h105v-513h-98l-8 66c-28 -46 -79 -76 -145 -76c-128 0 -203 86 -203 217v306h105v-291c0 -93 48 -137 121 -136c80 1 123 58 123 146v281z" />
    <glyph glyph-name="v" unicode="v" horiz-adv-x="555" 
d="M124 513l153 -397l151 397h118l-210 -513h-122l-205 513h115z" />
    <glyph glyph-name="w" unicode="w" horiz-adv-x="805" 
d="M132 512l100 -392l116 392h114l114 -392l97 392h115l-145 -512h-123l-116 390l-117 -390h-124l-146 512h115z" />
    <glyph glyph-name="x" unicode="x" horiz-adv-x="547" 
d="M18 0l178 262l-180 250h129l128 -187l129 187h129l-180 -249l178 -263h-128l-128 196l-127 -196h-128z" />
    <glyph glyph-name="y" unicode="y" horiz-adv-x="543" 
d="M127 512l152 -424l141 425l114 -1l-215 -594c-36 -100 -99 -118 -175 -118h-113v97h114c43 0 68 23 68 68c0 13 -3 26 -9 42l-195 505h118z" />
    <glyph glyph-name="z" unicode="z" horiz-adv-x="502" 
d="M181 97h279v-97h-416v95l278 320h-279v97h415v-95z" />
    <glyph glyph-name="braceleft" unicode="{" horiz-adv-x="301" 
d="M175 660v-214c0 -42 -21 -73 -53 -89c33 -20 54 -49 54 -89v-210c0 -45 18 -60 49 -60l49 -1v-87l-63 1c-83 0 -129 50 -129 133v202c0 49 -29 65 -64 66v89c35 1 64 18 64 66v205c0 84 48 132 132 132h60v-87h-48c-32 0 -51 -16 -51 -57z" />
    <glyph glyph-name="bar" unicode="|" horiz-adv-x="284" 
d="M98 -81v865h89v-865h-89z" />
    <glyph glyph-name="braceright" unicode="}" horiz-adv-x="301" 
d="M90 803c83 0 129 -50 129 -134v-201c0 -49 29 -65 64 -67v-88c-35 -2 -64 -18 -64 -67v-204c0 -84 -48 -132 -132 -132h-60v87h48c32 0 51 16 51 57v214c0 43 21 71 53 89c-33 18 -54 50 -54 89v210c0 45 -18 59 -49 60l-49 1v87z" />
    <glyph glyph-name="asciitilde" unicode="~" 
d="M322 335c31 -26 45 -41 75 -41s49 24 46 71h86c6 -95 -45 -162 -124 -162c-61 0 -93 28 -129 59c-28 24 -44 42 -74 42c-29 0 -49 -25 -46 -71h-86c-5 94 44 162 124 162c61 0 95 -32 128 -60z" />
    <glyph glyph-name="exclamdown" unicode="&#xa1;" horiz-adv-x="269" 
d="M65 721h139v-139h-139v139zM82 206c0 99 3 198 14 297h78c11 -99 15 -198 14 -297v-206h-106v206z" />
    <glyph glyph-name="cent" unicode="&#xa2;" horiz-adv-x="570" 
d="M526 282c-24 -103 -96 -175 -204 -189v-93h-82v94c-128 19 -206 119 -206 261c0 141 78 242 206 260v97h82v-96c106 -14 180 -85 203 -185h-114c-22 60 -69 93 -127 93c-83 0 -141 -60 -141 -169s58 -168 141 -168c59 0 106 32 128 95h114z" />
    <glyph glyph-name="sterling" unicode="&#xa3;" horiz-adv-x="624" 
d="M481 176h103c0 -110 -55 -176 -171 -176h-352v93c63 22 105 73 105 129c0 32 -7 60 -18 87h-99v82h61c-19 40 -35 82 -35 136c0 116 90 195 230 195c120 0 240 -47 240 -192h-113c-1 62 -51 98 -125 98s-120 -40 -120 -104c0 -47 21 -88 43 -133h198l-4 -82h-160
c7 -24 12 -50 12 -79c0 -51 -23 -99 -65 -131h191c55 0 79 24 79 77z" />
    <glyph glyph-name="currency" unicode="&#xa4;" horiz-adv-x="692" 
d="M600 345c0 -58 -20 -112 -53 -155l80 -79l-58 -57l-81 81c-40 -28 -89 -44 -142 -44c-52 0 -101 16 -142 43l-81 -80l-57 57l79 79c-33 43 -53 97 -53 155s20 112 53 155l-79 79l57 57l81 -80c40 28 89 44 142 44s102 -17 143 -45l80 81l58 -57l-80 -79
c33 -43 53 -97 53 -155zM346 193c84 0 149 67 149 152s-66 153 -149 153c-84 0 -149 -68 -149 -153s66 -152 149 -152z" />
    <glyph glyph-name="yen" unicode="&#xa5;" horiz-adv-x="676" 
d="M17 712h136l186 -316l190 316h130l-220 -351h138v-83h-183v-75h183v-82h-183v-121h-112v121h-182v82h182v75h-182v83h136z" />
    <glyph glyph-name="brokenbar" unicode="&#xa6;" horiz-adv-x="284" 
d="M98 427v357h89v-357h-89zM98 -81v356h89v-356h-89z" />
    <glyph glyph-name="section" unicode="&#xa7;" horiz-adv-x="505" 
d="M361 254c50 -26 74 -65 74 -119c0 -97 -85 -145 -193 -145c-123 0 -203 63 -205 159h99c1 -51 37 -81 102 -81c54 0 93 21 93 64c0 38 -32 54 -65 63l-88 25c-106 28 -129 85 -129 131c0 49 24 91 78 110c-61 31 -75 76 -75 114c0 89 73 147 185 147
c115 0 191 -63 192 -155h-97c-1 47 -37 78 -93 78c-52 0 -86 -26 -86 -66c0 -37 29 -50 75 -62l77 -19c88 -24 132 -69 132 -138c0 -53 -31 -88 -76 -106zM144 359c0 -40 33 -53 78 -64c73 -14 111 15 111 57c0 40 -31 56 -64 65c-90 18 -125 -15 -125 -58z" />
    <glyph glyph-name="dieresis" unicode="&#xa8;" horiz-adv-x="392" 
d="M38 624v107h114v-107h-114zM232 624v107h113v-107h-113z" />
    <glyph glyph-name="copyright" unicode="&#xa9;" horiz-adv-x="814" 
d="M408 722c-203 0 -367 -164 -367 -366c0 -200 165 -366 367 -366c200 0 365 165 365 366c0 203 -163 366 -365 366zM702 355c0 -160 -133 -293 -295 -293s-294 132 -294 293c0 162 133 295 294 295s295 -134 295 -295zM207 354c0 123 80 215 201 215
c97 0 169 -53 192 -144h-78c-19 51 -60 78 -115 78c-76 0 -126 -59 -126 -147s50 -146 126 -146c55 0 96 26 115 77h78c-23 -88 -95 -143 -194 -143c-117 0 -199 86 -199 210z" />
    <glyph glyph-name="ordfeminine" unicode="&#xaa;" horiz-adv-x="263" 
d="M136 723c62 0 102 -37 102 -103v-149h-46l-6 26c-9 -16 -36 -31 -71 -31c-48 0 -90 28 -90 80c0 43 29 77 91 77h70v6c0 33 -24 47 -54 47s-55 -14 -55 -40h-48c0 62 57 87 107 87zM125 510c35 0 61 19 61 49v25h-62c-33 0 -47 -14 -47 -36c0 -27 22 -38 48 -38z" />
    <glyph glyph-name="guillemotleft" unicode="&#xab;" horiz-adv-x="618" 
d="M220 58l-184 229l184 225h117l-183 -225l183 -229h-117zM469 58l-184 229l184 225h117l-183 -225l183 -229h-117z" />
    <glyph glyph-name="logicalnot" unicode="&#xac;" 
d="M73 354h419v-255h-99v153h-320v102z" />
    <glyph glyph-name="registered" unicode="&#xae;" horiz-adv-x="498" 
d="M458 513c0 -117 -91 -210 -209 -210c-116 0 -209 95 -209 210c0 114 93 209 209 209c118 0 209 -93 209 -209zM408 513c0 87 -66 159 -159 159c-91 0 -158 -72 -158 -159s67 -159 158 -159c93 0 159 69 159 159zM219 482h32l35 -73h52l-41 80c24 10 40 31 40 62
c0 41 -32 67 -72 67h-92v-209h46v73zM256 578c22 0 35 -11 35 -30s-13 -31 -35 -31h-37v61h37z" />
    <glyph glyph-name="macron" unicode="&#xaf;" horiz-adv-x="345" 
d="M26 733h293v-78h-293v78z" />
    <glyph glyph-name="degree" unicode="&#xb0;" horiz-adv-x="345" 
d="M172 447c-77 0 -139 61 -139 137c0 77 62 138 139 138c78 0 140 -61 140 -138c0 -76 -62 -137 -140 -137zM172 515c39 0 70 31 70 70c0 38 -31 69 -70 69c-38 0 -69 -31 -69 -69c0 -39 31 -70 69 -70z" />
    <glyph glyph-name="plusminus" unicode="&#xb1;" 
d="M351 431h183v-101h-183v-150h-101v150h-184v101h184v149h101v-149zM66 0v101h468v-101h-468z" />
    <glyph glyph-name="acute" unicode="&#xb4;" horiz-adv-x="194" 
d="M23 614l83 140h104l-98 -140h-89z" />
    <glyph glyph-name="uni00B5" unicode="&#xb5;" horiz-adv-x="637" 
d="M565 97l24 -1v-96h-41c-48 0 -95 19 -111 59c-27 -44 -85 -69 -145 -69c-52 0 -103 18 -126 55v-228h-105v695h105v-303c0 -80 56 -124 120 -125c69 -1 122 47 122 125v303h103v-350c0 -38 6 -63 54 -65z" />
    <glyph glyph-name="paragraph" unicode="&#xb6;" horiz-adv-x="656" 
d="M444 -120v726h-120v-726h-106v524h-37c-91 0 -153 68 -152 154c0 86 57 154 152 154h430v-106h-62v-726h-105z" />
    <glyph glyph-name="periodcentered" unicode="&#xb7;" horiz-adv-x="304" 
d="M153 229c-43 0 -78 36 -78 77c0 44 35 78 78 78c42 0 77 -34 77 -78c0 -41 -35 -77 -77 -77z" />
    <glyph glyph-name="cedilla" unicode="&#xb8;" horiz-adv-x="272" 
d="M112 6l42 -12l-15 -41c49 4 84 -21 84 -67c0 -45 -37 -74 -88 -74c-61 0 -95 33 -95 74h58c2 -15 14 -24 31 -24c16 0 28 9 28 26c0 23 -24 31 -50 24l-25 13z" />
    <glyph glyph-name="ordmasculine" unicode="&#xba;" horiz-adv-x="304" 
d="M26 581c0 75 51 129 125 129s127 -54 127 -129s-53 -128 -127 -128s-125 54 -125 128zM78 580c0 -46 28 -80 74 -80s74 34 74 80c0 48 -29 83 -74 83c-46 0 -74 -35 -74 -83z" />
    <glyph glyph-name="guillemotright" unicode="&#xbb;" horiz-adv-x="618" 
d="M150 513l182 -226l-182 -228h-118l183 228l-183 226h118zM399 513l182 -226l-182 -228h-118l183 228l-183 226h118z" />
    <glyph glyph-name="onequarter" unicode="&#xbc;" horiz-adv-x="702" 
d="M175 347h-69v296l-83 -39v67l83 41h69v-365zM68 0l454 712h78l-455 -712h-77zM564 0v69h-171v59l168 238h70v-237h53v-60h-53v-69h-67zM467 129h97v143z" />
    <glyph glyph-name="onehalf" unicode="&#xbd;" horiz-adv-x="741" 
d="M106 347v296l-83 -39v67l83 41h69v-365h-69zM522 712h78l-455 -712h-77zM654 140l-89 -75h152v-65h-249v64l135 114c24 21 44 42 45 72c1 37 -23 57 -58 57s-61 -23 -62 -59h-67c2 80 60 123 130 123c73 0 128 -43 129 -115c1 -52 -33 -88 -66 -116z" />
    <glyph glyph-name="threequarters" unicode="&#xbe;" horiz-adv-x="764" 
d="M280 450c0 -65 -55 -108 -127 -108c-82 0 -130 49 -130 122h65c-2 -43 29 -63 63 -63c36 0 59 21 59 51c0 31 -21 52 -58 52h-31v57h29c35 0 57 17 57 48c0 32 -24 49 -55 49c-36 0 -66 -21 -64 -63h-64c0 72 48 122 130 122c70 0 123 -38 123 -105
c0 -38 -17 -65 -47 -80c32 -15 50 -46 50 -82zM584 712h78l-455 -712h-77zM693 129h53v-60h-53v-69h-67v69h-171v59l168 238h70v-237zM626 129v143l-97 -143h97z" />
    <glyph glyph-name="questiondown" unicode="&#xbf;" horiz-adv-x="518" 
d="M355 717v-138h-140v138h140zM489 205c0 -118 -86 -211 -232 -211c-134 0 -219 85 -219 191c0 176 198 180 198 308h98c0 -179 -177 -180 -177 -302c0 -57 40 -99 106 -100c75 0 112 51 112 114h114z" />
    <glyph glyph-name="Agrave" unicode="&#xc0;" horiz-adv-x="679" 
d="M382 765h-89l-98 140h104zM547 0l-61 163h-300l-61 -163h-115l273 712h114l272 -712h-122zM221 254h231l-115 309z" />
    <glyph glyph-name="Aacute" unicode="&#xc1;" horiz-adv-x="679" 
d="M480 905l-98 -140h-89l83 140h104zM547 0l-61 163h-300l-61 -163h-115l273 712h114l272 -712h-122zM221 254h231l-115 309z" />
    <glyph glyph-name="Acircumflex" unicode="&#xc2;" horiz-adv-x="679" 
d="M336 838l-53 -73h-97l104 140h94l104 -140h-99zM547 0l-61 163h-300l-61 -163h-115l273 712h114l272 -712h-122zM221 254h231l-115 309z" />
    <glyph glyph-name="Atilde" unicode="&#xc3;" horiz-adv-x="679" 
d="M242 779h-63c-3 74 30 118 88 118c60 0 94 -43 131 -43c22 0 36 14 37 40h62c3 -74 -29 -118 -88 -118c-60 0 -94 43 -131 43c-21 0 -36 -14 -36 -40zM547 0l-61 163h-300l-61 -163h-115l273 712h114l272 -712h-122zM221 254h231l-115 309z" />
    <glyph glyph-name="Adieresis" unicode="&#xc4;" horiz-adv-x="679" 
d="M298 882v-107h-114v107h114zM491 882v-107h-113v107h113zM547 0l-61 163h-300l-61 -163h-115l273 712h114l272 -712h-122zM221 254h231l-115 309z" />
    <glyph glyph-name="Aring" unicode="&#xc5;" horiz-adv-x="679" 
d="M547 0l-61 163h-300l-61 -163h-115l261 680c-32 19 -53 53 -53 99c0 73 56 117 120 117c65 0 120 -44 120 -117c0 -44 -20 -78 -49 -98l260 -681h-122zM338 834c-30 0 -54 -23 -54 -55c0 -33 24 -56 54 -56c31 0 55 23 55 56c0 32 -24 55 -55 55zM221 254h231l-115 309z
" />
    <glyph glyph-name="AE" unicode="&#xc6;" horiz-adv-x="1001" 
d="M0 0l438 712h511v-100h-348v-204h265v-99h-265v-208h364v-101h-472v168h-258l-101 -168h-134zM290 262h203v332z" />
    <glyph glyph-name="Ccedilla" unicode="&#xc7;" horiz-adv-x="747" 
d="M383 95c95 0 167 43 203 136h124c-37 -137 -146 -231 -305 -239l-13 -36c49 4 84 -21 84 -67c0 -45 -37 -74 -88 -74c-61 0 -95 33 -95 74h58c2 -15 14 -24 31 -24c16 0 28 9 28 26c0 23 -24 31 -50 24l-25 13l24 64c-191 10 -318 152 -318 359c0 214 134 371 345 371
c168 0 285 -92 324 -239h-124c-35 91 -107 136 -202 136c-139 0 -226 -108 -226 -264c0 -155 86 -260 225 -260z" />
    <glyph glyph-name="Egrave" unicode="&#xc8;" 
d="M351 765h-89l-98 140h104zM185 101h379v-101h-492v712h476v-100h-363v-204h282v-99h-282v-208z" />
    <glyph glyph-name="Eacute" unicode="&#xc9;" 
d="M449 905l-98 -140h-89l83 140h104zM185 101h379v-101h-492v712h476v-100h-363v-204h282v-99h-282v-208z" />
    <glyph glyph-name="Ecircumflex" unicode="&#xca;" 
d="M305 838l-53 -73h-97l104 140h94l104 -140h-99zM185 101h379v-101h-492v712h476v-100h-363v-204h282v-99h-282v-208z" />
    <glyph glyph-name="Edieresis" unicode="&#xcb;" 
d="M266 882v-107h-114v107h114zM459 882v-107h-113v107h113zM185 101h379v-101h-492v712h476v-100h-363v-204h282v-99h-282v-208z" />
    <glyph glyph-name="Igrave" unicode="&#xcc;" horiz-adv-x="257" 
d="M173 765h-89l-98 140h104zM185 712v-712h-113v712h113z" />
    <glyph glyph-name="Iacute" unicode="&#xcd;" horiz-adv-x="257" 
d="M84 765l83 140h104l-98 -140h-89zM185 712v-712h-113v712h113z" />
    <glyph glyph-name="Icircumflex" unicode="&#xce;" horiz-adv-x="257" 
d="M127 838l53 -73h99l-104 140h-94l-104 -140h97zM185 712v-712h-113v712h113z" />
    <glyph glyph-name="Idieresis" unicode="&#xcf;" horiz-adv-x="257" 
d="M-25 775v107h114v-107h-114zM169 775v107h113v-107h-113zM185 712v-712h-113v712h113z" />
    <glyph glyph-name="Eth" unicode="&#xd0;" horiz-adv-x="730" 
d="M331 712c226 0 358 -146 358 -356c0 -211 -132 -356 -358 -356h-247v310h-66v95h66v307h247zM331 101c149 0 240 100 240 258c0 157 -91 253 -240 253h-134v-207h114v-95h-114v-209h134z" />
    <glyph glyph-name="Ntilde" unicode="&#xd1;" horiz-adv-x="715" 
d="M288 897c60 0 94 -43 131 -43c22 0 36 14 37 40h62c3 -74 -29 -118 -88 -118c-60 0 -94 43 -131 43c-21 0 -36 -14 -36 -40h-63c-3 74 30 118 88 118zM72 0v712h116l344 -531v531h111v-712h-115l-345 525v-525h-111z" />
    <glyph glyph-name="Ograve" unicode="&#xd2;" horiz-adv-x="768" 
d="M429 769h-89l-98 140h104zM385 -9c-205 0 -344 149 -344 363c0 215 139 368 344 368c204 0 342 -153 342 -368c0 -214 -138 -363 -342 -363zM385 97c139 0 222 102 222 258s-83 261 -222 261c-140 0 -224 -105 -224 -261s84 -258 224 -258z" />
    <glyph glyph-name="Oacute" unicode="&#xd3;" horiz-adv-x="768" 
d="M340 769l83 140h104l-98 -140h-89zM385 -9c-205 0 -344 149 -344 363c0 215 139 368 344 368c204 0 342 -153 342 -368c0 -214 -138 -363 -342 -363zM385 97c139 0 222 102 222 258s-83 261 -222 261c-140 0 -224 -105 -224 -261s84 -258 224 -258z" />
    <glyph glyph-name="Ocircumflex" unicode="&#xd4;" horiz-adv-x="768" 
d="M383 842l53 -73h99l-104 140h-94l-104 -140h97zM385 -9c-205 0 -344 149 -344 363c0 215 139 368 344 368c204 0 342 -153 342 -368c0 -214 -138 -363 -342 -363zM385 97c139 0 222 102 222 258s-83 261 -222 261c-140 0 -224 -105 -224 -261s84 -258 224 -258z" />
    <glyph glyph-name="Otilde" unicode="&#xd5;" horiz-adv-x="768" 
d="M313 901c60 0 94 -43 131 -43c22 0 36 14 37 40h62c3 -74 -29 -118 -88 -118c-60 0 -94 43 -131 43c-21 0 -36 -14 -36 -40h-63c-3 74 30 118 88 118zM385 -9c-205 0 -344 149 -344 363c0 215 139 368 344 368c204 0 342 -153 342 -368c0 -214 -138 -363 -342 -363z
M385 97c139 0 222 102 222 258s-83 261 -222 261c-140 0 -224 -105 -224 -261s84 -258 224 -258z" />
    <glyph glyph-name="Odieresis" unicode="&#xd6;" horiz-adv-x="768" 
d="M230 779v107h114v-107h-114zM424 779v107h113v-107h-113zM385 -9c-205 0 -344 149 -344 363c0 215 139 368 344 368c204 0 342 -153 342 -368c0 -214 -138 -363 -342 -363zM385 97c139 0 222 102 222 258s-83 261 -222 261c-140 0 -224 -105 -224 -261s84 -258 224 -258z
" />
    <glyph glyph-name="multiply" unicode="&#xd7;" 
d="M516 460l-144 -144l144 -145l-71 -71l-144 145l-145 -145l-71 71l145 145l-145 144l71 71l145 -144l144 144z" />
    <glyph glyph-name="Oslash" unicode="&#xd8;" horiz-adv-x="775" 
d="M622 633c68 -66 108 -164 108 -279c0 -214 -138 -363 -342 -363c-61 0 -116 13 -163 37l-28 -42h-99l59 89c-71 65 -112 162 -112 279c0 215 138 368 343 368c62 0 119 -14 167 -40l29 44h99zM160 355c0 -77 20 -141 58 -187l279 426c-31 17 -68 26 -109 26
c-142 0 -228 -106 -228 -265zM388 93c141 0 226 104 226 262c0 75 -19 138 -54 184l-277 -423c30 -15 65 -23 105 -23z" />
    <glyph glyph-name="Ugrave" unicode="&#xd9;" horiz-adv-x="705" 
d="M397 765h-89l-98 140h104zM179 712v-445c0 -115 67 -177 173 -177c107 0 174 62 174 177v445h114v-439c0 -173 -111 -283 -288 -283s-286 110 -286 283v439h113z" />
    <glyph glyph-name="Uacute" unicode="&#xda;" horiz-adv-x="705" 
d="M308 765l83 140h104l-98 -140h-89zM179 712v-445c0 -115 67 -177 173 -177c107 0 174 62 174 177v445h114v-439c0 -173 -111 -283 -288 -283s-286 110 -286 283v439h113z" />
    <glyph glyph-name="Ucircumflex" unicode="&#xdb;" horiz-adv-x="705" 
d="M351 838l53 -73h99l-104 140h-94l-104 -140h97zM179 712v-445c0 -115 67 -177 173 -177c107 0 174 62 174 177v445h114v-439c0 -173 -111 -283 -288 -283s-286 110 -286 283v439h113z" />
    <glyph glyph-name="Udieresis" unicode="&#xdc;" horiz-adv-x="705" 
d="M198 775v107h114v-107h-114zM392 775v107h113v-107h-113zM179 712v-445c0 -115 67 -177 173 -177c107 0 174 62 174 177v445h114v-439c0 -173 -111 -283 -288 -283s-286 110 -286 283v439h113z" />
    <glyph glyph-name="Yacute" unicode="&#xdd;" horiz-adv-x="662" 
d="M287 765l83 140h104l-98 -140h-89zM272 248l-264 464h136l186 -345l190 345h134l-270 -464v-248h-112v248z" />
    <glyph glyph-name="Thorn" unicode="&#xde;" horiz-adv-x="645" 
d="M359 588c148 0 245 -99 245 -231c0 -133 -98 -232 -245 -232h-175v-125h-114v712h114v-124h175zM349 224c90 0 140 52 140 131c0 80 -51 133 -140 133h-165v-264h165z" />
    <glyph glyph-name="germandbls" unicode="&#xdf;" horiz-adv-x="597" 
d="M411 404c89 -20 153 -89 153 -188c0 -132 -92 -226 -239 -226c-41 0 -83 4 -113 17v90c30 -17 68 -20 100 -20c81 0 141 48 141 142c0 92 -82 129 -189 126v87c84 -7 137 37 137 119c0 61 -45 102 -116 102c-70 0 -117 -46 -117 -129v-523h-110v519c0 131 83 218 227 218
c135 0 217 -74 217 -179c0 -76 -40 -130 -91 -155z" />
    <glyph glyph-name="agrave" unicode="&#xe0;" horiz-adv-x="574" 
d="M327 576h-89l-98 140h104zM528 82h19v-82h-62c-42 0 -80 16 -88 65c-29 -45 -92 -75 -172 -75c-113 0 -185 59 -185 157c0 87 55 151 195 151h149v26c0 75 -45 110 -112 110c-68 0 -112 -34 -115 -87h-101c3 111 94 175 220 175c120 0 218 -60 218 -199v-207
c0 -28 11 -34 34 -34zM384 202v21h-134c-74 0 -97 -33 -97 -71c0 -52 41 -75 97 -75c76 0 134 41 134 125z" />
    <glyph glyph-name="aacute" unicode="&#xe1;" horiz-adv-x="574" 
d="M425 716l-98 -140h-89l83 140h104zM528 82h19v-82h-62c-42 0 -80 16 -88 65c-29 -45 -92 -75 -172 -75c-113 0 -185 59 -185 157c0 87 55 151 195 151h149v26c0 75 -45 110 -112 110c-68 0 -112 -34 -115 -87h-101c3 111 94 175 220 175c120 0 218 -60 218 -199v-207
c0 -28 11 -34 34 -34zM384 202v21h-134c-74 0 -97 -33 -97 -71c0 -52 41 -75 97 -75c76 0 134 41 134 125z" />
    <glyph glyph-name="acircumflex" unicode="&#xe2;" horiz-adv-x="574" 
d="M280 649l-53 -73h-97l104 140h94l104 -140h-99zM528 82h19v-82h-62c-42 0 -80 16 -88 65c-29 -45 -92 -75 -172 -75c-113 0 -185 59 -185 157c0 87 55 151 195 151h149v26c0 75 -45 110 -112 110c-68 0 -112 -34 -115 -87h-101c3 111 94 175 220 175
c120 0 218 -60 218 -199v-207c0 -28 11 -34 34 -34zM384 202v21h-134c-74 0 -97 -33 -97 -71c0 -52 41 -75 97 -75c76 0 134 41 134 125z" />
    <glyph glyph-name="atilde" unicode="&#xe3;" horiz-adv-x="574" 
d="M186 590h-63c-3 74 30 118 88 118c60 0 94 -43 131 -43c22 0 36 14 37 40h62c3 -74 -29 -118 -88 -118c-60 0 -94 43 -131 43c-21 0 -36 -14 -36 -40zM528 82h19v-82h-62c-42 0 -80 16 -88 65c-29 -45 -92 -75 -172 -75c-113 0 -185 59 -185 157c0 87 55 151 195 151h149
v26c0 75 -45 110 -112 110c-68 0 -112 -34 -115 -87h-101c3 111 94 175 220 175c120 0 218 -60 218 -199v-207c0 -28 11 -34 34 -34zM384 202v21h-134c-74 0 -97 -33 -97 -71c0 -52 41 -75 97 -75c76 0 134 41 134 125z" />
    <glyph glyph-name="adieresis" unicode="&#xe4;" horiz-adv-x="574" 
d="M242 693v-107h-114v107h114zM435 693v-107h-113v107h113zM528 82h19v-82h-62c-42 0 -80 16 -88 65c-29 -45 -92 -75 -172 -75c-113 0 -185 59 -185 157c0 87 55 151 195 151h149v26c0 75 -45 110 -112 110c-68 0 -112 -34 -115 -87h-101c3 111 94 175 220 175
c120 0 218 -60 218 -199v-207c0 -28 11 -34 34 -34zM384 202v21h-134c-74 0 -97 -33 -97 -71c0 -52 41 -75 97 -75c76 0 134 41 134 125z" />
    <glyph glyph-name="aring" unicode="&#xe5;" horiz-adv-x="574" 
d="M528 82h19v-82h-62c-42 0 -80 16 -88 65c-29 -45 -92 -75 -172 -75c-113 0 -185 59 -185 157c0 87 55 151 195 151h149v26c0 75 -45 110 -112 110c-68 0 -112 -34 -115 -87h-101c2 87 59 145 143 166c-22 20 -37 50 -37 88c0 73 56 117 120 117c65 0 120 -44 120 -117
c0 -40 -16 -71 -40 -91c77 -23 132 -83 132 -187v-207c0 -28 11 -34 34 -34zM282 656c-30 0 -54 -23 -54 -55c0 -33 24 -56 54 -56c31 0 55 23 55 56c0 32 -24 55 -55 55zM384 202v21h-134c-74 0 -97 -33 -97 -71c0 -52 41 -75 97 -75c76 0 134 41 134 125z" />
    <glyph glyph-name="ae" unicode="&#xe6;" horiz-adv-x="938" 
d="M890 265v-41h-394c2 -96 66 -144 143 -144c61 0 115 28 136 84h108c-26 -104 -119 -174 -239 -174c-95 0 -166 37 -208 102c-42 -72 -117 -102 -199 -102c-120 0 -197 56 -197 154c0 86 55 150 195 150h151v32c0 78 -51 109 -112 109c-76 0 -115 -38 -118 -91h-99
c3 112 91 178 213 178c79 0 143 -31 177 -87c43 56 109 88 195 88c147 0 248 -102 248 -258zM495 299h285c-6 90 -66 136 -142 136s-137 -46 -143 -136zM386 203v16h-136c-76 0 -97 -31 -97 -70c0 -51 42 -71 99 -71c77 0 134 41 134 125z" />
    <glyph glyph-name="ccedilla" unicode="&#xe7;" horiz-adv-x="581" 
d="M299 86c64 0 111 36 132 104h116c-24 -116 -108 -190 -221 -199l-11 -30c49 4 84 -21 84 -67c0 -45 -37 -74 -88 -74c-61 0 -95 33 -95 74h58c2 -15 14 -24 31 -24c16 0 28 9 28 26c0 23 -24 31 -50 24l-25 13l21 58c-140 9 -232 113 -232 266c0 160 102 266 255 266
c125 0 218 -71 245 -195h-118c-18 64 -67 100 -127 100c-85 0 -143 -62 -143 -171c0 -115 60 -171 140 -171z" />
    <glyph glyph-name="egrave" unicode="&#xe8;" 
d="M347 577h-89l-98 140h104zM553 267v-41h-392c2 -96 65 -146 145 -146c60 0 110 28 131 84h111c-27 -104 -119 -174 -244 -174c-153 0 -254 106 -254 267c0 160 101 266 253 266c149 0 250 -102 250 -256zM303 436c-73 0 -133 -45 -141 -134h280c-6 89 -65 134 -139 134z
" />
    <glyph glyph-name="eacute" unicode="&#xe9;" 
d="M445 717l-98 -140h-89l83 140h104zM553 267v-41h-392c2 -96 65 -146 145 -146c60 0 110 28 131 84h111c-27 -104 -119 -174 -244 -174c-153 0 -254 106 -254 267c0 160 101 266 253 266c149 0 250 -102 250 -256zM303 436c-73 0 -133 -45 -141 -134h280
c-6 89 -65 134 -139 134z" />
    <glyph glyph-name="ecircumflex" unicode="&#xea;" 
d="M301 650l-53 -73h-97l104 140h94l104 -140h-99zM553 267v-41h-392c2 -96 65 -146 145 -146c60 0 110 28 131 84h111c-27 -104 -119 -174 -244 -174c-153 0 -254 106 -254 267c0 160 101 266 253 266c149 0 250 -102 250 -256zM303 436c-73 0 -133 -45 -141 -134h280
c-6 89 -65 134 -139 134z" />
    <glyph glyph-name="edieresis" unicode="&#xeb;" 
d="M262 694v-107h-114v107h114zM455 694v-107h-113v107h113zM553 267v-41h-392c2 -96 65 -146 145 -146c60 0 110 28 131 84h111c-27 -104 -119 -174 -244 -174c-153 0 -254 106 -254 267c0 160 101 266 253 266c149 0 250 -102 250 -256zM303 436c-73 0 -133 -45 -141 -134
h280c-6 89 -65 134 -139 134z" />
    <glyph glyph-name="igrave" unicode="&#xec;" horiz-adv-x="240" 
d="M164 576h-89l-98 140h104zM65 0v512h109v-512h-109z" />
    <glyph glyph-name="iacute" unicode="&#xed;" horiz-adv-x="240" 
d="M75 576l83 140h104l-98 -140h-89zM65 0v512h109v-512h-109z" />
    <glyph glyph-name="icircumflex" unicode="&#xee;" horiz-adv-x="240" 
d="M118 649l53 -73h99l-104 140h-94l-104 -140h97zM65 0v512h109v-512h-109z" />
    <glyph glyph-name="idieresis" unicode="&#xef;" horiz-adv-x="240" 
d="M-35 586v107h114v-107h-114zM159 586v107h113v-107h-113zM65 0v512h109v-512h-109z" />
    <glyph glyph-name="eth" unicode="&#xf0;" horiz-adv-x="618" 
d="M443 626c80 -94 131 -215 131 -339c0 -195 -125 -296 -273 -296c-142 0 -254 101 -254 268c0 165 112 257 249 257c54 0 99 -16 130 -42c-20 39 -45 76 -75 110l-109 -49v80l56 25c-38 35 -80 67 -127 94h150c24 -16 47 -33 69 -53l122 55v-79zM303 88
c86 0 156 62 156 169c-3 109 -70 168 -156 168c-87 0 -153 -62 -153 -168c0 -107 68 -169 153 -169z" />
    <glyph glyph-name="ntilde" unicode="&#xf1;" horiz-adv-x="598" 
d="M223 590h-63c-3 74 30 118 88 118c60 0 94 -43 131 -43c22 0 36 14 37 40h62c3 -74 -29 -118 -88 -118c-60 0 -94 43 -131 43c-21 0 -36 -14 -36 -40zM334 522c129 0 205 -85 205 -216v-306h-110v283c0 96 -49 143 -124 143c-85 0 -131 -60 -131 -151v-275h-109v512h99
l8 -69c29 49 84 79 162 79z" />
    <glyph glyph-name="ograve" unicode="&#xf2;" horiz-adv-x="621" 
d="M355 576h-89l-98 140h104zM47 256c0 158 108 267 263 267c156 0 264 -109 264 -267s-108 -266 -264 -266c-155 0 -263 108 -263 266zM159 257c0 -105 60 -173 151 -173c92 0 152 68 152 173c0 106 -60 173 -152 173c-91 0 -151 -67 -151 -173z" />
    <glyph glyph-name="oacute" unicode="&#xf3;" horiz-adv-x="621" 
d="M266 576l83 140h104l-98 -140h-89zM47 256c0 158 108 267 263 267c156 0 264 -109 264 -267s-108 -266 -264 -266c-155 0 -263 108 -263 266zM159 257c0 -105 60 -173 151 -173c92 0 152 68 152 173c0 106 -60 173 -152 173c-91 0 -151 -67 -151 -173z" />
    <glyph glyph-name="ocircumflex" unicode="&#xf4;" horiz-adv-x="621" 
d="M309 649l53 -73h99l-104 140h-94l-104 -140h97zM47 256c0 158 108 267 263 267c156 0 264 -109 264 -267s-108 -266 -264 -266c-155 0 -263 108 -263 266zM159 257c0 -105 60 -173 151 -173c92 0 152 68 152 173c0 106 -60 173 -152 173c-91 0 -151 -67 -151 -173z" />
    <glyph glyph-name="otilde" unicode="&#xf5;" horiz-adv-x="621" 
d="M239 708c60 0 94 -43 131 -43c22 0 36 14 37 40h62c3 -74 -29 -118 -88 -118c-60 0 -94 43 -131 43c-21 0 -36 -14 -36 -40h-63c-3 74 30 118 88 118zM47 256c0 158 108 267 263 267c156 0 264 -109 264 -267s-108 -266 -264 -266c-155 0 -263 108 -263 266zM159 257
c0 -105 60 -173 151 -173c92 0 152 68 152 173c0 106 -60 173 -152 173c-91 0 -151 -67 -151 -173z" />
    <glyph glyph-name="odieresis" unicode="&#xf6;" horiz-adv-x="621" 
d="M156 586v107h114v-107h-114zM350 586v107h113v-107h-113zM47 256c0 158 108 267 263 267c156 0 264 -109 264 -267s-108 -266 -264 -266c-155 0 -263 108 -263 266zM159 257c0 -105 60 -173 151 -173c92 0 152 68 152 173c0 106 -60 173 -152 173
c-91 0 -151 -67 -151 -173z" />
    <glyph glyph-name="divide" unicode="&#xf7;" 
d="M301 447c-39 0 -70 30 -70 69c0 37 31 68 70 68c38 0 68 -31 68 -68c0 -39 -30 -69 -68 -69zM67 377h466v-102h-466v102zM301 68c-39 0 -70 30 -70 70c0 37 31 67 70 67c38 0 68 -30 68 -67c0 -40 -30 -70 -68 -70z" />
    <glyph glyph-name="oslash" unicode="&#xf8;" horiz-adv-x="622" 
d="M501 449c47 -47 74 -114 74 -193c0 -158 -108 -266 -264 -266c-48 0 -91 10 -128 29l-32 -43h-95l65 88c-46 46 -73 113 -73 192c0 158 107 266 263 266c48 0 91 -10 128 -29l32 43h95zM156 257c0 -43 10 -80 27 -109l201 270c-22 11 -46 17 -73 17
c-93 0 -155 -71 -155 -178zM311 78c93 0 156 71 156 179c0 42 -10 79 -28 108l-200 -270c21 -11 45 -17 72 -17z" />
    <glyph glyph-name="ugrave" unicode="&#xf9;" horiz-adv-x="579" 
d="M330 577h-89l-98 140h104zM409 513h105v-513h-98l-8 66c-28 -46 -79 -76 -145 -76c-128 0 -203 86 -203 217v306h105v-291c0 -93 48 -137 121 -136c80 1 123 58 123 146v281z" />
    <glyph glyph-name="uacute" unicode="&#xfa;" horiz-adv-x="579" 
d="M428 717l-98 -140h-89l83 140h104zM409 513h105v-513h-98l-8 66c-28 -46 -79 -76 -145 -76c-128 0 -203 86 -203 217v306h105v-291c0 -93 48 -137 121 -136c80 1 123 58 123 146v281z" />
    <glyph glyph-name="ucircumflex" unicode="&#xfb;" horiz-adv-x="579" 
d="M284 650l-53 -73h-97l104 140h94l104 -140h-99zM409 513h105v-513h-98l-8 66c-28 -46 -79 -76 -145 -76c-128 0 -203 86 -203 217v306h105v-291c0 -93 48 -137 121 -136c80 1 123 58 123 146v281z" />
    <glyph glyph-name="udieresis" unicode="&#xfc;" horiz-adv-x="579" 
d="M246 694v-107h-114v107h114zM439 694v-107h-113v107h113zM409 513h105v-513h-98l-8 66c-28 -46 -79 -76 -145 -76c-128 0 -203 86 -203 217v306h105v-291c0 -93 48 -137 121 -136c80 1 123 58 123 146v281z" />
    <glyph glyph-name="yacute" unicode="&#xfd;" horiz-adv-x="543" 
d="M227 576l83 140h104l-98 -140h-89zM127 512l152 -424l141 425l114 -1l-215 -594c-36 -100 -99 -118 -175 -118h-113v97h114c43 0 68 23 68 68c0 13 -3 26 -9 42l-195 505h118z" />
    <glyph glyph-name="thorn" unicode="&#xfe;" horiz-adv-x="641" 
d="M351 522c136 0 243 -95 243 -267c0 -166 -102 -265 -243 -265c-77 0 -145 31 -176 83v-273h-110v943h111v-305c32 50 97 84 175 84zM329 87c89 0 152 63 152 168s-62 170 -152 170c-86 1 -152 -65 -152 -171c0 -105 66 -167 152 -167z" />
    <glyph glyph-name="ydieresis" unicode="&#xff;" horiz-adv-x="543" 
d="M117 586v107h114v-107h-114zM311 586v107h113v-107h-113zM127 512l152 -424l141 425l114 -1l-215 -594c-36 -100 -99 -118 -175 -118h-113v97h114c43 0 68 23 68 68c0 13 -3 26 -9 42l-195 505h118z" />
    <glyph glyph-name="Amacron" unicode="&#x100;" horiz-adv-x="679" 
d="M484 866v-78h-293v78h293zM547 0l-61 163h-300l-61 -163h-115l273 712h114l272 -712h-122zM221 254h231l-115 309z" />
    <glyph glyph-name="amacron" unicode="&#x101;" horiz-adv-x="574" 
d="M429 677v-78h-293v78h293zM528 82h19v-82h-62c-42 0 -80 16 -88 65c-29 -45 -92 -75 -172 -75c-113 0 -185 59 -185 157c0 87 55 151 195 151h149v26c0 75 -45 110 -112 110c-68 0 -112 -34 -115 -87h-101c3 111 94 175 220 175c120 0 218 -60 218 -199v-207
c0 -28 11 -34 34 -34zM384 202v21h-134c-74 0 -97 -33 -97 -71c0 -52 41 -75 97 -75c76 0 134 41 134 125z" />
    <glyph glyph-name="Abreve" unicode="&#x102;" horiz-adv-x="679" 
d="M339 760c-82 0 -142 53 -140 141h77c-2 -42 21 -66 63 -66c40 0 64 24 63 66h76c2 -88 -58 -141 -139 -141zM547 0l-61 163h-300l-61 -163h-115l273 712h114l272 -712h-122zM221 254h231l-115 309z" />
    <glyph glyph-name="abreve" unicode="&#x103;" horiz-adv-x="574" 
d="M283 571c-82 0 -142 53 -140 141h77c-2 -42 21 -66 63 -66c40 0 64 24 63 66h76c2 -88 -58 -141 -139 -141zM528 82h19v-82h-62c-42 0 -80 16 -88 65c-29 -45 -92 -75 -172 -75c-113 0 -185 59 -185 157c0 87 55 151 195 151h149v26c0 75 -45 110 -112 110
c-68 0 -112 -34 -115 -87h-101c3 111 94 175 220 175c120 0 218 -60 218 -199v-207c0 -28 11 -34 34 -34zM384 202v21h-134c-74 0 -97 -33 -97 -71c0 -52 41 -75 97 -75c76 0 134 41 134 125z" />
    <glyph glyph-name="Aogonek" unicode="&#x104;" horiz-adv-x="679" 
d="M668 0c-49 -23 -74 -46 -74 -68c0 -20 12 -29 35 -29c11 0 23 3 34 8v-66c-21 -10 -40 -13 -59 -13c-49 0 -89 27 -89 73c0 32 16 66 70 95h-38l-61 163h-300l-61 -163h-115l273 712h114l272 -712h-1zM221 254h231l-115 309z" />
    <glyph glyph-name="aogonek" unicode="&#x105;" horiz-adv-x="574" 
d="M547 0c-49 -23 -74 -46 -74 -68c0 -20 12 -29 35 -29c11 0 23 3 34 8v-66c-21 -10 -40 -13 -59 -13c-49 0 -89 27 -89 73c0 33 17 67 72 96c-34 5 -62 22 -69 64c-29 -45 -92 -75 -172 -75c-113 0 -185 59 -185 157c0 87 55 151 195 151h149v26c0 75 -45 110 -112 110
c-68 0 -112 -34 -115 -87h-101c3 111 94 175 220 175c120 0 218 -60 218 -199v-207c0 -28 11 -34 34 -34h19v-82zM384 202v21h-134c-74 0 -97 -33 -97 -71c0 -52 41 -75 97 -75c76 0 134 41 134 125z" />
    <glyph glyph-name="Cacute" unicode="&#x106;" horiz-adv-x="747" 
d="M342 769l83 140h104l-98 -140h-89zM383 95c95 0 167 43 203 136h124c-39 -144 -156 -240 -328 -240c-204 0 -341 145 -341 360c0 214 134 371 345 371c168 0 285 -92 324 -239h-124c-35 91 -107 136 -202 136c-139 0 -226 -108 -226 -264c0 -155 86 -260 225 -260z" />
    <glyph glyph-name="cacute" unicode="&#x107;" horiz-adv-x="581" 
d="M257 577l83 140h104l-98 -140h-89zM429 328c-18 64 -67 100 -127 100c-85 0 -143 -62 -143 -171c0 -115 60 -171 140 -171c64 0 111 36 132 104h116c-26 -124 -120 -200 -246 -200c-152 0 -254 106 -254 267c0 160 102 266 255 266c125 0 218 -71 245 -195h-118z" />
    <glyph glyph-name="Ccircumflex" unicode="&#x108;" horiz-adv-x="747" 
d="M385 842l53 -73h99l-104 140h-94l-104 -140h97zM383 95c95 0 167 43 203 136h124c-39 -144 -156 -240 -328 -240c-204 0 -341 145 -341 360c0 214 134 371 345 371c168 0 285 -92 324 -239h-124c-35 91 -107 136 -202 136c-139 0 -226 -108 -226 -264
c0 -155 86 -260 225 -260z" />
    <glyph glyph-name="ccircumflex" unicode="&#x109;" horiz-adv-x="581" 
d="M300 650l53 -73h99l-104 140h-94l-104 -140h97zM429 328c-18 64 -67 100 -127 100c-85 0 -143 -62 -143 -171c0 -115 60 -171 140 -171c64 0 111 36 132 104h116c-26 -124 -120 -200 -246 -200c-152 0 -254 106 -254 267c0 160 102 266 255 266c125 0 218 -71 245 -195
h-118z" />
    <glyph glyph-name="Cdotaccent" unicode="&#x10a;" horiz-adv-x="747" 
d="M326 802v113h121v-113h-121zM383 95c95 0 167 43 203 136h124c-39 -144 -156 -240 -328 -240c-204 0 -341 145 -341 360c0 214 134 371 345 371c168 0 285 -92 324 -239h-124c-35 91 -107 136 -202 136c-139 0 -226 -108 -226 -264c0 -155 86 -260 225 -260z" />
    <glyph glyph-name="cdotaccent" unicode="&#x10b;" horiz-adv-x="581" 
d="M241 609v113h121v-113h-121zM429 328c-18 64 -67 100 -127 100c-85 0 -143 -62 -143 -171c0 -115 60 -171 140 -171c64 0 111 36 132 104h116c-26 -124 -120 -200 -246 -200c-152 0 -254 106 -254 267c0 160 102 266 255 266c125 0 218 -71 245 -195h-118z" />
    <glyph glyph-name="Ccaron" unicode="&#x10c;" horiz-adv-x="747" 
d="M387 836l-53 73h-98l103 -140h95l104 140h-97zM383 95c95 0 167 43 203 136h124c-39 -144 -156 -240 -328 -240c-204 0 -341 145 -341 360c0 214 134 371 345 371c168 0 285 -92 324 -239h-124c-35 91 -107 136 -202 136c-139 0 -226 -108 -226 -264
c0 -155 86 -260 225 -260z" />
    <glyph glyph-name="ccaron" unicode="&#x10d;" horiz-adv-x="581" 
d="M302 644l-53 73h-98l103 -140h95l104 140h-97zM429 328c-18 64 -67 100 -127 100c-85 0 -143 -62 -143 -171c0 -115 60 -171 140 -171c64 0 111 36 132 104h116c-26 -124 -120 -200 -246 -200c-152 0 -254 106 -254 267c0 160 102 266 255 266c125 0 218 -71 245 -195
h-118z" />
    <glyph glyph-name="Dcaron" unicode="&#x10e;" horiz-adv-x="718" 
d="M311 832l-53 73h-98l103 -140h95l104 140h-97zM72 0h247c226 0 358 145 358 356c0 210 -132 356 -358 356h-247v-712zM185 101v511h134c149 0 240 -96 240 -253c0 -158 -91 -258 -240 -258h-134z" />
    <glyph glyph-name="dcaron" unicode="&#x10f;" horiz-adv-x="676" 
d="M466 437v306h110v-743h-100l-9 78c-31 -52 -98 -88 -177 -88c-141 0 -243 98 -243 265c0 172 107 268 243 268c80 0 145 -34 176 -86zM639 743h97l-45 -182h-70zM312 87c86 0 152 62 152 168c0 105 -66 171 -152 170c-90 0 -152 -66 -152 -170c0 -106 63 -168 152 -168z
" />
    <glyph glyph-name="Dcroat" unicode="&#x110;" horiz-adv-x="730" 
d="M331 712c226 0 358 -146 358 -356c0 -211 -132 -356 -358 -356h-247v310h-66v95h66v307h247zM331 101c149 0 240 100 240 258c0 157 -91 253 -240 253h-134v-207h114v-95h-114v-209h134z" />
    <glyph glyph-name="dcroat" unicode="&#x111;" horiz-adv-x="646" 
d="M633 660v-87h-57v-573h-100l-9 78c-31 -52 -98 -88 -177 -88c-141 0 -243 98 -243 265c0 172 107 268 243 268c80 0 145 -34 176 -86v136h-160v87h160v83h110v-83h57zM312 87c86 0 152 62 152 168c0 105 -66 171 -152 170c-90 0 -152 -66 -152 -170
c0 -106 63 -168 152 -168z" />
    <glyph glyph-name="Emacron" unicode="&#x112;" 
d="M453 866v-78h-293v78h293zM185 101h379v-101h-492v712h476v-100h-363v-204h282v-99h-282v-208z" />
    <glyph glyph-name="emacron" unicode="&#x113;" 
d="M449 677v-78h-293v78h293zM553 267v-41h-392c2 -96 65 -146 145 -146c60 0 110 28 131 84h111c-27 -104 -119 -174 -244 -174c-153 0 -254 106 -254 267c0 160 101 266 253 266c149 0 250 -102 250 -256zM303 436c-73 0 -133 -45 -141 -134h280c-6 89 -65 134 -139 134z
" />
    <glyph glyph-name="Ebreve" unicode="&#x114;" 
d="M307 760c-82 0 -142 53 -140 141h77c-2 -42 21 -66 63 -66c40 0 64 24 63 66h76c2 -88 -58 -141 -139 -141zM185 101h379v-101h-492v712h476v-100h-363v-204h282v-99h-282v-208z" />
    <glyph glyph-name="ebreve" unicode="&#x115;" 
d="M303 571c-82 0 -142 53 -140 141h77c-2 -42 21 -66 63 -66c40 0 64 24 63 66h76c2 -88 -58 -141 -139 -141zM553 267v-41h-392c2 -96 65 -146 145 -146c60 0 110 28 131 84h111c-27 -104 -119 -174 -244 -174c-153 0 -254 106 -254 267c0 160 101 266 253 266
c149 0 250 -102 250 -256zM303 436c-73 0 -133 -45 -141 -134h280c-6 89 -65 134 -139 134z" />
    <glyph glyph-name="Edotaccent" unicode="&#x116;" 
d="M367 910v-113h-121v113h121zM185 101h379v-101h-492v712h476v-100h-363v-204h282v-99h-282v-208z" />
    <glyph glyph-name="edotaccent" unicode="&#x117;" 
d="M363 722v-113h-121v113h121zM553 267v-41h-392c2 -96 65 -146 145 -146c60 0 110 28 131 84h111c-27 -104 -119 -174 -244 -174c-153 0 -254 106 -254 267c0 160 101 266 253 266c149 0 250 -102 250 -256zM303 436c-73 0 -133 -45 -141 -134h280c-6 89 -65 134 -139 134
z" />
    <glyph glyph-name="Eogonek" unicode="&#x118;" 
d="M564 0c-49 -23 -74 -46 -74 -68c0 -20 12 -29 35 -29c11 0 23 3 34 8v-66c-21 -10 -40 -13 -59 -13c-49 0 -89 27 -89 73c0 32 16 66 70 95h-409v712h476v-100h-363v-204h282v-99h-282v-208h379v-101z" />
    <glyph glyph-name="eogonek" unicode="&#x119;" 
d="M553 267v-41h-392c2 -96 65 -146 145 -146c60 0 110 28 131 84h111c-20 -78 -77 -137 -157 -162c-46 -22 -69 -44 -69 -65c0 -20 12 -29 35 -29c11 0 23 3 34 8v-66c-21 -10 -40 -13 -59 -13c-49 0 -89 27 -89 73c0 27 11 55 46 80c-144 7 -239 111 -239 267
c0 160 101 266 253 266c149 0 250 -102 250 -256zM303 436c-73 0 -133 -45 -141 -134h280c-6 89 -65 134 -139 134z" />
    <glyph glyph-name="Ecaron" unicode="&#x11a;" 
d="M354 765h-95l-103 140h98l53 -73l54 73h97zM185 101h379v-101h-492v712h476v-100h-363v-204h282v-99h-282v-208z" />
    <glyph glyph-name="ecaron" unicode="&#x11b;" 
d="M350 577h-95l-103 140h98l53 -73l54 73h97zM553 267v-41h-392c2 -96 65 -146 145 -146c60 0 110 28 131 84h111c-27 -104 -119 -174 -244 -174c-153 0 -254 106 -254 267c0 160 101 266 253 266c149 0 250 -102 250 -256zM303 436c-73 0 -133 -45 -141 -134h280
c-6 89 -65 134 -139 134z" />
    <glyph glyph-name="Gcircumflex" unicode="&#x11c;" horiz-adv-x="774" 
d="M389 842l-53 -73h-97l104 140h94l104 -140h-99zM379 398h335v-399h-93l-12 100c-51 -70 -133 -108 -235 -108c-194 0 -333 139 -333 356c0 220 139 375 348 375c169 0 288 -91 322 -234h-125c-33 90 -107 131 -198 131c-139 0 -230 -104 -230 -264s90 -262 227 -262
c92 0 210 53 216 190l6 -2v22h-228v95z" />
    <glyph glyph-name="gcircumflex" unicode="&#x11d;" horiz-adv-x="616" 
d="M298 649l-53 -73h-97l104 140h94l104 -140h-99zM454 512h97v-480c0 -149 -100 -242 -252 -242c-129 0 -222 71 -239 178h109c16 -59 67 -88 131 -88c91 0 144 54 144 134v80c-29 -52 -92 -83 -167 -83c-133 0 -230 97 -230 255c0 160 97 256 231 256
c75 0 133 -30 165 -81zM300 107c85 0 142 63 142 158s-56 161 -142 161s-140 -66 -140 -161s54 -158 140 -158z" />
    <glyph glyph-name="Gbreve" unicode="&#x11e;" horiz-adv-x="774" 
d="M392 764c-82 0 -142 53 -140 141h77c-2 -42 21 -66 63 -66c40 0 64 24 63 66h76c2 -88 -58 -141 -139 -141zM379 398h335v-399h-93l-12 100c-51 -70 -133 -108 -235 -108c-194 0 -333 139 -333 356c0 220 139 375 348 375c169 0 288 -91 322 -234h-125
c-33 90 -107 131 -198 131c-139 0 -230 -104 -230 -264s90 -262 227 -262c92 0 210 53 216 190l6 -2v22h-228v95z" />
    <glyph glyph-name="gbreve" unicode="&#x11f;" horiz-adv-x="616" 
d="M301 571c-82 0 -142 53 -140 141h77c-2 -42 21 -66 63 -66c40 0 64 24 63 66h76c2 -88 -58 -141 -139 -141zM454 512h97v-480c0 -149 -100 -242 -252 -242c-129 0 -222 71 -239 178h109c16 -59 67 -88 131 -88c91 0 144 54 144 134v80c-29 -52 -92 -83 -167 -83
c-133 0 -230 97 -230 255c0 160 97 256 231 256c75 0 133 -30 165 -81zM300 107c85 0 142 63 142 158s-56 161 -142 161s-140 -66 -140 -161s54 -158 140 -158z" />
    <glyph glyph-name="Gdotaccent" unicode="&#x120;" horiz-adv-x="774" 
d="M451 915v-113h-121v113h121zM379 398h335v-399h-93l-12 100c-51 -70 -133 -108 -235 -108c-194 0 -333 139 -333 356c0 220 139 375 348 375c169 0 288 -91 322 -234h-125c-33 90 -107 131 -198 131c-139 0 -230 -104 -230 -264s90 -262 227 -262c92 0 210 53 216 190
l6 -2v22h-228v95z" />
    <glyph glyph-name="gdotaccent" unicode="&#x121;" horiz-adv-x="616" 
d="M360 722v-113h-121v113h121zM454 512h97v-480c0 -149 -100 -242 -252 -242c-129 0 -222 71 -239 178h109c16 -59 67 -88 131 -88c91 0 144 54 144 134v80c-29 -52 -92 -83 -167 -83c-133 0 -230 97 -230 255c0 160 97 256 231 256c75 0 133 -30 165 -81zM300 107
c85 0 142 63 142 158s-56 161 -142 161s-140 -66 -140 -161s54 -158 140 -158z" />
    <glyph glyph-name="Gcommaaccent" unicode="&#x122;" horiz-adv-x="774" 
d="M379 398h335v-399h-93l-12 100c-51 -70 -133 -108 -235 -108c-194 0 -333 139 -333 356c0 220 139 375 348 375c169 0 288 -91 322 -234h-125c-33 90 -107 131 -198 131c-139 0 -230 -104 -230 -264s90 -262 227 -262c92 0 210 53 216 190l6 -2v22h-228v95zM337 -162v101
h108v-101l-41 -86h-62l41 86h-46z" />
    <glyph glyph-name="gcommaaccent" unicode="&#x123;" horiz-adv-x="616" 
d="M352 686v-101h-107v101l40 86h63l-41 -86h45zM454 512h97v-480c0 -149 -100 -242 -252 -242c-129 0 -222 71 -239 178h109c16 -59 67 -88 131 -88c91 0 144 54 144 134v80c-29 -52 -92 -83 -167 -83c-133 0 -230 97 -230 255c0 160 97 256 231 256c75 0 133 -30 165 -81z
M300 107c85 0 142 63 142 158s-56 161 -142 161s-140 -66 -140 -161s54 -158 140 -158z" />
    <glyph glyph-name="Hcircumflex" unicode="&#x124;" horiz-adv-x="719" 
d="M358 838l53 -73h99l-104 140h-94l-104 -140h97zM534 310h-349v-310h-113v712h113v-298h349v298h113v-712h-113v310z" />
    <glyph glyph-name="hcircumflex" unicode="&#x125;" 
d="M119 844l-53 -73h-97l104 140h94l104 -140h-99zM336 523c97 0 204 -52 204 -227v-296h-109v279c0 99 -47 144 -123 143c-87 0 -134 -60 -134 -146v-276h-109v743h109v-297c30 48 88 77 162 77z" />
    <glyph glyph-name="Hbar" unicode="&#x126;" horiz-adv-x="731" 
d="M723 599v-81h-70v-518h-113v310h-349v-310h-113v518h-64v81h64v113h113v-113h349v113h113v-113h70zM540 414v104h-349v-104h349z" />
    <glyph glyph-name="hbar" unicode="&#x127;" horiz-adv-x="605" 
d="M341 523c97 0 204 -52 204 -227v-296h-109v279c0 99 -47 144 -123 143c-87 0 -134 -60 -134 -146v-276h-109v573h-56v87h56v83h109v-83h165v-87h-165v-127c30 48 88 77 162 77z" />
    <glyph glyph-name="Itilde" unicode="&#x128;" horiz-adv-x="257" 
d="M58 897c60 0 94 -43 131 -43c22 0 36 14 37 40h62c3 -74 -29 -118 -88 -118c-60 0 -94 43 -131 43c-21 0 -36 -14 -36 -40h-63c-3 74 30 118 88 118zM185 712v-712h-113v712h113z" />
    <glyph glyph-name="itilde" unicode="&#x129;" horiz-adv-x="240" 
d="M49 708c60 0 94 -43 131 -43c22 0 36 14 37 40h62c3 -74 -29 -118 -88 -118c-60 0 -94 43 -131 43c-21 0 -36 -14 -36 -40h-63c-3 74 30 118 88 118zM65 0v512h109v-512h-109z" />
    <glyph glyph-name="Imacron" unicode="&#x12a;" horiz-adv-x="257" 
d="M-18 866h293v-78h-293v78zM185 712v-712h-113v712h113z" />
    <glyph glyph-name="imacron" unicode="&#x12b;" horiz-adv-x="240" 
d="M-27 677h293v-78h-293v78zM65 0v512h109v-512h-109z" />
    <glyph glyph-name="Ibreve" unicode="&#x12c;" horiz-adv-x="257" 
d="M129 760c-82 0 -142 53 -140 141h77c-2 -42 21 -66 63 -66c40 0 64 24 63 66h76c2 -88 -58 -141 -139 -141zM185 712v-712h-113v712h113z" />
    <glyph glyph-name="ibreve" unicode="&#x12d;" horiz-adv-x="240" 
d="M120 571c-82 0 -142 53 -140 141h77c-2 -42 21 -66 63 -66c40 0 64 24 63 66h76c2 -88 -58 -141 -139 -141zM65 0v512h109v-512h-109z" />
    <glyph glyph-name="Iogonek" unicode="&#x12e;" horiz-adv-x="257" 
d="M72 712h113v-712h-1c-49 -23 -74 -46 -74 -68c0 -20 12 -29 35 -29c11 0 23 3 34 8v-66c-21 -10 -40 -13 -59 -13c-49 0 -89 27 -89 73c0 32 16 66 70 95h-29v712z" />
    <glyph glyph-name="iogonek" unicode="&#x12f;" horiz-adv-x="240" 
d="M59 722h121v-114h-121v114zM65 0v512h109v-512c-49 -23 -74 -46 -74 -68c0 -20 12 -29 35 -29c11 0 23 3 34 8v-66c-21 -10 -40 -13 -59 -13c-49 0 -89 27 -89 73c0 32 16 66 70 95h-26z" />
    <glyph glyph-name="Idotaccent" unicode="&#x130;" horiz-adv-x="257" 
d="M68 797v113h121v-113h-121zM185 712v-712h-113v712h113z" />
    <glyph glyph-name="dotlessi" unicode="&#x131;" horiz-adv-x="240" 
d="M65 0v512h109v-512h-109z" />
    <glyph glyph-name="IJ" unicode="&#x132;" horiz-adv-x="797" 
d="M185 712v-712h-113v712h113zM364 217c0 -77 47 -124 124 -124c74 0 123 44 123 129v490h112v-491c0 -149 -99 -231 -233 -231c-141 0 -236 80 -236 227h110z" />
    <glyph glyph-name="ij" unicode="&#x133;" horiz-adv-x="481" 
d="M59 608v114h121v-114h-121zM300 608v114h121v-114h-121zM65 0v512h109v-512h-109zM415 -47c0 -101 -53 -153 -153 -153h-65v97h53c43 0 56 24 56 60v555h109v-559z" />
    <glyph glyph-name="Jcircumflex" unicode="&#x134;" horiz-adv-x="561" 
d="M434 838l53 -73h99l-104 140h-94l-104 -140h97zM133 217c0 -77 47 -124 124 -124c74 0 123 44 123 129v490h112v-491c0 -149 -99 -231 -233 -231c-141 0 -236 80 -236 227h110z" />
    <glyph glyph-name="jcircumflex" unicode="&#x135;" horiz-adv-x="250" 
d="M128 649l53 -73h99l-104 140h-94l-104 -140h97zM184 -47c0 -101 -53 -153 -153 -153h-65v97h53c43 0 56 24 56 60v555h109v-559z" />
    <glyph glyph-name="Kcommaaccent" unicode="&#x136;" horiz-adv-x="668" 
d="M377 406l281 -406h-142l-222 319l-110 -121v-198h-112v712h112v-377l333 377h133zM278 -149v101h108v-101l-41 -86h-62l41 86h-46z" />
    <glyph glyph-name="kcommaaccent" unicode="&#x137;" horiz-adv-x="547" 
d="M315 292l221 -292h-138l-161 215l-60 -61v-154h-112v743h109v-458l224 228h136zM232 -144v101h108v-101l-41 -86h-62l41 86h-46z" />
    <glyph glyph-name="Lacute" unicode="&#x139;" horiz-adv-x="557" 
d="M84 765l83 140h104l-98 -140h-89zM185 104h342v-104h-455v712h113v-608z" />
    <glyph glyph-name="lacute" unicode="&#x13a;" horiz-adv-x="240" 
d="M75 777l83 140h104l-98 -140h-89zM174 743v-743h-109v743h109z" />
    <glyph glyph-name="Lcommaaccent" unicode="&#x13b;" horiz-adv-x="557" 
d="M185 104h342v-104h-455v712h113v-608zM253 -154v101h108v-101l-41 -86h-62l41 86h-46z" />
    <glyph glyph-name="lcommaaccent" unicode="&#x13c;" horiz-adv-x="240" 
d="M65 743h109v-743h-109v743zM66 -144v101h108v-101l-41 -86h-62l41 86h-46z" />
    <glyph glyph-name="Lcaron" unicode="&#x13d;" horiz-adv-x="557" 
d="M185 104h342v-104h-455v712h113v-608zM378 712l-45 -182h-70l18 182h97z" />
    <glyph glyph-name="lcaron" unicode="&#x13e;" horiz-adv-x="278" 
d="M174 743v-743h-109v743h109zM335 743l-45 -182h-70l18 182h97z" />
    <glyph glyph-name="Ldot" unicode="&#x13f;" horiz-adv-x="560" 
d="M185 104h342v-104h-455v712h113v-608zM402 358c-34 0 -62 29 -62 62c0 35 28 62 62 62s62 -27 62 -62c0 -33 -28 -62 -62 -62z" />
    <glyph glyph-name="ldot" unicode="&#x140;" horiz-adv-x="355" 
d="M174 743v-743h-109v743h109zM295 315c-34 0 -62 29 -62 62c0 35 28 62 62 62s62 -27 62 -62c0 -33 -28 -62 -62 -62z" />
    <glyph glyph-name="Lslash" unicode="&#x141;" horiz-adv-x="568" 
d="M193 104h342v-104h-455v312l-64 -41v102l64 41v298h113v-224l130 84v-102l-130 -84v-282z" />
    <glyph glyph-name="lslash" unicode="&#x142;" horiz-adv-x="269" 
d="M265 500v-96l-75 -28v-376h-110v335l-76 -29v95l76 29v314h110v-272z" />
    <glyph glyph-name="Nacute" unicode="&#x143;" horiz-adv-x="715" 
d="M315 765l83 140h104l-98 -140h-89zM72 0v712h116l344 -531v531h111v-712h-115l-345 525v-525h-111z" />
    <glyph glyph-name="nacute" unicode="&#x144;" horiz-adv-x="598" 
d="M461 716l-98 -140h-89l83 140h104zM334 522c129 0 205 -85 205 -216v-306h-110v283c0 96 -49 143 -124 143c-85 0 -131 -60 -131 -151v-275h-109v512h99l8 -69c29 49 84 79 162 79z" />
    <glyph glyph-name="Ncommaaccent" unicode="&#x145;" horiz-adv-x="715" 
d="M532 712h111v-712h-115l-345 525v-525h-111v712h116l344 -531v531zM303 -142v101h108v-101l-41 -86h-62l41 86h-46z" />
    <glyph glyph-name="ncommaaccent" unicode="&#x146;" horiz-adv-x="598" 
d="M334 522c129 0 205 -85 205 -216v-306h-110v283c0 96 -49 143 -124 143c-85 0 -131 -60 -131 -151v-275h-109v512h99l8 -69c29 49 84 79 162 79zM250 -144v101h108v-101l-41 -86h-62l41 86h-46z" />
    <glyph glyph-name="Ncaron" unicode="&#x147;" horiz-adv-x="715" 
d="M360 832l-53 73h-98l103 -140h95l104 140h-97zM72 0v712h116l344 -531v531h111v-712h-115l-345 525v-525h-111z" />
    <glyph glyph-name="ncaron" unicode="&#x148;" horiz-adv-x="598" 
d="M366 576h-95l-103 140h98l53 -73l54 73h97zM334 522c129 0 205 -85 205 -216v-306h-110v283c0 96 -49 143 -124 143c-85 0 -131 -60 -131 -151v-275h-109v512h99l8 -69c29 49 84 79 162 79z" />
    <glyph glyph-name="Eng" unicode="&#x14a;" horiz-adv-x="715" 
d="M531 0l-348 525v-525h-111v712h116l344 -524v524h111v-759c0 -101 -53 -153 -154 -153h-64v98h52c39 0 54 17 54 54v48z" />
    <glyph glyph-name="eng" unicode="&#x14b;" horiz-adv-x="602" 
d="M429 -43v335c0 91 -53 134 -125 134c-86 0 -134 -62 -134 -146v-280h-110v512h100l8 -62c34 47 94 72 163 72c126 0 208 -80 208 -213v-358c0 -98 -58 -156 -157 -156h-69v100h58c36 0 58 14 58 62z" />
    <glyph glyph-name="Omacron" unicode="&#x14c;" horiz-adv-x="768" 
d="M238 870h293v-78h-293v78zM385 -9c-205 0 -344 149 -344 363c0 215 139 368 344 368c204 0 342 -153 342 -368c0 -214 -138 -363 -342 -363zM385 97c139 0 222 102 222 258s-83 261 -222 261c-140 0 -224 -105 -224 -261s84 -258 224 -258z" />
    <glyph glyph-name="omacron" unicode="&#x14d;" horiz-adv-x="621" 
d="M164 676h293v-78h-293v78zM47 256c0 158 108 267 263 267c156 0 264 -109 264 -267s-108 -266 -264 -266c-155 0 -263 108 -263 266zM159 257c0 -105 60 -173 151 -173c92 0 152 68 152 173c0 106 -60 173 -152 173c-91 0 -151 -67 -151 -173z" />
    <glyph glyph-name="Obreve" unicode="&#x14e;" horiz-adv-x="768" 
d="M385 764c-82 0 -142 53 -140 141h77c-2 -42 21 -66 63 -66c40 0 64 24 63 66h76c2 -88 -58 -141 -139 -141zM385 -9c-205 0 -344 149 -344 363c0 215 139 368 344 368c204 0 342 -153 342 -368c0 -214 -138 -363 -342 -363zM385 97c139 0 222 102 222 258
s-83 261 -222 261c-140 0 -224 -105 -224 -261s84 -258 224 -258z" />
    <glyph glyph-name="obreve" unicode="&#x14f;" horiz-adv-x="621" 
d="M311 570c-82 0 -142 53 -140 141h77c-2 -42 21 -66 63 -66c40 0 64 24 63 66h76c2 -88 -58 -141 -139 -141zM47 256c0 158 108 267 263 267c156 0 264 -109 264 -267s-108 -266 -264 -266c-155 0 -263 108 -263 266zM159 257c0 -105 60 -173 151 -173
c92 0 152 68 152 173c0 106 -60 173 -152 173c-91 0 -151 -67 -151 -173z" />
    <glyph glyph-name="Ohungarumlaut" unicode="&#x150;" horiz-adv-x="768" 
d="M270 769l83 140h103l-98 -140h-88zM410 769l104 140h104l-119 -140h-89zM385 -9c-205 0 -344 149 -344 363c0 215 139 368 344 368c204 0 342 -153 342 -368c0 -214 -138 -363 -342 -363zM385 97c139 0 222 102 222 258s-83 261 -222 261c-140 0 -224 -105 -224 -261
s84 -258 224 -258z" />
    <glyph glyph-name="ohungarumlaut" unicode="&#x151;" horiz-adv-x="621" 
d="M196 576l83 140h103l-98 -140h-88zM336 576l104 140h104l-119 -140h-89zM47 256c0 158 108 267 263 267c156 0 264 -109 264 -267s-108 -266 -264 -266c-155 0 -263 108 -263 266zM159 257c0 -105 60 -173 151 -173c92 0 152 68 152 173c0 106 -60 173 -152 173
c-91 0 -151 -67 -151 -173z" />
    <glyph glyph-name="OE" unicode="&#x152;" horiz-adv-x="1137" 
d="M738 101h364v-101h-476v98c-51 -66 -138 -107 -243 -107c-200 0 -338 149 -338 363c0 215 138 368 343 368c101 0 186 -40 238 -105v95h459v-100h-347v-204h265v-99h-265v-208zM388 97c139 0 223 102 223 258s-84 261 -223 261c-140 0 -224 -105 -224 -261
s85 -258 224 -258z" />
    <glyph glyph-name="oe" unicode="&#x153;" horiz-adv-x="1007" 
d="M960 266v-40h-395c2 -94 67 -146 149 -146c61 0 109 28 130 84h109c-27 -104 -120 -174 -245 -174c-87 0 -159 35 -200 102c-41 -67 -115 -103 -203 -103c-155 0 -258 108 -258 267c0 158 103 266 258 266c88 0 160 -36 202 -101c41 66 113 102 200 102
c151 0 253 -103 253 -257zM565 300h284c-6 90 -67 135 -142 135c-76 0 -137 -46 -142 -135zM305 83c90 0 147 69 147 173s-57 173 -147 173s-147 -69 -147 -173s57 -173 147 -173z" />
    <glyph glyph-name="Racute" unicode="&#x154;" horiz-adv-x="664" 
d="M271 765l83 140h104l-98 -140h-89zM72 0v712h305c148 0 246 -88 246 -228c0 -110 -58 -194 -156 -219l141 -265h-127l-132 250h-165v-250h-112zM184 348h182c90 0 139 47 139 133c0 85 -49 131 -139 131h-182v-264z" />
    <glyph glyph-name="racute" unicode="&#x155;" horiz-adv-x="389" 
d="M364 716l-98 -140h-89l83 140h104zM300 512h67v-98h-73c-85 0 -118 -54 -118 -141v-273h-110v512h100l13 -66c19 36 62 66 121 66z" />
    <glyph glyph-name="Rcommaaccent" unicode="&#x156;" horiz-adv-x="664" 
d="M623 484c0 -110 -58 -194 -156 -219l141 -265h-127l-132 250h-165v-250h-112v712h305c148 0 246 -88 246 -228zM184 348h182c90 0 139 47 139 133c0 85 -49 131 -139 131h-182v-264zM273 -142v101h108v-101l-41 -86h-62l41 86h-46z" />
    <glyph glyph-name="rcommaaccent" unicode="&#x157;" horiz-adv-x="389" 
d="M300 512h67v-98h-73c-85 0 -118 -54 -118 -141v-273h-110v512h100l13 -66c19 36 62 66 121 66zM67 -142v101h108v-101l-41 -86h-62l41 86h-46z" />
    <glyph glyph-name="Rcaron" unicode="&#x158;" horiz-adv-x="664" 
d="M316 832l-53 73h-98l103 -140h95l104 140h-97zM72 0v712h305c148 0 246 -88 246 -228c0 -110 -58 -194 -156 -219l141 -265h-127l-132 250h-165v-250h-112zM184 348h182c90 0 139 47 139 133c0 85 -49 131 -139 131h-182v-264z" />
    <glyph glyph-name="rcaron" unicode="&#x159;" horiz-adv-x="389" 
d="M269 576h-95l-103 140h98l53 -73l54 73h97zM179 446c19 36 62 66 121 66h67v-98h-73c-85 0 -118 -54 -118 -141v-273h-110v512h100z" />
    <glyph glyph-name="Sacute" unicode="&#x15a;" horiz-adv-x="622" 
d="M262 769l83 140h104l-98 -140h-89zM584 199c0 -132 -119 -209 -272 -209c-174 0 -281 85 -281 212h116c0 -68 56 -115 166 -115c86 0 153 41 153 110c0 62 -38 89 -113 103l-115 22c-126 23 -192 92 -192 195c0 120 102 205 262 205c144 0 264 -66 264 -210h-113
c0 77 -61 116 -154 116c-82 0 -142 -38 -142 -103c0 -58 36 -87 115 -102l115 -21c130 -24 191 -95 191 -203z" />
    <glyph glyph-name="sacute" unicode="&#x15b;" horiz-adv-x="517" 
d="M210 576l83 140h104l-98 -140h-89zM33 155h109c1 -53 50 -84 117 -84s107 25 107 70c0 39 -20 60 -78 69l-103 18c-100 17 -139 69 -139 142c0 92 91 152 207 152c125 0 216 -60 217 -162h-108c-1 52 -46 81 -109 81c-60 0 -98 -25 -98 -67c0 -37 26 -54 83 -64l101 -18
c95 -17 139 -64 139 -141c0 -106 -98 -161 -217 -161c-135 0 -226 65 -228 165z" />
    <glyph glyph-name="Scircumflex" unicode="&#x15c;" horiz-adv-x="622" 
d="M305 842l53 -73h99l-104 140h-94l-104 -140h97zM584 199c0 -132 -119 -209 -272 -209c-174 0 -281 85 -281 212h116c0 -68 56 -115 166 -115c86 0 153 41 153 110c0 62 -38 89 -113 103l-115 22c-126 23 -192 92 -192 195c0 120 102 205 262 205c144 0 264 -66 264 -210
h-113c0 77 -61 116 -154 116c-82 0 -142 -38 -142 -103c0 -58 36 -87 115 -102l115 -21c130 -24 191 -95 191 -203z" />
    <glyph glyph-name="scircumflex" unicode="&#x15d;" horiz-adv-x="517" 
d="M253 649l53 -73h99l-104 140h-94l-104 -140h97zM33 155h109c1 -53 50 -84 117 -84s107 25 107 70c0 39 -20 60 -78 69l-103 18c-100 17 -139 69 -139 142c0 92 91 152 207 152c125 0 216 -60 217 -162h-108c-1 52 -46 81 -109 81c-60 0 -98 -25 -98 -67
c0 -37 26 -54 83 -64l101 -18c95 -17 139 -64 139 -141c0 -106 -98 -161 -217 -161c-135 0 -226 65 -228 165z" />
    <glyph glyph-name="Scedilla" unicode="&#x15e;" horiz-adv-x="622" 
d="M584 199c0 -126 -109 -202 -252 -209l-13 -34c49 4 84 -21 84 -67c0 -45 -37 -74 -88 -74c-61 0 -95 33 -95 74h58c2 -15 14 -24 31 -24c16 0 28 9 28 26c0 23 -24 31 -50 24l-25 13l23 63c-158 8 -254 91 -254 211h116c0 -68 56 -115 166 -115c86 0 153 41 153 110
c0 62 -38 89 -113 103l-115 22c-126 23 -192 92 -192 195c0 120 102 205 262 205c144 0 264 -66 264 -210h-113c0 77 -61 116 -154 116c-82 0 -142 -38 -142 -103c0 -58 36 -87 115 -102l115 -21c130 -24 191 -95 191 -203z" />
    <glyph glyph-name="scedilla" unicode="&#x15f;" horiz-adv-x="517" 
d="M478 151c0 -100 -87 -155 -197 -160l-11 -31c49 4 84 -21 84 -67c0 -45 -37 -74 -88 -74c-61 0 -95 33 -95 74h58c2 -15 14 -24 31 -24c16 0 28 9 28 26c0 23 -24 31 -50 24l-25 13l22 59c-121 8 -200 71 -202 164h109c1 -53 50 -84 117 -84s107 25 107 70
c0 39 -20 60 -78 69l-103 18c-100 17 -139 69 -139 142c0 92 91 152 207 152c125 0 216 -60 217 -162h-108c-1 52 -46 81 -109 81c-60 0 -98 -25 -98 -67c0 -37 26 -54 83 -64l101 -18c95 -17 139 -64 139 -141z" />
    <glyph glyph-name="Scaron" unicode="&#x160;" horiz-adv-x="622" 
d="M307 836l-53 73h-98l103 -140h95l104 140h-97zM584 199c0 -132 -119 -209 -272 -209c-174 0 -281 85 -281 212h116c0 -68 56 -115 166 -115c86 0 153 41 153 110c0 62 -38 89 -113 103l-115 22c-126 23 -192 92 -192 195c0 120 102 205 262 205c144 0 264 -66 264 -210
h-113c0 77 -61 116 -154 116c-82 0 -142 -38 -142 -103c0 -58 36 -87 115 -102l115 -21c130 -24 191 -95 191 -203z" />
    <glyph glyph-name="scaron" unicode="&#x161;" horiz-adv-x="517" 
d="M255 643l-53 73h-98l103 -140h95l104 140h-97zM33 155h109c1 -53 50 -84 117 -84s107 25 107 70c0 39 -20 60 -78 69l-103 18c-100 17 -139 69 -139 142c0 92 91 152 207 152c125 0 216 -60 217 -162h-108c-1 52 -46 81 -109 81c-60 0 -98 -25 -98 -67
c0 -37 26 -54 83 -64l101 -18c95 -17 139 -64 139 -141c0 -106 -98 -161 -217 -161c-135 0 -226 65 -228 165z" />
    <glyph glyph-name="uni0162" unicode="&#x162;" horiz-adv-x="622" 
d="M22 712h578v-100h-233v-612h-112v612h-233v100zM257 -142v101h108v-101l-41 -86h-62l41 86h-46z" />
    <glyph glyph-name="uni0163" unicode="&#x163;" horiz-adv-x="360" 
d="M323 415h-119v-255c0 -41 12 -63 60 -63h58v-97h-89c-89 0 -138 50 -138 139v276h-86v97h44c32 0 42 16 42 48v89h109v-137h119v-97zM163 -142v101h108v-101l-41 -86h-62l41 86h-46z" />
    <glyph glyph-name="Tcaron" unicode="&#x164;" horiz-adv-x="622" 
d="M311 832l-53 73h-98l103 -140h95l104 140h-97zM367 612v-612h-112v612h-233v100h578v-100h-233z" />
    <glyph glyph-name="tcaron" unicode="&#x165;" horiz-adv-x="364" 
d="M366 743l-45 -182h-70l18 182h97zM233 0c-89 0 -138 50 -138 139v276h-86v97h44c32 0 42 16 42 48v89h109v-137h119v-97h-119v-255c0 -41 12 -63 60 -63h58v-97h-89z" />
    <glyph glyph-name="Tbar" unicode="&#x166;" horiz-adv-x="620" 
d="M600 612h-233v-214h108v-88h-108v-310h-112v310h-110v88h110v214h-233v100h578v-100z" />
    <glyph glyph-name="tbar" unicode="&#x167;" horiz-adv-x="375" 
d="M331 234h-120v-74c0 -41 12 -63 60 -63h58v-97h-89c-89 0 -138 50 -138 139v95h-82v87h82v94h-86v97h44c32 0 42 16 42 48v89h109v-137h119v-97h-119v-94h120v-87z" />
    <glyph glyph-name="Utilde" unicode="&#x168;" horiz-adv-x="705" 
d="M281 897c60 0 94 -43 131 -43c22 0 36 14 37 40h62c3 -74 -29 -118 -88 -118c-60 0 -94 43 -131 43c-21 0 -36 -14 -36 -40h-63c-3 74 30 118 88 118zM179 712v-445c0 -115 67 -177 173 -177c107 0 174 62 174 177v445h114v-439c0 -173 -111 -283 -288 -283
s-286 110 -286 283v439h113z" />
    <glyph glyph-name="utilde" unicode="&#x169;" horiz-adv-x="579" 
d="M190 591h-63c-3 74 30 118 88 118c60 0 94 -43 131 -43c22 0 36 14 37 40h62c3 -74 -29 -118 -88 -118c-60 0 -94 43 -131 43c-21 0 -36 -14 -36 -40zM409 513h105v-513h-98l-8 66c-28 -46 -79 -76 -145 -76c-128 0 -203 86 -203 217v306h105v-291
c0 -93 48 -137 121 -136c80 1 123 58 123 146v281z" />
    <glyph glyph-name="Umacron" unicode="&#x16a;" horiz-adv-x="705" 
d="M206 866h293v-78h-293v78zM179 712v-445c0 -115 67 -177 173 -177c107 0 174 62 174 177v445h114v-439c0 -173 -111 -283 -288 -283s-286 110 -286 283v439h113z" />
    <glyph glyph-name="umacron" unicode="&#x16b;" horiz-adv-x="579" 
d="M432 677v-78h-293v78h293zM409 513h105v-513h-98l-8 66c-28 -46 -79 -76 -145 -76c-128 0 -203 86 -203 217v306h105v-291c0 -93 48 -137 121 -136c80 1 123 58 123 146v281z" />
    <glyph glyph-name="Ubreve" unicode="&#x16c;" horiz-adv-x="705" 
d="M353 760c-82 0 -142 53 -140 141h77c-2 -42 21 -66 63 -66c40 0 64 24 63 66h76c2 -88 -58 -141 -139 -141zM179 712v-445c0 -115 67 -177 173 -177c107 0 174 62 174 177v445h114v-439c0 -173 -111 -283 -288 -283s-286 110 -286 283v439h113z" />
    <glyph glyph-name="ubreve" unicode="&#x16d;" horiz-adv-x="579" 
d="M286 571c-82 0 -142 53 -140 141h77c-2 -42 21 -66 63 -66c40 0 64 24 63 66h76c2 -88 -58 -141 -139 -141zM409 513h105v-513h-98l-8 66c-28 -46 -79 -76 -145 -76c-128 0 -203 86 -203 217v306h105v-291c0 -93 48 -137 121 -136c80 1 123 58 123 146v281z" />
    <glyph glyph-name="Uring" unicode="&#x16e;" horiz-adv-x="705" 
d="M233 834c0 73 56 117 120 117c65 0 120 -44 120 -117c0 -74 -55 -118 -120 -118c-64 0 -120 44 -120 118zM299 834c0 -33 24 -56 54 -56c31 0 55 23 55 56c0 32 -24 55 -55 55c-30 0 -54 -23 -54 -55zM179 712v-445c0 -115 67 -177 173 -177c107 0 174 62 174 177v445
h114v-439c0 -173 -111 -283 -288 -283s-286 110 -286 283v439h113z" />
    <glyph glyph-name="uring" unicode="&#x16f;" horiz-adv-x="579" 
d="M286 528c-64 0 -120 44 -120 118c0 73 56 117 120 117c65 0 120 -44 120 -117c0 -74 -55 -118 -120 -118zM286 701c-30 0 -54 -23 -54 -55c0 -33 24 -56 54 -56c31 0 55 23 55 56c0 32 -24 55 -55 55zM409 513h105v-513h-98l-8 66c-28 -46 -79 -76 -145 -76
c-128 0 -203 86 -203 217v306h105v-291c0 -93 48 -137 121 -136c80 1 123 58 123 146v281z" />
    <glyph glyph-name="Uhungarumlaut" unicode="&#x170;" horiz-adv-x="705" 
d="M238 765l83 140h103l-98 -140h-88zM378 765l104 140h104l-119 -140h-89zM179 712v-445c0 -115 67 -177 173 -177c107 0 174 62 174 177v445h114v-439c0 -173 -111 -283 -288 -283s-286 110 -286 283v439h113z" />
    <glyph glyph-name="uhungarumlaut" unicode="&#x171;" horiz-adv-x="579" 
d="M358 717l-98 -140h-88l83 140h103zM401 577h-89l104 140h104zM409 232v281h105v-513h-98l-8 66c-28 -46 -79 -76 -145 -76c-128 0 -203 86 -203 217v306h105v-291c0 -93 48 -137 121 -136c80 1 123 58 123 146z" />
    <glyph glyph-name="Uogonek" unicode="&#x172;" horiz-adv-x="705" 
d="M526 712h114v-439c0 -148 -81 -250 -216 -276c-46 -23 -69 -45 -69 -66c0 -20 12 -29 35 -29c11 0 23 3 34 8v-66c-21 -10 -40 -13 -59 -13c-49 0 -89 27 -89 73c0 29 13 60 55 87c-164 8 -265 116 -265 282v439h113v-445c0 -115 67 -177 173 -177c107 0 174 62 174 177
v445z" />
    <glyph glyph-name="uogonek" unicode="&#x173;" horiz-adv-x="579" 
d="M409 513h105v-513h-1c-49 -23 -74 -46 -74 -68c0 -20 12 -29 35 -29c11 0 23 3 34 8v-66c-21 -10 -40 -13 -59 -13c-49 0 -89 27 -89 73c0 32 16 66 70 95h-14l-8 66c-28 -46 -79 -76 -145 -76c-128 0 -203 86 -203 217v306h105v-291c0 -93 48 -137 121 -136
c80 1 123 58 123 146v281z" />
    <glyph glyph-name="Wcircumflex" unicode="&#x174;" horiz-adv-x="1004" 
d="M502 838l53 -73h99l-104 140h-94l-104 -140h97zM212 0l-197 712h118l147 -567l162 567h124l156 -568l152 568h115l-202 -712h-127l-159 558l-162 -558h-127z" />
    <glyph glyph-name="wcircumflex" unicode="&#x175;" horiz-adv-x="805" 
d="M403 649l53 -73h99l-104 140h-94l-104 -140h97zM132 512l100 -392l116 392h114l114 -392l97 392h115l-145 -512h-123l-116 390l-117 -390h-124l-146 512h115z" />
    <glyph glyph-name="Ycircumflex" unicode="&#x176;" horiz-adv-x="662" 
d="M330 838l53 -73h99l-104 140h-94l-104 -140h97zM272 248l-264 464h136l186 -345l190 345h134l-270 -464v-248h-112v248z" />
    <glyph glyph-name="ycircumflex" unicode="&#x177;" horiz-adv-x="543" 
d="M270 649l53 -73h99l-104 140h-94l-104 -140h97zM127 512l152 -424l141 425l114 -1l-215 -594c-36 -100 -99 -118 -175 -118h-113v97h114c43 0 68 23 68 68c0 13 -3 26 -9 42l-195 505h118z" />
    <glyph glyph-name="Ydieresis" unicode="&#x178;" horiz-adv-x="662" 
d="M178 775v107h114v-107h-114zM372 775v107h113v-107h-113zM272 248l-264 464h136l186 -345l190 345h134l-270 -464v-248h-112v248z" />
    <glyph glyph-name="Zacute" unicode="&#x179;" horiz-adv-x="592" 
d="M254 765l83 140h104l-98 -140h-89zM177 101h381v-101h-523v90l377 522h-367v100h504v-90z" />
    <glyph glyph-name="zacute" unicode="&#x17a;" horiz-adv-x="502" 
d="M207 571l83 140h104l-98 -140h-89zM181 97h279v-97h-416v95l278 320h-279v97h415v-95z" />
    <glyph glyph-name="Zdotaccent" unicode="&#x17b;" horiz-adv-x="592" 
d="M238 797v113h121v-113h-121zM177 101h381v-101h-523v90l377 522h-367v100h504v-90z" />
    <glyph glyph-name="zdotaccent" unicode="&#x17c;" horiz-adv-x="502" 
d="M191 603v113h121v-113h-121zM181 97h279v-97h-416v95l278 320h-279v97h415v-95z" />
    <glyph glyph-name="Zcaron" unicode="&#x17d;" horiz-adv-x="592" 
d="M299 832l-53 73h-98l103 -140h95l104 140h-97zM177 101h381v-101h-523v90l377 522h-367v100h504v-90z" />
    <glyph glyph-name="zcaron" unicode="&#x17e;" horiz-adv-x="502" 
d="M251 638l-53 73h-98l103 -140h95l104 140h-97zM181 97h279v-97h-416v95l278 320h-279v97h415v-95z" />
    <glyph glyph-name="florin" unicode="&#x192;" horiz-adv-x="539" 
d="M427 617c-45 0 -57 -28 -63 -60l-33 -172h142v-88h-159l-56 -290c-17 -91 -61 -141 -153 -141h-66v95h56c40 0 57 20 64 56l53 280h-121v88h138l33 174c19 100 57 153 166 153h63v-95h-64z" />
    <glyph glyph-name="Aringacute" unicode="&#x1fa;" horiz-adv-x="679" 
d="M494 1067l-98 -140h-89l83 140h104zM547 0l-61 163h-300l-61 -163h-115l261 681c-29 20 -49 53 -49 97c0 73 56 117 120 117c65 0 120 -44 120 -117c0 -46 -21 -80 -52 -99l259 -679h-122zM342 833c-30 0 -54 -23 -54 -55c0 -33 24 -56 54 -56c31 0 55 23 55 56
c0 32 -24 55 -55 55zM221 254h231l-115 309z" />
    <glyph glyph-name="aringacute" unicode="&#x1fb;" horiz-adv-x="574" 
d="M425 862l-98 -140h-89l83 140h104zM528 82h19v-82h-62c-42 0 -80 16 -88 65c-29 -45 -92 -75 -172 -75c-113 0 -185 59 -185 157c0 87 55 151 195 151h149v26c0 75 -45 110 -112 110c-68 0 -112 -34 -115 -87h-101c2 82 52 138 129 162c-16 19 -26 45 -26 76
c0 73 56 117 120 117c65 0 120 -44 120 -117c0 -32 -10 -58 -27 -78c72 -26 122 -85 122 -184v-207c0 -28 11 -34 34 -34zM279 640c-30 0 -54 -23 -54 -55c0 -33 24 -56 54 -56c31 0 55 23 55 56c0 32 -24 55 -55 55zM384 202v21h-134c-74 0 -97 -33 -97 -71
c0 -52 41 -75 97 -75c76 0 134 41 134 125z" />
    <glyph glyph-name="AEacute" unicode="&#x1fc;" horiz-adv-x="1001" 
d="M619 783l83 140h104l-98 -140h-89zM0 0l438 712h511v-100h-348v-204h265v-99h-265v-208h364v-101h-472v168h-258l-101 -168h-134zM290 262h203v332z" />
    <glyph glyph-name="aeacute" unicode="&#x1fd;" horiz-adv-x="938" 
d="M590 715l-98 -140h-89l83 140h104zM890 265v-41h-394c2 -96 66 -144 143 -144c61 0 115 28 136 84h108c-26 -104 -119 -174 -239 -174c-95 0 -166 37 -208 102c-42 -72 -117 -102 -199 -102c-120 0 -197 56 -197 154c0 86 55 150 195 150h151v32c0 78 -51 109 -112 109
c-76 0 -115 -38 -118 -91h-99c3 112 91 178 213 178c79 0 143 -31 177 -87c43 56 109 88 195 88c147 0 248 -102 248 -258zM495 299h285c-6 90 -66 136 -142 136s-137 -46 -143 -136zM386 203v16h-136c-76 0 -97 -31 -97 -70c0 -51 42 -71 99 -71c77 0 134 41 134 125z" />
    <glyph glyph-name="Oslashacute" unicode="&#x1fe;" horiz-adv-x="775" 
d="M530 909l-98 -140h-89l83 140h104zM622 633c68 -66 108 -164 108 -279c0 -214 -138 -363 -342 -363c-61 0 -116 13 -163 37l-28 -42h-99l59 89c-71 65 -112 162 -112 279c0 215 138 368 343 368c62 0 119 -14 167 -40l29 44h99zM160 355c0 -77 20 -141 58 -187l279 426
c-31 17 -68 26 -109 26c-142 0 -228 -106 -228 -265zM388 93c141 0 226 104 226 262c0 75 -19 138 -54 184l-277 -423c30 -15 65 -23 105 -23z" />
    <glyph glyph-name="Scommaaccent" unicode="&#x218;" horiz-adv-x="622" 
d="M393 402c130 -24 191 -95 191 -203c0 -132 -119 -209 -272 -209c-174 0 -281 85 -281 212h116c0 -68 56 -115 166 -115c86 0 153 41 153 110c0 62 -38 89 -113 103l-115 22c-126 23 -192 92 -192 195c0 120 102 205 262 205c144 0 264 -66 264 -210h-113
c0 77 -61 116 -154 116c-82 0 -142 -38 -142 -103c0 -58 36 -87 115 -102zM255 -152v101h108v-101l-41 -86h-62l41 86h-46z" />
    <glyph glyph-name="scommaaccent" unicode="&#x219;" horiz-adv-x="517" 
d="M339 292c95 -17 139 -64 139 -141c0 -106 -98 -161 -217 -161c-135 0 -226 65 -228 165h109c1 -53 50 -84 117 -84s107 25 107 70c0 39 -20 60 -78 69l-103 18c-100 17 -139 69 -139 142c0 92 91 152 207 152c125 0 216 -60 217 -162h-108c-1 52 -46 81 -109 81
c-60 0 -98 -25 -98 -67c0 -37 26 -54 83 -64zM207 -148v101h108v-101l-41 -86h-62l41 86h-46z" />
    <glyph glyph-name="uni021A" unicode="&#x21a;" horiz-adv-x="622" 
d="M22 712h578v-100h-233v-612h-112v612h-233v100zM257 -142v101h108v-101l-41 -86h-62l41 86h-46z" />
    <glyph glyph-name="uni021B" unicode="&#x21b;" horiz-adv-x="360" 
d="M323 415h-119v-255c0 -41 12 -63 60 -63h58v-97h-89c-89 0 -138 50 -138 139v276h-86v97h44c32 0 42 16 42 48v89h109v-137h119v-97zM163 -142v101h108v-101l-41 -86h-62l41 86h-46z" />
    <glyph glyph-name="uni0237" unicode="&#x237;" horiz-adv-x="250" 
d="M184 -47c0 -101 -53 -153 -153 -153h-65v97h53c43 0 56 24 56 60v555h109v-559z" />
    <glyph glyph-name="uni02BB" unicode="&#x2bb;" horiz-adv-x="157" 
d="M87 706h45v-101h-107v101l40 86h63z" />
    <glyph glyph-name="uni02BC" unicode="&#x2bc;" horiz-adv-x="267" 
d="M259 743l-45 -182h-70l18 182h97z" />
    <glyph glyph-name="circumflex" unicode="&#x2c6;" horiz-adv-x="369" 
d="M183 687l53 -73h99l-104 140h-94l-104 -140h97z" />
    <glyph glyph-name="caron" unicode="&#x2c7;" horiz-adv-x="369" 
d="M185 681l-53 73h-98l103 -140h95l104 140h-97z" />
    <glyph glyph-name="breve" unicode="&#x2d8;" horiz-adv-x="323" 
d="M163 613c-82 0 -142 53 -140 141h77c-2 -42 21 -66 63 -66c40 0 64 24 63 66h76c2 -88 -58 -141 -139 -141z" />
    <glyph glyph-name="dotaccent" unicode="&#x2d9;" horiz-adv-x="215" 
d="M47 647v113h121v-113h-121z" />
    <glyph glyph-name="ring" unicode="&#x2da;" horiz-adv-x="287" 
d="M24 676c0 73 56 117 120 117c65 0 120 -44 120 -117c0 -74 -55 -118 -120 -118c-64 0 -120 44 -120 118zM90 676c0 -33 24 -56 54 -56c31 0 55 23 55 56c0 32 -24 55 -55 55c-30 0 -54 -23 -54 -55z" />
    <glyph glyph-name="ogonek" unicode="&#x2db;" horiz-adv-x="250" 
d="M194 -155c-21 -10 -40 -13 -59 -13c-49 0 -89 27 -89 73c0 35 19 72 84 102l69 -7c-49 -23 -74 -46 -74 -68c0 -20 12 -29 35 -29c11 0 23 3 34 8v-66z" />
    <glyph glyph-name="tilde" unicode="&#x2dc;" horiz-adv-x="361" 
d="M121 746c60 0 94 -43 131 -43c22 0 36 14 37 40h62c3 -74 -29 -118 -88 -118c-60 0 -94 43 -131 43c-21 0 -36 -14 -36 -40h-63c-3 74 30 118 88 118z" />
    <glyph glyph-name="hungarumlaut" unicode="&#x2dd;" horiz-adv-x="391" 
d="M37 614l83 140h103l-98 -140h-88zM177 614l104 140h104l-119 -140h-89z" />
    <glyph glyph-name="uni0326" unicode="&#x326;" horiz-adv-x="0" 
d="M-179 -10h108v-101l-41 -86h-62l41 86h-46v101z" />
    <glyph glyph-name="uni0335" unicode="&#x335;" horiz-adv-x="0" 
d="M-322 331h330v-88h-330v88z" />
    <glyph glyph-name="uni0336" unicode="&#x336;" horiz-adv-x="0" 
d="M-613 326h536v-81h-536v81z" />
    <glyph glyph-name="uni0337" unicode="&#x337;" horiz-adv-x="0" 
d="M-487 -31l410 572h95l-410 -572h-95z" />
    <glyph glyph-name="uni0338" unicode="&#x338;" horiz-adv-x="0" 
d="M-596 -14l464 740h98l-464 -740h-98z" />
    <glyph glyph-name="pi" unicode="&#x3c0;" horiz-adv-x="725" 
d="M669 433h-110v-276c0 -45 27 -50 55 -50h55v-107h-80c-95 0 -139 57 -139 139l-1 294h-181v-433h-110v433h-103v100h614v-100z" />
    <glyph glyph-name="Wgrave" unicode="&#x1e80;" horiz-adv-x="1004" 
d="M549 765h-89l-98 140h104zM212 0l-197 712h118l147 -567l162 567h124l156 -568l152 568h115l-202 -712h-127l-159 558l-162 -558h-127z" />
    <glyph glyph-name="wgrave" unicode="&#x1e81;" horiz-adv-x="805" 
d="M449 576h-89l-98 140h104zM132 512l100 -392l116 392h114l114 -392l97 392h115l-145 -512h-123l-116 390l-117 -390h-124l-146 512h115z" />
    <glyph glyph-name="Wacute" unicode="&#x1e82;" horiz-adv-x="1004" 
d="M459 765l83 140h104l-98 -140h-89zM212 0l-197 712h118l147 -567l162 567h124l156 -568l152 568h115l-202 -712h-127l-159 558l-162 -558h-127z" />
    <glyph glyph-name="wacute" unicode="&#x1e83;" horiz-adv-x="805" 
d="M360 576l83 140h104l-98 -140h-89zM132 512l100 -392l116 392h114l114 -392l97 392h115l-145 -512h-123l-116 390l-117 -390h-124l-146 512h115z" />
    <glyph glyph-name="Wdieresis" unicode="&#x1e84;" horiz-adv-x="1004" 
d="M350 775v107h114v-107h-114zM544 775v107h113v-107h-113zM212 0l-197 712h118l147 -567l162 567h124l156 -568l152 568h115l-202 -712h-127l-159 558l-162 -558h-127z" />
    <glyph glyph-name="wdieresis" unicode="&#x1e85;" horiz-adv-x="805" 
d="M251 586v107h114v-107h-114zM445 586v107h113v-107h-113zM132 512l100 -392l116 392h114l114 -392l97 392h115l-145 -512h-123l-116 390l-117 -390h-124l-146 512h115z" />
    <glyph glyph-name="Ygrave" unicode="&#x1ef2;" horiz-adv-x="662" 
d="M376 765h-89l-98 140h104zM272 248l-264 464h136l186 -345l190 345h134l-270 -464v-248h-112v248z" />
    <glyph glyph-name="ygrave" unicode="&#x1ef3;" horiz-adv-x="543" 
d="M316 576h-89l-98 140h104zM127 512l152 -424l141 425l114 -1l-215 -594c-36 -100 -99 -118 -175 -118h-113v97h114c43 0 68 23 68 68c0 13 -3 26 -9 42l-195 505h118z" />
    <glyph glyph-name="endash" unicode="&#x2013;" horiz-adv-x="639" 
d="M47 342h546v-101h-546v101z" />
    <glyph glyph-name="emdash" unicode="&#x2014;" horiz-adv-x="1000" 
d="M47 342h906v-101h-906v101z" />
    <glyph glyph-name="quoteleft" unicode="&#x2018;" horiz-adv-x="244" 
d="M51 472v138l64 116h65l-58 -116h69v-138h-140z" />
    <glyph glyph-name="quoteright" unicode="&#x2019;" horiz-adv-x="244" 
d="M64 472l58 117h-69v137h140v-137l-64 -117h-65z" />
    <glyph glyph-name="quotesinglbase" unicode="&#x201a;" horiz-adv-x="244" 
d="M53 0v138h140v-138l-64 -117h-65l58 117h-69z" />
    <glyph glyph-name="quotedblleft" unicode="&#x201c;" horiz-adv-x="433" 
d="M51 472v138l64 116h65l-58 -116h69v-138h-140zM241 472v138l64 116h65l-58 -116h69v-138h-140z" />
    <glyph glyph-name="quotedblright" unicode="&#x201d;" horiz-adv-x="433" 
d="M64 472l58 117h-69v137h140v-137l-64 -117h-65zM254 472l58 117h-69v137h140v-137l-64 -117h-65z" />
    <glyph glyph-name="quotedblbase" unicode="&#x201e;" horiz-adv-x="433" 
d="M53 0v138h140v-138l-64 -117h-65l58 117h-69zM243 0v138h140v-138l-64 -117h-65l58 117h-69z" />
    <glyph glyph-name="dagger" unicode="&#x2020;" horiz-adv-x="493" 
d="M443 548v-91h-151v-355h-91v355h-151v91h151v164h91v-164h151z" />
    <glyph glyph-name="daggerdbl" unicode="&#x2021;" horiz-adv-x="493" 
d="M443 463h-151v-112h151v-91h-151v-158h-91v158h-151v91h151v112h-151v91h151v158h91v-158h151v-91z" />
    <glyph glyph-name="bullet" unicode="&#x2022;" horiz-adv-x="401" 
d="M201 141c-88 0 -161 71 -161 161c0 87 72 160 161 160c87 0 160 -72 160 -160c0 -89 -72 -161 -160 -161z" />
    <glyph glyph-name="ellipsis" unicode="&#x2026;" horiz-adv-x="698" 
d="M52 0v140h140v-140h-140zM279 0v140h140v-140h-140zM506 0v140h139v-140h-139z" />
    <glyph glyph-name="perthousand" unicode="&#x2030;" horiz-adv-x="1301" 
d="M40 528c0 114 62 194 164 194c101 0 164 -78 164 -194c0 -115 -61 -194 -164 -194c-102 0 -164 78 -164 194zM184 0l444 712h103l-444 -712h-103zM275 528c0 58 -16 111 -71 111c-54 0 -71 -51 -71 -111c0 -59 15 -111 71 -111c55 0 71 50 71 111zM715 -10
c-102 0 -165 77 -165 194c0 114 62 194 165 194c100 0 164 -79 164 -194c0 -116 -62 -194 -164 -194zM1096 -10c-102 0 -164 76 -164 194c0 114 62 194 164 194c101 0 165 -79 165 -194c0 -114 -62 -194 -165 -194zM715 73c54 0 71 47 71 111c0 59 -15 110 -71 110
c-55 0 -71 -49 -71 -110c0 -62 16 -111 71 -111zM1096 73c54 0 71 47 71 111c0 59 -14 110 -71 110c-55 0 -71 -49 -71 -110c0 -62 16 -111 71 -111z" />
    <glyph glyph-name="guilsinglleft" unicode="&#x2039;" horiz-adv-x="369" 
d="M220 58l-184 229l184 225h117l-183 -225l183 -229h-117z" />
    <glyph glyph-name="guilsinglright" unicode="&#x203a;" horiz-adv-x="369" 
d="M150 513l182 -226l-182 -228h-118l183 228l-183 226h118z" />
    <glyph glyph-name="uni2042" unicode="&#x2042;" horiz-adv-x="681" 
d="M202 594l18 50l55 -18c21 -7 35 -14 45 -22c-5 13 -7 27 -7 49v59h54v-59c0 -22 -1 -36 -6 -49c11 8 23 16 44 22l56 19l18 -51l-56 -19c-21 -7 -37 -11 -51 -10c13 -8 23 -18 37 -36l36 -48l-44 -32l-34 47c-15 19 -22 34 -26 48c-4 -14 -12 -29 -26 -48l-35 -47l-45 32
l37 48c13 17 24 28 37 36c-15 -1 -30 2 -51 10zM25 306l17 50l56 -19c20 -7 34 -13 45 -22c-5 13 -7 28 -7 49v60h53v-60c0 -21 -1 -36 -6 -49c11 9 24 16 44 22l56 19l19 -51l-57 -19c-20 -7 -37 -10 -51 -10c13 -8 24 -18 37 -36l36 -48l-43 -32l-35 47
c-15 19 -22 34 -26 48c-4 -14 -12 -29 -26 -48l-34 -47l-46 32l37 48c14 17 24 28 38 36c-15 0 -30 3 -52 10zM380 306l17 50l56 -19c20 -7 34 -13 45 -22c-5 13 -7 28 -7 49v60h53v-60c0 -21 -1 -36 -6 -49c11 9 24 16 45 22l55 19l19 -51l-57 -19c-20 -7 -37 -10 -51 -10
c13 -8 24 -18 38 -36l35 -48l-43 -32l-35 47c-14 19 -22 34 -26 48c-4 -14 -12 -29 -25 -48l-35 -47l-46 32l38 48c13 17 23 28 37 36c-15 0 -30 3 -52 10z" />
    <glyph glyph-name="fraction" unicode="&#x2044;" horiz-adv-x="183" 
d="M-174 0l454 712h78l-455 -712h-77z" />
    <glyph glyph-name="Euro" unicode="&#x20ac;" horiz-adv-x="635" 
d="M407 93c55 0 105 17 141 47l59 -91c-55 -40 -123 -62 -201 -62c-163 0 -284 98 -327 246h-66v81h52c-1 13 -2 26 -2 40c0 15 1 29 2 43h-52v81h67c43 147 164 244 326 244c78 0 146 -22 201 -62l-59 -90c-36 30 -86 47 -141 47c-98 0 -170 -53 -204 -139h253l-10 -81
h-262c-1 -14 -2 -28 -2 -42s1 -28 2 -41h254l-7 -81h-228c33 -87 105 -140 204 -140z" />
    <glyph glyph-name="uni2116" unicode="&#x2116;" horiz-adv-x="1175" 
d="M733 525c0 119 77 198 193 198c117 0 194 -79 194 -198c0 -118 -77 -197 -194 -197c-116 0 -193 79 -193 197zM73 0v712h102l368 -518v518h110v-712h-102l-368 518v-518h-110zM824 526c0 -70 42 -113 103 -113c64 0 103 45 103 113c0 70 -41 113 -103 113
c-64 0 -103 -45 -103 -113zM786 184v87h280v-87h-280z" />
    <glyph glyph-name="uni2117" unicode="&#x2117;" horiz-adv-x="498" 
d="M458 513c0 -117 -91 -210 -209 -210c-116 0 -209 95 -209 210c0 114 93 209 209 209c118 0 209 -93 209 -209zM249 672c-91 0 -158 -72 -158 -159s67 -159 158 -159c93 0 159 69 159 159c0 87 -66 159 -159 159zM227 472h42c43 0 76 25 76 71c0 43 -30 72 -73 72h-91
v-208h46v65zM264 575c20 0 35 -11 35 -31s-15 -33 -35 -33h-37v64h37z" />
    <glyph glyph-name="trademark" unicode="&#x2122;" horiz-adv-x="621" 
d="M25 651v61h246v-61h-90v-230h-68v230h-88zM444 494l86 218h62v-291h-62v112c0 17 1 47 6 63l-66 -175h-51l-67 175c5 -14 6 -46 6 -63v-112h-62v291h62z" />
    <glyph glyph-name="estimated" unicode="&#x212e;" horiz-adv-x="779" 
d="M54 359c2 215 140 363 336 363s334 -125 334 -334c1 -16 1 -39 0 -54h-568v-183c53 -76 138 -120 246 -120c105 0 199 55 242 136l39 -14c-50 -100 -156 -162 -283 -162c-208 0 -348 149 -346 368zM156 556v-185h467v203c-51 69 -135 110 -233 108
c-102 -2 -184 -51 -234 -126z" />
    <glyph glyph-name="oneeighth" unicode="&#x215b;" horiz-adv-x="744" 
d="M106 347v296l-83 -39v67l83 41h69v-365h-69zM522 712h78l-455 -712h-77zM667 200c31 -15 55 -48 55 -88c0 -68 -54 -117 -138 -117c-82 0 -137 47 -137 116c0 40 25 74 55 89c-19 13 -37 38 -37 71c0 58 49 100 120 100c70 0 119 -42 119 -100c0 -33 -17 -58 -37 -71z
M585 315c-32 0 -55 -21 -55 -47c0 -28 23 -48 55 -48c31 0 54 20 54 48c0 26 -23 47 -54 47zM585 53c41 0 69 24 69 60c0 35 -28 57 -69 57c-42 0 -70 -22 -70 -57c0 -36 28 -60 70 -60z" />
    <glyph glyph-name="threeeighths" unicode="&#x215c;" horiz-adv-x="806" 
d="M280 450c0 -65 -55 -108 -127 -108c-82 0 -130 49 -130 122h65c-2 -43 29 -63 63 -63c36 0 59 21 59 51c0 31 -21 52 -58 52h-31v57h29c35 0 57 17 57 48c0 32 -24 49 -55 49c-36 0 -66 -21 -64 -63h-64c0 72 48 122 130 122c70 0 123 -38 123 -105
c0 -38 -17 -65 -47 -80c32 -15 50 -46 50 -82zM584 712h78l-455 -712h-77zM729 200c31 -15 55 -48 55 -88c0 -68 -54 -117 -138 -117c-82 0 -137 47 -137 116c0 40 25 74 55 89c-19 13 -37 38 -37 71c0 58 49 100 120 100c70 0 119 -42 119 -100c0 -33 -17 -58 -37 -71z
M647 315c-32 0 -55 -21 -55 -47c0 -28 23 -48 55 -48c31 0 54 20 54 48c0 26 -23 47 -54 47zM647 53c41 0 69 24 69 60c0 35 -28 57 -69 57c-42 0 -70 -22 -70 -57c0 -36 28 -60 70 -60z" />
    <glyph glyph-name="fiveeighths" unicode="&#x215d;" horiz-adv-x="813" 
d="M292 473c0 -82 -59 -131 -136 -131c-69 0 -130 39 -132 117h65c2 -36 29 -59 66 -59c40 0 66 29 66 71s-26 71 -67 71c-33 0 -56 -20 -63 -39h-64l37 209h206v-59h-150l-14 -72c13 10 33 17 61 17c74 0 125 -49 125 -125zM590 712h78l-455 -712h-77zM736 200
c31 -15 55 -48 55 -88c0 -68 -54 -117 -138 -117c-82 0 -137 47 -137 116c0 40 25 74 55 89c-19 13 -37 38 -37 71c0 58 49 100 120 100c70 0 119 -42 119 -100c0 -33 -17 -58 -37 -71zM654 315c-32 0 -55 -21 -55 -47c0 -28 23 -48 55 -48c31 0 54 20 54 48
c0 26 -23 47 -54 47zM654 53c41 0 69 24 69 60c0 35 -28 57 -69 57c-42 0 -70 -22 -70 -57c0 -36 28 -60 70 -60z" />
    <glyph glyph-name="seveneighths" unicode="&#x215e;" horiz-adv-x="764" 
d="M126 347h-69c13 100 62 213 126 306h-173v59h252v-59c-75 -92 -123 -207 -136 -306zM541 712h78l-455 -712h-77zM687 200c31 -15 55 -48 55 -88c0 -68 -54 -117 -138 -117c-82 0 -137 47 -137 116c0 40 25 74 55 89c-19 13 -37 38 -37 71c0 58 49 100 120 100
c70 0 119 -42 119 -100c0 -33 -17 -58 -37 -71zM605 315c-32 0 -55 -21 -55 -47c0 -28 23 -48 55 -48c31 0 54 20 54 48c0 26 -23 47 -54 47zM605 53c41 0 69 24 69 60c0 35 -28 57 -69 57c-42 0 -70 -22 -70 -57c0 -36 28 -60 70 -60z" />
    <glyph glyph-name="uni2160" unicode="&#x2160;" horiz-adv-x="521" 
d="M461 635h-146v-558h146v-77h-401v77h147v558h-147v77h401v-77z" />
    <glyph glyph-name="uni2161" unicode="&#x2161;" horiz-adv-x="826" 
d="M766 0h-706v77h138v558h-138v77h706v-77h-137v-558h137v-77zM520 635h-213v-558h213v558z" />
    <glyph glyph-name="uni2162" unicode="&#x2162;" horiz-adv-x="1153" 
d="M1093 0h-1033v79h140v555h-140v78h1033v-78h-141v-555h141v-79zM309 79h213v555h-213v-555zM843 634h-212v-555h212v555z" />
    <glyph glyph-name="uni2163" unicode="&#x2163;" horiz-adv-x="1156" 
d="M1096 0h-1036v78h149v556h-149v78h1035v-78h-111l-182 -556h294v-78zM318 78h279l-185 556h-94v-556zM870 634h-341l171 -537z" />
    <glyph glyph-name="uni2164" unicode="&#x2164;" horiz-adv-x="890" 
d="M830 634h-96l-185 -557h278v-77h-762v77h280l-184 557h-101v78h770v-78zM619 634h-344l172 -538z" />
    <glyph glyph-name="uni2165" unicode="&#x2165;" horiz-adv-x="1156" 
d="M1096 0h-1036v79h295l-184 555h-111v78h1036v-78h-142v-555h142v-79zM628 634h-342l171 -536zM558 79h288v555h-103z" />
    <glyph glyph-name="uni2166" unicode="&#x2166;" horiz-adv-x="1468" 
d="M1408 0h-1348v79h290l-182 555h-108v78h1347v-78h-148v-555h149v-79zM624 634h-342l170 -536zM552 79h288v555h-101zM1150 634h-201v-555h201v555z" />
    <glyph glyph-name="uni2167" unicode="&#x2167;" horiz-adv-x="1770" 
d="M1710 0h-1650v79h284l-179 555h-105v78h1649v-78h-143v-555h144v-79zM610 634h-330l165 -536zM546 79h289v555h-110zM944 79h202v555h-202v-555zM1255 79h203v555h-203v-555z" />
    <glyph glyph-name="uni2168" unicode="&#x2168;" horiz-adv-x="1103" 
d="M1043 0h-983v77h139v557h-139v78h982v-78h-90l-202 -285l194 -272h99v-77zM405 634h-98v-557h102l198 272zM678 414l153 220h-304zM530 77h290l-144 208z" />
    <glyph glyph-name="uni2169" unicode="&#x2169;" horiz-adv-x="874" 
d="M813 634h-103l-201 -284l193 -273h112v-77h-754v77h109l196 273l-203 284h-102v78h753v-78zM436 414l153 220h-304zM288 77h290l-143 208z" />
    <glyph glyph-name="arrowleft" unicode="&#x2190;" horiz-adv-x="833" 
d="M381 585l48 -48l-242 -242h586v-65h-587l242 -242l-47 -46l-321 321z" />
    <glyph glyph-name="arrowup" unicode="&#x2191;" horiz-adv-x="766" 
d="M60 393l322 319l324 -319l-46 -46l-245 240v-587h-66v587l-243 -240z" />
    <glyph glyph-name="arrowright" unicode="&#x2192;" horiz-adv-x="833" 
d="M452 584l321 -321l-321 -321l-48 47l243 243l-587 -1v66h587l-241 241z" />
    <glyph glyph-name="arrowdown" unicode="&#x2193;" horiz-adv-x="763" 
d="M703 284l-322 -321l-321 321l48 48l242 -243v587h65v-587l242 241z" />
    <glyph glyph-name="arrowboth" unicode="&#x2194;" horiz-adv-x="977" 
d="M690 31v96l101 103l-370 -1v1l-234 -1l103 -104v-95l-230 232l229 232v-97l-102 -102l232 2v1h141v-1l230 -1l-101 102v96l228 -231z" />
    <glyph glyph-name="arrowupdn" unicode="&#x2195;" horiz-adv-x="582" 
d="M323 -40l103 101h96l-232 -229l-230 229h94l103 -101l-1 231v141l1 230l-103 -101h-94l230 228l232 -228h-96l-103 101v-602z" />
    <glyph glyph-name="uni2196" unicode="&#x2196;" horiz-adv-x="647" 
d="M514 526v-68h-342l415 -414l-46 -47l-416 416v-342h-65v455h454z" />
    <glyph glyph-name="uni2197" unicode="&#x2197;" horiz-adv-x="648" 
d="M134 527h454v-455h-67v343l-415 -415l-46 47l414 414h-340v66z" />
    <glyph glyph-name="uni2198" unicode="&#x2198;" horiz-adv-x="647" 
d="M587 454v-454h-455v67h343l-415 415l47 46l414 -414v340h66z" />
    <glyph glyph-name="uni2199" unicode="&#x2199;" horiz-adv-x="648" 
d="M514 0h-454v455h67v-343l415 415l46 -46l-414 -415h340v-66z" />
    <glyph glyph-name="partialdiff" unicode="&#x2202;" horiz-adv-x="612" 
d="M340 712c137 -83 229 -243 229 -414c0 -168 -88 -308 -273 -308c-157 0 -257 104 -257 257c0 136 89 254 245 255c59 0 117 -21 145 -60c-52 137 -153 209 -253 270h164zM299 88c92 0 148 68 148 159c0 95 -59 158 -148 158c-91 -1 -147 -67 -147 -159s56 -158 147 -158z
" />
    <glyph glyph-name="emptyset" unicode="&#x2205;" horiz-adv-x="633" 
d="M586 495l-68 -72c33 -45 51 -102 51 -167c0 -150 -102 -264 -254 -264c-62 0 -116 19 -157 52l-66 -69l-48 44l69 73c-32 44 -50 101 -50 164c0 152 101 265 252 265c62 0 115 -19 157 -51l66 69zM165 256c0 -33 7 -63 20 -88l218 229c-24 18 -53 28 -88 28
c-92 0 -150 -74 -150 -169zM466 256c0 34 -7 65 -21 91l-218 -230c24 -18 53 -28 88 -28c93 0 151 73 151 167z" />
    <glyph glyph-name="product" unicode="&#x220f;" horiz-adv-x="696" 
d="M645 712v-102h-113v-612h-107v612h-157v-612h-107v612h-110v102h594z" />
    <glyph glyph-name="summation" unicode="&#x2211;" horiz-adv-x="593" 
d="M51 -85v97l214 297l-214 306v97h491v-101l-362 1l211 -304l-212 -290l363 -1v-102h-491z" />
    <glyph glyph-name="minus" unicode="&#x2212;" 
d="M67 381h466v-102h-466v102z" />
    <glyph glyph-name="radical" unicode="&#x221a;" horiz-adv-x="837" 
d="M812 810v-97h-196l-307 -815h-104l-144 384h104l92 -246l291 774h264z" />
    <glyph glyph-name="infinity" unicode="&#x221e;" horiz-adv-x="969" 
d="M257 54c-122 0 -216 91 -216 212c0 120 95 213 216 213c108 0 175 -68 227 -136c53 68 119 136 227 136c122 0 217 -94 217 -213s-93 -212 -217 -212c-106 0 -174 67 -227 136c-52 -69 -120 -136 -227 -136zM263 155c56 0 101 33 163 111c-60 76 -103 112 -163 112
c-67 0 -113 -51 -113 -112c0 -59 47 -111 113 -111zM706 155c66 0 113 51 113 111c0 61 -47 112 -113 112c-60 0 -102 -35 -163 -112c60 -75 103 -111 163 -111z" />
    <glyph glyph-name="integral" unicode="&#x222b;" horiz-adv-x="462" 
d="M316 813h84v-101h-85c-27 0 -40 -19 -40 -40v-696c0 -94 -55 -152 -145 -152h-68v101h68c31 0 44 19 44 44l-1 699c0 86 58 145 143 145z" />
    <glyph glyph-name="approxequal" unicode="&#x2248;" 
d="M322 473c31 -26 45 -41 75 -41s49 24 46 71h86c6 -95 -45 -162 -124 -162c-61 0 -93 28 -129 59c-28 24 -44 42 -74 42c-29 0 -49 -25 -46 -71h-86c-5 94 44 162 124 162c61 0 95 -32 128 -60zM322 244c31 -26 45 -41 75 -41s49 24 46 71h86c6 -95 -45 -162 -124 -162
c-61 0 -93 28 -129 59c-28 24 -44 42 -74 42c-29 0 -49 -25 -46 -71h-86c-5 94 44 162 124 162c61 0 95 -32 128 -60z" />
    <glyph glyph-name="notequal" unicode="&#x2260;" 
d="M504 393h-136l-51 -125h185v-95h-224l-41 -99h-81l41 99h-100v95h139l51 125h-188v95h227l40 97h81l-40 -97h97v-95z" />
    <glyph glyph-name="lessequal" unicode="&#x2264;" 
d="M510 603v-108l-312 -122l312 -123v-106l-419 171v116zM91 101h419v-101h-419v101z" />
    <glyph glyph-name="greaterequal" unicode="&#x2265;" 
d="M90 144v107l312 123l-312 121v108l419 -171v-116zM509 101v-101h-419v101h419z" />
    <glyph glyph-name="filledbox" unicode="&#x25a0;" horiz-adv-x="793" 
d="M41 712h711v-711h-711v711z" />
    <glyph glyph-name="uni25A1" unicode="&#x25a1;" horiz-adv-x="794" 
d="M41 712h712v-712h-712v712zM103 650v-587h588v587h-588z" />
    <glyph glyph-name="triagup" unicode="&#x25b2;" horiz-adv-x="948" 
d="M41 0h866l-434 715z" />
    <glyph glyph-name="uni25B3" unicode="&#x25b3;" horiz-adv-x="944" 
d="M41 0l430 712l432 -712h-862zM153 63h638l-319 527z" />
    <glyph glyph-name="lozenge" unicode="&#x25ca;" horiz-adv-x="608" 
d="M257 0l-216 355l216 357h92l218 -357l-218 -355h-92zM491 354l-187 311l-187 -311l187 -306z" />
    <glyph glyph-name="circle" unicode="&#x25cb;" horiz-adv-x="818" 
d="M408 -10c-203 0 -367 165 -367 368s165 368 367 368c203 0 369 -165 369 -368c0 -202 -166 -368 -369 -368zM408 53c169 0 306 137 306 305c0 169 -137 305 -306 305c-168 0 -305 -136 -305 -305s137 -305 305 -305z" />
    <glyph glyph-name="uni25CF" unicode="&#x25cf;" horiz-adv-x="824" 
d="M412 -19c-205 0 -371 166 -371 371s166 370 371 370s371 -165 371 -370s-166 -371 -371 -371z" />
    <glyph glyph-name="uni262E" unicode="&#x262e;" horiz-adv-x="818" 
d="M408 -12c-204 0 -369 165 -369 370c0 204 166 370 369 370c204 0 371 -166 371 -370c0 -203 -167 -370 -371 -370zM127 230l249 153v283c-156 -17 -277 -149 -277 -308c0 -45 10 -89 28 -128zM691 231c18 39 28 82 28 127c0 159 -121 290 -277 307v-283zM376 50v256
l-216 -134c51 -67 129 -113 216 -122zM442 50c87 10 164 56 215 123l-215 133v-256z" />
    <glyph glyph-name="uni2713" unicode="&#x2713;" horiz-adv-x="755" 
d="M672 550l50 -52l-435 -420l-215 241l55 51l162 -182z" />
    <glyph glyph-name="uniA7B6" unicode="&#xa7b6;" horiz-adv-x="779" 
d="M582 96h145v-96h-278v94c77 63 147 163 147 294c0 141 -78 225 -207 224c-128 0 -206 -84 -206 -224c0 -135 69 -231 147 -294v-94h-280v96h147c-82 83 -132 195 -132 306c0 194 125 320 324 320c200 0 325 -126 325 -320c0 -111 -50 -223 -132 -306z" />
    <glyph glyph-name="i.loclTRK" horiz-adv-x="240" 
d="M59 609v113h121v-113h-121zM65 0v512h109v-512h-109z" />
    <glyph glyph-name="f_f_t" horiz-adv-x="1022" 
d="M985 415h-119v-255c0 -41 12 -63 60 -63h58v-97h-89c-89 0 -138 50 -138 139v276h-215v-415h-110v415h-220v-415h-110v415h-84v97h84v83c0 97 46 149 157 149h75v-92h-56c-55 0 -66 -27 -66 -65v-75h220v83c0 97 46 149 157 149h71v-92h-53c-54 0 -65 -27 -65 -65v-75
h168c32 0 47 16 47 48v89h109v-137h119v-97z" />
    <glyph glyph-name="f_t" horiz-adv-x="692" 
d="M655 415h-119v-255c0 -41 12 -63 60 -63h59v-97h-90c-89 0 -138 50 -138 139v276h-215v-415h-110v415h-84v97h84v83c0 97 46 149 157 149h75v-92h-56c-55 0 -66 -27 -66 -65v-75h173c32 0 42 16 42 48v89h109v-137h119v-97z" />
    <glyph glyph-name="t_t" horiz-adv-x="687" 
d="M651 414h-119v-250c0 -41 12 -63 60 -63h59l-1 -101h-90c-88 0 -138 54 -138 139v275h-218v-250c0 -41 12 -63 60 -63h59v-101h-90c-88 0 -138 54 -138 139v275h-86v98h42c32 0 44 17 44 51v92h109v-143h174c32 0 44 17 44 51v92h110v-143h119v-98z" />
    <glyph glyph-name="zero.tf" horiz-adv-x="650" 
d="M323 722c180 0 281 -148 281 -366c0 -217 -101 -366 -281 -366c-179 0 -277 149 -277 366c0 218 98 366 277 366zM324 630c-109 0 -166 -106 -166 -274c0 -66 9 -122 26 -166l243 395c-27 29 -61 45 -103 45zM324 83c108 0 168 105 168 273c0 66 -9 122 -27 166
l-242 -396c26 -28 60 -43 101 -43z" />
    <glyph glyph-name="one.tf" horiz-adv-x="650" 
d="M407 104h179v-104h-481v104h192v495l-189 -80v110l189 83h110v-608z" />
    <glyph glyph-name="two.tf" horiz-adv-x="650" 
d="M430 275l-194 -171h329v-104h-480v100l270 242c65 60 96 100 97 155c1 78 -47 124 -130 124c-75 0 -130 -52 -134 -127h-109c6 147 117 228 244 228c140 0 244 -76 244 -215c0 -97 -55 -162 -137 -232z" />
    <glyph glyph-name="three.tf" horiz-adv-x="650" 
d="M457 367c78 -24 122 -90 122 -169c0 -129 -103 -208 -253 -208c-158 0 -255 92 -255 228h110c0 -86 56 -133 141 -133c87 0 139 47 139 117c0 71 -48 116 -140 116h-55v91h51c85 0 130 43 130 111c0 69 -50 108 -126 108c-85 0 -141 -46 -140 -133h-107
c0 136 92 227 250 227c141 0 238 -73 238 -197c0 -68 -37 -127 -105 -158z" />
    <glyph glyph-name="four.tf" horiz-adv-x="650" 
d="M389 0v139h-339v98l331 475h120v-474h99v-99h-99v-139h-112zM164 238h225v319z" />
    <glyph glyph-name="five.tf" horiz-adv-x="650" 
d="M338 485c143 0 241 -97 241 -244c0 -157 -110 -251 -257 -251c-131 0 -244 75 -251 215h108c7 -75 63 -120 140 -120c88 0 145 62 145 155c0 92 -57 154 -144 154c-66 0 -113 -38 -132 -79h-108l71 397h396v-97h-311l-35 -175c28 26 71 45 137 45z" />
    <glyph glyph-name="six.tf" horiz-adv-x="650" 
d="M344 492c132 0 244 -89 244 -248c0 -156 -110 -254 -253 -254s-274 95 -274 354c0 230 104 378 289 378c117 0 218 -65 239 -182h-109c-22 57 -68 86 -136 86c-112 0 -166 -87 -169 -213c32 49 94 79 169 79zM333 87c91 0 147 68 147 157s-56 156 -148 156
c-89 0 -150 -62 -150 -154c0 -91 60 -159 151 -159z" />
    <glyph glyph-name="seven.tf" horiz-adv-x="650" 
d="M436 614h-353v98h484v-91c-145 -188 -243 -421 -272 -621h-111c30 205 128 435 252 614z" />
    <glyph glyph-name="eight.tf" horiz-adv-x="650" 
d="M482 385c64 -32 109 -99 109 -176c0 -127 -104 -219 -266 -219c-161 0 -266 90 -266 217c0 76 45 146 109 178c-47 29 -82 80 -82 148c0 114 99 189 239 189c141 0 240 -75 240 -190c0 -67 -35 -118 -83 -147zM326 636c-80 0 -133 -41 -133 -106s53 -109 133 -109
c79 0 131 44 131 109s-52 106 -131 106zM326 84c93 0 154 49 154 125s-61 126 -154 126c-94 0 -156 -50 -156 -126s62 -125 156 -125z" />
    <glyph glyph-name="nine.tf" horiz-adv-x="650" 
d="M319 722c146 0 269 -103 269 -365c0 -215 -77 -367 -274 -367c-133 0 -222 75 -242 183h109c20 -60 74 -87 135 -87c110 0 159 87 159 192c0 7 0 13 -1 20c-32 -48 -93 -77 -168 -77c-130 0 -244 88 -244 248c0 156 108 253 257 253zM467 467c1 91 -60 159 -151 159
s-147 -69 -147 -157c0 -89 56 -156 148 -156c89 0 149 62 150 154z" />
    <glyph glyph-name="zero.dnom" horiz-adv-x="356" 
d="M177 371c-99 0 -153 -78 -153 -188s54 -188 153 -188s155 78 155 188s-56 188 -155 188zM264 183c0 -79 -32 -124 -87 -124s-85 45 -85 124c0 78 30 123 85 123s87 -45 87 -123z" />
    <glyph glyph-name="one.dnom" horiz-adv-x="219" 
d="M175 0h-69v298l-83 -40v66l83 42h69v-366z" />
    <glyph glyph-name="two.dnom" horiz-adv-x="307" 
d="M220 140l-89 -75h152v-65h-249v64l135 114c24 21 44 42 45 72c1 37 -23 57 -58 57s-61 -23 -62 -59h-67c2 80 60 123 130 123c73 0 128 -43 129 -115c1 -52 -33 -88 -66 -116z" />
    <glyph glyph-name="three.dnom" horiz-adv-x="304" 
d="M231 186c32 -15 49 -46 49 -83c0 -65 -55 -108 -127 -108c-82 0 -130 49 -130 123h65c-2 -44 29 -64 63 -64c36 0 59 22 59 52s-21 51 -58 51h-31v57h29c35 0 57 17 57 48c0 33 -24 49 -55 49c-36 0 -66 -21 -64 -63h-64c0 73 48 123 130 123c70 0 123 -39 123 -106
c0 -38 -16 -65 -46 -79z" />
    <glyph glyph-name="four.dnom" horiz-adv-x="327" 
d="M189 0v69h-171v59l168 238h70v-237h53v-60h-53v-69h-67zM92 129h97v143z" />
    <glyph glyph-name="five.dnom" horiz-adv-x="310" 
d="M167 251c74 0 125 -48 125 -125c0 -82 -59 -131 -136 -131c-69 0 -130 39 -132 117h65c2 -36 29 -58 66 -58c40 0 66 29 66 71c0 41 -26 70 -67 70c-33 0 -56 -20 -63 -39h-64l37 210h206v-60h-150l-15 -72c14 10 34 17 62 17z" />
    <glyph glyph-name="six.dnom" horiz-adv-x="327" 
d="M176 253c66 0 127 -45 127 -127s-60 -131 -133 -131c-69 0 -143 44 -143 181c0 118 55 195 150 195c65 0 117 -37 127 -99h-67c-9 27 -32 39 -63 39c-50 1 -73 -37 -75 -90c16 20 44 32 77 32zM168 54c41 0 68 31 68 72s-27 70 -68 70c-40 0 -68 -27 -68 -69
s27 -73 68 -73z" />
    <glyph glyph-name="seven.dnom" horiz-adv-x="272" 
d="M183 306h-173v60h252v-60c-75 -91 -123 -206 -136 -306h-69c13 100 62 213 126 306z" />
    <glyph glyph-name="eight.dnom" horiz-adv-x="319" 
d="M242 200c31 -15 55 -48 55 -88c0 -68 -54 -117 -138 -117c-82 0 -137 47 -137 116c0 40 25 74 55 89c-19 13 -37 38 -37 71c0 58 49 100 120 100c70 0 119 -42 119 -100c0 -33 -17 -58 -37 -71zM160 315c-32 0 -55 -21 -55 -47c0 -28 23 -48 55 -48c31 0 54 20 54 48
c0 26 -23 47 -54 47zM160 53c41 0 69 24 69 60c0 35 -28 57 -69 57c-42 0 -70 -22 -70 -57c0 -36 28 -60 70 -60z" />
    <glyph glyph-name="nine.dnom" horiz-adv-x="329" 
d="M163 371c71 0 138 -45 138 -188c0 -115 -43 -188 -143 -188c-73 0 -118 40 -127 98h66c8 -27 34 -40 62 -40c51 0 74 41 72 93c-17 -21 -44 -33 -78 -33c-66 0 -127 45 -127 127c0 81 60 131 137 131zM160 170c41 0 69 28 69 69c0 42 -28 73 -69 73s-68 -31 -68 -72
s27 -70 68 -70z" />
    <glyph glyph-name="zero.numr" horiz-adv-x="356" 
d="M177 717c-99 0 -154 -78 -154 -188c0 -109 55 -187 154 -187s156 78 156 187c0 110 -57 188 -156 188zM264 529c0 -78 -32 -124 -87 -124s-85 46 -85 124s30 125 85 125s87 -47 87 -125z" />
    <glyph glyph-name="one.numr" horiz-adv-x="219" 
d="M175 347h-69v296l-83 -39v67l83 41h69v-365z" />
    <glyph glyph-name="two.numr" horiz-adv-x="307" 
d="M220 486l-91 -75h154v-64h-249v63l135 115c24 21 44 41 45 72c1 37 -23 57 -58 57s-61 -23 -62 -59h-67c2 79 60 122 130 122c73 0 128 -43 129 -114c1 -52 -33 -88 -66 -117z" />
    <glyph glyph-name="three.numr" horiz-adv-x="304" 
d="M230 532c32 -15 50 -46 50 -82c0 -65 -55 -108 -127 -108c-82 0 -130 49 -130 122h65c-2 -43 29 -63 63 -63c36 0 59 21 59 51c0 31 -21 52 -58 52h-31v57h29c35 0 57 17 57 48c0 32 -24 49 -55 49c-36 0 -66 -21 -64 -63h-64c0 72 48 122 130 122c70 0 123 -38 123 -105
c0 -38 -17 -65 -47 -80z" />
    <glyph glyph-name="four.numr" horiz-adv-x="327" 
d="M189 347v69h-171v59l168 237h70v-237h53v-59h-53v-69h-67zM92 475h97v143z" />
    <glyph glyph-name="five.numr" horiz-adv-x="310" 
d="M167 598c74 0 125 -49 125 -125c0 -82 -59 -131 -136 -131c-69 0 -130 39 -132 117h65c2 -36 29 -59 66 -59c40 0 66 29 66 71s-26 71 -67 71c-33 0 -56 -20 -63 -39h-64l37 209h206v-59h-150l-14 -72c13 10 33 17 61 17z" />
    <glyph glyph-name="six.numr" horiz-adv-x="327" 
d="M176 600c66 0 125 -45 125 -127s-58 -131 -131 -131c-69 0 -143 44 -143 180c0 119 55 195 150 195c65 0 117 -37 127 -98h-67c-9 26 -32 39 -63 39c-50 1 -75 -38 -76 -91c16 20 44 33 78 33zM168 401c41 0 68 31 68 72s-27 70 -68 70c-40 0 -68 -28 -68 -70
c0 -41 27 -72 68 -72z" />
    <glyph glyph-name="seven.numr" horiz-adv-x="272" 
d="M183 653h-173v59h252v-59c-75 -92 -123 -207 -136 -306h-69c13 100 62 213 126 306z" />
    <glyph glyph-name="eight.numr" horiz-adv-x="319" 
d="M243 546c30 -15 54 -48 54 -87c0 -69 -54 -117 -138 -117c-82 0 -137 47 -137 116c0 39 25 73 55 89c-20 13 -37 38 -37 71c0 57 49 99 120 99c70 0 119 -41 119 -100c0 -33 -17 -57 -36 -71zM160 663c-32 0 -55 -22 -55 -48c0 -27 23 -48 55 -48c31 0 54 21 54 48
c0 26 -23 48 -54 48zM160 399c41 0 69 25 69 61c0 35 -28 57 -69 57c-42 0 -70 -22 -70 -57c0 -36 28 -61 70 -61z" />
    <glyph glyph-name="nine.numr" horiz-adv-x="329" 
d="M163 717c71 0 138 -44 138 -188c0 -115 -43 -187 -143 -187c-73 0 -118 40 -127 98h66c8 -28 34 -40 62 -40c51 -1 74 40 72 92c-17 -20 -44 -33 -78 -33c-66 0 -126 45 -126 127s59 131 136 131zM160 516c41 0 69 28 69 70s-28 72 -69 72s-68 -30 -68 -72
c0 -40 27 -70 68 -70z" />
    </font>
</defs>
</svg>
